<svg width="700" height="637.12" fill="none" version="1.1" viewBox="0 0 700 637.12" xmlns="http://www.w3.org/2000/svg">
 <g transform="translate(8.3084e-7 -29.344)">
  <path d="m688.01 449.35c14.4-88.268 35.399-366.54-69.793-370.65-118.34-4.6186-204.46 120.68-311.61 132-48.347 5.1059-108.34-47.679-153.79-30.439-73.052 27.707-121.31 112.55-139.08 188.61-21.489 91.996-26.209 222.81 49.748 279.01 69.662 51.543 183.44-19.247 269.29-31.104 82.346-11.373 192.24 5.2197 263-38.392 45.018-27.746 89.431-56.402 92.238-129.04" fill="#dcfae9" stroke-width="2.7148"/>
  <g transform="matrix(2.8503 0 0 2.8492 -45.717 -38.125)">
   <path d="m66.847 240.33c-13.17 0-23.843-6.007-23.843-13.42 0-7.409 10.673-13.42 23.843-13.42s23.846 6.011 23.846 13.42c0 7.413-10.676 13.42-23.846 13.42z" fill="#73e7b3" fill-opacity=".5"/>
   <path d="m66.127 220.96c0.553-2.566 0.688-6.929 0.724-12.749 0.013-2.125 0.013-6.494 0.01-10.15h-4.188s-0.48 17.747-0.53 19.876c-0.036 1.533-0.592 3.527-1.128 5.102 0.5 0.178 1.023 0.353 1.49 0.487 1.51 0.428 3.073 0 3.622-2.566z" fill="#97463a"/>
   <path d="m57.907 228.46s0.935 0.468 2.629-0.819c0.497-0.378 1.448-0.921 1.974-0.674 0.435 0.204 0.796 0.997 1.198 1.493 1.082 1.343 1.905 2.277 1.905 2.277s0.668-1.109 0.934-2.744c0.175-1.059 0.698-1.796 1.343-1.342 0.345 0.243 1.154 0.766 2.006 0.852 1.464 0.145 2.725 0.431 2.725 0.431s-3.014-3.083-3.165-6.047c-0.152-2.968-0.435-23.81-0.435-23.81h-2.161c3e-3 3.655 3e-3 8.024-0.01 10.149-0.036 5.821-0.171 10.183-0.724 12.749-0.55 2.567-2.112 2.994-3.622 2.567-0.468-0.135-0.991-0.31-1.491-0.487-0.207 0.612-0.414 1.168-0.579 1.599-0.608 1.543-2.527 3.806-2.527 3.806" fill="#723425"/>
   <path d="m56.227 193.91 0.273 0.184c0.04 1 0.524 2 1.307 2.721 1.592 1.47 4.053 1.71 6.027 0.924 1.704-0.681 2.918-2.395 3.307-4.244 4.188 0.98 10.876-6.501 12.387-8.962 2.082-3.402 4.283-7.988 2.628-11.953-0.549-1.323-1.372-2.382-2.382-2.797 1.191-1.112 2.363-2.184 3.218-3.674 1.105-1.925 2.833-6.755 3e-3 -7.92 1.093-1.441 1.721-3.148 1.162-4.922-0.691-2.161-2.586-2.947-4.504-2.697 0.332-0.408 0.69-0.787 1.072-1.142l-0.043 3e-3c1.402-2.151 2.975-5.017 2.688-7.419-0.115-0.954-0.536-1.724-1.164-2.168 1.316-2.04 2.382-4.29 3.257-6.36 1.589-3.764 3.073-8.129 2.582-12.272-0.565-4.767-5.385-9.311-9.718-6.906 0.635-2.178 0.582-4.359-0.26-6.622 1.033-1.382 2.056-2.764 3.06-4.129 3.036-4.139 5.668-8.686 6.297-13.868 0.414-3.445 0.089-8.544-3.159-10.686-2.596-1.711-5.399-0.451-7.692 1.224 0.52-1.635 2.586-3.619 1.908-5.238-0.71-1.694-2.415-0.375-2.938-0.23 2.178-4.258 3.356-9.17 3.402-13.736 0.017-1.919-0.112-4.176-2.434-4.505-1.129-0.157-2.08 0.287-2.846 0.991 0.24-1.55 0.302-3.139 0.312-4.514 0.02-2.247 0.059-5.031-1.665-6.695h-0.687c-0.444 0.477-0.859 0.924-1.25 1.388-0.681-3.254-2.392-8.656-5.33-8.666-1.708-7e-3 -2.567 2.119-3.281 3.362l-0.157 0.293c2.039-0.306 3.849 1.053 4.981 3.8 1.059 2.573 1.109 5.843 0.546 8.992 1.326-0.102 2.671 1.372 2.905 2.764 0.309 1.855-0.201 4.425-1.204 6.54 1.54-0.042 3.007 1.438 3.26 3.106 0.408 2.737-0.931 6.159-2.586 9.051l0.491 0.23c1.062 0.78 0.618 2.287 0.18 3.511 2.317 0.105 2.669 3.494 2.267 5.567-0.329 1.694-1.013 3.536-1.928 5.303 0.796-0.345 1.662-0.444 2.488-0.049 1.661 0.796 1.628 2.734 1.615 4.402 1.036-0.576 1.655-0.869 3.126 0.23 1.128 0.839 1.855 2.004 1.648 3.425-0.332 2.28-2.695 4.642-4.07 6.373-0.612 0.767-1.24 1.52-1.885 2.264 0.306 0.464 0.477 1.099 0.451 1.638-0.086 1.76-0.622 3.606-1.455 5.251 1.356 0.605 2.136 2.635 2.05 4.162-0.072 1.316-0.493 2.836-1.145 4.277 1.454-0.109 3.274 0.75 4.103 1.721 2.895 3.392 0.921 8.202-0.477 11.939 1.306-0.023 2.277 1.517 2.365 2.856 0.158 2.471-1.411 5.712-3.04 7.863 0.293 0.204 0.524 0.56 0.685 1.014 0.618 1.753-0.224 3.76-1.244 5.303 5.498 2.05 3.356 9.581 0.451 13.259-1.31 1.658-4.3 3.84-6.932 4.277-0.379 1.978-2.356 3.754-4.096 4.406-1.089 0.408-2.396 0.444-3.31-0.326-2.254 1.971-7.745 1.402-9.62-0.033-3.863-2.948-1.616-6.646 1.316-8.965-2.859-1.619-5.021-7.215-5.468-9.439-0.392-1.932 0.039-5.791 1.816-7.123-1.616-1.119-3.113-2.764-4.314-4.623-2.872 1.586-3.418 5.623-3.106 8.538 0.517 4.826 3.208 9.07 6.6 12.864-1.177 0.493-2.329 1.451-3.026 2.313-0.306 0.378-0.583 0.776-0.846 1.181-2.431 9.294 1.26 20.286 11.028 23.373" fill="#00ad87"/>
   <path d="m42.537 182.03c0.421 5.041 2.652 9.696 5.574 13.759 1.944 2.708 5.346 8.39 9.333 7.025 1.372 1.349 3.738 2.454 4.751 2.586 2.017 0.26 4.452-0.8 5.679-2.52 2.122 0.815 7.916-2.649 8.811-3.314 5.652-4.198 9.696-10.37 12.377-16.805 2.201-5.291 3.698-11.996-0.405-16.812l-0.52-0.533c0.872-1.557 1.563-3.188 2.037-4.824 0.816-2.819 1.349-6.238-0.892-8.557-2.164-2.234-5.527-2.83-8.557-2.593-0.382 0.356-0.74 0.734-1.073 1.142 1.919-0.25 3.814 0.536 4.505 2.698 0.559 1.773-0.07 3.481-1.162 4.922 2.83 1.164 1.102 5.994-3e-3 7.919-0.855 1.49-2.027 2.563-3.218 3.675 1.01 0.414 1.833 1.474 2.382 2.796 1.655 3.965-0.546 8.551-2.629 11.953-1.51 2.461-8.198 9.943-12.387 8.962-0.388 1.849-1.602 3.564-3.306 4.245-1.974 0.786-4.435 0.546-6.028-0.925-0.783-0.72-1.266-1.721-1.306-2.721l-0.273-0.184c-9.768-3.086-13.459-14.078-11.028-23.373-2.195 3.346-2.987 7.525-2.662 11.479" fill="#009c74"/>
   <path d="m49.907 150.28c-1.777 1.333-2.208 5.192-1.816 7.123 0.447 2.224 2.609 7.821 5.468 9.44-2.932 2.319-5.179 6.017-1.316 8.965 1.875 1.434 7.366 2.004 9.62 0.033 0.914 0.77 2.221 0.733 3.31 0.326 1.74-0.652 3.717-2.429 4.096-4.406 2.632-0.437 5.622-2.619 6.932-4.277 2.905-3.678 5.047-11.209-0.451-13.259 1.02-1.543 1.862-3.55 1.244-5.303-0.161-0.454-0.392-0.81-0.685-1.014 1.629-2.152 3.198-5.392 3.04-7.863-0.088-1.339-1.059-2.879-2.365-2.856 1.398-3.737 3.372-8.547 0.477-11.94-0.829-0.97-2.649-1.829-4.103-1.72 0.652-1.441 1.073-2.961 1.145-4.277 0.086-1.527-0.694-3.557-2.05-4.162 0.833-1.645 1.369-3.491 1.455-5.251 0.026-0.54-0.145-1.175-0.451-1.639 0.645-0.743 1.273-1.497 1.885-2.263 1.375-1.731 3.738-4.093 4.07-6.373 0.207-1.421-0.52-2.586-1.648-3.425-1.471-1.099-2.09-0.806-3.126-0.23 0.013-1.668 0.046-3.606-1.615-4.402-0.826-0.395-1.691-0.297-2.488 0.049 0.915-1.767 1.599-3.609 1.928-5.304 0.402-2.072 0.05-5.461-2.266-5.566 0.437-1.224 0.881-2.731-0.181-3.511l-0.491-0.23c1.655-2.892 2.994-6.314 2.586-9.051-0.253-1.668-1.72-3.149-3.26-3.106 1.003-2.115 1.513-4.685 1.204-6.541-0.234-1.391-1.579-2.865-2.905-2.763 0.562-3.149 0.513-6.419-0.546-8.992-1.132-2.747-2.942-4.106-4.981-3.8-1.422 2.51-2.613 5.149-3.577 7.867-1.977 5.599-2.974 11.557-2.971 17.496 4e-3 4.619 0.152 9.002 0.448 12.4-1.191-1.293-2.227-2.615-3.432-3.053-2.339-0.845-3.487 1.004-3.829 3.073-0.695 4.169 0.533 8.521 2.609 12.446-0.287-0.128-0.586-0.227-0.928-0.25-1.668-0.111-3.017 1.323-3.445 2.797-0.921 3.185 1.04 7.416 3.432 10.35-0.533 7e-3 -1.079 0.204-1.557 0.652-1.52 1.424-0.888 3.267 0.168 4.787-1.345-0.01-2.714 0.707-3.589 1.898-1.083 1.461-3.188 6.89 0.46 11.565-3.003 3.083 0.619 6.876 2.8 9.479-0.891 0.171-1.674 0.822-2.142 2.168-0.513 1.48-0.065 3.003 0.593 4.369 0.756 1.559 1.674 3.119 2.645 4.629-1.076-0.428-2.382-0.392-3.507 0.155l-0.208 0.138c1.201 1.859 2.698 3.504 4.314 4.622" fill="#1abc9c"/>
   <g transform="translate(-188.83 -514)" fill="#00ad87">
    <path d="m262.92 670.27-0.418 0.178c0.149 0.668 0.234 1.359 0.04 2.027-0.158 0.523-0.566 0.931-0.737 1.428-0.151-0.504-0.484-0.938-1.069-1.182-0.303-0.125-0.428 0.326-0.208 0.491 0.721 0.536 0.55 1.556 0.109 2.201-0.411 0.599-1.03 0.937-1.28 1.638l0.346 0.349c1.309-0.178 2.26-1.698 2.188-3.001l0.21 0.04c0.776-0.128 1.148-1.162 1.27-1.839 0.151-0.823 0.059-1.652-0.451-2.33"/>
    <path d="m244.7 677.08c-0.388-0.52-0.931-0.908-1.129-1.55-0.207-0.681 0.014-1.362 0.204-2.016l-0.362-0.28c-1.618 1.016-1.062 4.3 0.977 4.385l0.31-0.539"/>
    <path d="m250.55 676.26c-0.487-0.171-1.004-0.075-1.507-0.171-0.556-0.112-1.155-0.358-1.605-0.707l-0.392 0.306c0.694 1.007 2.517 2.152 3.646 1.109l-0.142-0.537"/>
    <path d="m247.43 682.45c-0.573-0.195-1.113-0.329-1.481-0.856-0.352-0.5-0.342-1.102-0.52-1.661l-0.411-0.109c-1.237 1.418 0.658 3.754 2.273 3.642 0.586-0.036 0.704-0.826 0.139-1.016z"/>
    <path d="m245.16 665.5c-0.56-0.494-1.359-0.708-1.807-1.333-0.487-0.674-0.306-1.437 0.056-2.112l-0.217-0.283c-0.592 0.125-0.911 0.599-1.033 1.145-0.329-0.256-0.698-0.428-0.895-0.875-0.266-0.605-0.069-1.24 0.128-1.833l-0.329-0.256c-0.842 0.47-1.092 1.553-0.802 2.438 0.25 0.756 1.023 1.628 1.885 1.507l0.102 0.371c0.418 1.07 1.648 1.965 2.793 1.678l0.119-0.447"/>
    <path d="m259.24 651.29-0.299 0.23c0.253 0.727 0.562 1.438 0.516 2.228-0.023 0.513-0.25 0.931-0.424 1.368-0.184-0.306-0.395-0.595-0.645-0.849-0.29-0.286-0.688 0.135-0.441 0.441 0.513 0.629 0.684 1.402 0.615 2.205-0.062 0.681-0.444 1.243-0.556 1.908l0.474 0.362c0.892-0.385 1.112-1.504 1.079-2.392l-0.099-0.655c1.639-0.809 1.224-4.08-0.22-4.846"/>
    <path d="m238.48 643.59c-0.218-0.582-0.652-1.059-0.826-1.648-0.191-0.619 0.043-1.122 0.411-1.616l-0.174-0.306c-0.823 0.086-1.227 0.909-1.241 1.665-0.019 0.987 0.589 1.895 1.494 2.241z"/>
    <path d="m240.55 653.16c-0.329-0.349-0.793-0.454-0.997-0.944-0.254-0.609-0.04-1.244 0.444-1.665l-0.287-0.368c-0.815 0.371-1.388 1.276-1.148 2.188 0.194 0.75 0.964 1.671 1.816 1.444l0.172-0.655"/>
    <path d="m259.14 638.1-0.129 0.223c0.431 0.471 0.642 1.168 0.606 1.797-0.04 0.648-0.421 1.266-0.349 1.911 0.033 0.306 0.421 0.556 0.668 0.277 1.016-1.152 0.786-3.705-0.796-4.208"/>
    <path d="m258.71 624.9-0.204 0.204c0.359 0.81 0.5 1.589 0.191 2.445-0.187 0.52-0.641 1.003-0.816 1.533l-0.079-0.365c-0.138-0.546-0.411-1.227-1.076-1.204l-0.204 0.362c0.612 1.121 0.106 2.414 0.573 3.55 0.118 0.282 0.599 0.47 0.76 0.098 0.22-0.5 0.224-1.095 0.155-1.681l0.154 0.03c0.938-0.27 1.428-1.823 1.52-2.698 0.092-0.872-0.135-1.856-0.974-2.274"/>
    <path d="m239.86 631.84c-0.477-0.524-1.122-0.839-1.51-1.455-0.461-0.73-0.635-1.589-0.26-2.391l-0.217-0.218c-1.899 0.951 0.039 4.603 1.829 4.439z"/>
    <path d="m243.81 619.51c-1.319-0.645-2.365-2.086-1.447-3.541l-0.375-0.289c-0.359 0.319-0.609 0.707-0.767 1.125-0.309-0.286-0.615-0.579-0.829-0.964-0.388-0.701-0.345-1.533-0.187-2.293l-0.287-0.168c-1.194 1.306-0.631 3.833 1.145 4.264 0 0.296 0.046 0.592 0.171 0.895 0.431 1.036 1.412 1.648 2.524 1.379z"/>
    <path d="m259.93 611.78-0.227 0.128c0.161 0.8 0.372 1.547 0.224 2.369-0.125 0.695-0.445 1.27-0.826 1.839-0.244-0.654-0.701-1.237-1.283-1.51l-0.293 0.379c0.536 0.473 0.947 1.069 0.904 1.819-0.032 0.619-0.375 1.122-0.579 1.688l0.336 0.336c0.819-0.326 1.115-1.05 1.089-1.813l0.53-0.102c1.237-1.254 1.556-3.896 0.125-5.133"/>
    <path d="m242.13 626.48c-0.951-0.718-1.609-1.649-0.855-2.82l-0.448-0.342c-0.671 0.609-0.941 1.51-0.644 2.382 0.263 0.767 0.96 1.385 1.803 1.319 0.299-0.026 0.375-0.365 0.144-0.539"/>
    <path d="m241.5 601.67c-0.786-0.865-1.036-2.931-0.352-3.879 0.26-0.358-0.306-0.773-0.609-0.467-0.776 0.8-0.802 1.823-0.645 2.876 0.132 0.882 0.372 1.862 1.395 1.984z"/>
   </g>
   <g transform="translate(-188.83 -514)" fill="#009c74">
    <path d="m241.77 697.81c-0.503-0.395-1.191-0.516-1.566-1.086-0.378-0.575-0.378-1.454-0.122-2.082l-0.342-0.198-0.536 0.678-0.724-0.688c-0.395-0.526-0.428-1.082-0.22-1.691l-0.458-0.263c-1.22 0.981-0.098 3.083 1.159 3.583-0.014 0.375 0.039 0.76 0.23 1.138 0.421 0.82 1.582 1.711 2.51 1.149l0.069-0.54"/>
    <path d="m260.22 694.78-0.5 0.135c-0.095 0.75-0.085 1.444-0.487 2.116-0.312 0.529-1.049 0.875-1.187 1.467l0.276 0.487c0.882 0.237 1.609-0.925 1.902-1.612 0.339-0.786 0.497-1.843-4e-3 -2.593"/>
    <path d="m263.88 690.18-0.52 0.303c0.191 0.816 0.375 1.609 0.221 2.448-0.135 0.737-0.649 1.322-0.767 2.03-0.066 0.395 0.286 0.674 0.652 0.503 0.848-0.398 1.148-1.668 1.21-2.523 0.076-0.994-0.141-1.997-0.796-2.761"/>
    <path d="m252.23 701-0.401 0.171c0.102 0.674-0.168 1.293-0.572 1.816-0.287 0.372-0.662 0.493-0.974 0.799l-0.096 0.369 0.02 0.062 0.477 0.362c0.793 0.102 1.326-0.806 1.596-1.418 0.312-0.707 0.319-1.48-0.05-2.161"/>
    <path d="m268.48 631.32-0.174 0.431c0.605 0.516 1.194 0.944 1.523 1.704 0.296 0.688 0.204 1.425 0.339 2.139l0.385 0.102c1.316-1.376-0.332-4.258-2.073-4.376"/>
    <path d="m272.6 635.76-0.431 0.178c-0.06 0.661 0.032 1.26-0.208 1.905-0.21 0.572-0.809 0.997-0.911 1.579-0.043 0.247 0.115 0.599 0.424 0.556 1.57-0.204 1.978-3.152 1.126-4.218"/>
    <path d="m268.94 597c-0.286-0.664-1.063-1.47-1.832-1.033l-0.05 0.379 0.711 0.615c0.283 0.372 0.362 0.832 0.414 1.29 0.076 0.737 0.056 1.428 0.454 2.076l0.537-0.069c0.342-0.915 0.154-2.363-0.234-3.258"/>
    <path d="m271.97 599.47-0.481 0.283c0.326 0.839 0.326 1.632-0.049 2.454-0.316 0.695-0.918 1.261-1.102 2.004-0.092 0.378 0.326 0.734 0.674 0.52 1.553-0.961 2.353-3.886 0.958-5.261"/>
    <path d="m269.21 605.16c-0.112-0.803-0.497-1.487-1.263-1.797l-0.175 0.231c0.823 1.23 0.303 2.339-0.095 3.609-0.168 0.536 0.099 1.372 0.793 0.875 0.687-0.49 0.849-2.155 0.74-2.918"/>
    <path d="m265.16 577.76c-0.076-0.8-0.468-1.468-1.076-1.974-0.29-0.244-0.803 0.069-0.563 0.434 0.316 0.484 0.448 1.059 0.425 1.635-0.027 0.53-0.303 1.01-0.31 1.53-6e-3 0.385 0.408 0.576 0.724 0.415 0.694-0.352 0.862-1.333 0.8-2.04"/>
   </g>
  </g>
  <g stroke-width="2.5177">
   <path d="m585.03 516.1c-31.573 0-57.184-14.399-57.184-32.168 0-17.77 25.61-32.171 57.184-32.171 31.584 0 57.184 14.401 57.184 32.171 0 17.77-25.6 32.168-57.184 32.168z" fill="#73e7b3" fill-opacity=".6"/>
   <path d="m587.1 475.65c1.3246-6.1598 1.6469-16.617 1.735-30.56 0.0301-5.095 0.0327-15.569 0.0223-24.33h-10.043s-1.1508 42.54-1.2692 47.642c-0.0806 3.6752-1.4127 8.4556-2.6995 12.231 1.1911 0.42544 2.4452 0.8433 3.5734 1.168 3.6212 1.0245 7.3633 0 8.6803-6.1522z" fill="#97463a"/>
   <path d="m567.38 493.62s2.2412 1.1202 6.3031-1.9635c1.1911-0.90623 3.4802-2.2152 4.7494-1.6161 1.0249 0.48835 1.8937 2.3813 2.8556 3.5796 2.5963 3.2196 4.568 5.4575 4.568 5.4575s1.6016-2.6583 2.2412-6.5777c0.41801-2.5374 1.6721-4.3046 3.2183-3.2171 0.82849 0.584 2.77 1.8301 4.8123 2.044 3.5129 0.35496 6.5323 1.0321 6.5323 1.0321s-7.2248-7.3907-7.5874-14.497c-0.36263-7.1113-1.0425-57.074-1.0425-57.074h-5.1825c7e-3 8.7627 7e-3 19.235-0.0252 24.33-0.0855 13.943-0.41047 24.403-1.7351 30.562-1.317 6.1497-5.0566 7.1768-8.6778 6.1497-1.1282-0.32221-2.3848-0.74007-3.5759-1.1655-0.50363 1.4651-0.98461 2.7992-1.3951 3.8313-1.4606 3.6929-6.0588 9.1252-6.0588 9.1252" fill="#723425"/>
   <path d="m563.35 410.83 0.65474 0.44051c0.0957 2.399 1.2465 4.7954 3.1251 6.5223 3.8176 3.5267 9.7203 4.1032 14.455 2.2177 4.0946-1.6262 6.9981-5.7419 7.9274-10.175 10.045 2.3436 26.091-15.592 29.712-21.49 4.9861-8.1484 10.264-19.141 6.2955-28.652-1.317-3.1718-3.2888-5.7042-5.7113-6.696 2.8556-2.6734 5.6735-5.246 7.7158-8.8105 2.6592-4.6142 6.8017-16.191 7e-3 -18.983 2.6265-3.4537 4.1349-7.5468 2.7851-11.806-1.657-5.1806-6.1923-7.066-10.793-6.4594 0.79071-0.9767 1.657-1.893 2.5636-2.7363l-0.10087 7e-3c3.3593-5.1579 7.1316-12.02 6.4517-17.792-0.28204-2.2782-1.2843-4.1258-2.8003-5.1881 3.1554-4.8986 5.7214-10.293 7.8115-15.255 3.8176-9.0144 7.3683-19.486 6.1923-29.409-1.3473-11.426-12.913-22.326-23.306-16.554 1.5311-5.2133 1.3976-10.449-0.62198-15.874 2.4855-3.3127 4.9307-6.6255 7.3381-9.9055 7.2802-9.9231 13.608-20.813 15.099-33.236 0.99469-8.2567 0.21411-20.481-7.5748-25.623-6.2225-4.1007-12.946-1.0724-18.443 2.9427 1.2465-3.9194 6.1999-8.6771 4.5756-12.556-1.7048-4.0629-5.7843-0.89867-7.0384-0.55129 5.2152-10.205 8.0407-21.981 8.149-32.936 0.0479-4.589-0.25937-10.006-5.8296-10.789-2.7147-0.38514-4.9936 0.68722-6.8319 2.3738 0.5842-3.713 0.72522-7.5317 0.75797-10.819 0.0378-5.387 0.14093-12.058-4.0015-16.05h-1.6469c-1.0652 1.1353-2.0599 2.2102-2.9992 3.3279-1.624-7.806-5.7362-20.747-12.78-20.773-4.0871-0.01511-6.1545 5.0799-7.8669 8.0603l-0.37775 0.70232c4.8904-0.73253 9.2293 2.5223 11.944 9.1 2.5409 6.1673 2.6592 14.009 1.3095 21.563 3.1805-0.24419 6.4139 3.2876 6.9755 6.6179 0.74035 4.4556-0.49108 10.605-2.8884 15.685 3.6842-0.10322 7.2122 3.4537 7.8115 7.4461 0.97706 6.5525-2.2261 14.754-6.1948 21.686l1.1684 0.56136c2.5484 1.8678 1.4908 5.4801 0.43314 8.4153 5.5552 0.25173 6.3988 8.375 5.4368 13.337-0.78065 4.0679-2.4225 8.4858-4.6234 12.72 1.9088-0.82819 3.9838-1.0648 5.9631-0.1183 3.9863 1.9006 3.9058 6.5449 3.8755 10.552 2.4855-1.387 3.9687-2.0818 7.5018 0.54373 2.6995 2.0189 4.4497 4.8105 3.9536 8.2189-0.80585 5.465-6.4693 11.126-9.7682 15.275-1.4505 1.8376-2.974 3.645-4.5202 5.4197 0.73279 1.1202 1.1433 2.6331 1.0879 3.9345-0.21163 4.219-1.4983 8.6368-3.4953 12.586 3.251 1.4525 5.1296 6.3184 4.9156 9.9685-0.1738 3.1642-1.1836 6.8067-2.7373 10.26 3.4802-0.25928 7.8418 1.7998 9.8311 4.1258 6.9503 8.1308 2.2085 19.663-1.1458 28.622 3.1327-0.0554 5.4696 3.635 5.6736 6.8445 0.3878 5.9232-3.3845 13.692-7.2827 18.842 0.69504 0.48835 1.2465 1.3492 1.6343 2.4367 1.4908 4.2039-0.5364 9.0144-2.9816 12.705 13.183 4.9137 8.0533 22.973 1.0803 31.791-3.1402 3.9748-10.312 9.2032-16.615 10.253-0.91662 4.7325-5.6484 8.9993-9.8311 10.56-2.6114 0.97923-5.744 1.0648-7.9299-0.78795-5.4117 4.7325-18.579 3.3581-23.077-0.0781-9.262-7.0686-3.873-15.932 3.1578-21.485-6.8571-3.8867-12.04-17.304-13.112-22.633-0.93931-4.6217 0.0932-13.873 4.354-17.067-3.8655-2.6809-7.464-6.6255-10.342-11.081-6.8873 3.8011-8.1993 13.47-7.4414 20.466 1.239 11.569 7.6856 21.737 15.819 30.837-2.8254 1.1831-5.5854 3.4789-7.2575 5.5456-0.7353 0.89869-1.3976 1.8528-2.0297 2.8295-5.8221 22.28 3.0219 48.636 26.454 56.027" fill="#00ad87"/>
   <path d="m530.54 382.36c1.0098 12.083 6.3585 23.242 13.367 32.981 4.6688 6.4896 12.82 20.103 22.397 16.838 3.2812 3.2322 8.9472 5.8829 11.377 6.19 4.835 0.63186 10.682-1.9156 13.626-6.0415 5.0793 1.966 18.972-6.3385 21.12-7.932 13.553-10.064 23.258-24.861 29.68-40.287 5.2782-12.682 8.8666-28.752-0.96951-40.299l-1.2491-1.2788c2.0927-3.7306 3.7496-7.6425 4.8854-11.569 1.9566-6.7514 3.2334-14.953-2.138-20.496-5.1926-5.3644-13.256-6.7992-20.521-6.2227-0.90657 0.84328-1.7753 1.7571-2.5636 2.7363 4.5983-0.6092 9.1361 1.2762 10.793 6.4594 1.3473 4.2567-0.15872 8.3498-2.7851 11.806 6.7916 2.7916 2.6492 14.369-0.01 18.983-2.0423 3.5645-4.8577 6.1346-7.7158 8.808 2.4225 0.99433 4.3943 3.5267 5.7139 6.696 3.9687 9.5128-1.3095 20.506-6.2956 28.652-3.6212 5.9005-19.67 23.834-29.712 21.493-0.93174 4.4329-3.8352 8.5487-7.9298 10.172-4.7343 1.8854-10.634 1.309-14.455-2.2152-1.876-1.7268-3.0294-4.1258-3.1226-6.5223l-0.65474-0.44051c-23.432-7.3907-32.276-33.747-26.454-56.027-5.2631 8.0201-7.1643 18.036-6.3837 27.516" fill="#009c74"/>
   <path d="m548.12 306.24c-4.2583 3.1944-5.2933 12.445-4.354 17.067 1.0728 5.3316 6.2552 18.746 13.112 22.635-7.0309 5.5531-12.42 14.416-3.1554 21.483 4.495 3.4386 17.663 4.8105 23.077 0.0781 2.1833 1.8552 5.316 1.7672 7.9274 0.79045 4.1828-1.5632 8.917-5.83 9.8311-10.56 6.3031-1.0497 13.475-6.2781 16.615-10.253 6.9755-8.818 12.103-26.877-1.0803-31.791 2.4452-3.6929 4.4724-8.5034 2.9816-12.705-0.38527-1.09-0.93927-1.9484-1.6318-2.4392 3.8957-5.1478 7.668-12.916 7.2802-18.839-0.20397-3.2096-2.5384-6.9024-5.671-6.847 3.3518-8.959 8.0936-20.488 1.1433-28.619-1.9869-2.3285-6.351-4.3851-9.8311-4.1258 1.5563-3.4537 2.566-7.0988 2.7373-10.26 0.2141-3.6526-1.6646-8.5185-4.9131-9.9684 1.9944-3.9521 3.2812-8.3674 3.4953-12.586 0.0554-1.3014-0.35759-2.8168-1.0904-3.937 1.5462-1.7747 3.0697-3.5796 4.5202-5.4172 3.2989-4.1485 8.9623-9.8099 9.7682-15.277 0.49609-3.4059-1.2541-6.1976-3.9536-8.2164-3.533-2.6255-5.0163-1.9333-7.5018-0.54373 0.0301-4.0075 0.11076-8.6519-3.873-10.552-1.9818-0.94649-4.0568-0.70988-5.9657 0.11831 2.2009-4.2366 3.8428-8.6519 4.6235-12.722 0.96195-4.9591 0.11842-13.082-5.4368-13.337 1.0576-2.9326 2.1153-6.545-0.43315-8.4153l-1.1685-0.55884c3.9687-6.9326 7.1719-15.134 6.1948-21.689-0.59936-3.9899-4.1274-7.5468-7.8115-7.4436 2.3999-5.0799 3.6287-11.232 2.8884-15.688-0.56156-3.3279-3.795-6.8621-6.9754-6.6154 1.3497-7.5569 1.2314-15.396-1.3095-21.563-2.7146-6.5777-7.0535-9.835-11.944-9.1-3.3996 6.0088-6.2653 12.342-8.577 18.857-4.7418 13.422-7.1316 27.705-7.124 41.94 7e-3 11.071 0.36261 21.578 1.0728 29.724-2.8481-3.0912-5.3336-6.2706-8.2194-7.3178-5.6182-2.0289-8.3706 2.404-9.1915 7.3731-1.6645 9.9911 1.2767 20.41 6.2553 29.827-0.68495-0.30712-1.4027-0.55129-2.2236-0.59912-3.9939-0.26935-7.2348 3.1693-8.2522 6.696-2.2185 7.6425 2.483 17.785 8.227 24.818-1.2843 7e-3 -2.5938 0.48835-3.7396 1.5607-3.6438 3.416-2.1304 7.8338 0.40291 11.476-3.2183-0.0327-6.4995 1.6866-8.6073 4.5437-2.5963 3.5091-7.6453 16.513 1.113 27.728-7.2122 7.3832 1.4757 16.476 6.706 22.713-2.1304 0.41787-4.0166 1.9811-5.1296 5.2057-1.239 3.5494-0.16613 7.1994 1.4127 10.474 1.8156 3.7382 4.0166 7.4763 6.351 11.096-2.5862-1.027-5.7189-0.93896-8.4109 0.37005l-0.50363 0.33228c2.8808 4.4556 6.4769 8.3977 10.342 11.079" fill="#1abc9c"/>
  </g>
  <g transform="matrix(2.5182 0 0 2.5173 -466.37 -1254.4)" fill="#00ad87">
   <path d="m425.92 625.66-0.401 0.169c0.144 0.636 0.226 1.294 0.038 1.93-0.147 0.498-0.539 0.886-0.702 1.356-0.144-0.479-0.46-0.89-1.018-1.121-0.288-0.119-0.404 0.31-0.194 0.466 0.683 0.508 0.523 1.482 0.1 2.093-0.392 0.57-0.981 0.893-1.219 1.564l0.332 0.332c1.244-0.173 2.15-1.617 2.081-2.854l0.2 0.034c0.743-0.125 1.094-1.109 1.209-1.754 0.145-0.781 0.057-1.57-0.426-2.215"/>
   <path d="m408.56 632.14c-0.367-0.492-0.887-0.862-1.075-1.473-0.197-0.648 0.013-1.297 0.195-1.923l-0.342-0.264c-1.544 0.969-1.015 4.098 0.928 4.174l0.294-0.514"/>
   <path d="m414.11 631.36c-0.467-0.162-0.959-0.072-1.435-0.166-0.529-0.1-1.103-0.338-1.529-0.67l-0.376 0.288c0.661 0.962 2.397 2.049 3.475 1.059z"/>
   <path d="m411.13 637.25c-0.542-0.181-1.056-0.313-1.407-0.811-0.338-0.479-0.326-1.046-0.498-1.582l-0.392-0.104c-1.178 1.354 0.627 3.575 2.165 3.469 0.558-0.038 0.671-0.79 0.132-0.972z"/>
   <path d="m409 621.11c-0.532-0.467-1.294-0.674-1.72-1.269-0.46-0.646-0.291-1.372 0.057-2.015l-0.21-0.269c-0.561 0.119-0.868 0.573-0.981 1.093-0.316-0.244-0.664-0.407-0.855-0.836-0.254-0.577-0.066-1.181 0.122-1.745l-0.31-0.241c-0.805 0.448-1.04 1.475-0.765 2.318 0.235 0.724 0.972 1.554 1.793 1.438l0.097 0.354c0.398 1.018 1.569 1.87 2.663 1.598l0.109-0.426"/>
   <path d="m422.38 607.58-0.286 0.219c0.245 0.693 0.536 1.37 0.495 2.121-0.025 0.486-0.238 0.887-0.407 1.304-0.175-0.292-0.373-0.567-0.614-0.808-0.272-0.276-0.652 0.128-0.417 0.419 0.486 0.599 0.652 1.335 0.583 2.099-0.056 0.649-0.42 1.185-0.529 1.818l0.451 0.344c0.849-0.366 1.062-1.435 1.028-2.278l-0.091-0.626c1.56-0.768 1.165-3.882-0.213-4.612"/>
   <path d="m402.61 600.25c-0.207-0.551-0.623-1.006-0.789-1.57-0.179-0.586 0.04-1.068 0.391-1.535l-0.166-0.291c-0.783 0.081-1.168 0.864-1.181 1.585-0.019 0.94 0.561 1.802 1.423 2.131l0.322-0.32"/>
   <path d="m404.62 609.36c-0.313-0.335-0.755-0.432-0.946-0.899-0.241-0.583-0.038-1.184 0.42-1.585l-0.27-0.354c-0.78 0.357-1.319 1.215-1.096 2.086 0.185 0.714 0.918 1.589 1.732 1.372z"/>
   <path d="m422.32 595.02-0.122 0.213c0.413 0.448 0.61 1.109 0.576 1.707-0.035 0.621-0.401 1.207-0.329 1.824 0.031 0.288 0.398 0.529 0.633 0.263 0.971-1.097 0.749-3.531-0.758-4.007"/>
   <path d="m421.88 582.45-0.194 0.195c0.338 0.77 0.473 1.513 0.179 2.327-0.176 0.495-0.611 0.956-0.777 1.457l-0.076-0.344c-0.131-0.524-0.391-1.169-1.021-1.147l-0.197 0.345c0.586 1.068 0.1 2.299 0.545 3.38 0.113 0.273 0.57 0.445 0.724 0.094 0.213-0.476 0.216-1.046 0.147-1.601l0.147 0.028c0.893-0.257 1.363-1.735 1.447-2.569 0.088-0.83-0.128-1.767-0.924-2.165"/>
   <path d="m403.96 589.06c-0.455-0.498-1.066-0.799-1.435-1.385-0.439-0.695-0.608-1.513-0.251-2.277l-0.207-0.21c-1.807 0.908 0.041 4.386 1.749 4.229l0.144-0.357"/>
   <path d="m407.72 577.31c-1.259-0.611-2.256-1.983-1.381-3.368l-0.358-0.278c-0.338 0.307-0.579 0.676-0.73 1.074-0.294-0.272-0.585-0.551-0.786-0.918-0.373-0.667-0.332-1.463-0.182-2.187l-0.272-0.156c-1.138 1.244-0.599 3.647 1.093 4.06 3e-3 0.279 0.041 0.564 0.16 0.852 0.41 0.987 1.344 1.57 2.403 1.313l0.053-0.392"/>
   <path d="m423.07 569.95-0.213 0.125c0.157 0.761 0.351 1.473 0.21 2.259-0.119 0.658-0.423 1.203-0.787 1.748-0.231-0.626-0.667-1.181-1.221-1.438l-0.276 0.357c0.511 0.455 0.902 1.022 0.862 1.736-0.035 0.586-0.361 1.068-0.555 1.607l0.32 0.32c0.78-0.313 1.065-1 1.037-1.73l0.504-0.094c1.181-1.193 1.485-3.709 0.119-4.89"/>
   <path d="m406.12 583.96c-0.906-0.683-1.532-1.569-0.818-2.685l-0.426-0.325c-0.639 0.579-0.896 1.435-0.611 2.265 0.248 0.73 0.912 1.322 1.714 1.256 0.285-0.022 0.357-0.348 0.141-0.511"/>
   <path d="m405.53 560.36c-0.749-0.824-0.987-2.795-0.335-3.694 0.247-0.341-0.292-0.736-0.577-0.445-0.742 0.758-0.767 1.733-0.617 2.739 0.125 0.839 0.354 1.773 1.328 1.889z"/>
  </g>
  <g transform="matrix(2.5182 0 0 2.5173 -466.37 -1254.4)" fill="#009c74">
   <path d="m405.78 651.88c-0.483-0.376-1.138-0.492-1.492-1.034-0.36-0.548-0.36-1.385-0.119-1.983l-0.326-0.188-0.51 0.645-0.686-0.658c-0.379-0.498-0.408-1.03-0.213-1.607l-0.436-0.254c-1.162 0.94-0.094 2.939 1.103 3.415-0.013 0.358 0.038 0.724 0.222 1.084 0.398 0.78 1.504 1.629 2.388 1.091l0.069-0.511"/>
   <path d="m423.35 649-0.473 0.129c-0.094 0.711-0.085 1.372-0.464 2.014-0.301 0.505-1.002 0.831-1.134 1.398l0.263 0.463c0.84 0.223 1.532-0.883 1.814-1.535 0.32-0.749 0.47-1.754-6e-3 -2.469"/>
   <path d="m426.8 644.61-0.495 0.288c0.182 0.774 0.357 1.529 0.213 2.331-0.128 0.699-0.62 1.26-0.733 1.936-0.059 0.373 0.273 0.64 0.62 0.477 0.809-0.379 1.094-1.589 1.156-2.403 0.069-0.946-0.134-1.902-0.761-2.629"/>
   <path d="m415.74 654.92-0.382 0.16c0.097 0.645-0.157 1.231-0.546 1.732-0.272 0.354-0.629 0.47-0.927 0.762l-0.091 0.35 0.022 0.06 0.451 0.341c0.755 0.101 1.263-0.764 1.52-1.347 0.301-0.673 0.307-1.41-0.047-2.058z"/>
   <path d="m431.22 588.56-0.169 0.407c0.582 0.492 1.137 0.9 1.45 1.626 0.285 0.655 0.194 1.354 0.323 2.037l0.37 0.094c1.25-1.31-0.32-4.051-1.974-4.164"/>
   <path d="m435.1 592.82-0.41 0.166c-0.056 0.633 0.034 1.203-0.197 1.817-0.201 0.545-0.771 0.949-0.868 1.504-0.041 0.235 0.109 0.567 0.404 0.529 1.497-0.194 1.886-3.001 1.071-4.016"/>
   <path d="m431.62 555.88c-0.276-0.633-1.015-1.403-1.748-0.984l-0.047 0.361 0.676 0.582c0.27 0.358 0.345 0.796 0.395 1.232 0.075 0.698 0.057 1.359 0.436 1.974l0.51-0.066c0.323-0.868 0.151-2.25-0.222-3.099"/>
   <path d="m434.54 558.26-0.457 0.266c0.313 0.799 0.31 1.557-0.047 2.341-0.301 0.661-0.875 1.2-1.05 1.905-0.088 0.36 0.31 0.705 0.642 0.495 1.479-0.915 2.24-3.697 0.912-5.007"/>
   <path d="m431.87 563.65c-0.109-0.765-0.473-1.416-1.206-1.711l-0.166 0.216c0.783 1.175 0.288 2.231-0.091 3.44-0.16 0.508 0.094 1.304 0.755 0.831 0.655-0.467 0.808-2.052 0.708-2.776"/>
   <path d="m428.05 537.56c-0.069-0.758-0.445-1.394-1.024-1.877-0.276-0.231-0.762 0.066-0.536 0.414 0.304 0.461 0.429 1.006 0.404 1.557-0.025 0.501-0.288 0.959-0.294 1.457-7e-3 0.363 0.388 0.548 0.689 0.395 0.661-0.336 0.824-1.269 0.761-1.946"/>
  </g>
  <g transform="matrix(1.0435 0 0 1.0435 440.6 -12.707)">
   <g stroke-width="1.4028">
    <path d="m-81.441 247c-7.0336-3.4514-22.407-0.20005-28.482 22.679-5.9899 4.237-12.434 13.887-9.532 30.045-3.0525 9.1869-5.5859 13.977-8.1334 18.851 0.69437 1.6525 15.199 14.896 23.737 14.133 15.177-11.617 24.051-34.955 32.233-52.657 5.6182-12.152 3.2334-26.653-9.8224-33.051z" fill="#eb4747"/>
    <path d="m-51.912 246.8s8.1208 1.1807 8.6286 6.1125c0.50923 4.9364-3.7328 9.4323-6.2298 8.792-2.5026-0.6404-2.3988-14.905-2.3988-14.905z" fill="#e93535"/>
    <path d="m-111.43 542.89 0.14583 0.93988c1.0816 7.1038-2.1617 10.11-6.3434 12.98-4.1831 2.8785-15.213 8.759-15.958 17.016-0.7449 8.261 3.0875 11.84 14.123 14.736 6.0166 1.5753 12.833-2.2627 18.165-6.7432 5.7627-4.8551 11.984-13.043 12.002-16.037 8.6019-3.1296 8.7787-8.0324 5.3727-21.108-8.1334 5.0178-19.082 3.9503-27.506-1.7844" fill="#292827"/>
    <path d="m-18.006 576.32c-8.097 4.6376-18.147 6.032-25.809 1.6721 0.0589 1.3579 0.0546 2.6751-0.11783 3.8829-0.91322 6.422-6.6072 17.353-10.804 24.555-3.7272 6.3953-2.1336 15.664 4.583 20.141 4.9448 3.2867 18.891 4.9785 23.497-3.4284 4.6096-8.4111 6.0488-16.299 6.1218-23.373 3.5645-4.2518 3.5645-4.2518 4.7456-6.5006 3.2685-6.2214-1.1994-12.061-2.18-16.421l-0.0365-0.52744" fill="#292827"/>
   </g>
   <g stroke-width="1.4028">
    <path d="m-119.2 476.66c-0.37732-8.024-0.31281-18.473-0.0187-26.53 0.27635-7.5428-3.7651-68.455 24.632-86.175 0.47695-0.59619 27.183 3.1282 36.121 3.8956 1.2948 0.1093 2.3118 1.2358 2.5208 2.4661 5.1005 29.641 4.719 62.607-11.03 89.222-3.4971 5.9086-7.1851 10.033-12.38 14.314 4.9084 8.5655 4.3178 27.376 3.2882 41.312-0.87256 11.894-3.4565 24.591-5.7865 29.931-5.4765 12.556-20.808 12.481-28.659 5.931-3.6024-3.002-8.947-11.012-2.8252-25.694-6.1218-14.174-5.6084-43.301-5.8623-48.674" fill="#e93535"/>
    <path d="m-73.837 411.59c-9.5278-6.5707-12.599-18.796-11.117-41.493 7.9103-11.781 41.648-3.0244 54.045-2.9389 11.322 8.8923 8.6917 24.047 5.7402 39.064 3.1198 13.47 10.076 33.624 12.471 54.741 0.59478 5.2956 1.1615 17.235-4.0204 22.058 7.049 15.894 12.398 79.087 4.437 91.438-3.2418 5.0304-14.755 9.9949-21.993 7.9917-2.4198-0.66633-12.425-1.2162-15.812-12.506-1.8811-6.2593-1.5894-22.815-2.9388-42.075-0.94409-13.378-4.1551-28.933-3.2924-39.604-3.9727-6.3042-7.7196-10.045-9.2683-17.316-4.0064-18.814-5.4274-40.399-8.2512-59.359z" fill="#ef6c6c"/>
    <path d="m-25.231 374.13 1.6707 4.4454s-7.3114 9.2921-24.023 11.531c-16.716 2.243-32.034-0.50923-39.069-3.3246-7.0294-2.8112-9.8448-10.04-9.8448-10.04s38.706 6.5847 48.914 3.709c10.204-2.8743 22.352-6.321 22.352-6.321z" fill="#e93535"/>
    <path d="m-99.621 362.66c-4.0793-6.9116-1.4491-32.824 0.87114-44.087-4.9996-18.656-6.9116-32.375-3.0833-47.483 2.3791-9.4186 10.967-20.245 22.543-20.84 5.649-0.28617 24.749 7.6475 28.352 9.632 14.818 4.2007 23.65 11.281 33.632 22.279 1.2359 1.3624-3.7735 45.159-6.2537 53.365-2.8968 9.5685-1.271 24.219-3.4873 33.156 5.1861 2.8926 2.4843 7.1753-0.0813 9.9542-9.2879 6.6072-26.172 9.0592-33.983 8.0464-16.086-2.0845-31.74-3.601-41.921-16.058-1.7984-2.1982 0-7.5246 3.4102-7.9651" fill="#ef6c6c"/>
   </g>
   <g stroke-width="1.4028">
    <path d="m-76.362 245.88c3.3246 0.67208 8.9288 1.7302 12.239 1.0853 4.4006-0.85823 9.3678-3.029 13.001-6.2987 0.31422 4.5776 1.7858 16.226 3.8703 20.836 4.0499 8.9463-18.769 11.916-25.595 12.189-1.7535-2.5567-6.6436-5.6402-6.5847-11.925 2.0888-7.484 2.33-12.393 3.0693-15.885z" fill="#f9a999"/>
    <path d="m-86.925 223.24c0.98897-6.326 3.2741-14.164 8.6819-18.152 5.3461-3.9372 13.697-3.4378 19.928-2.2843 9.654 1.7848 15.276 13.329 12.143 25.576-2.8968 11.317-12.583 28.155-25.675 29.101-6.6675 0.48143-11.168-4.9862-13.443-11.598-2.6976-7.8338-2.4479-17.416-1.6343-22.642z" fill="#fabdae"/>
    <path d="m-85.354 209.28c-0.11916 0-5.8581 2.7656-10.504 2.425-6.2354-0.45408-6.8989-6.3032-6.8989-6.3032s7.6985-2.1936 12.331-1.5532c4.6362 0.63574 5.0725 5.4313 5.0725 5.4313z" fill="#e93535"/>
    <path d="m-42.948 230.98s0.71682 0.45409-1.3312 5.1224c-2.0481 4.6685-6.1667 11.013-6.1667 11.013s-2.9024-2.0254-2.584-8.6602c0.31281-6.6348 2.584-10.15 2.584-10.15s-6.7433 1.267-14.101-4.3188c-7.352-5.5903-8.3101-9.7456-8.3101-9.7456s-5.6954 8.188-13.392 7.7702c-7.7013-0.41789-15.536-11.639-7.815-14.174 7.7196-2.5295 25.29-0.0997 25.29-0.0997s26.33 14.414 25.827 23.242" fill="#292827"/>
    <path d="m-42.822 233.07c-5.8665-13.206-27.593-28.324-43.755-27.352l0.23566-0.41776c8.5781-13.424 17.716-16.417 35.881-8.624 18.165 7.7929 13.419 23.61 12.461 25.513-0.23566 0.47232-2.18 7.5476-4.8228 10.881" fill="#ef6c6c"/>
   </g>
   <g transform="matrix(1.4028 0 0 1.4028 -526.1 159.9)" fill="#eb4747">
    <path d="m337.44 43.059s-3.71-6.4682-12.752-10.628c-11.369-5.2315-22.907 0.0089-22.907 0.0089s8.31 1.3661 11.706 5.1149c3.393 3.7456 5.361 6.7369 12.03 6.8501 7.958 0.136 11.923-1.3467 11.923-1.3467"/>
    <path d="m325.31 81.997s-2.202 4.5937-3.228 14.995c-1.026 10.405-2.182 23.914-1.084 31.749 0.731 5.208-1.357 14.697-2.587 19.009-1.23 4.309 0 10.156 0 11.875-2.596 4e-3 -6.378-1.94-6.378-1.94s-0.498-8.97 1.24-13.68c1.742-4.704 2.584-15.99 2.072-19.411-1.12-7.472 1.37-20.276 2.176-27.602 0.89-8.1256 1.227-17.595 2.768-17.728 1.945 0.6281 5.021 2.7323 5.021 2.7323z"/>
    <path d="m323.1 81.12s-0.657-3.0592 3.645-5.4711c1.509-0.8449 4.205-1.1751 6.957-1.8679 7.41-1.8614 10.476-7.4749 10.476-7.4749l0.651 6.2901s-0.275 4.7103-6.779 8.2422c-6.507 3.5351-14.95 0.2816-14.95 0.2816z"/>
    <path d="m319.3 68.277c0.511 1.5927 1.201 3.5934 1.974 5.4354 1.053 2.5025 1.823 7.407 1.823 7.407s-4.098-2.0525-5.811-5.2445c-1.169-2.1787-0.22-6.2739 0.499-8.6727 0.508 0.4435 1.032 0.8093 1.515 1.0748z"/>
    <path d="m353 147.75s-5.387 3.322-10.237 4.461c-4.849 1.14-8.815 0-8.815 0s2.956-0.311 8.815-1.978c5.857-1.667 10.237-2.483 10.237-2.483z"/>
    <path d="m351.48 144.24s-4.422 2.428-10.359 0.87c-5.941-1.557-9.204-4.749-9.204-4.749s7.495 2.422 10.848 3.037c3.354 0.609 8.715 0.842 8.715 0.842z"/>
    <path d="m362.84 219.66c-0.77 0.683-1 4.102-3.506 7.521-2.509 3.415-4.675 4.781-4.675 4.781s-0.236-4.464 3.587-7.517c3.824-3.056 4.594-4.785 4.594-4.785z"/>
    <path d="m354.22 234.47s4.539 1.499 5.756 3.768c1.22 2.269 2.305 4.574 2.305 4.574s-2.661 0.632-4.691-2.564c-2.03-3.191-3.37-5.778-3.37-5.778z"/>
   </g>
   <g stroke-width="1.4028">
    <path d="m-17.796 411.26s-1.421 6.9929-3.2825 10.726c-2.0663 4.1551-4.6138 8.4294-2.5349 11.967 3.9419 6.711 6.004 5.2492 9.7368 7.0925 8.456 4.1733 12.552-0.57233 12.552-0.57233s4.6868-8.6454 4.7092-11.925c0.016-4.4272-2.706-10.031-6.6072-14.123-6.7755-7.1248-14.574-3.1647-14.574-3.1647z" fill="#dad9d8"/>
    <path d="m-14.794 367.16c-3.4284 9.6133-5.0641 39.355-5.0641 49.604 0 4.6643 14.446 10.169 21.749 5.3643 9.7817-24.846 6.9298-35.227 5.2044-54.4 3.0973-11.204 1.825-24.428-2.2753-32.29 0.29037-15.971-2.4437-35.321-10.163-49.044-2.9978-5.3268-15.708-17.752-23.864-15.181-25.382 8.0018-13.705 61.294 7.3016 68.806-0.94409 10.259-0.94409 20.631 7.1122 27.143z" fill="#eb4747"/>
    <path d="m-126.82 377.7s-6.2803-4.4048-10.518-5.5775c-4.2323-1.1615-8.4687 0-8.4687 0s-8.6693 11.935-9.2052 16.5c-0.54007 4.5675 4.1387 10.045 5.5901 7.9244 2.4796-3.6236 6.204-7.1504 8.8152-7.9244 2.174-0.64441 0.97074 6.4024-1.3228 9.4408-1.1433 1.522-0.31705 3.5743 1.1447 3.8829 1.4673 0.30021 4.7092-2.6611 7.1122-5.3993 4.8046-5.4723 6.8526-18.847 6.8526-18.847z" fill="#dad9d8"/>
    <path d="m-119.46 310.18s-4.7456 2.3876-8.1334 8.3915c-3.3877 6.0082-12.706 23.751-15.25 34.523-2.539 10.776-3.5196 13.447-3.4158 19.664 3.8422-1.1545 11.884 0.52184 18.942 7.6158 7.6929-5.0907 15.664-17.253 19.555-29.111 3.8829-11.861 7.2609-21.402 7.2609-21.402z" fill="#eb4747"/>
   </g>
  </g>
  <g transform="matrix(7.5792 0 0 7.5792 -637.23 -319.3)" fill="#ef6c6c">
   <path d="m134.93 57h-3c0-3 1.6-4 2.7-4.6 0.4-0.2 0.7-0.4 0.9-0.6 0.5-0.5 0.3-1.2 0.2-1.4-0.3-0.7-1-1.4-2.3-1.4-2.1 0-2.5 1.9-2.5 2.3-0.5-0.06667-1-0.13333-1.5-0.2-0.5-0.06667-1-0.13333-1.5-0.2 0.2-1.7 1.7-4.9 5.5-4.9 2.3 0 4.3 1.3 5.1 3.2 0.7 1.7 0.4 3.5-0.8 4.7-0.5 0.5-1.1 0.8-1.6 1.1-0.9 0.5-1.2 1-1.2 2z"/>
   <path d="m135.43 60c0 1.105-0.895 2-2 2s-2-0.895-2-2 0.895-2 2-2 2 0.895 2 2z"/>
  </g>
 </g>
</svg>
