<svg width="80" height="80" viewBox="0 0 80 80" fill="none" xmlns="http://www.w3.org/2000/svg">
<rect width="80" height="80" rx="8" fill="#BBF5D5"/>
<path d="M40 5C20.67 5 5 20.67 5 40C5 59.33 20.67 75 40 75C59.33 75 75 59.33 75 40C74.9781 20.6791 59.3209 5.02186 40 5ZM40 72.6667C21.9587 72.6667 7.33333 58.0413 7.33333 40C7.33333 21.9587 21.9587 7.33333 40 7.33333C58.0413 7.33333 72.6667 21.9587 72.6667 40C72.6461 58.0328 58.0328 72.6461 40 72.6667Z" fill="#38DC91"/>
<path d="M60.0772 17.7517C60.0643 17.4266 59.9163 17.1217 59.6688 16.9105C47.6289 6.67156 29.7448 7.39324 18.569 18.569C7.39324 29.7448 6.67156 47.6289 16.9105 59.6688C17.122 59.9166 17.4274 60.0646 17.7528 60.0772H17.7983C18.1077 60.0771 18.4044 59.9542 18.6232 59.7353L59.7365 18.622C59.9664 18.392 60.0899 18.0766 60.0772 17.7517ZM24.8333 46.79V46.6162C24.8663 44.5432 25.1659 42.483 25.7247 40.4865C26.2909 38.4407 27.1046 36.4716 28.1478 34.6228C28.3812 34.1982 28.6378 33.791 28.8945 33.3932C28.5378 34.5074 28.3487 35.6685 28.3333 36.8383C28.2328 39.4509 29.6569 41.8845 31.9838 43.0765L25.1133 49.947C24.9267 48.9051 24.833 47.8486 24.8333 46.79ZM33.7187 41.3417C31.8059 40.6957 30.5579 38.8543 30.6667 36.8383C30.6667 32.2627 34.7652 26.3722 39.5427 26.021C39.8406 26.0006 40.1396 26.0006 40.4375 26.021H40.4585C42.6307 26.2769 44.6206 27.3604 46.0142 29.0462L33.7187 41.3417ZM40.616 23.6923C40.2151 23.6667 39.8129 23.6667 39.412 23.6923H39.391H39.3782C39.3618 23.6923 39.3478 23.6923 39.3315 23.6993C38.0117 23.7773 36.7139 24.0734 35.4908 24.5755C36.1815 20.1748 38.9908 20.1655 40 20.1655C41.0092 20.1655 43.8173 20.1748 44.5092 24.5755C43.2705 24.0639 41.9542 23.7653 40.616 23.6923ZM48.2833 26.7805C47.8528 26.4433 47.4177 26.1365 46.9778 25.8553C46.727 20.68 44.2712 17.8333 40 17.8333C35.7288 17.8333 33.2777 20.6742 33.0268 25.8413C32.261 26.3339 31.535 26.8859 30.8557 27.4922C29.986 26.8898 29.4767 25.891 29.5 24.8333C29.5 24.189 28.9777 23.6667 28.3333 23.6667C27.689 23.6667 27.1667 24.189 27.1667 24.8333C27.1492 26.5066 27.8968 28.0962 29.1967 29.15C28.213 30.2591 27.3342 31.4569 26.5717 32.7282C25.2345 32.4774 24.1172 31.5628 23.6072 30.3015C23.4042 29.6894 22.7435 29.3577 22.1313 29.5607C21.5192 29.7636 21.1875 30.4244 21.3905 31.0365C22.0501 32.8652 23.5479 34.2658 25.4167 34.8013C24.7481 36.1549 24.1879 37.5593 23.7413 39.0013C22.2375 38.9951 20.8304 38.2585 19.9683 37.0262C19.7413 36.6709 19.3402 36.4658 18.9192 36.4897C18.4982 36.5135 18.1229 36.7627 17.9375 37.1414C17.7521 37.5201 17.7854 37.9693 18.0247 38.3165C19.188 40.029 21.0661 41.1205 23.13 41.2833C22.8014 42.7694 22.6028 44.2813 22.5362 45.8018C21.1005 46.2571 19.5624 46.2786 18.1145 45.8637C17.7049 45.7479 17.2647 45.8644 16.966 46.1677C16.6673 46.471 16.5575 46.9129 16.6795 47.3208C16.8015 47.7286 17.136 48.0376 17.5522 48.127C18.4673 48.3612 19.4076 48.4823 20.3522 48.4875C21.0913 48.4903 21.8281 48.4041 22.5467 48.2308C22.6266 49.4681 22.8326 50.694 23.1615 51.8895L17.887 57.1733C9.2363 46.0267 10.2309 30.1848 20.2077 20.2077C30.1846 10.2305 46.0265 9.23546 57.1733 17.8858L48.2833 26.7805Z" fill="#38DC91"/>
<path d="M61.3768 20.2635L38.9652 42.6752L20.2635 61.3768C20.0333 61.607 19.9097 61.9228 19.9226 62.248C19.9354 62.5732 20.0835 62.8783 20.3312 63.0895C32.3711 73.3285 50.2552 72.6068 61.431 61.431C72.6068 50.2552 73.3284 32.3711 63.0895 20.3312C62.878 20.0834 62.5726 19.9354 62.2472 19.9228C61.9217 19.9066 61.6048 20.0306 61.3768 20.2635ZM51.8522 34.624C52.8951 36.4716 53.7089 38.4395 54.2753 40.4842C54.8331 42.4773 55.1326 44.5339 55.1667 46.6033V46.79C55.1667 57.2667 47.3313 61 40 61C35.1 61 31.0167 59.4343 28.3427 56.597L40.2812 44.6585C49.6717 44.5733 51.6667 40.3733 51.6667 36.8383C51.6543 35.7862 51.5009 34.7405 51.2105 33.7292L51.2793 33.6603C51.4695 33.9672 51.6608 34.2833 51.8522 34.624ZM49.2435 35.6962C49.2992 36.0744 49.3292 36.456 49.3333 36.8383C49.3333 38.047 49.3158 41.4432 42.7568 42.1828L49.2435 35.6962ZM68 40C67.9992 50.6899 61.9118 60.4465 52.3106 65.1465C42.7093 69.8464 31.2698 68.6695 22.8267 62.113L26.693 58.2467C29.8103 61.5262 34.4677 63.3333 40 63.3333C50.1103 63.3333 56.8 57.4533 57.437 48.2332C58.1593 48.408 58.9 48.495 59.6432 48.4922C60.5877 48.4869 61.5281 48.3659 62.4432 48.1317C62.8594 48.0423 63.1938 47.7333 63.3159 47.3254C63.4379 46.9176 63.3281 46.4757 63.0294 46.1724C62.7307 45.8691 62.2905 45.7526 61.8808 45.8683C60.4334 46.2832 58.8956 46.2617 57.4603 45.8065C57.3924 44.286 57.1934 42.7742 56.8653 41.288C58.9298 41.1226 60.8071 40.0275 61.9672 38.3118C62.3099 37.7756 62.1596 37.0636 61.6294 36.7116C61.0992 36.3596 60.3847 36.4975 60.0235 37.0215C59.1606 38.2522 57.7547 38.9884 56.2517 38.9967C55.81 37.5715 55.2573 36.1832 54.5985 34.8445C56.7362 34.3846 58.5885 33.0613 59.7167 31.1882C60.0047 30.6115 59.7707 29.9105 59.194 29.6225C58.6173 29.3345 57.9163 29.5685 57.6283 30.1452C56.8595 31.684 54.8108 32.4097 53.4482 32.7352C53.2907 32.475 53.1308 32.2172 52.971 31.9745L62.1188 22.8267C65.9325 27.7388 68.0018 33.7812 68 40Z" fill="#38DC91"/>
</svg> 
