<svg width="80" height="80" viewBox="0 0 80 80" fill="none" xmlns="http://www.w3.org/2000/svg">
<rect width="80" height="80" rx="8" fill="#BBF5D5"/>
<path d="M64.7487 15.2513C58.1381 8.64055 49.3488 5 40 5C30.6512 5 21.8619 8.64055 15.2513 15.2513C8.64055 21.8619 5 30.6512 5 40C5 49.3488 8.64055 58.1381 15.2513 64.7488C21.8619 71.3595 30.6512 75 40 75C49.3488 75 58.1381 71.3595 64.7487 64.7487C71.3595 58.1381 75 49.3488 75 40C75 30.6512 71.3595 21.8619 64.7487 15.2513ZM40 9.11765C57.0285 9.11765 70.8824 22.9715 70.8824 40C70.8824 45.5181 69.4262 50.7018 66.8801 55.1896L53.3581 47.3884C53.5432 46.3226 53.6596 45.2289 53.7041 44.1176H56.5664L61.5559 47.2361L63.7382 43.7445L57.7473 40H53.7255V36.5172L58.5294 33.7457V23.5294H54.4118V31.3675L50.2941 33.743V31.6914C50.2941 27.2842 46.7825 23.6841 42.4106 23.5366C43.2584 21.1365 45.5487 19.4118 48.2353 19.4118V15.2941C44.8715 15.2941 41.8797 16.9162 40 19.4189C38.1203 16.9162 35.1285 15.2941 31.7647 15.2941V19.4118C34.4513 19.4118 36.7416 21.1365 37.5894 23.5366C33.2176 23.684 29.7059 27.2842 29.7059 31.6914V33.743L29.3713 33.5498L25.5882 31.3674V23.5294H21.4706V28.9919L13.3966 24.3337C18.7753 15.2345 28.6859 9.11765 40 9.11765ZM42.1323 27.6471C44.3622 27.6471 46.1765 29.4614 46.1765 31.6914V34.5098H33.8235V31.6914C33.8235 29.4614 35.6378 27.6471 37.8677 27.6471H42.1323ZM49.5063 45.1663L38.1723 38.6275H49.6078V43.0882C49.6078 43.7906 49.5724 44.4841 49.5063 45.1663ZM30.3922 43.0882V38.8928L48.6241 49.4112C48.1201 50.933 47.4299 52.3303 46.5696 53.5446C44.7629 56.0953 42.4297 57.5 40 57.5C37.5703 57.5 35.2371 56.0953 33.4304 53.5447C31.4711 50.7786 30.3922 47.0652 30.3922 43.0882ZM40 70.8824C22.9715 70.8824 9.11765 57.0285 9.11765 40C9.11765 35.7524 9.97988 31.7024 11.5383 28.0155L26.2745 36.5172V40H22.2527L16.2618 43.7443L18.4441 47.2359L23.4336 44.1176H26.2959C26.3429 45.2904 26.4695 46.4437 26.673 47.5651L21.4706 50.4553V58.5294H25.5882V52.8781L27.8056 51.6462C28.3994 53.1965 29.1585 54.6373 30.0704 55.9247C32.6707 59.5959 36.1971 61.6176 40 61.6176C43.8029 61.6176 47.3293 59.5959 49.9296 55.9247C50.8415 54.6373 51.6007 53.1965 52.1944 51.6462L54.4118 52.8781V58.5294H58.5294V55.1258L64.6101 58.6339C58.9656 66.0703 50.0347 70.8824 40 70.8824Z" fill="#38DC91"/>
</svg> 
