<svg width="1440" height="450" fill="none" version="1.1" viewBox="0 0 1440 450" xmlns="http://www.w3.org/2000/svg">
 <g clip-path="url(#clip0)">
  <g clip-path="url(#clip1)">
   <path d="M1440 -110H0V450H1440V-110Z" fill="#BBF5D5"/>
   <path d="m6.1035e-5 483.28c112.72 5.721 214.43-52.169 315.6-102.2 113.08-55.917 246.89-95.95 308.12-206.24 62.276-112.16 53.708-254.27 15.572-376.76-35.344-113.52-145.36-179.01-217.92-273.2-78.29-101.62-100.45-273.22-225.41-302.26-126.59-29.425-219.33 127.15-341.89 170.4-112.96 39.864-265.8-18.279-344.66 71.888-78.803 90.107-29.637 231.32-25.133 350.94 3.73 99.069 11.402 195.55 49.162 287.22 38.92 94.483 91.681 182.44 170.89 246.99 85.527 69.699 185.47 127.63 295.66 133.22z" fill="#DCFAE9"/>
   <path d="m1440 1061c117.37-6.83 227.77-40.34 332.72-93.319 115.04-58.067 253.36-108.5 302.81-227.49 49.32-118.67-34.56-246.81-52.82-374.02-18.26-127.26 28.18-275.47-54.5-373.91-82.73-98.494-230.54-112.72-359.04-118.44-110.35-4.91-203.98 67.155-312.33 88.566-123.39 24.381-287.7-52.104-366.85 45.638-80.016 98.805 38.235 245.9 28.111 372.64-9.167 114.75-106.27 214.8-84.062 327.75 23.909 121.61 102.19 233.96 207.38 299.49 104.68 65.21 235.46 60.25 358.58 53.09z" fill="#96EDC6"/>
  </g>
 </g>
 <defs>
  <clipPath id="clip0">
   <rect width="1440" height="450" fill="#fff"/>
  </clipPath>
  <clipPath id="clip1">
   <rect transform="translate(0 -110)" width="1440" height="560" fill="#fff"/>
  </clipPath>
 </defs>
</svg>
