<svg width="712" height="712" fill="none" version="1.1" viewBox="0 0 712 712" xmlns="http://www.w3.org/2000/svg">
 <g transform="matrix(1.7804 0 0 1.7804 16.424 -.16684)" clip-path="url(#clip0)">
  <path d="m235.77 250.36c0.765 14.725-21.57 20.648-34.584 27.579-16.262 8.662-34.467 19.193-52.713 16.632-11.902-1.671-29.718-7.884-30.068-19.897-0.648-22.218 32.766-31.636 53.37-39.976 10.273-4.159 22.173-6.627 32.985-4.191 11.974 2.697 30.374 7.596 31.01 19.853z" clip-rule="evenodd" fill="#73e7b3" fill-rule="evenodd"/>
  <g fill="#fff">
   <path d="m162.39 51.317s-7.564 4.5459-10.193 6.8322c-2.626 2.2841-2.47 5.5704-1.13 9.2515 1.339 3.6811 5.126 3.5193 8.693 0.1243 3.568-3.3929 13.534-6.4176 11.081-11.145-2.452-4.73-5.362-6.0229-8.451-5.0627z"/>
   <path d="m106.14 97.205c-4.714-0.164-7.5652 2.6744-3.202 8.5153 4.365 5.841 13.044 7.045 16.221 6.296 3.177-0.748 9.665-1.557 9.665-1.557l2.244-8.728s-11.444-0.484-14.372-1.293c-2.927-0.8095-7.002-3.1091-10.556-3.2333z"/>
   <path d="m164.05 50.719c-2.889 0.5212-3.655 2.4371-7.085 9.3624-3.432 6.9298 1.408 6.9454 5.566 3.0514 4.158-3.8918 9.236-4.1912 9.378-7.3622 0.142-3.1689-5.561-5.4662-7.859-5.0516z"/>
  </g>
  <path d="m201.84 45.665c-2.333-3.9694-3.253-5.3753-3.732-9.8193-0.08-0.7384-16.614 4.4373-15.875 4.9163-0.774 5.5838-4.154 11.134-6.147 15.687 4.093 0 6.776 0.7251 11.402-0.5167 3.686-0.989 9.613-2.5413 12.571-5.1757 1.253-1.1176 2.641-3.6323 1.781-5.0914z" fill="#f9a999"/>
  <path d="m178.93 8.8163c-9.398 4.5459-12.073 18.299-8.64 28.156 0.577 2.6855 1.887 5.1558 4.14 7.0983 4.954 4.271 11.571 1.0977 16.49-1.5744 5.721-3.1068 11.863-7.6549 12.733-14.649 1.379-11.083-14.192-24.129-24.723-19.031z" fill="#fabdae"/>
  <path d="m109.91 107.12c0.242-0.304 0.206-0.874-0.143-1.371-0.396-0.563-1.013-0.811-1.378-0.556l-47.334 40.966 1.4978 1.938 47.358-40.977 7e-3 -7e-3 -7e-3 7e-3z" fill="#fff"/>
  <path d="m63.954 145.23c0.9234 1.317 0.8733 2.944-0.1124 3.636-0.985 0.692-2.532 0.187-3.4571-1.131-0.9234-1.315-0.8733-2.942 0.1126-3.634 0.9857-0.692 2.5327-0.186 3.4569 1.129z" fill="#553738"/>
  <path d="m178.46 39.15c-0.328 0-0.643-0.1774-0.805-0.4901-0.228-0.4435-0.053-0.9912 0.39-1.2174 0.107-0.0554 10.755-5.5638 16.614-10.793 5.883-5.2533 9.919-10.516 9.959-10.566 0.306-0.397 0.871-0.4701 1.268-0.1708 0.395 0.3038 0.473 0.8715 0.169 1.2685-0.04 0.0532-4.182 5.4529-10.192 10.817-6.032 5.3819-16.547 10.824-16.991 11.052l-0.412 0.0997z" fill="#fff"/>
  <path d="m168.64 29.226s5.206-0.785 12.267 4.6102c7.877 6.0162 10.008 8.6595 10.008 8.6595s-8.121 10.17-17.128 3.721c-6.708-4.8054-5.147-16.991-5.147-16.991z" fill="#422b2a"/>
  <path d="m178.76 72.438-0.209 52.037 0.022-4e-3c0.095 1.345 0.92 2.726 2.432 3.936v-56.59l-2.245 0.619" fill="#e93535"/>
  <path d="m189.43 69.494v63.333c4.211 1.197 9.1 0.957 12.186-0.825l32.436-18.724c1.936-1.121 2.814-2.65 2.694-4.236l9e-3 -4e-3v-52.587l-47.325 13.042" fill="#e93535"/>
  <path d="m189.43 132.83c-1.282-0.36-2.501-0.85-3.588-1.479l-1.984-1.146-1.459-0.84c-4e-3 -5e-3 -9e-3 -7e-3 -0.013-9e-3 -0.515-0.297-0.97-0.616-1.38-0.945v-56.589l8.424-2.3247v63.333" fill="#eb4747"/>
  <path d="m234.05 60.261-32.436 18.727c-4.024 2.3247-11.124 2.031-15.774-0.6538l-3.443-1.9868c-4.646-2.6848-5.158-6.7815-1.131-9.1094l32.436-18.724c4.024-2.3247 11.125-2.0309 15.774 0.6539l3.443 1.9867c4.646 2.6848 5.155 6.7847 1.131 9.1063z" fill="#eb4747"/>
  <path d="m206.85 69.718c0 3.664-5.278 6.6362-11.788 6.6362s-11.788-2.9722-11.788-6.6362c0-3.6639 5.278-6.633 11.788-6.633s11.788 2.9691 11.788 6.633z" fill="#ef6c6c"/>
  <path d="m232.66 55.356c0 3.664-5.278 6.6362-11.791 6.6362-6.51 0-11.788-2.9722-11.788-6.6362 0-3.6639 5.278-6.633 11.788-6.633 6.513 0 11.791 2.9691 11.791 6.633z" fill="#ef6c6c"/>
  <path d="m74.11 224.31c1.0516 2.264 0.2331 3.38-4.4096 6.325-5.6823 3.604-30.024 12.658-31.075 10.395-1.0516-2.264 0.7436-8.386 15.542-14.123 8.0575-3.124 18.891-4.861 19.942-2.597z" fill="#d2def3"/>
  <path d="m91.045 235.75c-18.176-9.43-34.125-6.241-40.364-0.21-3.5682 2.155-6.6758 15.417 2.0996 22.344 1.6325 1.288 11.864 3.674 29.66-3.078 4.2921-1.628 8.5999-4.452 10.995-8.517 2.2816-3.873 1.6451-8.443-2.3911-10.539z" fill="#392423"/>
  <path d="m91.954 253.88c2.6198 9.097-11.953 21.28-32.548 27.212-20.596 5.931-38.133 0.891-40.753-8.206-2.6198-9.097 17.945-20.243 38.54-26.174s32.141-1.929 34.761 7.168z" clip-rule="evenodd" fill="#73e7b3" fill-rule="evenodd"/>
  <path d="m59.6 242.44c-1.5167-2.725-4.4657-4.395-7.4721-4.938-6.7125-1.208-14.775 2.286-19.509 7.005-2.2038 2.199-3.9925 5.124-4.3746 8.267-0.0912-0.195-0.4399-0.221-0.4723 0.035-0.203 1.55 0.2777 3.012 1.143 4.244 0.6462 1.28 1.6828 2.308 3.0316 2.631l0.3605 0.183c3.3594 1.584 7.3683 1.358 10.966 1.026 6.7197-0.619 14.046-3.089 16.655-9.938 1.0429-2.741 1.127-5.901-0.328-8.515z" fill="#422b2a"/>
  <path d="m38.48 253.59c-1.5948-4.535-7.2195-5.233-10.904-2.917-0.311 0.198 0.0057 0.626 0.3121 0.521l0.0679-0.021c-1.3643 1.146-2.4065 2.81-2.8111 4.421-1.0663 4.254 1.4662 8.646 6.1571 7.158 3.7105-1.177 8.7724-4.63 7.1782-9.162" fill="#422b2a"/>
  <path d="m98.58 236.6c0 2.548-5.1259 8.755-9.937 8.755-4.811 0-9.8171-9.181-9.8171-11.729s6.232-1.64 11.043-1.64 8.7111 2.066 8.7111 4.614z" fill="#d2def3"/>
  <path d="m60.064 258.29c-1.1605-0.137-2.3346-0.343-3.5186-0.621-0.3209-0.075-0.9661-0.336-1.4441-0.598 2.108-1.485 3.8195-3.477 4.8278-6.122 1.0428-2.741 1.127-5.901-0.3281-8.515-0.7235-1.301-1.7747-2.362-3.0025-3.175 9.828-4.943 18.877-6.745 25.868-7.123 2.7807 0.904 5.6508 2.096 8.5783 3.614 2.7777 1.443 3.9453 4.059 3.6588 6.811-9.9406 10.026-21.55 17.265-34.64 15.729z" fill="#9b9090"/>
  <path d="m55.101 257.08c-0.366-0.203-0.6325-0.407-0.5765-0.534 2.3442-5.267 5.4404-11.655 1.4856-16.978 0.1968-0.101 0.3926-0.201 0.5881-0.3 1.2278 0.813 2.2789 1.874 3.0025 3.175 1.455 2.614 1.3709 5.774 0.328 8.515-1.0083 2.645-2.7197 4.637-4.8277 6.122z" fill="#a09493"/>
  <path d="m55.711 238.74c-1.1212-0.599-2.3468-1.013-3.5826-1.236-0.2948-0.053-0.5922-0.096-0.8917-0.131-0.6986-0.083-1.4097-0.117-2.1269-0.107 0.4857-0.794 1.0229-1.387 1.571-1.718 3.7938-3.668 11.179-6.284 20.471-5.65-4.3737 3.384-11.258 7.375-15.441 8.842" fill="#9b9090"/>
  <path d="m38.372 240.28c2e-4 -2e-3 2e-4 -2e-3 5e-4 -4e-3 0.0111-6e-3 0.0213-0.011 0.0325-0.017-0.0212 0.011-0.0319 0.02-0.033 0.021zm0.1846-0.1c3.2833-1.75 7.003-2.872 10.553-2.919 0.7172-0.01 1.4283 0.025 2.1269 0.107 0.2995 0.035 0.5969 0.078 0.8917 0.131 1.2358 0.223 2.4614 0.637 3.5826 1.236-0.3002 0.105-0.5876 0.198-0.8584 0.276-1.2192-0.29-2.3836-0.491-3.4916-0.621-7.1149-0.836-11.837 1.291-12.804 1.79z" fill="#a09493"/>
  <path d="m68.945 249.46c3.3015-1.594 6.325-4.554 8.2768-7.429 1.5924-2.345 2.4281-7.093 0.3077-9.433 1.6023-0.283 6.4993-0.489 7.5372-0.541 0.8171 2.891 0.7271 6.035-1.6874 8.384-1.3669 1.334-2.9346 2.509-4.4425 3.676-0.8192 0.634-1.6508 1.238-2.4963 1.806-0.6609 0.371-1.3554 0.781-2.0047 1.245-1.7237 0.983-3.5341 1.783-5.4908 2.292zm-1.6218-1.347c1.8154-1.647 2.893-4.169 3.1891-6.559 0.2494-2.004-0.0827-5.446-1.8359-6.849 2.945-0.458 5.4568-1.527 8.3822-2.048 0.75 1.515 1.32 4.254 0.8004 6.273-0.4566 1.772-1.6141 3.273-2.8197 4.621-2.2473 2.509-4.8753 4.025-7.6321 5.777 0.0354-0.42 0.0029-0.828-0.084-1.215zm27.154-14.976c-1.9475-0.276-3.8095 0.309-5.3638 1.194-1.0459 0.596-2.2429 1.26-2.9565 2.228 0.1725-1.134-0.0513-3.226-0.6153-4.373 2.9906-0.147 6.1959-0.074 8.9356 0.951zm-15.552 12.341c2.4526-1.107 5.0626-1.668 7.6922-2.167 3.8273-0.729 10.347-2.453 11.2-4.617-2.3992 1.29-4.5859 2.375-7.2642 3.02-2.3499 0.569-4.7489 0.898-7.0996 1.458-1.1584 0.277-2.2955 0.617-3.4023 1.033 0.2675-0.213 0.5394-0.427 0.8046-0.644 1.1489-0.937 3.3896-2.839 4.625-4.983 1.29-2.236 2.8367-3.368 3.3884-3.686 2.3954-1.377 4.5757-1.555 6.6518-1.304 0.667 0.328 1.0894 0.519 2.3347 1.049-3.5115-3.134-9.2992-3.224-13.726-3.059-5.4834 0.207-11.339 1.005-16.449 3.115l0.0443 0.157c0.2898-0.04 0.5781-0.088 0.8676-0.132 2.7995 4.198 0.9525 9.286-1.5417 12.648-0.8695-1.775-3.1419-2.744-5.0342-2.783 0.0927-0.271 0.1711-0.53 0.2282-0.771 0.3775-1.597 0.9064-5.893-1.181-6.605l-0.0375 0.052c1.5269 1.526 1.1006 5.157 0.4217 7.047-0.7704 2.142-2.3329 4.211-4.542 4.879l0.0466 0.316c2.3219 0.207 4.1645-2.495 4.9743-4.668 2.4539 0.605 5.0668 2.01 4.4596 4.992-0.389 1.908-1.7379 3.198-2.8218 4.705l-0.0017 7e-3c-1.1176 0.954-2.6072 2.32-3.5194 3.469 2.1048-0.418 7.2931-5.846 11.676-7.308 2.1024-0.702 4.2421-0.986 6.4563-1.111 2.0861-0.116 6.8468-0.381 8.9527-0.512-0.7706 0.651-1.9724 1.506-2.7945 2.104-4.0705 2.958-8.5421 4.391-13.127 6.345 5.5344-0.777 9.5173-3.202 13.246-5.835 3.9474-2.785 8.4925-6.203 11.273-10.201 0.0084-0.013-5.0129 4.744-7.728 7.071-2.2884-0.788-12.155 0.04-15.796 1.196 1.7739-1.544 4.3389-3.201 6.7234-4.277" fill="#422b2a"/>
  <path d="m72.741 228.35c-1.7345-1.726-5.1517-2.09-8.0737-1.828 1.6045-0.532 3.0464-1.388 3.7237-2.702 2.0678-0.123 4.0463-0.143 4.7896 0.205 2.4041 1.133 1.0828 2.945-0.4396 4.325zm-1.6958 1.377c-0.7707 0.591-1.6607 1.27-2.526 1.925-1.928-1.867-6.6931-1.723-9.1302-1.373-2.9612 0.425-6.2335 1.34-8.5935 3.247-0.4235-0.188-0.8711-0.312-1.3272-0.41 3.364-2.379 6.6297-4.416 10.692-5.379 1.6418-0.39 3.3261-0.621 5.0121-0.675 2.122-0.066 5.6495 0.02 7.3879 1.452-0.5512 0.482-1.1111 0.906-1.5151 1.213zm4.09-4.715c-0.4929-1.507-2.4919-1.699-3.7626-1.737-2.7119-0.079-6.2372 0.232-8.7948 0.926l0.0014 0.062c0.7634-2e-3 3.1383-0.268 5.4795-0.419-0.6401 0.831-1.6454 1.669-2.8807 2.176-0.7421 0.303-2.4593 0.488-3.892 0.871-1.7027 0.457-3.3339 0.978-3.7907 1.134l0.186-0.182c0.6183-0.675 1.5774-1.868 1.4232-2.836l-0.0621-6e-3c-0.5715 1.614-1.7712 2.786-3.1827 3.643-2.4856 1.045-4.8109 2.503-6.5989 4.428-0.6991-0.129-1.423-0.167-2.1545-0.11 0.9739-0.435 1.8331-1.159 2.6019-1.881 0.9068-0.853 1.9027-1.944 1.5533-3.269l-0.3227 0.172c-0.3991 2.67-3.0729 4.042-5.2589 5.212-1.8099 0.424-3.5399 1.35-4.8382 2.603 1.35-1.977 3.0477-3.667 5.3443-5.176l-0.0399-0.068c-4.0917 1.83-7.6893 6.152-8.3119 10.66l0.2828 0.074c0.5583-1.554 1.1898-2.945 1.9284-4.228 3.5461-3.69 8.0274-5.013 12.302-2.287-1.8408 0.724-3.4445 2.022-4.2846 3.748-0.1091 0.223 0.0362 0.301 0.1837 0.136 1.7584-1.998 4.4537-4.028 7.2553-4.142 1.8851-0.078 4.1637 1.086 5.7674 1.763-0.1556-0.28-1.0431-0.846-3.0332-1.645-1.8757-0.751-3.7079-0.672-5.6889 0.058-0.4953-0.475-1.0544-0.84-1.6511-1.113 4.5074-2.66 12.485-4.775 17.476-1.812-0.4807 0.366-0.9539 0.726-1.3855 1.053 0.724 0.035 4.4907-2.548 6.2181-4.134 0.8485-0.78 2.3632-2.352 1.9304-3.674" fill="#422b2a"/>
  <path d="m24.82 250.13c-0.2118 1.143 0.4667 2.086 1.6447 1.651 0.7158-0.264 1.384-0.816 1.985-1.269 0.4182-0.316 0.9978-0.631 0.889-1.205-0.4463-2.321-4.1461-1.192-4.5187 0.823z" fill="#f14c62"/>
  <path d="m35.742 243.33c-0.6726 0.566-1.8693 1.591-1.2837 2.517 0.7109 1.128 4.7887 1.422 5.8629 1.418 2.2838-5e-3 4.647-0.559 6.7591-1.387 1.3772-0.537 7.7205-3.671 4.5923-5.36-2.9986-1.62-10.962-1.367-15.931 2.812z" fill="#533436"/>
  <path d="m34.467 253.34c0.0144-1.312-0.8096-2.591-3.8101-1.624-1.7164 0.832-3.3197 2.722-3.7913 4.48-0.2398 0.892-0.3293 2.39 0.5449 3.004 0.7315 0.515 1.6421-0.028 2.3029-0.406 1.6763-0.958 4.7295-3.258 4.7536-5.454z" fill="#533436"/>
  <path d="m41.833 255.27c-0.6915-2.162-5.0159-1.745-5.9697 1.269-0.2234 0.699-0.1703 1.592 0.3085 2.186 0.6541 0.811 1.659 0.608 2.5431 0.35 1.6367-0.48 3.7835-1.737 3.1181-3.805z" fill="#f14c62"/>
  <path d="m31 252.5c-1.6202 0.762-3.031 2.623-3.3376 4.396-0.049 0.284 0.3979 0.489 0.5506 0.22 0.4394-0.772 0.7888-1.57 1.3174-2.292 0.522-0.709 1.1582-1.322 1.7419-1.977z" fill="#fff"/>
  <path d="m44.032 241.04c-2.7406 0.218-6.1506 1.368-8.2916 3.112l0.188 0.315c1.3896-0.446 2.6963-1.139 4.0781-1.618 1.3809-0.476 2.8056-0.784 4.1951-1.225 0.3499-0.112 0.1575-0.612-0.1696-0.584" fill="#fff"/>
  <g fill="#392423">
   <path d="m24.841 252.04c-0.7026-0.273-11.337 7.053-11.712 7.133-2.8251 0.134-11.779-0.692-13.011 0.863-0.18813 0.235-0.14658 0.527 0.091385 0.64 3.9995 1.935 9.2947 1.88 13.152-0.506 4.0445 0.667 9.2262-1.207 11.208-4.663 0.3576-0.626 1.4326-3.014 0.2719-3.467z"/>
   <path d="m32.203 238.63c-0.6125-1.432-1.5456-4.323-2.7541-3.277-3.1668 2.741-10.97 5.583-11.296 5.658-4.213 0.894-6.9663 0.468-9.6326 0.202-0.33799-0.033-0.49198 0.387-0.24002 0.597 3.4048 2.831 7.8843 2.513 11.044-0.43 1.7691 0.095 6.8049-0.299 10.105-3.774 0.301 2.63 1.9523 5.822 3.6248 7.644 0.5129 0.557 2.3118 0.769-0.8511-6.62z"/>
   <path d="m38.294 242.67c-0.7426-3.615-1.6424-6.685-1.297-10.409 0.0364-0.392-0.1971-2.355-0.3063-2.747-1.2333-0.392-3.6543 0.044-6.3015 0.454-2.3816 0.369-4.9475 0.717-6.996 0.418l-0.02-0.029c-0.7006-0.459-1.5013-0.712-2.2479-1.09-0.9914-0.5-2.2317-1.829-3.131-2.474-0.8059-0.58-2.2475-0.573-1.8584 0.518 0.672 1.883 4.9015 4.458 7.1107 4.027 1.6004 0.706 3.6614 1.129 5.4659 1.093 2.1764-0.041 4.8421-1.135 6.967-1.754-0.2167 0.79-0.561 2.705-0.5579 3.139 0.0136 2.924 0.3259 6.296 1.9203 8.791 0.6858 1.075 1.3471 0.532 1.2521 0.063"/>
   <path d="m45.482 256.71c-0.6572-2.745-4.535-5.008-6.8048-6.291-6.0392-3.415-9.0885-2.098-10.674-1.165-2.5578 1.505-3.5238 4.562-3.8061 7.353-0.6225 6.157 1.8639 13.567 9.4289 12.015 3.3021-0.676 6.3932-2.483 8.7453-4.875 1.7412-1.769 3.7464-4.379 3.1104-7.037z"/>
  </g>
  <path d="m31.925 249.28c-1.6274-2.549-5.4767-2.233-7.4497-0.212-2.8357 2.907-2.0606 7.212-0.2311 10.409 0.9387-4.78 3.6448-8.291 7.6808-10.197" fill="#ef6c6c"/>
  <g fill="#392423">
   <path d="m64.691 279.54c-1.5795-1.664-3.7303-2.83-4.5538-3.928-1.4167-1.893-2.1144-3.639-3.5972-4.886-0.2068-1.217-0.2803-2.462-0.2155-3.714 0.1571-2.987 0.8286-9.339 0.6688-9.954-0.5863-2.248-4.5496-0.107-5.5594 0.261-3.6176 1.323-12.525 5.387-12.139 5.445 1.8536 0.28 8.5708-1.68 12.047-2.919 1.4842-0.532 2.6443-0.965 3.3838-1.224-1.5942 4.249-0.7593 9.06 1.085 13.098 0.0585 2.927 3.1646 7.152 5.6074 9.031 1.7001 1.306 4.9699 0.578 3.2724-1.21z"/>
   <path d="m46.327 268.52c0.3434-2.71 1.1256-6.037-1.4136-7.929-0.4119-0.31-0.8587 0.301-0.475 0.629l0.1128 0.11c-0.971 3.746-1.7273 7.581-2.3864 11.388-0.1619 0.934-0.1575 2.13 0.3923 2.52-0.6099 3.235-0.9104 6.41-2.0266 9.568-0.4519 1.278-2.2834 4.146-1.123 5.374l0.4796 0.119c2.356-0.878 3.7555-4.084 4.2487-6.325 0.613-2.783 0.4566-6.035-0.3342-8.869l0.2493-0.147c1.9752-1.298 2.0115-4.363 2.2761-6.438"/>
   <path d="m74.486 267.05c-2.0089-2.539-4.01-5.136-5.6544-7.964-1.5238-2.621-3.122-8.094-3.4368-9.609-0.0781-0.375-0.3888-0.515-0.6386-0.356-3.1197 1.983-12.348 7.508-11.83 7.756 2.1775 1.049 9.451-2.885 11.428-5.839 0.3551 2.05 1.9871 9.685 3.5359 12.466 1.3958 2.508 3.0154 3.214 5.7876 3.939 0.0522 0.105 1.6437 3.538 2.9472 4.633 2.4724 2.076 6.7548 2.289 5.168 0.333-1.5129-1.868-5.6311-3.245-7.3068-5.359z"/>
  </g>
  <path d="m42.595 253.4c-1.2547-0.672-4.7156-1.1-6.5813 1.284-1.3802 1.765-1.6616 4.371-1.5849 6.517 0.0648 1.789 0.5184 3.749 2.3683 4.462 1.9084 0.736 4.3111-0.296 5.8306-1.434 3.4907-2.625 4.2444-8.533-0.0327-10.829" fill="#ef6c6c"/>
  <path d="m194.7 40.773s19.368-3.6878 23.788 9.0564c4.419 12.746-10.738 26.156-10.738 26.156l-13.05-35.212z" fill="#eb4747"/>
  <path d="m165.88 46.723c-1.114 0.4723-3.588 2.0845-3.489 4.5947 2.495 0.224 5.178 1.3439 6.462 3.0891 2 2.712 0.854 5.4374 0.158 6.9674 1.357 1.5834 18.68 0.6209 21.053-6.8455 2.375-7.4664-0.756-10.511-6.668-10.91-5.91-0.3992-13.56 1.4192-17.516 3.1045z" fill="#eb4747"/>
  <path d="m162.79 261.18c-2.019 0.916-4.097 0.96-6.479 1.053-7.151 0.284-8.93-1.253-12.352-6.027 0.031 0.339-2.209 8.855-2.222 8.979-4.886-1.67-9.513-4.344-13.7-1.796-4.394 2.67-4.713 6.701-3.667 10.686 1.463 1.88 4.226 4.736 8.093 6.604 5.435 2.624 12.345 4.027 14.731 4.386 3.495 2.096 8.406 3.743 12.035 1.838 3.734-1.958 5.607-3.6 4.503-7.734-1.018-3.805-1.388-15.177-0.942-17.989z" fill="#392423"/>
  <path d="m197.3 137.41c-1.071-3.087-3.278-8.697-6.941-9.471-2.799-0.595-6.451 2.213-8.575 3.004-2.77 1.029-20.947 1.28-20.856 1.586-7.599 12.609-15.498 44.532-16.795 66.814-1.979 9.42-1.903 30.025-2.58 39.636-0.665 9.427-4.23 22.049 0.742 27.926 2.708 3.2 16.324 6.876 21.751 1.206 6.278-5.125 9.218-51.185 4.65-57.383 7.504-5.238 11.664-18.273 15.07-25.661 2.054-4.453 3.653-9.103 4.453-13.955 0.308-1.865 0.459-3.626 0.625-5.305 8.72-6.477 12.075-17.968 8.456-28.397z" fill="#eb4747"/>
  <path d="m226.08 231.95c-3.158 1.958-11.046 7.496-13.561 4.823-0.556 0.031-5.215 2.542-8.779 2.531-6.189-0.018-11.919 1.015-11.934 7.927-5e-3 1.717 3.936 6.584 5.574 7.56 8.74 5.198 14.219 2.801 17.763 1.929 3.02 2.608 10.114 0.313 14.314-3.577 1.388-1.286-0.823-7.593-2.333-9.18 0.271-1.247-1.193-10.593-1.044-12.013z" fill="#392423"/>
  <path d="m213.27 185.61c2.457-9.619 2.49-21.938-4.296-29.072 10.842-10.959 2.841-31.668-6.069-42.261l0.273-0.164c1.765-1.118 0.122-3.943-1.639-2.806-5.453 3.515-16.026 7.664-19.51 13.323-3.357 5.451-2.282 15.184-2.663 21.391-1.087 17.711-0.568 38.061 12.531 50.573 0.61 3.703 7.753 12.249 9.917 23.898 1.794 9.644-7e-3 14.088 3.466 20.042 3.164 5.422 17.467 9.13 21.656 0.104 2.302-4.958-1.8-25.781-2.519-29.214-3.59-17.168-6.624-22.767-11.147-25.814z" fill="#e93535"/>
  <path d="m158.77 136.65s5.181 9.759 25.251 5.404c15.563-3.38 21.315-11.203 21.315-11.203l-1.601-5.834-43.053 6.575z" fill="#e93535"/>
  <path d="m214.03 51.59c-11.586-15.851-31.152 0.581-42.122 7.5019-15.583 9.8326-11.567 30.646-11.848 37.527-0.311 7.6236-3.942 11.884-2.451 15.559 1.936 4.769 4.704 6.04 0.467 9.916-0.666 0.61-1.751 1.635-0.584 3.151 1.191 1.548 2.201 2.276 3.501 3.502-2.142 1.359-2.312 4.038 0.172 5.974 4.845 3.772 16.846 5.005 22.742 3.009 10.343-3.499 20.958-8.304 24.524-15.254 1.572-3.063 0.521-4.697 0.406-10.183-0.08-3.686-0.171-7.205 1.749-10.5 7.17-12.307 13.64-36.25 3.444-50.203z" fill="#ef6c6c"/>
  <g fill="#eb4747">
   <path d="m184.69 77.557c-2.608-7.6283-13.441-17.554-21.3-12.514-1.62 1.0401-7.979 4.8675-6.676 14.642-5.584 3.8851-9.033 9.4001-8.952 16.94-2.584-0.9669-12.95-1.0312-15.107 2.0845-4.35-0.8715-7.053 1.9555-7.947 4.8545-0.895 2.898-0.943 8.242 0.864 9.495 4.279 2.963 11.918 4.53 19.59 5.832 11.503 1.949 12.532 1.473 24.783-7.446 11.23-8.174 20.12-18.162 14.745-33.889z"/>
   <path d="m162.85 129.4s3.898 2.226 11.367 2.226c7.466 0 12.336-3.022 12.336-3.022s-9.38 0.845-12.647 0.998c-3.268 0.157-11.056-0.202-11.056-0.202z"/>
   <path d="m164.88 123.6s7.336-0.124 13.924-2.486 12.256-10.07 12.256-10.07-8.242 6.467-13.607 8.456c-5.362 1.987-12.573 4.1-12.573 4.1z"/>
  </g>
  <g fill="#392423">
   <path d="m159.54 116.27s11.231 9.852 21.658 3.75c10.427-6.098 6.95-11.711 6.95-11.711s-5.322 8.506-13.443 9.014c-8.12 0.51-11.85-3.206-11.85-3.206z"/>
   <path d="m171.91 59.092s7.455 0.663 12.279 4.5814c4.825 3.9162 6.876 7.3999 6.876 7.3999l2.723-1.7496s-3.827-6.1581-8.865-9.8325c-5.039-3.6745-10.219-2.2242-10.219-2.2242z"/>
   <path d="m198.22 44.57s7.455 0.6631 12.278 4.5792c4.823 3.9184 6.877 7.4021 6.877 7.4021l2.723-1.7518s-3.83-6.1559-8.866-9.8303c-5.038-3.6745-10.218-2.2264-10.218-2.2264z"/>
  </g>
  <path d="m174.7 57.267s-0.565-5.8543 7.349-8.1029c7.917-2.2486 12.904-2.9471 17.372-7.8811 1.302-1.437 1.519 0.4214 2.677 2.4371 1.16 2.0157 2.847 3.8873-2.249 8.5552-5.095 4.6679-12.369 5.6015-16.434 5.9142-4.064 0.3104-8.715-0.9225-8.715-0.9225z" fill="#eb4747"/>
  <path d="m155.08 207.21s2.007 2.865 6.1 3.801c4.089 0.931 6.114 0 6.114 0s-7.159-4.486-12.214-3.801z" fill="#e93535"/>
  <path d="m158.89 199.34s1.752 3.734 3.969 5.251 5.834 3.202 5.834 3.202-0.69-2.022-2.916-4.601c-2.217-2.568-6.887-3.852-6.887-3.852z" fill="#e93535"/>
  <g fill="#392423">
   <path d="m63.157 145.79c0.5118 0.732 0.4849 1.632-0.0617 2.014-0.5457 0.386-1.4032 0.104-1.915-0.625-0.5112-0.728-0.4843-1.63 0.0623-2.014 0.5457-0.384 1.4032-0.102 1.9144 0.625z"/>
   <path d="m215.18 182.36c-3.97 0-7.398-1.179-8.912-3.257l1.461-1.067c1.393 1.914 5.934 3.284 11.595 2.065 5.775-1.251 19.781-6.974 25.154-33.019 7.378-35.796 6.275-68.589-2.573-76.283-8.193-7.1316-17.895 1.6942-17.995 1.7873l-1.228-1.3283c0.108-0.102 11.008-10.008 20.41-1.8227 9.455 8.2203 10.782 41.031 3.155 78.008-5.586 27.089-20.421 33.097-26.539 34.423-1.539 0.332-3.069 0.494-4.528 0.494z"/>
   <path d="m161.33 60.454c-0.706-0.8316-1.317-1.7541-1.937-2.6655l-51.605 46.373 2.732 3.892 51.522-46.759c-0.237-0.2772-0.475-0.5633-0.712-0.8404z"/>
   <path d="m189.79 4.889c-0.574-7.1937-11.961-5.5749-14.376 0.11751-1.411-0.94245-3.413-1.3394-4.218 0.54995-0.14 0.33042-0.153 0.65861-0.146 0.98016-4.495-0.77614-9.365 3.6789-7.901 8.6794 2.024 6.9343 12.917 5.8189 18.7 3.0979-1.537 2.3639-2.02 5.382-0.386 7.9366 1.686 2.6344 4.79 3.5236 7.393 2.3816 0.994 4.2133 4.158 9.4444 9.784 8.4554 7.05-1.2418 13.585-12.895 5.098-22.581 0-6.0671-7.065-12.771-13.948-9.6174z"/>
   <path d="m60.497 144.1s3.69-2.127 4.96-1.779c0.5907 0.164 1.4154 1.293 1.4154 1.905 0 2.273-2.6741 4.293-2.6741 4.293z"/>
   <path d="m169.92 31.983-7.877 2.0756 2.668 10.544 7.404-1.3971-2.195-11.223z"/>
   <path d="m185.53 46.381 3.787-3.6278-3.007-3.1711c-1.674-1.5922-4.998-0.8116-7.426 1.7407-2.428 2.5524-3.04 5.912-1.368 7.5042l2.627 2.7142 3.435-3.2908c0.473-0.3393 0.936-0.7141 1.366-1.1642 0.215-0.2284 0.399-0.4679 0.586-0.7052z"/>
  </g>
  <path d="m187.95 50.258c-2.43 2.5523-5.754 3.3329-7.429 1.7407-1.672-1.59-1.06-4.9495 1.369-7.5041 2.428-2.5524 5.752-3.3329 7.426-1.7408 1.672 1.59 1.06 4.9496-1.366 7.5042z" fill="#553738"/>
  <path d="m187.41 49.621c-1.859 1.9514-4.4 2.5479-5.679 1.3305-1.28-1.2175-0.812-3.7854 1.044-5.739 1.856-1.9514 4.4-2.5457 5.679-1.3305 1.28 1.2174 0.812 3.7853-1.044 5.739z" fill="#422b2a"/>
  <path d="m165.02 38.922c0.719 2.9183 0.581 5.4595-0.308 5.6813-0.891 0.2195-2.2-1.9669-2.919-4.883-0.72-2.9183-0.582-5.4618 0.309-5.6813 0.891-0.2196 2.198 1.9669 2.918 4.883z" fill="#553738"/>
  <path d="m164.55 39.037c0.605 2.4504 0.583 4.5637-0.051 4.7189-0.632 0.1574-1.637-1.7031-2.242-4.1535-0.604-2.4481-0.582-4.5636 0.053-4.7188 0.632-0.1553 1.636 1.7052 2.24 4.1534z" fill="#422b2a"/>
  <path d="m126.55 100.37c-2.989-0.5767-7.967-1.4526-10.427-1.293-3.395 0.2196-6.297-0.2284-7.352 1.118-1.054 1.343-0.144 2.313 1.26 2.639 1.403 0.321 3.666 2.379 6.577 4.18 1.726 1.068 4.905 1.949 7.219 2.497-0.249-3.46 0.05-7.077 2.723-9.141z" fill="#fff"/>
  <g fill="#3a7e76">
   <path d="m58.473 149.26c-6.4872 5.16-14.359 7.488-22.188 9.932-1.6589 0.519-6.8406 0.787-6.2696 3.413 1.482 6.819 21.608-6.045 28.457-13.345z"/>
   <path d="m51.494 159.1c-2.3302 1.791-30.045 27.413-19.658 30.59 2.2322 0.683 4.4366-4.736 7.8028-11.646 3.0751-6.311 7.1256-10.742 11.855-18.944z"/>
   <path d="m44.969 179.08c-1.8312 2.3-22.572 33.833-11.727 34.421 2.3302 0.124 3.1671-5.666 4.773-13.181 1.4682-6.868 4.3346-12.141 6.9539-21.24z"/>
  </g>
  <path d="m178.96 72.251-0.209 51.844 0.02-7e-3c0.096 1.339 0.916 2.719 2.426 3.921v-56.372l-2.237 0.6143z" fill="#00b858"/>
  <path d="m189.59 69.324v63.091c4.194 1.186 9.066 0.951 12.139-0.825l32.312-18.654c1.929-1.115 2.801-2.637 2.683-4.216l0.011-4e-3v-52.387z" fill="#00b858"/>
  <path d="m189.59 132.42c-1.277-0.362-2.492-0.852-3.574-1.475l-1.976-1.142-1.453-0.838c-4e-3 -2e-3 -0.011-7e-3 -0.015-9e-3 -0.512-0.297-0.965-0.614-1.373-0.943v-56.371l8.391-2.3128v63.091z" fill="#00c863"/>
  <path d="m234.04 108.64-32.312 18.652c-3.073 1.778-7.945 2.013-12.139 0.825-1.277-0.362-2.492-0.852-3.574-1.475l-3.429-1.978c-0.519-0.302-0.975-0.621-1.388-0.951-1.51-1.204-2.33-2.582-2.426-3.921l-0.011 2e-3 -9e-3 1.781 0.02-4e-3c0.096 1.337 0.916 2.714 2.426 3.918 0.413 0.33 0.869 0.652 1.388 0.951l3.429 1.978c1.082 0.626 2.297 1.116 3.574 1.477 4.194 1.189 9.066 0.951 12.139-0.825l32.312-18.654c1.929-1.115 2.8-2.639 2.683-4.217h0.011v-1.779l-0.011 2e-3c0.117 1.579-0.754 3.103-2.683 4.218z" fill="#422b2a"/>
  <path d="m234.04 62.749-32.312 18.656c-3.073 1.774-7.945 2.0113-12.139 0.8227-1.277-0.3615-2.492-0.8515-3.574-1.4747l-3.429-1.9802c-0.519-0.2994-0.975-0.6187-1.388-0.9513-1.51-1.2042-2.33-2.579-2.426-3.9184l-0.011 0.0022-9e-3 1.7807 0.02-0.0067c0.096 1.3394 0.916 2.7165 2.426 3.9206 0.413 0.3304 0.869 0.652 1.388 0.9513l3.429 1.9803c1.082 0.6231 2.297 1.111 3.574 1.4725 4.194 1.1885 9.066 0.9535 12.139-0.8228l32.312-18.654c1.929-1.1154 2.8-2.6389 2.683-4.2155l0.011-0.0045v-1.7762l-0.011 0.0022c0.117 1.5789-0.754 3.1023-2.683 4.2155z" fill="#422b2a"/>
  <path d="m234.04 60.126-32.312 18.654c-4.011 2.3151-11.081 2.0224-15.713-0.6519l-3.429-1.9781c-4.63-2.6743-5.138-6.7568-1.128-9.0719l32.311-18.656c4.012-2.3151 11.081-2.0224 15.714 0.652l3.428 1.9802c4.63 2.6722 5.138 6.7569 1.129 9.072z" fill="#00c863"/>
  <path d="m206.94 69.546c0 3.6501-5.257 6.6082-11.742 6.6082-6.486 0-11.744-2.9581-11.744-6.6082 0-3.65 5.258-6.6104 11.744-6.6104 6.485 0 11.742 2.9604 11.742 6.6104z" fill="#38dc91"/>
  <path d="m232.65 55.238c0 3.6523-5.255 6.6104-11.741 6.6104-6.484 0-11.744-2.9581-11.744-6.6104 0-3.65 5.26-6.6082 11.744-6.6082 6.486 0 11.741 2.9582 11.741 6.6082z" fill="#38dc91"/>
  <path d="m187.2 57.342v7.2668c0 2.6877 3.87 4.8653 8.644 4.8653s8.644-2.1776 8.644-4.8653v-7.2668z" fill="#422b2a"/>
  <path d="m204.48 57.342c0 2.6877-3.87 4.8653-8.644 4.8653s-8.644-2.1776-8.644-4.8653c0-2.6876 3.87-4.863 8.644-4.863s8.644 2.1754 8.644 4.863z" fill="#553738"/>
  <path d="m201.28 56.329c0 1.6942-2.435 3.0647-5.442 3.0647-3.005 0-5.442-1.3705-5.442-3.0647 0-1.6919 2.437-3.0624 5.442-3.0624 3.007 0 5.442 1.3705 5.442 3.0624z" fill="#644244"/>
  <path d="m212.26 43.226v7.2668c0 2.6877 3.869 4.8653 8.644 4.8653 4.774 0 8.644-2.1776 8.644-4.8653v-7.2668z" fill="#422b2a"/>
  <path d="m229.55 43.226c0 2.6877-3.87 4.8653-8.644 4.8653-4.775 0-8.644-2.1776-8.644-4.8653 0-2.6854 3.869-4.863 8.644-4.863 4.774 0 8.644 2.1776 8.644 4.863z" fill="#553738"/>
  <path d="m208.72 128.63-6.405-3.699v-37.871l6.405 3.6966v37.873z" fill="#422b2a"/>
  <path d="m204.26 86.086-1.943 0.9713 6.405 3.6966 1.942-0.9735z" fill="#644244"/>
  <path d="m204.17 82.795v46.799c0 2.02 2.909 3.657 6.497 3.657s6.495-1.637 6.495-3.657v-46.799z" fill="#644244"/>
  <path d="m217.16 82.795c0 2.0179-2.907 3.6567-6.495 3.6567s-6.497-1.6388-6.497-3.6567c0-2.0202 2.909-3.6567 6.497-3.6567s6.495 1.6365 6.495 3.6567z" fill="#764e52"/>
  <path d="m215.14 81.749c0 1.3527-1.949 2.4526-4.357 2.4526-2.406 0-4.355-1.0999-4.355-2.4526 0-1.3549 1.949-2.4526 4.355-2.4526 2.408 0 4.357 1.0977 4.357 2.4526z" fill="#895d62"/>
  <path d="m226.35 42.403c0 1.692-2.438 3.0624-5.442 3.0624-3.007 0-5.442-1.3704-5.442-3.0624s2.435-3.0624 5.442-3.0624c3.004 0 5.442 1.3704 5.442 3.0624z" fill="#644244"/>
  <path d="m222.85 78.318 6.994-4.0359c0.708-0.4103 1.287-1.5146 1.287-2.4593 0-0.9424-0.579-1.3815-1.287-0.9735l-6.994 4.0382c-0.707 0.408-1.286 1.5145-1.286 2.4592 0 0.9424 0.579 1.3815 1.286 0.9713z" fill="#fff"/>
  <path d="m222.85 112.04 6.994-4.038c0.708-0.408 1.287-1.515 1.287-2.46 0-0.942-0.579-1.381-1.287-0.971l-6.994 4.036c-0.707 0.408-1.286 1.515-1.286 2.459 0 0.943 0.579 1.382 1.286 0.974z" fill="#fff"/>
  <path d="m357.67 336.17c-14.149 9.146-34.182-3.665-49.316-11.068-13.729-6.717-36.738-13.935-35.387-29.159 1.11-12.493 20.393-16.597 32.8-18.437 9.479-1.406 19.2 2.582 28.071 6.207 11.156 4.558 25.914 8.074 30.664 19.149 4.467 10.417 2.686 27.155-6.832 33.308z" clip-rule="evenodd" fill="#73e7b3" fill-rule="evenodd"/>
  <path d="m139.21 336.15c7.055 14.967-18.452 30.022-33.7 36.446-11.523 4.853-32.853 10.591-37.496-1.018-5.8096-14.524 18.824-26.863 33.092-33.275 11.604-5.213 32.68-13.66 38.104-2.153z" clip-rule="evenodd" fill="#73e7b3" fill-rule="evenodd"/>
  <g fill="#723425">
   <path d="m104.33 329.3c-2.023-1.317-7.0228-1.704-9.6549-1.525 1.2774-0.626 3.3189-1.67 4.526-2.431 1.0989-0.696 2.6719-1.477 3.3889-2.625 0.406-0.649 0.453-1.318 0.146-2.014-0.244-0.546-1.156-3.23-1.21-4.39-0.049-1.099-0.935-0.817-1.029-0.588-0.344 0.839-0.7427 1.739-0.422 2.59 0.406 1.065 0.903 1.502 1.803 2.902-1.102 0.199-1.9972 0.905-2.4238 1.284-2.2384 1.992-4.6151 3.376-6.6238 5.642-0.9563 1.075 2.1212 2.657 3.6705 3.054 1.4158 0.361 4.9921 0.795 5.8761 0.675 1.577-0.211 2.904-1.952 1.953-2.574z"/>
   <path d="m91.167 338.94c-5.2832-0.301-10.053 1.931-10.25 1.977 0.8017-1.241 1.6126-3.318 1.479-4.713-0.1101-1.157-0.2484-2.784-1.3735-1.542-2.2853 0.213-4.3409 0.244-6.5558 0.907-0.2579 0.077-0.2977 0.471-0.0727 0.623 1.0149 0.676 3.933 0.634 6.4176-0.768-1.0571 2.456-0.4055 4.667-1.5634 6.27-0.5086 0.347-0.9938 1.439-0.0305 1.847 2.6744 1.129 5.6839 0.117 8.4099-0.636 2.147-0.592 3.7502-3.954 3.5392-3.965"/>
   <path d="m83.704 346.63h-7e-3c-2.515-1.379-4.8495-0.579-7.6364 0.896-1.6806-0.472-5.1308 0.475-6.8817 0.794-3.2603 0.596-6.1761 0.884-8.5739 3.485l0.1125 0.43c2.2782 0.328 4.5893-0.629 6.2605-2.314 3.2674 0.553 7.0457-0.368 8.9724-1.198 2.1611 1.18 6.0707 0.624 8.0091-1.143 0.3984-0.364-0.0563-0.99-0.2555-0.95"/>
   <path d="m133.92 329.99c-14.089-7.065-36.738 4.407-43.658 10.899-3.8252 3.583-8.4802 8.311-10.008 13.456-1.4181 4.777 1.1016 8.913 5.9371 9.887 5.4354 1.094 11.635-0.038 16.888-1.529 5.916-1.676 11.522-4.367 16.761-7.559 4.805-2.932 10.179-6.28 13.869-10.604 3.068-3.593 6.797-11.248 0.211-14.55"/>
  </g>
  <path d="m155.68 340.82c-1.214 0-4.263 0.561-6.469 1.526-5.278 2.312-10.77 6.451-11.136 7.177-1.275-0.602-4.134-1.153-5.475-1.776-2.056-0.954-4.137-2.279-6.762-1.367-0.992 0.342-1.156 0.902-0.968 1.055 3.668 2.946 9.952 4.35 13.946 3.689 1.547-0.255 8.461-4.135 10.796-7.936-0.227 0.072 4.678-1.015 6.221-1.203 1.115-0.131 0.848-1.165-0.153-1.165z" fill="#914135"/>
  <path d="m133.48 327.22c-5.293-1.814-11.734-0.101-16.44 2.56-7.219 4.078-14.188 12.804-15.831 15.282 3.045 2.456 5.094 4.266 6.582 7.976 11.262-0.375 23.586-5.923 30.03-15.502 2.754-4.096-0.056-8.848-4.341-10.316z" fill="#97463a"/>
  <path d="m126.06 326.16c-10.857 0.103-15.959 1.216-20.34 2.627-7.1631 2.302-16.189 10.409-16.853 13.426 2.7611-0.876 5.0487-1.089 8.4521 0.359 2.6766-2.996 6.9946-4.076 10.71-5.194 3.961-1.191 7.983-2.166 11.93-3.397 2.97-0.925 6.701-2.194 9.434-5.263 0.605-0.678 1.069-2.6-3.333-2.558z" fill="#a54d45"/>
  <g fill="#c55d58">
   <path d="m136.12 328.6c0.52 6.191-4.151 10.679-9.12 13.691-4.817 2.92-10.154 4.245-15.303 6.365l0.021 0.073c6.021-1.137 12.418-3.691 17.46-7.186 3.654-2.536 8.773-7.388 7.521-12.388-0.255-0.188-0.417-0.449-0.579-0.555"/>
   <path d="m134.68 328.74c-1.833 4.933-6.169 8.74-10.555 11.349-4.343 2.585-9.117 4.36-13.908 5.918l0.019 0.068c5.445-1.15 10.667-3.187 15.385-6.157 3.867-2.436 8.419-6.34 9.458-11.068 0.056-0.263-0.308-0.356-0.399-0.11"/>
   <path d="m133.76 327.33-0.037 0.042c-2.37 4.115-7.161 7.069-11.27 9.052-4.563 2.203-9.279 4.013-14.025 5.771l0.039 0.152c5.178-1.346 10.168-3.361 14.962-5.722 3.808-1.872 8.878-4.86 10.716-9.005l0.019-0.082-0.404-0.208"/>
   <path d="m123.57 326.35c-2.463 1.936-4.24 3.711-7.184 4.882-2.499 0.994-5.103 1.693-7.683 2.429-4.636 1.314-9.7414 2.77-13.175 6.364l0.0914 0.114c4.7208-3.6 10.086-5.042 15.711-6.612 4.44-1.237 9.706-3.016 12.603-6.898 0.171-0.23-0.175-0.427-0.363-0.279z"/>
   <path d="m123.62 326.21c-2.173 1.486-4.545 2.086-7.133 2.654-2.951 0.647-5.862 1.466-8.71 2.477-5.468 1.946-10.845 4.535-15.504 8.011l0.0352 0.061c5.773-3.276 11.597-6.237 17.954-8.225 2.859-0.892 5.773-1.455 8.675-2.179 2.013-0.502 4.017-1.184 5.327-2.844-0.215 0.015-0.431 0.031-0.644 0.045"/>
  </g>
  <path d="m109.33 349.96c-0.713-3.916-5.837-6.515-9.151-7.61-6.6567-2.201-10.128-2.18-13.88 1.053-3.2205 2.772-7.027 7.657-5.1566 11.646 2.5525 5.448 9.3592 5.316 13.88 4.41 9.5936-1.934 14.933-6.046 14.308-9.499z" fill="#914135"/>
  <path d="m91.626 353.47c-2.9744-1.666-6.1621-2.974-9.4599-3.83-2.5126-0.654-5.1237-0.727-6.3238 1.999-0.6469 1.472-0.8555 3.106-0.7032 4.712-0.1312 1.591 0.1524 3.176 1.1227 4.566 1.6595 2.372 4.4675 3.431 7.1512 4.165 2.3814 0.651 5.2199 1.507 7.6341 0.534 2.4681-0.994 3.3916-3.903 3.8229-6.31 0.5273-2.942-0.7665-4.446-3.244-5.836z" fill="#823a2d"/>
  <path d="m112.19 375.54c-0.525-2.201 0.534-7.67-0.377-8.978-1.034-1.486-2.18-2.187-2.825-3.877-0.443-1.165-0.888-3.096-1.734-4.087-0.8-0.936-1.001-1.331-2.194-0.781-1.674 0.776-1.674 2.782-0.661 4.62 1.308 2.374 4.878 2.857 6.256 5.1-0.816 1.303-0.01 6.389 0.401 8.003 0.288 1.127-1.276 2.278-1.43 5.706-0.042 0.929 0.562 1.095 1.43 0.293 1.638-1.514 2.001-3.933 1.134-5.999z" fill="#914135"/>
  <path d="m135.67 364.67c-4.95-1.858-9.481-2.4-13.937 0.528-0.033-2.133-0.773-4.584-1.432-6.563-0.551-1.657-1.188-3.385-2.576-4.533-0.691-0.572-2.205-1.486-3.098-0.853-1.233 0.877-0.912 1.347 1.971 5.879 1.772 2.784 1.746 3.979 2.465 6.602 0.258 0.933 0.957 2.062 2.201 1.734 0.879-0.232 9.139-3.333 13.609-2.224 1.134 2.967 2.018 3.52 2.018 6.692 0 0.867 0.905 0.065 1.048-0.265 1.094-2.564 0.576-5.93-2.269-6.997z" fill="#914135"/>
  <path d="m97.123 343.44c-0.3563-1.277-2.2291-1.461-3.2932-1.423-5.3698 0.192-8.1122 3.119-9.3099 5.177-0.3516 0.603-0.7876 1.757 0.2273 2.072 0.443 0.139 0.7735-0.187 1.1063-0.368 1.3314-0.721 2.1822-1.682 3.6589-2.231 2.0298-0.757 4.294-0.581 6.2816-1.293 0.818-0.293 1.5938-0.983 1.329-1.934z" fill="#fff"/>
  <path d="m80.376 350.72c-2.1329-1.282-4.0291 2.75-2.7564 3.563l0.4735-0.098c0.4266-0.931 1.0993-1.62 1.9079-2.365 0.3399-0.314 0.7852-0.852 0.375-1.1z" fill="#fff"/>
  <path d="m93.52 388.54c-4.6479-7.339-4.6479-13.489-4.6479-21.507 0-1.602 1.9618-5.279 1.0266-6.7-0.5883-0.889-1.6454-0.824-2.4189-0.194-1.1719 0.954-0.4148 2.29-0.232 3.62 0.5391 3.904 0.1219 7.514 0.3703 11.292 0.2813 4.326 1.8329 9.404 4.001 13.189 3.4901 6.095 9.3968 11.762 16.696 11.762-10.452-4.259-13.424-9.296-14.795-11.462" fill="#723425"/>
  <path d="m70.1 356.81c-4.7839 1.33-9.7928 1.866-14.727 1.855-5.1799-0.01-10.789-0.65-15.674-2.4-4.7769-1.716-11.919-5.009-13.792-6.758 6.2231 6.333 14.72 9.35 23.394 10.379 4.9385 0.588 8.8411 0.276 13.806 0.058 3.2275-0.145 7.3363-1.078 10.412-1.987 1.4743 0.276 3.8604 0.375 4.3011-1.156 1.0688-3.733-6.0051-0.467-7.7208 9e-3" fill="#723425"/>
  <g fill="#5d261d">
   <path d="m93.558 354.37c-2.4471-2.918-7.2661-3.964-10.777-4.688l-0.014 0.03c2.6228 1.2 5.5667 1.895 8.0395 3.373 4.4464 2.658 3.2112 6.61 2.2595 10.796-0.0515 0.228 0.2719 0.387 0.3891 0.167 1.547-2.938 2.4377-6.894 0.1032-9.678"/>
   <path d="m124.57 325.9c-6.042 0.268-12.657 0.708-18.46 2.504l9e-3 0.07c3.987-0.267 7.932-1.057 11.907-1.458 1.814-0.181 3.633-0.331 5.455-0.438 2.046-0.12 7.034-0.776 5.529 2.956-0.099 0.246 0.286 0.384 0.415 0.173 2.297-3.694-2.225-3.924-4.855-3.807"/>
   <path d="m138.5 332.3-0.148 0.06c1.42 5.715-5.412 10.487-9.528 13.316-4.287 2.947-8.984 4.562-13.911 6.052-0.262 0.08-0.152 0.448 0.11 0.406 6.015-1.041 12.001-4.201 16.747-7.958 2.811-2.224 9.856-7.591 6.73-11.876z"/>
   <path d="m109.48 348.98c-1.142-3.53-6.68-6.725-10.161-6.966l-0.0189 0.124c2.881 0.905 6.071 2.553 8.176 4.789 4.022 4.273-0.439 7.444-3.812 9.736l0.078 0.188c3.07-1.201 6.984-4.027 5.738-7.871"/>
  </g>
  <path d="m276.84 331.57c5.494 9.607-9.189 21.627-18.545 27.538-16.481 10.411-49.279 26.182-57.836 8.667-7.159-14.655 20.507-27.206 35.463-33.715 12.529-5.452 34.135-14.352 40.918-2.49z" clip-rule="evenodd" fill="#73e7b3" fill-rule="evenodd"/>
  <g fill="#392423">
   <path d="m209.22 335.51c-0.518-1.302-1.248-2.38-2.402-3.267-0.137-0.106-7.412 3.887-11.532 5.612-0.799 0.333-2.277 0.894-2.297 1.806-3.974 1.368-7.621 1.725-11.85 2.007-0.965 0.064-3.605 0.685-3.064 2.102 0.796 2.082 6.134 1.581 7.74 1.301 2.823-0.489 5.487-2.554 7.739-4.477 1.782 0.424 5.48-0.732 6.633-1.257 1.469-0.67 4.405-3.094 6.093-4.491 0.33 2.172 0.649 4.18 1.892 6.997 0.487 1.101 2.808 2.641 4.125 2.435 1.163-0.182-2.196-6.555-3.077-8.768z"/>
   <path d="m215.28 325.46c-2.416 0.76-4.228 1.368-6.714 1.878-2.157 0.44-7.193 1.169-7.388 1.295-1.496 0.06-8.707 1.546-10.165 2.349-2.066 1.137 0.299 2.186 2.545 1.738 2.063-0.406 6.418-2.14 8.16-3.286 1.503 1.443 5.488 0.991 7.212 0.78 1.798-0.219 4.276-1.905 5.737-2.84-1.043 3.889 0.274 10.149 2.873 12.74l0.209 0.046c0.292 0.077 1.555-0.332 1.553-0.734-0.022-4.713-3.329-13.024-4.022-13.966z"/>
   <path d="m226.09 337.14c-1.781-4.847-1.963-9.471-2.583-14.502-0.156-1.269-0.467-3.366-1.905-2.051-2.309 0.809-4.978 2.618-7.471 2.8-2.604 0.191-6.084-0.284-7.627 0.741-1.047 0.344-2.146 0.284-3.187 0.658-1.292 0.466-2.628 0.732-3.995 0.843-0.335 0.027-0.506 0.28-0.458 0.601 0.258 1.712 3.184 1.413 4.363 1.15 1.52-0.334 3.333-1.235 4.313-2.59 1.668 1.746 5.133 2.012 7.247 1.699 1.991-0.297 4.115-1.26 5.651-2.723-0.083 1.854 0.363 3.936 0.692 5.222 1.111 4.329 3.924 8.283 3.977 8.422 0.23 0.606 1.21 0.349 0.983-0.27z"/>
   <path d="m271.55 327.3c0.211-5.365-4.739-8.62-8.722-10.484-5.61-2.627-12.934-1.751-17.532 0.202-2.707 1.156-8.068 4.053-10.935 9.634-3.264 6.355 1.463 15.281 5.001 17.919 3.794 2.827 8.721 4.041 13.397 3.358 5.399-0.79 9.691-3.375 13.407-7.129 3.209-3.244 5.19-8.542 5.384-13.5z"/>
   <path d="m211.06 338.13-0.013 5e-3c-4.317-0.355-8.229 3.346-9.223 7.694-0.605 2.644-0.562 6.145 0.85 8.545 1.465 2.49 5.192 4.118 7.919 4.669 2.865 0.577 5.2-0.8 7.366-2.538 2.507-2.012 5.204-4.657 5.536-8.041 0.619-6.322-7.027-10.274-12.435-10.334"/>
   <path d="m231.77 332.79-0.096 0.125c1.441 1.744 3.088 3.312 3.752 5.545 0.671 2.262 0.125 4.316-0.484 6.518-0.061 0.217 0.219 0.381 0.38 0.219 3.668-3.672 0.437-10.411-3.552-12.407z"/>
  </g>
  <path d="m205.51 339.96s-2.507-0.262-4.056 3.062c-1.55 3.324 0.786 5.163 1.055 5.096 0.269-0.064 3.001-8.158 3.001-8.158z" fill="#533436"/>
  <path d="m245.86 338.11c0.697-3.022-0.299-7.484-6.611-8.023-3.755-0.321-7.882 2.262-9.536 3.732-4.809 4.276-1.828 10.014 3.805 11.42 4.365 1.088 11.124-1.844 12.342-7.129z" fill="#422b2a"/>
  <path d="m235.65 336.33c-3.919-6.976-13.039-5.148-18.356-1.086-2.427 1.854-6.295 4.919-6.874 8.138-0.162 0.894-0.044 1.746 0.259 2.511 0.289 2.654 2.467 4.823 4.911 5.858 3.452 1.464 7.295 0.526 10.592-0.893 5.517-2.375 13.428-7.478 9.468-14.528z" fill="#422b2a"/>
  <g fill="#533436">
   <path d="m268.86 353.84c-1.305-1.043-7.767 0-11.68-2.549-2.303-3.539-5.07-6.803-7.399-10.347-2.183-3.326-3.842-5.672-6.429-8.701-2.239 0.752-3.479 4.116-4.553 7.213-1.48 4.265-4.43 8.489-9.113 9.8-0.362 0.1-0.411 0.696 0 0.787 5.273 1.153 9.036-3.821 10.999-7.164 0.754-1.287 1.759-3.986 2.411-5.864 0.863 2.752 2.284 5.375 3.937 7.602 1.296 1.745 2.808 3.333 4.502 4.699 1.28 1.033 2.931 2.608 4.655 2.561l0.132-0.044c0.471 1.947 1.994 3.459 3.822 4.276 1.077 0.48 2.248 0.72 3.427 0.645 1.544-0.096 6.96-1.582 5.289-2.914z"/>
   <path d="m250.02 365.21c-1.763-1.468-4.036-2.374-4.981-3.372-1.627-1.713-2.524-3.365-4.143-4.431-0.347-1.184-0.565-2.414-0.646-3.666-0.193-2.982 0.336-9.515 0.192-10.134-0.642-2.736-1.33-2.564-3.988-0.679-3.141 2.229-12.131 8.634-11.74 8.644 1.874 0.062 6.443-2.73 9.752-4.366 1.411-0.701 2.514-1.269 3.218-1.61-1.089 4.406 0.302 9.087 2.605 12.88 0.398 2.902 3.975 6.736 6.622 8.317 1.841 1.1 5.003-4e-3 3.109-1.583z"/>
   <path d="m231.47 354.15c9e-3 -1.013-0.324-7.479-1.251-8.207-1.574-1.235-7.056 6.072-7.932 7.12-0.742 0.89-0.87 2.559 0.573 2.808 1.66 0.286 3.431-2.118 4.204-3.251 0.605-0.889 1.136-1.918 1.507-2.995-0.348 3.05-0.578 6.124-0.746 9.178-0.051 0.949 0.093 2.133 0.684 2.459-0.228 3.282-0.157 6.473-0.898 9.735-0.299 1.323-1.784 4.386-0.488 5.47l0.49 0.062c2.238-1.146 3.255-4.494 3.482-6.774 0.285-2.838-0.249-6.052-1.366-8.773l0.231-0.174c1.81-1.52 1.489-4.566 1.51-6.658z"/>
  </g>
  <path d="m205.38 352.42c-0.542-1.568-3.035-2.218-3.975-1.537-1.931 1.397-2.997 4.393-2.643 6.664 0.182 1.17 0.809 3.643 2.829 4.243 4e-3 0.026 1.675-4 2.816-5.781 0.67-1.039 1.415-2.31 0.973-3.589z" fill="#422b2a"/>
  <path d="m208.95 354c-0.848 0.578-1.158 1.629-1.477 2.547-0.655 1.881-2.109 4.644-3.59 6.256 3.031 1.415 7.652-0.417 9.605-3.63 0.904-1.493 1.106-3.308-0.992-4.792-1.225-0.865-2.82-0.874-3.546-0.381z" fill="#422b2a"/>
  <g fill="#533436">
   <path d="m207.36 341.48c-1.292-2.443-3.606-4.033-5.132-6.366-0.686-1.051-1.088-3.26-2.221-4.247-0.688-0.598-1.59-0.665-1.815-0.507-2.799-1.79-6.189-2.648-9.479-2.856-1.449-0.094-6.638-0.6-7.22 1.301-0.739 2.411 3.584 1.603 4.477 1.495 2-0.246 4.088-0.668 6.109-0.563 1.977 0.101 3.831 0.78 5.624 1.581-4e-3 0.044 0.349 2.177 2.813 5.65 1.393 1.958 4.047 3.355 5.013 5.555 0.402 0.913 0.729 1.709 1.88 0.923 0.885-0.606 0.385-1.145-0.049-1.966z"/>
   <path d="m215.73 336.27c-0.328-2.172-0.045-1.881-1.582-2.909-0.181-0.685-0.812-1.9-2.147-3.103-1.637-1.472-3.457-3.015-4.834-4.733-0.636-0.795-2.551-1.256-0.935 2.337 0.741 1.645 4.431 5.388 7.095 6.107 0.531 2.004 0.594 3.732 0.821 5.774 0.115 1.031 0 3.9 0 5.542 0 0.722 1.643 0.722 1.643-0.579 0-3.424 0.448-5.052-0.061-8.436z"/>
   <path d="m220.57 346.65c-0.598-0.788-2.481-1.185-3.662-0.121-1.919 1.045-3.361 3.548-3.503 5.602-0.207 2.923 3.248 1.896 4.672 0.823 1.488-1.127 3.951-4.382 2.493-6.304z"/>
  </g>
  <path d="m219.11 347.28c-1.152-1.472-3.528 1.213-4.045 2.406-0.308 0.714-0.949 3.056 0.574 2.956 0.608-0.042 1.264-0.765 1.645-1.168 0.571-0.606 1.056-1.305 1.443-2.039 0.332-0.628 0.859-1.548 0.383-2.155z" fill="#fff"/>
  <path d="m229.23 334.1c-0.728-1.284-9.106 0.694-10.259 2.756-1.585 2.835 3.715 2.122 5.123 1.787 1.628-0.383 6.605-1.953 5.136-4.543z" fill="#533436"/>
  <path d="m259.95 319.13c-0.333-1.786-3.292-2.595-4.778-2.597-6.749-2e-3 -11.944 2.623-14.85 5.653-0.796 0.829-2.009 2.332-0.837 3.388 0.654 0.588 1.974 0.319 2.708 0.295 1.698-0.058 3.391-0.175 5.076-0.391 3.062-0.392 6.103-1.062 8.946-2.29 1.697-0.735 4.192-1.606 3.735-4.058z" fill="#422b2a"/>
  <g fill="#fff">
   <path d="m204.29 343.26c-1.005 1.084-1.568 3.157-1.232 4.598 0.06 0.257 0.468 0.262 0.526 0 0.168-0.742 0.174-1.514 0.329-2.261 0.155-0.75 0.458-1.453 0.616-2.198z"/>
   <path d="m251.92 318c-3.414 0.235-7.299 2.151-9.505 4.779l0.184 0.238c1.384-0.923 2.692-1.908 4.194-2.646 1.687-0.83 3.425-1.224 5.212-1.734 0.341-0.098 0.29-0.664-0.085-0.637z"/>
   <path d="m226.4 334.9c-1.591-0.233-4.422 0.667-5.023 2.329l0.083 0.084c0.793-0.198 1.489-0.776 2.247-1.087 0.877-0.362 1.788-0.47 2.693-0.719 0.279-0.075 0.321-0.56 0-0.607z"/>
  </g>
  <path d="m189.1 32.644s4.318-4.6169 5.484 0.4014c0.798 3.4283-2.574 5.2001-2.574 5.2001z" fill="#fabdae"/>
  <path d="m110.61 105.09c0.754 1.073 0.713 2.404-0.092 2.967-0.805 0.565-2.069 0.153-2.823-0.923-0.755-1.075-0.714-2.403 0.091-2.969 0.805-0.565 2.07-0.153 2.824 0.925z" fill="#553738"/>
  <path d="m187.62 43.616-0.523-0.2106c-0.381-0.3238-0.43-0.8937-0.109-1.2729 0.08-0.0953 8.072-9.6352 10.265-17.423 0.133-0.4812 0.646-0.7495 1.116-0.6254 0.479 0.1353 0.76 0.6342 0.625 1.1177-2.302 8.1671-10.285 17.694-10.624 18.095-0.193 0.2284-0.475 0.3371-0.75 0.3193z" fill="#fff"/>
  <path d="m203.99 244.81c-0.381 2.915-1.861 40.629 7.731 35.531 2.061-1.095-0.212-6.486-2.718-13.752-2.288-6.637-2.557-12.634-5.013-21.779z" fill="#3a7e76"/>
  <path d="m284.11 255.22c-1.486-1.537-2.813-3.218-3.833-5.108-8.728-16.222-0.133-29.884 10.748-47.174 2.518-4.005 5.121-8.142 7.711-12.61 5.044-8.679 9.365-27.39 6.882-34.636-1.466-4.276-4.03-6.944-7.225-7.513-3.115-0.557-6.378 0.958-8.984 4.156l0.936 0.761c2.321-2.842 5.173-4.199 7.834-3.726 2.742 0.489 4.979 2.871 6.297 6.714 2.347 6.85-1.969 25.345-6.779 33.639-2.584 4.445-5.183 8.579-7.692 12.571-11.094 17.627-19.855 31.547-10.787 48.391 0.884 1.641 1.968 3.15 3.202 4.535z" fill="#e93535"/>
  <path d="m316.98 62.091c-5.014-2.4604-15.973-0.1426-20.304 16.167-4.27 3.0204-8.864 9.8997-6.795 21.418-2.176 6.549-3.982 9.964-5.798 13.438 0.495 1.178 10.835 10.619 16.921 10.075 10.819-8.281 17.145-24.918 22.978-37.537 4.005-8.663 2.305-19-7.002-23.561z" fill="#00c863"/>
  <path d="m338.03 61.948s5.789 0.8417 6.151 4.3574c0.363 3.519-2.661 6.7239-4.441 6.2675-1.784-0.4565-1.71-10.625-1.71-10.625z" fill="#00b858"/>
  <path d="m295.6 273.02 0.104 0.67c0.771 5.064-1.541 7.207-4.522 9.253-2.982 2.052-10.845 6.244-11.376 12.13-0.531 5.889 2.201 8.44 10.068 10.505 4.289 1.123 9.148-1.613 12.949-4.807 4.108-3.461 8.543-9.298 8.556-11.432 6.132-2.231 6.258-5.726 3.83-15.047-5.798 3.577-13.603 2.816-19.608-1.272" fill="#292827"/>
  <path d="m362.2 296.85c-5.772 3.306-12.936 4.3-18.398 1.192 0.042 0.968 0.039 1.907-0.084 2.768-0.651 4.578-4.71 12.37-7.702 17.504-2.657 4.559-1.521 11.166 3.267 14.358 3.525 2.343 13.467 3.549 16.75-2.444 3.286-5.996 4.312-11.619 4.364-16.662 2.541-3.031 2.541-3.031 3.383-4.634 2.33-4.435-0.855-8.598-1.554-11.706l-0.026-0.376" fill="#292827"/>
  <path d="m290.06 225.81c-0.269-5.72-0.223-13.169-0.013-18.912 0.197-5.377-2.684-48.799 17.559-61.431 0.34-0.425 19.378 2.23 25.749 2.777 0.923 0.078 1.648 0.881 1.797 1.758 3.636 21.13 3.364 44.63-7.863 63.603-2.493 4.212-5.122 7.152-8.825 10.204 3.499 6.106 3.078 19.515 2.344 29.45-0.622 8.479-2.464 17.53-4.125 21.337-3.904 8.951-14.833 8.897-20.43 4.228-2.568-2.14-6.378-7.85-2.014-18.316-4.364-10.104-3.998-30.868-4.179-34.698" fill="#00b858"/>
  <path d="m322.4 179.42c-6.792-4.684-8.981-13.399-7.925-29.579 5.639-8.398 29.689-2.156 38.527-2.095 8.071 6.339 6.196 17.142 4.092 27.847 2.224 9.602 7.183 23.969 8.89 39.023 0.424 3.775 0.828 12.286-2.866 15.724 5.025 11.33 8.838 56.378 3.163 65.183-2.311 3.586-10.518 7.125-15.678 5.697-1.725-0.475-8.857-0.867-11.272-8.915-1.341-4.462-1.133-16.264-2.095-29.994-0.673-9.537-2.962-20.625-2.347-28.232-2.832-4.494-5.503-7.161-6.607-12.344-2.856-13.412-3.869-28.799-5.882-42.315z" fill="#38dc91"/>
  <path d="m357.05 152.72 1.191 3.169s-5.212 6.624-17.125 8.22c-11.916 1.599-22.836-0.363-27.851-2.37-5.011-2.004-7.018-7.157-7.018-7.157s27.592 4.694 34.869 2.644c7.274-2.049 15.934-4.506 15.934-4.506z" fill="#00b858"/>
  <path d="m304.02 144.54c-2.908-4.927-1.033-23.399 0.621-31.428-3.564-13.299-4.927-23.079-2.198-33.849 1.696-6.7142 7.818-14.432 16.07-14.856 4.027-0.204 17.643 5.4516 20.211 6.8663 10.563 2.9945 16.859 8.0415 23.975 15.882 0.881 0.9712-2.69 32.192-4.458 38.042-2.065 6.821-0.906 17.265-2.486 23.636 3.697 2.062 1.771 5.115-0.058 7.096-6.621 4.71-18.657 6.458-24.225 5.736-11.467-1.486-22.626-2.567-29.884-11.447-1.282-1.567 0-5.364 2.431-5.678" fill="#38dc91"/>
  <path d="m320.6 61.294c2.37 0.4791 6.365 1.2334 8.725 0.7737 3.137-0.6118 6.678-2.1593 9.268-4.4901 0.224 3.2632 1.273 11.567 2.759 14.853 2.887 6.3775-13.38 8.4947-18.246 8.6889-1.25-1.8226-4.736-4.0207-4.694-8.5012 1.489-5.3351 1.661-8.8346 2.188-11.324z" fill="#f9a999"/>
  <path d="m313.07 45.153c0.705-4.5096 2.334-10.097 6.189-12.94 3.811-2.8067 9.764-2.4507 14.206-1.6284 6.882 1.2723 10.89 9.5015 8.656 18.232-2.065 8.0674-8.97 20.071-18.303 20.745-4.753 0.3432-7.961-3.5545-9.583-8.268-1.923-5.5844-1.745-12.415-1.165-16.141z" fill="#fabdae"/>
  <path d="m314.19 35.205c-0.085 0-4.176 1.9715-7.488 1.7287-4.445-0.3237-4.918-4.4933-4.918-4.4933s5.488-1.5637 8.79-1.1072c3.305 0.4532 3.616 3.8718 3.616 3.8718z" fill="#00b858"/>
  <path d="m344.42 50.67s0.511 0.3237-0.949 3.6516c-1.46 3.328-4.396 7.8505-4.396 7.8505s-2.069-1.4438-1.842-6.1735c0.223-4.7297 1.842-7.2354 1.842-7.2354s-4.807 0.9032-10.052-3.0787c-5.241-3.9851-5.924-6.9473-5.924-6.9473s-4.06 5.8369-9.547 5.5391c-5.49-0.2979-11.075-8.2973-5.571-10.104 5.503-1.8032 18.028-0.0711 18.028-0.0711s18.77 10.275 18.411 16.568" fill="#292827"/>
  <path d="m344.51 52.165c-4.182-9.4141-19.67-20.191-31.191-19.498l0.168-0.2978c6.115-9.5695 12.629-11.703 25.578-6.1477s9.566 16.831 8.883 18.187c-0.168 0.3367-1.554 5.3804-3.438 7.7566" fill="#38dc91"/>
  <g fill="#00c863">
   <path d="m337.44 43.059s-3.71-6.4682-12.752-10.628c-11.369-5.2315-22.907 0.0089-22.907 0.0089s8.31 1.3661 11.706 5.1149c3.393 3.7456 5.361 6.7369 12.03 6.8501 7.958 0.136 11.923-1.3467 11.923-1.3467"/>
   <path d="m325.31 81.997s-2.202 4.5937-3.228 14.995c-1.026 10.405-2.182 23.914-1.084 31.749 0.731 5.208-1.357 14.697-2.587 19.009-1.23 4.309 0 10.156 0 11.875-2.596 4e-3 -6.378-1.94-6.378-1.94s-0.498-8.97 1.24-13.68c1.742-4.704 2.584-15.99 2.072-19.411-1.12-7.472 1.37-20.276 2.176-27.602 0.89-8.1256 1.227-17.595 2.768-17.728 1.945 0.6281 5.021 2.7323 5.021 2.7323z"/>
   <path d="m323.1 81.12s-0.657-3.0592 3.645-5.4711c1.509-0.8449 4.205-1.1751 6.957-1.8679 7.41-1.8614 10.476-7.4749 10.476-7.4749l0.651 6.2901s-0.275 4.7103-6.779 8.2422c-6.507 3.5351-14.95 0.2816-14.95 0.2816z"/>
   <path d="m319.3 68.277c0.511 1.5927 1.201 3.5934 1.974 5.4354 1.053 2.5025 1.823 7.407 1.823 7.407s-4.098-2.0525-5.811-5.2445c-1.169-2.1787-0.22-6.2739 0.499-8.6727 0.508 0.4435 1.032 0.8093 1.515 1.0748z"/>
   <path d="m353 147.75s-5.387 3.322-10.237 4.461c-4.849 1.14-8.815 0-8.815 0s2.956-0.311 8.815-1.978c5.857-1.667 10.237-2.483 10.237-2.483z"/>
   <path d="m351.48 144.24s-4.422 2.428-10.359 0.87c-5.941-1.557-9.204-4.749-9.204-4.749s7.495 2.422 10.848 3.037c3.354 0.609 8.715 0.842 8.715 0.842z"/>
   <path d="m362.84 219.66c-0.77 0.683-1 4.102-3.506 7.521-2.509 3.415-4.675 4.781-4.675 4.781s-0.236-4.464 3.587-7.517c3.824-3.056 4.594-4.785 4.594-4.785z"/>
   <path d="m354.22 234.47s4.539 1.499 5.756 3.768c1.22 2.269 2.305 4.574 2.305 4.574s-2.661 0.632-4.691-2.564c-2.03-3.191-3.37-5.778-3.37-5.778z"/>
  </g>
  <path d="m351.56 220.97v64.5c0 4.643 6.695 8.407 14.95 8.407 8.249 0 14.944-3.764 14.944-8.407v-64.5z" fill="#292827"/>
  <path d="m366.51 240.44c-8.252 0-14.947-3.765-14.947-8.411v41.833c0 4.642 6.695 8.407 14.947 8.407s14.947-3.765 14.947-8.407v-41.833c0 4.646-6.695 8.411-14.947 8.411z" fill="#eb4747"/>
  <path d="m377.51 272.46c-2.733 1.677-6.646 2.731-11.001 2.731-8.255 0-14.95-3.764-14.95-8.41v2.101c0 4.643 6.695 8.407 14.95 8.407 4.355 0 8.268-1.054 11.001-2.729z" fill="#fff"/>
  <path d="m377.51 243.01c-2.733 1.677-6.646 2.736-11.001 2.736-8.255 0-14.95-3.765-14.95-8.411v2.098c0 4.646 6.695 8.41 14.95 8.41 4.355 0 8.268-1.058 11.001-2.732z" fill="#fff"/>
  <path d="m381.45 220.97c0 4.643-6.692 8.408-14.944 8.408s-14.947-3.765-14.947-8.408c0-4.645 6.695-8.413 14.947-8.413s14.944 3.768 14.944 8.413z" fill="#333232"/>
  <path d="m356.24 212.56v6.733c0 3.205 4.616 5.798 10.304 5.798 5.692 0 10.308-2.593 10.308-5.798v-6.733z" fill="#292827"/>
  <path d="m376.85 212.56c0 3.205-4.616 5.801-10.308 5.801-5.688 0-10.304-2.596-10.304-5.801 0-3.202 4.616-5.798 10.304-5.798 5.692 0 10.308 2.596 10.308 5.798z" fill="#333232"/>
  <path d="m364.15 202.3v9.945c0 0.712 1.03 1.295 2.302 1.295 1.276 0 2.305-0.583 2.305-1.295v-7.109z" fill="#eb4747"/>
  <path d="m370.57 204.06c0.527 0.301 1.511 0.744 2.24 0.32 0.77-0.443 1.249-1.764 1.249-3.451 0-3.94-2.44-8.676-5.331-10.346l-6.278-3.626c-0.521-0.304-1.511-0.745-2.243-0.321-0.767 0.444-1.243 1.768-1.243 3.451 0 3.94 2.438 8.676 5.328 10.347zm1.55 4.185c-1.091 0-2.24-0.33-3.392-0.993l-6.278-3.629c-4.02-2.318-7.17-8.265-7.17-13.536 0-3.085 1.126-5.506 3.088-6.643 1.726-1.003 3.836-0.887 5.924 0.324l6.278 3.626c4.024 2.321 7.17 8.265 7.17 13.535 0 3.089-1.123 5.51-3.088 6.64-0.78 0.453-1.638 0.676-2.532 0.676z" fill="#eb4747"/>
  <path d="m366.26 262.69c-0.499-0.343-0.936-0.965-1.169-1.343l-0.224-0.59-0.621 0.029-0.026-0.184c-0.113-0.628-0.262-1.224-0.421-1.755l0.321-0.165c0.284 0.431 0.757 1.091 1.256 1.58 0.799 0.774 1.803 0.816 1.826 0.411 0.022-0.337-0.936-0.505-1.677-1.013-0.496-0.343-0.933-0.968-1.166-1.344l-0.226-0.592-0.693 0.039c-0.233-0.641-0.421-1.049-0.434-1.078l9e-3 -8e-3s-0.042-0.298-0.162-0.699c-0.087-0.291-0.214-0.634-0.398-0.961l0.592-0.421c0.515-0.266 1.182-0.67 1.454-1.35 0.249-0.635 0.424-1.464 0.434-1.855 0.011-0.576-0.34-0.596-0.34-0.059 0 0.612-0.331 1.723-0.738 2.114-0.612 0.593-1.545 0.865-1.891 0.92-0.256-0.256-0.573-0.447-0.965-0.518l-0.634 0.01-0.301 0.119c-0.411-0.239-1.205-0.793-1.748-1.508-0.408-0.534-0.735-1.761-0.735-2.373 0-0.538-0.356-0.644-0.343-0.062 8e-3 0.395 0.187 1.286 0.437 2.008 0.272 0.78 0.935 1.417 1.45 1.861l0.482 0.492c-0.456 0.641-0.482 1.596-0.482 1.596s-0.198 0.359-0.447 0.955l-0.77-0.32c-0.204-0.039-0.298 0.207-0.224 0.514-0.233 0.292-0.67 0.764-1.165 0.929-0.745 0.25-1.7 0.081-1.68 0.428 0.026 0.411 1.029 0.718 1.832 0.226 0.499-0.307 0.968-0.803 1.25-1.136l0.395 0.327c-0.153 0.466-0.295 0.997-0.408 1.576l-0.029 0.198-0.703-0.288c-0.207-0.042-0.301 0.204-0.226 0.511-0.234 0.295-0.671 0.764-1.166 0.929-0.741 0.25-1.696 0.085-1.677 0.428 0.022 0.411 1.026 0.722 1.826 0.226 0.499-0.304 0.971-0.803 1.256-1.133l0.395 0.324 0.133 0.065c-0.058 0.479-0.097 0.942-0.113 1.385l-3e-3 -3e-3v0.031l-0.738-0.017-0.017 0.593c-0.104 0.382-0.314 1.02-0.693 1.372-0.557 0.531-1.451 0.732-1.311 1.065 0.165 0.399 1.149 0.327 1.673-0.469 0.324-0.502 0.564-1.175 0.696-1.612l0.379 0.155c0.011 0.602 0.049 1.166 0.11 1.684h-2e-3s-2e-3 0.301 0.104 0.764c0.087 0.537 0.187 1.026 0.281 1.463 0.097 0.44 0.36 1.107 0.755 1.751 0.521 0.852 1.265 1.661 2.162 1.868l0.022 8e-3 0.042 7e-3 0.039 8e-3 0.022 3e-3v-3e-3c1.58 0.194 2.694-1.645 2.917-2.587 0.104-0.443 0.211-0.942 0.305-1.505 0.09-0.395 0.09-0.673 0.09-0.673v3e-3c0.055-0.479 0.087-1.004 0.097-1.567l0.298-0.029c0.129 0.482 0.366 1.237 0.696 1.852 0.521 0.981 1.505 1.401 1.667 1.061 0.139-0.284-0.751-0.796-1.311-1.528-0.372-0.485-0.586-1.197-0.69-1.615l-0.017-0.599-0.648-0.22 2e-3 -0.039-8e-3 0.02c-0.023-0.463-0.059-0.955-0.12-1.473l0.052-4e-3 0.394-0.184c0.285 0.43 0.755 1.091 1.257 1.573 0.799 0.777 1.8 0.819 1.825 0.418 0.023-0.34-0.935-0.505-1.676-1.017" fill="#292827"/>
  <path d="m367.48 269.59c-4.399 2.814-9.666-0.317-12.153-3.985l-6e-3 -0.021c3.985-2.975 8.242-6.193 11.696-9.771 0.44 0.463 0.871 0.942 1.285 1.522 2.496 3.487 3.458 9.531-0.822 12.256zm-13.528-15.335c1.414-2.072 4.956-2.373 6.633-1.955 2.428 0.605 4.218 1.473 5.782 2.881-4.034 2.859-7.841 6.281-11.593 9.469-1.583-2.965-2.603-7.782-0.822-10.395zm16.212 3.762c-0.424-0.774-0.971-1.515-1.612-2.204-0.305-0.337-1.412-1.331-1.499-1.402-2.817-2.305-6.653-3.713-10.227-3.014-4.862 0.955-5.83 5.753-4.292 11.217 1.579 5.614 7.549 10.981 14.082 8.683 5.659-1.991 5.995-8.799 3.548-13.28z" fill="#fff"/>
  <g fill="#e93535">
   <path d="m380.27 271.08h-0.266c-0.084 0.502-0.065 1.013-0.113 1.518-0.062 0.635-0.201 1.25-0.327 1.875-0.071 0.347 0.434 0.492 0.531 0.146 0.298-1.065 0.479-2.461 0.175-3.539"/>
   <path d="m378.59 273.94-0.266 0.035c9e-3 0.658 9e-3 1.311-0.133 1.955-0.11 0.49-0.411 0.932-0.327 1.434l0.305 0.123c0.479-0.301 0.543-0.949 0.615-1.476 0.094-0.709 0.051-1.401-0.195-2.071"/>
   <path d="m376.3 277.22c-0.382 0.213-0.703 0.502-1.104 0.689-0.398 0.182-0.913 0.321-1.35 0.363l-0.068 0.249c0.563 0.243 1.062 0.288 1.657 0.071 0.518-0.194 1.033-0.569 1.201-1.117l-0.336-0.255"/>
   <path d="m378.63 238.44c-0.489 0.182-0.865 0.551-1.311 0.81-0.522 0.298-1.098 0.501-1.655 0.722l0.039 0.317c1.072 0.087 2.755-0.518 3.137-1.632l-0.21-0.217"/>
   <path d="m380.1 238.58-0.21 0.029c-0.12 0.566-0.175 1.126-0.402 1.67-0.201 0.502-0.628 0.907-0.777 1.415l0.337 0.333c1.114-0.466 1.486-2.428 1.052-3.447z"/>
   <path d="m379.21 251.25c-0.091-0.518-0.243-1.175-0.638-1.541l-0.136 0.056c-0.068 0.517 0.117 1.084 0.182 1.605 0.064 0.541-0.02 1.117 0.116 1.642h0.489c0.204-0.531 0.084-1.208-0.013-1.762"/>
   <path d="m379.77 262.05-0.071 0.01c-0.311 0.243-0.243 0.884-0.363 1.253-0.165 0.527-0.508 0.955-0.699 1.466l0.363 0.279c0.521-0.327 0.803-1.004 0.929-1.58 0.081-0.382 0.256-1.198-0.159-1.428"/>
   <path d="m356.68 277.16c-0.573-0.366-1.273-0.48-1.858-0.832-0.574-0.343-0.891-0.836-1.214-1.399l-0.172 0.022c-0.301 1.542 1.858 2.664 3.121 2.658l0.123-0.45"/>
   <path d="m355.16 239.3c-0.621-0.152-1.136-0.314-1.55-0.838-0.347-0.44-0.58-0.949-0.952-1.373l-0.139 0.059c0.042 1.191 1.23 3.192 2.69 2.541l-0.048-0.389"/>
   <path d="m359.07 241.48c-0.479-0.275-1.013-0.372-1.447-0.741-0.372-0.314-0.605-0.787-0.984-1.078l-0.175 0.071c-0.113 0.576 0.398 1.201 0.809 1.544 0.47 0.392 1.114 0.771 1.742 0.635l0.055-0.431"/>
   <path d="m377.65 199.28-0.14 0.018c0.217 2.143-0.145 4.308-1.382 6.112-1.104 1.615-3.011 3.03-5.082 2.489-1.188-0.311-2.454-1.146-3.539-1.709-2.208-1.143-4.383-2.402-6.267-4.04-1.803-1.564-2.982-3.39-4.199-5.41l-0.382 0.159c1.764 5.516 8.867 9.611 13.94 11.447 4.972 1.796 8.168-5.131 7.051-9.065"/>
   <path d="m364.82 188.28c-1.185-1.026-3.966-2.955-5.309-1.204-1.428 1.855-0.81 5.076 0.162 6.96l0.107-0.042c-0.308-2.081-1.056-3.91-0.156-6.002 1.059-2.466 3.516-0.272 5.177 0.324l0.02-0.036"/>
  </g>
  <path d="m362.35 179.19s-1.013 4.985-2.34 7.646c-1.473 2.962-3.289 6.009-1.807 8.531 2.81 4.784 4.28 3.742 6.941 5.056 6.028 2.975 8.948-0.408 8.948-0.408s3.341-6.163 3.357-8.501c0.011-3.156-1.929-7.151-4.71-10.068-4.83-5.079-10.389-2.256-10.389-2.256z" fill="#fff"/>
  <path d="m364.49 147.75c-2.444 6.853-3.61 28.055-3.61 35.361 0 3.325 10.298 7.249 15.504 3.824 6.973-17.712 4.94-25.112 3.71-38.78 2.208-7.987 1.301-17.414-1.622-23.018 0.207-11.385-1.742-25.179-7.245-34.962-2.137-3.7973-11.198-12.655-17.012-10.822-18.094 5.7042-9.77 43.694 5.205 49.049-0.673 7.313-0.673 14.707 5.07 19.349z" fill="#00c863"/>
  <path d="m290.94 151.66c-0.774-1.104-2.078-1.531-2.907-0.949l-51.402 46.647 2.81 4.004 51.408-46.646c0.826-0.583 0.868-1.952 0.091-3.056" fill="#292827"/>
  <path d="m284.63 155.26s-4.477-3.14-7.498-3.976c-3.017-0.828-6.037 0-6.037 0s-6.18 8.508-6.562 11.762c-0.385 3.256 3.985 5.649 3.985 5.649l6.284-5.649s0.692 4.564-0.943 6.73c-0.815 1.085-0.226 2.548 0.816 2.768 1.046 0.214 3.357-1.897 5.07-3.849 3.425-3.901 4.885-13.435 4.885-13.435z" fill="#fff"/>
  <path d="m289.88 107.13s-3.383 1.702-5.798 5.982c-2.415 4.283-9.058 16.931-10.871 24.61-1.81 7.682-2.509 9.586-2.435 14.018 2.739-0.823 8.472 0.372 13.503 5.429 5.484-3.629 11.166-12.299 13.94-20.752 2.768-8.455 5.176-15.257 5.176-15.257z" fill="#00c863"/>
  <path d="m353.07 218.23c-5.196-0.65-15.532 7.721-19.048 21.81-3.234 12.959-12.778 21.648-25.526 23.247-11.843 1.493-23.176-3.813-28.223-13.169-6.867-12.765-2.995-23.947 4.26-36.556h-1.392c-7.232 12.687-10.981 24.027-3.927 37.129 4.681 8.705 14.542 14.05 25.332 14.05 1.353 0 2.723-0.084 4.098-0.256 13.264-1.661 23.193-10.69 26.55-24.15 3.243-12.992 12.849-21.496 17.73-20.907 2.163 0.266 2.619 2.37 2.619 4.082 0 0 0.143 0.412 0.593 0.412 0.615 0 0.615-0.412 0.615-0.412 0-3.069-1.34-4.995-3.681-5.28z" fill="#e93535"/>
  <path d="m239.35 198.37c0.744 1.065 0.706 2.378-0.09 2.934-0.795 0.56-2.043 0.154-2.792-0.911-0.744-1.061-0.705-2.378 0.09-2.933 0.795-0.556 2.044-0.15 2.792 0.91z" fill="#333232"/>
  <path d="m237.14 198.58c-0.975 0.855-23.817 20.926-27.417 24.374-3.794 3.635-6.533 18.077-6.834 19.708-0.068 0.321 0.402 0.69 1.049 0.826s1.224-0.012 1.292-0.334c0.777-4.221 3.425-15.83 6.167-18.455 3.561-3.413 27.028-24.031 27.264-24.238z" fill="#fff"/>
 </g>
 <defs>
  <clipPath id="clip0">
   <rect width="381.46" height="400" fill="#fff"/>
  </clipPath>
 </defs>
</svg>
