<svg id="color" width="1034" height="130.92" enable-background="new 0 0 24 24" version="1.1" viewBox="0 0 48.469 6.1367" xmlns="http://www.w3.org/2000/svg">
 <g transform="translate(-48.272 -43.614)">
  <text x="51.825912" y="27.095806" fill="#000000" font-family="sans-serif" font-size="1.875px" letter-spacing="0px" stroke-width=".046875" word-spacing="0px" style="line-height:1.25" xml:space="preserve"><tspan x="51.825912" y="27.095806" stroke-width=".046875"/></text>
  <g transform="matrix(.79638 0 0 .79638 9.877 8.8809)">
   <g fill="#dcfae9">
    <path d="m53.276 44.202q0.198 0 0.315 0.135 0.126 0.126 0.126 0.333v5.499q0 0.207-0.126 0.342-0.126 0.126-0.324 0.126-0.234 0-0.36-0.18l-3.528-4.653v4.365q0 0.207-0.126 0.342-0.117 0.126-0.315 0.126t-0.315-0.126-0.117-0.342v-5.499q0-0.207 0.126-0.333 0.126-0.135 0.324-0.135 0.234 0 0.36 0.18l3.528 4.662v-4.374q0-0.207 0.117-0.333 0.117-0.135 0.315-0.135z"/>
    <path d="m60.791 50.052q0.045 0.108 0.045 0.18 0 0.171-0.144 0.288-0.135 0.117-0.306 0.117-0.117 0-0.225-0.063-0.099-0.072-0.153-0.198l-0.594-1.35h-3.294l-0.594 1.35q-0.054 0.126-0.162 0.198-0.108 0.063-0.225 0.063-0.18 0-0.324-0.117-0.135-0.117-0.135-0.288 0-0.072 0.045-0.18l2.538-5.553q0.063-0.144 0.198-0.225 0.144-0.081 0.297-0.081t0.288 0.081q0.144 0.081 0.207 0.225zm-4.338-1.764h2.637l-1.323-2.979z"/>
    <path d="m63.833 50.664q-0.684 0-1.305-0.189-0.612-0.189-0.981-0.522-0.171-0.144-0.171-0.369 0-0.162 0.09-0.27 0.09-0.117 0.216-0.117t0.306 0.117q0.801 0.594 1.827 0.594 0.72 0 1.107-0.27t0.387-0.774q0-0.396-0.36-0.594t-1.152-0.378q-0.756-0.162-1.242-0.369t-0.765-0.558q-0.27-0.36-0.27-0.909t0.297-0.972q0.306-0.432 0.846-0.666 0.54-0.243 1.233-0.243 0.639 0 1.179 0.18t0.918 0.531q0.18 0.153 0.18 0.369 0 0.153-0.099 0.27-0.09 0.117-0.216 0.117-0.117 0-0.297-0.117-0.414-0.315-0.783-0.45-0.36-0.144-0.873-0.144-0.693 0-1.08 0.288-0.387 0.279-0.387 0.783 0 0.432 0.342 0.657 0.342 0.216 1.098 0.396 0.792 0.18 1.278 0.378 0.495 0.189 0.783 0.531 0.297 0.333 0.297 0.864 0 0.54-0.306 0.963-0.297 0.414-0.846 0.648-0.54 0.225-1.251 0.225z"/>
    <path d="m67.838 50.592q-0.216 0-0.342-0.117-0.117-0.126-0.117-0.333v-5.445q0-0.207 0.117-0.324 0.126-0.126 0.342-0.126h3.312q0.207 0 0.315 0.099 0.117 0.099 0.117 0.279t-0.117 0.279q-0.108 0.09-0.315 0.09h-2.862v1.998h2.682q0.207 0 0.315 0.099 0.117 0.099 0.117 0.279t-0.117 0.279q-0.108 0.099-0.315 0.099h-2.682v2.097h2.862q0.432 0 0.432 0.369 0 0.18-0.117 0.279-0.108 0.099-0.315 0.099z"/>
    <path d="m77.369 49.89q0.153 0.144 0.153 0.315t-0.135 0.297q-0.126 0.126-0.297 0.126t-0.315-0.144l-3.204-2.889v2.574q0 0.216-0.126 0.342-0.117 0.126-0.342 0.126-0.207 0-0.333-0.126t-0.126-0.342v-5.499q0-0.207 0.126-0.333 0.126-0.135 0.333-0.135 0.216 0 0.342 0.126t0.126 0.342v2.466l3.069-2.799q0.126-0.126 0.297-0.126t0.297 0.126 0.126 0.288q0 0.171-0.153 0.315l-2.682 2.394z"/>
   </g>
   <g fill="#ef6461" aria-label="O">
    <path d="m80.901 50.664q-0.9 0-1.566-0.396-0.657-0.396-1.017-1.125t-0.36-1.719q0-0.999 0.351-1.728 0.36-0.738 1.026-1.125 0.666-0.396 1.566-0.396 0.909 0 1.575 0.396 0.666 0.387 1.017 1.125 0.36 0.729 0.36 1.719t-0.36 1.728q-0.351 0.729-1.017 1.125t-1.575 0.396zm0-0.756q0.954 0 1.485-0.648t0.531-1.845-0.531-1.836q-0.522-0.648-1.485-0.648-0.945 0-1.476 0.648-0.522 0.639-0.522 1.836t0.522 1.845q0.531 0.648 1.476 0.648z" fill="#ef6461" stroke-width=".046875"/>
   </g>
   <path d="m77.207 45.416c-0.09318 0.09742-0.11678 0.24785-0.04814 0.37206 0.08489 0.15283 0.27714 0.20824 0.4301 0.12342 0.34777-0.19269 0.62363-0.17533 1.0087-0.09008-0.09059 0.32033-0.01119 0.67787 0.2422 0.93096l0.26183 0.26183c-0.05306 0.1108-0.08415 0.23141-0.09088 0.35666-0.26604 0.01546-0.52884-0.08143-0.72398-0.27655l-0.34194-0.34194c-0.12357-0.12355-0.32386-0.12357-0.44743-2e-6 -0.12356 0.12354-0.12356 0.32387 0 0.44743l0.34192 0.34194c0.36159 0.36158 0.86259 0.52167 1.3554 0.44574 0.02845 0.03694 0.05921 0.07321 0.0928 0.10694l0.15823 0.15819 9.27e-4 -0.0022c-0.28483 0.7016-0.2679 1.4227 0.26655 1.9708 0.12357 0.12356 0.32385 0.12357 0.44742-1e-6 0.1236-0.12354 0.12361-0.32386 1e-6 -0.44743-0.27404-0.27404-0.34493-0.6753-0.21311-1.0154l0.67979 0.67978c0.04101 0.04111 0.08368 0.07958 0.12872 0.11458-0.02292 0.53403 0.17556 1.065 0.55016 1.4517l0.21274 0.21981c0.12143 0.12568 0.32187 0.12876 0.44736 0.0069 0.12545-0.12163 0.12872-0.32191 0.0057-0.44743l-0.21269-0.21976c-0.18661-0.19368-0.30897-0.43946-0.35403-0.70063 0.50924 0.11115 1.0631-0.03041 1.4582-0.42555 0.3084-0.30841 0.46258-0.71352 0.46256-1.1186-7.1e-5 -0.11283-0.013-0.2257-0.03638-0.33649 0.33615 0.04684 0.64981 0.20125 0.8969 0.44834 0.12357 0.12357 0.32394 0.12359 0.44753 2e-6 0.1236-0.12355 0.12358-0.32388 0-0.44743-0.4412-0.4412-1.0338-0.6715-1.65-0.64724-0.03801-0.04636-0.07691-0.09295-0.12023-0.13627l-0.71268-0.71274c0.36228-0.20625 0.83231-0.15528 1.141 0.1534 0.12355 0.12356 0.32387 0.12353 0.44747-5.5e-5 0.12359-0.12354 0.12359-0.32388 0-0.44743-0.5326-0.53262-1.309-0.51484-2.0662-0.18277l-0.15197-0.15197c-0.03371-0.03372-0.06873-0.06463-0.10621-0.09205 0.07691-0.50127-0.0903-0.99982-0.44646-1.3561l-0.34195-0.34194c-0.12356-0.12357-0.32385-0.12359-0.44742 5e-6 -0.12357 0.12354-0.12356 0.32386 0 0.44743l0.34194 0.34194c0.19517 0.19519 0.29248 0.45809 0.27728 0.72436-0.12261 0.0067-0.24406 0.03698-0.35705 0.09078l-0.2622-0.26221c-0.24773-0.24768-0.59927-0.32935-0.91575-0.24547-0.06459-0.4031-0.07346-0.7195 0.12761-1.0806 0.08479-0.15296 0.02927-0.34548-0.12353-0.43009-0.15283-0.08475-0.34543-0.02943-0.43013 0.12343-0.25541 0.46099-0.27539 0.88926-0.21055 1.4056-0.50339-0.08654-0.89583-0.07519-1.3474 0.17505-0.02877 0.0159-0.1058 0.06523-0.07546 0.05806zm2.0799 0.44181c0.12339-0.12338 0.32408-0.12335 0.44744-2e-6l0.2237 0.22372-0.44741 0.44743-0.22373-0.22372c-0.12358-0.12361-0.12355-0.3238 0-0.44743zm0.45541 1.3288 0.87581-0.8758c0.04161-0.04157 0.09117-0.0697 0.14388-0.08465 0.0085-0.0025 0.01843-0.0046 0.02753-0.0067 0.05103-0.01042 0.10431-0.0078 0.15466 0.0067 0.05237 0.01506 0.102 0.04311 0.14344 0.08456l1.5213 1.5213c0.2118 0.21178 0.11731 0.63766-0.0036 0.89576-0.06009 0.096-0.13705 0.17719-0.20235 0.24261-0.07885 0.07122-0.1815 0.15966-0.24508 0.20482-0.27679 0.13963-0.70233 0.19306-0.89327 0.0021l-1.5213-1.5213c-0.0018-0.0012-0.0018-0.0029-0.0036-0.0042l-0.0026-0.0034c-0.05957-0.05976-0.0926-0.13909-0.0926-0.22368 7e-6 -0.05368 0.01358-0.10538 0.03861-0.15126 0.0157-0.03096 0.0361-0.06015 0.0622-0.08618z" fill="#38dc91" stroke-width=".021093"/>
   <path d="m90.743 44.202q0.198 0 0.324 0.135 0.126 0.126 0.126 0.333v5.526q0 0.207-0.117 0.324-0.108 0.117-0.306 0.117-0.189 0-0.297-0.117t-0.108-0.324v-4.185l-1.764 3.357q-0.171 0.315-0.441 0.315t-0.441-0.315l-1.773-3.321v4.149q0 0.207-0.108 0.324t-0.306 0.117q-0.189 0-0.306-0.117-0.108-0.126-0.108-0.324v-5.526q0-0.207 0.126-0.333 0.126-0.135 0.324-0.135 0.279 0 0.45 0.324l2.151 4.113 2.133-4.113q0.171-0.324 0.441-0.324z" fill="#dcfae9"/>
   <g fill="#ef6461">
    <path d="m95.405 50.664q-0.9 0-1.566-0.396-0.657-0.396-1.017-1.125t-0.36-1.719q0-0.999 0.351-1.728 0.36-0.738 1.026-1.125 0.666-0.396 1.566-0.396 0.909 0 1.575 0.396 0.666 0.387 1.017 1.125 0.36 0.729 0.36 1.719t-0.36 1.728q-0.351 0.729-1.017 1.125t-1.575 0.396zm0-0.756q0.954 0 1.485-0.648t0.531-1.845-0.531-1.836q-0.522-0.648-1.485-0.648-0.945 0-1.476 0.648-0.522 0.639-0.522 1.836t0.522 1.845q0.531 0.648 1.476 0.648z"/>
    <path d="m100.08 50.637q-0.207 0-0.333-0.126-0.126-0.135-0.126-0.342v-5.472q0-0.207 0.117-0.324 0.126-0.126 0.342-0.126h3.222q0.432 0 0.432 0.378t-0.432 0.378h-2.763v1.989h2.583q0.432 0 0.432 0.378t-0.432 0.378h-2.583v2.421q0 0.216-0.126 0.342-0.117 0.126-0.333 0.126z"/>
    <path d="m105.13 50.637q-0.207 0-0.333-0.126-0.126-0.135-0.126-0.342v-5.472q0-0.207 0.117-0.324 0.126-0.126 0.342-0.126h3.222q0.432 0 0.432 0.378t-0.432 0.378h-2.763v1.989h2.583q0.432 0 0.432 0.378t-0.432 0.378h-2.583v2.421q0 0.216-0.126 0.342-0.117 0.126-0.333 0.126z"/>
    <path d="m83.556 44.768-5.3015 5.3015" stroke="#ef6461" stroke-linecap="round" stroke-width=".828"/>
   </g>
  </g>
 </g>
</svg>
