<?xml version="1.0" encoding="UTF-8" standalone="no"?>
<svg
   xmlns:dc="http://purl.org/dc/elements/1.1/"
   xmlns:cc="http://creativecommons.org/ns#"
   xmlns:rdf="http://www.w3.org/1999/02/22-rdf-syntax-ns#"
   xmlns:svg="http://www.w3.org/2000/svg"
   xmlns="http://www.w3.org/2000/svg"
   xmlns:sodipodi="http://sodipodi.sourceforge.net/DTD/sodipodi-0.dtd"
   xmlns:inkscape="http://www.inkscape.org/namespaces/inkscape"
   width="272.55399"
   height="250"
   fill="none"
   version="1.1"
   viewBox="0 0 272.55398 250"
   id="svg538"
   sodipodi:docname="service-4.svg"
   inkscape:version="1.0.1 (3bc2e813f5, 2020-09-07)">
  <metadata
     id="metadata542">
    <rdf:RDF>
      <cc:Work
         rdf:about="">
        <dc:format>image/svg+xml</dc:format>
        <dc:type
           rdf:resource="http://purl.org/dc/dcmitype/StillImage" />
        <dc:title></dc:title>
      </cc:Work>
    </rdf:RDF>
  </metadata>
  <sodipodi:namedview
     pagecolor="#ffffff"
     bordercolor="#666666"
     borderopacity="1"
     objecttolerance="10"
     gridtolerance="10"
     guidetolerance="10"
     inkscape:pageopacity="0"
     inkscape:pageshadow="2"
     inkscape:window-width="1920"
     inkscape:window-height="987"
     id="namedview540"
     showgrid="false"
     inkscape:zoom="1.4560932"
     inkscape:cx="258.06953"
     inkscape:cy="158.91602"
     inkscape:window-x="0"
     inkscape:window-y="0"
     inkscape:window-maximized="1"
     inkscape:current-layer="svg538"
     fit-margin-top="0"
     fit-margin-left="0"
     fit-margin-right="0"
     fit-margin-bottom="0" />
  <defs
     id="defs270">
    <clipPath
       id="clip1-6-9-0">
      <rect
         transform="translate(208,514)"
         width="246.67"
         height="245.52"
         fill="#ffffff"
         id="rect267"
         x="0"
         y="0" />
    </clipPath>
  </defs>
  <g
     id="g5036"
     transform="translate(-1.0129816)">
    <path
       d="M 264.08266,168.55725 C 269.48415,135.44654 277.36145,31.062676 237.90226,29.522604 193.51293,27.790111 161.20531,74.792662 121.01137,79.03747 102.87568,80.952748 80.372685,61.152224 63.320988,67.619421 35.918063,78.01253 17.81519,109.83915 11.150671,138.36978 c -8.0609986,34.50893 -9.83151,83.57858 18.661286,104.66036 26.131263,19.33449 68.810169,-7.21992 101.013373,-11.66751 30.88928,-4.26613 72.11134,1.95799 98.65435,-14.40136 16.88693,-10.408 33.54672,-21.15709 34.59992,-48.40605"
       fill="#fbdada"
       id="path272"
       sodipodi:nodetypes="csssssssc"
       style="stroke-width:1.01838" />
    <path
       d="m 174.96826,180.19523 c -2.21234,0 -4.12624,-0.65775 -4.97165,-1.81646 l 0.81587,-0.59462 c 0.77819,1.06706 3.30935,1.83173 6.46896,1.15056 3.22175,-0.69747 11.03625,-3.89053 14.03289,-18.41611 4.11911,-19.96377 3.50389,-38.25464 -1.43211,-42.54634 -4.57238,-3.97707 -9.9861,0.94387 -10.04212,0.99682 l -0.68448,-0.74023 c 0.0611,-0.057 6.142,-5.58073 11.38765,-1.01616 5.27621,4.58392 6.01468,22.88395 1.75908,43.51056 -3.11582,15.10698 -11.39173,18.45888 -14.80599,19.19809 -0.85865,0.18531 -1.71222,0.27491 -2.5281,0.27491"
       fill="#292827"
       id="path274"
       style="stroke-width:1.01838" />
    <path
       d="m 145.5213,107.09895 c 0,0 -4.21995,2.53633 -5.68669,3.81009 -1.46573,1.27478 -1.37813,3.10855 -0.63152,5.16123 0.74764,2.0537 2.86016,1.96207 4.85249,0.0703 1.98927,-1.89283 7.54864,-3.581 6.18172,-6.21711 -1.36998,-2.63814 -2.99155,-3.35902 -4.716,-2.82345"
       fill="#dad9d8"
       id="path276"
       style="stroke-width:1.01838" />
    <path
       d="m 163.53987,101.22396 c 0,0 10.80401,-2.056757 13.26997,5.05229 2.46699,7.10904 -5.98921,14.58667 -5.98921,14.58667 z"
       fill="#00c863"
       id="path278"
       style="stroke-width:1.01838" />
    <path
       d="m 114.11868,132.70658 c -2.62995,-0.0937 -4.22198,1.49165 -1.78657,4.74886 2.43642,3.25721 7.27668,3.92922 9.05002,3.51176 1.77334,-0.41848 5.39335,-0.86954 5.39335,-0.86954 l 1.25182,-4.86799 c 0,0 -6.38543,-0.26983 -8.01821,-0.72089 -1.63481,-0.44902 -3.90826,-1.73398 -5.89041,-1.8022"
       fill="#dad9d8"
       id="path280"
       style="stroke-width:1.01838" />
    <path
       d="m 144.92035,112.20011 c -0.39419,-0.46531 -0.73541,-0.97747 -1.08071,-1.48657 l -28.79406,25.86524 1.52481,2.17079 28.7472,-26.08109 -0.39724,-0.46837"
       fill="#292827"
       id="path282"
       style="stroke-width:1.01838" />
    <path
       d="m 146.44821,106.77313 c -1.61139,0.2912 -2.03817,1.35827 -3.95309,5.22334 -1.91186,3.86202 0.78634,3.87322 3.10563,1.70039 2.32031,-2.17079 5.15398,-2.33778 5.23343,-4.10435 0.0784,-1.76962 -3.10257,-3.05051 -4.38597,-2.81938"
       fill="#dad9d8"
       id="path284"
       style="stroke-width:1.01838" />
    <path
       d="m 147.45659,104.55346 c -0.62133,0.26371 -2.00149,1.16176 -1.94751,2.56178 1.39239,0.12524 2.88969,0.74939 3.60575,1.72381 1.11534,1.51304 0.47669,3.03218 0.0886,3.88543 0.75578,0.88278 10.42306,0.34721 11.74619,-3.81721 1.32414,-4.16544 -0.42271,-5.86278 -3.71983,-6.08576 -3.29916,-0.22095 -7.56699,0.79114 -9.77322,1.73195"
       fill="#00c863"
       id="path286"
       style="stroke-width:1.01838" />
    <path
       d="m 145.72502,224.15075 c -1.12756,0.51215 -2.28568,0.53659 -3.61492,0.58954 -3.98975,0.15782 -4.98184,-0.70052 -6.89269,-3.36209 0.0183,0.18735 -1.23247,4.93622 -1.23858,5.00851 -2.72672,-0.93165 -5.30779,-2.42433 -7.64439,-1.00394 -2.45069,1.48962 -2.62996,3.73983 -2.0453,5.96153 0.8169,1.04976 2.358,2.6412 4.51534,3.68384 3.03229,1.46314 6.88759,2.2441 8.21785,2.4457 1.95057,1.16889 4.69155,2.0873 6.71749,1.02533 2.08196,-1.09151 3.12804,-2.00789 2.50976,-4.31512 -0.56632,-2.12192 -0.77411,-8.46426 -0.52456,-10.0333"
       fill="#292827"
       id="path288"
       style="stroke-width:1.01838" />
    <path
       d="m 181.04915,207.85962 c -1.76315,1.0915 -6.16441,4.17969 -7.56902,2.68803 -0.31067,0.0194 -2.90905,1.41835 -4.89832,1.41326 -3.45297,-0.0102 -6.64823,0.5651 -6.65638,4.41999 -0.004,0.95914 2.19401,3.67161 3.10869,4.21736 4.87693,2.89881 7.93367,1.56192 9.91174,1.07624 1.6837,1.45296 5.64289,0.17309 7.98663,-1.99567 0.77412,-0.71579 -0.45938,-4.23467 -1.30276,-5.11949 0.15279,-0.69644 -0.66512,-5.90859 -0.58058,-6.69972"
       fill="#292827"
       id="path290"
       style="stroke-width:1.01838" />
    <path
       d="m 173.88858,182.00762 c 1.371,-5.36793 1.38831,-12.23464 -2.39671,-16.21579 6.04829,-6.11223 1.58592,-17.66264 -3.38777,-23.57123 l 0.15278,-0.0896 c 0.98496,-0.62314 0.0683,-2.20032 -0.91468,-1.56701 -3.04044,1.96207 -8.939,4.27541 -10.88447,7.43182 -1.87316,3.04135 -1.27322,8.47037 -1.48508,11.9302 -0.60605,9.87853 -0.3178,21.22938 6.99047,28.20606 0.3402,2.06694 4.32588,6.83515 5.53391,13.33022 1.00024,5.37913 -0.004,7.85844 1.93427,11.17877 1.76417,3.02608 9.74571,5.09098 12.08232,0.058 1.28544,-2.7644 -1.00432,-14.37794 -1.40665,-16.29317 -2.0015,-9.57613 -3.69335,-12.69894 -6.21839,-14.39729"
       fill="#00b858"
       id="path292"
       style="stroke-width:1.01838" />
    <path
       d="m 164.98624,155.12725 c -0.59688,-1.71973 -1.82732,-4.84865 -3.87261,-5.28036 -1.56148,-0.33194 -3.59964,1.23303 -4.78424,1.67391 -1.54518,0.57528 -11.68711,0.71477 -11.63619,0.88583 -4.2393,7.03268 -8.64769,24.83685 -9.37087,37.26597 -1.10515,5.25389 -1.06237,16.74525 -1.44027,22.10707 -0.36974,5.25796 -2.35901,12.29879 0.41456,15.57534 1.51157,1.7849 9.10809,3.83555 12.13427,0.67201 3.50287,-2.85706 5.1438,-28.54716 2.59533,-32.00393 4.18735,-2.92019 6.50766,-10.19112 8.40934,-14.31176 1.14487,-2.48542 2.03816,-5.07775 2.4843,-7.78309 0.17214,-1.0406 0.25566,-2.02214 0.34937,-2.95888 4.86471,-3.61154 6.73786,-10.02108 4.71701,-15.84007"
       fill="#00c863"
       id="path294"
       style="stroke-width:1.01838" />
    <path
       d="m 143.50453,154.68943 c 0,0 2.88969,5.44429 14.08891,3.01284 8.68232,-1.88265 11.89184,-6.24765 11.89184,-6.24765 l -0.89329,-3.25518 -24.02102,3.66856 -1.06746,2.82143"
       fill="#00b858"
       id="path296"
       style="stroke-width:1.01838" />
    <path
       d="m 174.32656,107.26186 c -6.4659,-8.840994 -17.38195,0.32277 -23.50154,4.18377 -8.69557,5.484 -6.45572,17.09347 -6.61156,20.93105 -0.17418,4.25097 -2.20012,6.62642 -1.36795,8.67605 1.07969,2.66258 2.62487,3.37023 0.25974,5.53389 -0.37076,0.33804 -0.9758,0.91027 -0.32493,1.75639 0.66615,0.86343 1.22942,1.26664 1.95465,1.9529 -1.19581,0.75856 -1.29054,2.25225 0.0947,3.33154 2.7033,2.10359 9.3994,2.79189 12.68939,1.67697 5.77226,-1.94985 11.69424,-4.63076 13.6825,-8.50703 0.87801,-1.70853 0.29131,-2.62084 0.22714,-5.6795 -0.0438,-2.05472 -0.0947,-4.01882 0.97579,-5.85768 3.99892,-6.86264 7.6118,-20.2173 1.92205,-27.99835"
       fill="#38dc91"
       id="path298"
       style="stroke-width:1.01838" />
    <path
       d="m 157.9479,121.74061 c -1.45554,-4.25606 -7.49976,-9.79098 -11.88573,-6.98177 -0.90348,0.58139 -4.45219,2.71654 -3.72493,8.16898 -3.11479,2.16571 -5.03888,5.24269 -4.99304,9.44682 -1.44332,-0.53862 -7.2278,-0.57528 -8.43074,1.16177 -2.42624,-0.48467 -3.93373,1.0915 -4.43487,2.7084 -0.49808,1.61587 -0.52456,4.59613 0.48281,5.29563 2.38855,1.65152 6.64925,2.52717 10.93133,3.25212 6.41803,1.08845 6.99149,0.8227 13.82815,-4.1522 6.26627,-4.55948 11.2257,-10.13105 8.22702,-18.90077"
       fill="#00c863"
       id="path300"
       style="stroke-width:1.01838" />
    <path
       d="m 167.51231,103.95272 c -1.30276,-2.21152 -1.8151,-2.99553 -2.08401,-5.476872 -0.0438,-0.411351 -9.27003,2.477272 -8.85649,2.744042 -0.43188,3.11364 -2.31726,6.20895 -3.43056,8.74834 2.28364,0 3.78095,0.40422 6.36201,-0.28714 2.05752,-0.55288 5.36381,-1.41834 7.01492,-2.88862 0.69772,-0.62212 1.47286,-2.02519 0.99413,-2.83975"
       fill="#f9a999"
       id="path302"
       style="stroke-width:1.01838" />
    <path
       d="m 154.73939,83.405531 c -5.24259,2.538362 -6.7348,10.206395 -4.8209,15.705671 0.32288,1.497768 1.0532,2.874368 2.31012,3.958748 2.76543,2.38156 6.45776,0.61092 9.20179,-0.87769 3.19119,-1.73398 6.61768,-4.269292 7.10455,-8.171019 0.77005,-6.180449 -7.91839,-13.458513 -13.79556,-10.61571"
       fill="#fabdae"
       id="path304"
       style="stroke-width:1.01838" />
    <path
       d="m 160.81009,81.206228 c -0.31983,-4.013729 -6.67369,-3.109571 -8.02025,0.06313 -0.78735,-0.525389 -1.90473,-0.746338 -2.35392,0.308513 -0.0795,0.184294 -0.0856,0.366551 -0.0805,0.545753 -2.50874,-0.433751 -5.2263,2.051665 -4.41042,4.84254 1.13062,3.86609 7.20845,3.243972 10.43529,1.725842 -0.85866,1.318564 -1.12756,3.003678 -0.21594,4.426097 0.94116,1.471293 2.67172,1.967155 4.12522,1.328746 0.55309,2.352033 2.31929,5.268146 5.46057,4.715265 3.9317,-0.692373 7.57717,-7.191517 2.84182,-12.59101 0,-3.385502 -3.94086,-7.125335 -7.7819,-5.364874"
       fill="#292827"
       id="path306"
       style="stroke-width:1.01838" />
    <path
       d="m 160.41285,96.692987 c 0,0 2.40994,-2.576035 3.05979,0.222985 0.44614,1.911154 -1.43619,2.90084 -1.43619,2.90084 l -1.6236,-3.123825"
       fill="#fabdae"
       id="path308"
       style="stroke-width:1.01838" />
    <path
       d="m 145.76576,150.65737 c 0,0 2.17567,1.24016 6.34266,1.24016 4.16596,0 6.8825,-1.68613 6.8825,-1.68613 0,0 -5.23343,0.47244 -7.05566,0.55797 -1.82223,0.0876 -6.1695,-0.112 -6.1695,-0.112"
       fill="#00c863"
       id="path310"
       style="stroke-width:1.01838" />
    <path
       d="m 146.89638,147.42969 c 0,0 4.09263,-0.0692 7.76866,-1.38577 3.67603,-1.31856 6.83768,-5.61738 6.83768,-5.61738 0,0 -4.59784,3.60645 -7.59041,4.71526 -2.99155,1.11085 -7.01593,2.28789 -7.01593,2.28789"
       fill="#00c863"
       id="path312"
       style="stroke-width:1.01838" />
    <g
       fill="#292827"
       id="g320"
       transform="matrix(1.0185735,0,0,1.0181959,-201.70022,-523.35777)">
      <path
         d="m 339.31,654.78 c 0,0 6.152,5.396 11.864,2.056 5.712,-3.342 3.807,-6.417 3.807,-6.417 0,0 -2.914,4.661 -7.363,4.94 -4.448,0.279 -6.492,-1.758 -6.492,-1.758 l -1.815,1.179"
         id="path314" />
      <path
         d="m 346.1,623.45 c 0,0 4.083,0.363 6.725,2.509 2.642,2.146 3.766,4.054 3.766,4.054 l 1.492,-0.96 c 0,0 -2.097,-3.371 -4.857,-5.385 -2.758,-2.013 -5.596,-1.218 -5.596,-1.218 l -1.531,1"
         id="path316" />
      <path
         d="m 360.5,615.5 c 0,0 4.083,0.364 6.726,2.51 2.642,2.146 3.766,4.055 3.766,4.055 l 1.492,-0.96 c 0,0 -2.096,-3.373 -4.857,-5.386 -2.759,-2.013 -5.596,-1.218 -5.596,-1.218 L 360.5,615.5"
         id="path318" />
    </g>
    <path
       d="m 152.39668,110.42845 c 0,0 -0.31678,-3.26434 4.10077,-4.51875 4.41552,-1.25544 7.19928,-1.64439 9.69275,-4.39657 0.72522,-0.80234 0.84643,0.2352 1.49221,1.35827 0.64577,1.12511 1.58897,2.16978 -1.25488,4.7733 -2.84284,2.60251 -6.89982,3.12383 -9.16818,3.29794 -2.26837,0.17309 -4.86267,-0.51419 -4.86267,-0.51419"
       fill="#00c863"
       id="path322"
       style="stroke-width:1.01838" />
    <path
       d="m 141.44701,194.05288 c 0,0 1.11941,1.59857 3.40407,2.11988 2.28161,0.5203 3.41019,0 3.41019,0 0,0 -3.99383,-2.5017 -6.81528,-2.11988"
       fill="#00b858"
       id="path324"
       style="stroke-width:1.01838" />
    <path
       d="m 143.56564,189.67464 c 0,0 0.97681,2.08323 2.21438,2.92833 1.23757,0.84612 3.25434,1.78693 3.25434,1.78693 0,0 -0.384,-1.12816 -1.62768,-2.56789 -1.23553,-1.43158 -3.84104,-2.14737 -3.84104,-2.14737"
       fill="#00b858"
       id="path326"
       style="stroke-width:1.01838" />
    <path
       d="m 116.63456,137.08482 c 0.42169,0.60073 0.39928,1.34096 -0.0509,1.6566 -0.44919,0.31463 -1.15506,0.0845 -1.57573,-0.5152 -0.42169,-0.60074 -0.39725,-1.34097 0.0509,-1.65559 0.44919,-0.31564 1.15506,-0.0855 1.57573,0.51419 z"
       fill="#454547"
       id="path328"
       style="stroke-width:1.01838" />
    <path
       d="m 116.2475,138.23538 c 0.13547,-0.17004 0.11408,-0.48772 -0.0805,-0.76467 -0.22001,-0.31462 -0.56429,-0.45411 -0.768,-0.31054 l -26.410592,22.84933 0.83523,1.08132 26.423832,-22.8534 0.003,-0.004 -0.003,0.004"
       fill="#bbbab8"
       id="path330"
       style="stroke-width:1.01838" />
    <path
       d="m 88.654346,158.84366 c 0,0 2.058537,-1.18416 2.768482,-0.98968 0.327981,0.0896 0.789395,0.71986 0.789395,1.05994 0,1.26867 -1.493229,2.39582 -1.493229,2.39582 l -2.064648,-2.46608"
       fill="#292827"
       id="path332"
       style="stroke-width:1.01838" />
    <path
       d="m 90.589635,159.48513 c 0.51438,0.73412 0.487897,1.64133 -0.06315,2.02723 -0.549011,0.38589 -1.412762,0.10385 -1.927141,-0.63027 -0.516417,-0.7331 -0.487897,-1.64235 0.06111,-2.02824 0.55003,-0.38488 1.41378,-0.10386 1.929178,0.63128"
       fill="#454547"
       id="path334"
       style="stroke-width:1.01838" />
    <path
       d="m 90.151649,159.79059 c 0.286219,0.40728 0.269922,0.91128 -0.03565,1.12307 -0.303534,0.21484 -0.782264,0.058 -1.068483,-0.34721 -0.285201,-0.40728 -0.268904,-0.91128 0.03463,-1.1251 0.305572,-0.21383 0.783283,-0.056 1.069503,0.34924"
       fill="#292827"
       id="path336"
       style="stroke-width:1.01838" />
    <path
       d="m 177.20913,115.86562 c 0,0 -1.83242,3.45473 -8.62834,5.94015 -4.23625,1.5497 -9.5858,2.52207 -9.5858,2.52207 l -0.14565,5.36284 c 0,0 5.5227,-0.83696 10.62474,-2.8428 3.06387,-1.20249 5.92708,-2.85197 7.60874,-5.93405 0.67226,-1.22998 0.12631,-5.04821 0.12631,-5.04821"
       fill="#ffffff"
       id="path338"
       style="stroke-width:1.01838" />
    <path
       d="m 154.47457,100.31776 c -0.18233,0 -0.35752,-0.0998 -0.44716,-0.27389 -0.12834,-0.247422 -0.0316,-0.55288 0.21696,-0.6771 0.0601,-0.03156 6.00143,-3.10448 9.27003,-6.021611 3.28287,-2.92935 5.53391,-5.862772 5.55632,-5.893318 0.17011,-0.220948 0.48586,-0.262694 0.70791,-0.09469 0.22103,0.170039 0.26279,0.486698 0.0947,0.707646 -0.0234,0.02953 -2.33355,3.039315 -5.6867,6.031793 -3.3674,3.002659 -9.23235,6.03892 -9.47986,6.16517 l -0.23223,0.056"
       fill="#dad9d8"
       id="path340"
       style="stroke-width:1.01838" />
    <path
       d="m 159.59799,102.80216 -0.29131,-0.11811 c -0.2139,-0.17818 -0.24039,-0.49586 -0.0611,-0.70866 0.0438,-0.054 4.50312,-5.37404 5.72642,-9.716646 0.0754,-0.268804 0.3616,-0.419497 0.62337,-0.349241 0.26687,0.07535 0.42271,0.354332 0.34733,0.623136 -1.2834,4.553372 -5.73762,9.867341 -5.92708,10.092361 l -0.41761,0.17716"
       fill="#dad9d8"
       id="path342"
       style="stroke-width:1.01838" />
    <path
       d="m 149.71783,96.326437 -4.39617,1.158707 1.48712,5.881096 4.13439,-0.77993 -1.22534,-6.259873"
       fill="#292827"
       id="path344"
       style="stroke-width:1.01838" />
    <path
       d="m 148.99464,94.778779 c 0,0 2.90497,-0.436806 6.84481,2.572981 4.39413,3.35496 5.5828,4.8293 5.5828,4.8293 0,0 -4.53061,5.67237 -9.55523,2.07407 -3.74326,-2.67989 -2.87238,-9.476351 -2.87238,-9.476351"
       fill="#333232"
       id="path346"
       style="stroke-width:1.01838" />
    <path
       d="m 158.41644,104.33964 2.11354,-2.02214 -1.67759,-1.77064 c -0.93403,-0.887868 -2.78987,-0.45208 -4.14355,0.97238 -1.35572,1.42343 -1.69797,3.29793 -0.7619,4.1858 l 1.46369,1.51304 1.91798,-1.83581 c 0.26279,-0.18837 0.52049,-0.3971 0.75985,-0.64961 l 0.32798,-0.39302"
       fill="#292827"
       id="path348"
       style="stroke-width:1.01838" />
    <path
       d="m 159.78133,106.52876 c -1.35368,1.42547 -3.20952,1.85821 -4.14355,0.97238 -0.93404,-0.88787 -0.5918,-2.76237 0.76189,-4.18581 1.3547,-1.42445 3.21054,-1.8582 4.14457,-0.97034 0.932,0.88583 0.5918,2.76033 -0.76393,4.18377"
       fill="#454547"
       id="path350"
       style="stroke-width:1.01838" />
    <path
       d="m 159.46558,106.15203 c -1.03589,1.08845 -2.45477,1.4214 -3.16879,0.74226 -0.71504,-0.67913 -0.45326,-2.11072 0.58263,-3.20019 1.03589,-1.08845 2.45374,-1.42242 3.16878,-0.74226 0.713,0.67913 0.45326,2.11275 -0.58262,3.20019"
       fill="#333232"
       id="path352"
       style="stroke-width:1.01838" />
    <path
       d="m 146.97786,100.1854 c 0.40234,1.62504 0.32493,3.04237 -0.17417,3.16761 -0.49503,0.12218 -1.22535,-1.0966 -1.62565,-2.72368 -0.40131,-1.627075 -0.32492,-3.045421 0.17214,-3.169641 0.49707,-0.121166 1.22535,1.096597 1.62768,2.725711"
       fill="#454547"
       id="path354"
       style="stroke-width:1.01838" />
    <path
       d="m 146.71304,100.24649 c 0.33714,1.3654 0.32492,2.54651 -0.0306,2.63306 -0.35243,0.0855 -0.91264,-0.94998 -1.24979,-2.3164 -0.33715,-1.365401 -0.32493,-2.54549 0.0285,-2.633055 0.35242,-0.08553 0.91264,0.949977 1.25183,2.316395 z"
       fill="#333232"
       id="path356"
       style="stroke-width:1.01838" />
    <path
       d="m 125.75079,134.31533 c -1.6674,-0.32074 -4.44505,-0.80845 -5.81809,-0.71885 -1.89455,0.12116 -3.51306,-0.12829 -4.10281,0.62212 -0.58772,0.74939 -0.0784,1.29209 0.70383,1.47129 0.78328,0.18022 2.0453,1.32875 3.66992,2.33167 0.96357,0.59564 2.73691,1.08845 4.02846,1.39391 -0.14056,-1.9305 0.0285,-3.94653 1.51869,-5.10014"
       fill="#dad9d8"
       id="path358"
       style="stroke-width:1.01838" />
    <path
       d="m 154.75977,118.77766 -0.11612,28.91269 0.0132,-0.002 c 0.052,0.74736 0.51031,1.51406 1.35165,2.18607 v -31.43986 l -1.24877,0.34415"
       fill="#e93535"
       id="path360"
       style="stroke-width:1.01838" />
    <path
       d="m 160.68786,117.15872 v 35.18784 c 2.34069,0.66488 5.05824,0.5315 6.77352,-0.45819 l 18.02773,-10.40291 c 1.07663,-0.62313 1.56453,-1.47231 1.4973,-2.35407 l 0.006,-0.002 v -29.21714 l -26.30466,7.2465"
       fill="#e93535"
       id="path362"
       style="stroke-width:1.01838" />
    <path
       d="m 156.01261,118.43147 v 31.44087 c 0.2302,0.18429 0.48484,0.3635 0.77412,0.53048 l 1.9139,1.10373 c 0.60401,0.34924 1.28136,0.62109 1.99436,0.82168 v -35.18885 l -4.68238,1.29209"
       fill="#7295d4"
       id="path364"
       style="stroke-width:1.01838" />
    <path
       d="m 160.68786,152.32721 c -0.713,-0.20058 -1.39137,-0.47244 -1.99436,-0.82168 l -1.10312,-0.63638 -0.81078,-0.46735 c -0.002,-0.002 -0.005,-0.003 -0.007,-0.005 -0.28622,-0.16495 -0.53883,-0.34211 -0.76699,-0.52437 v -31.44087 l 4.68238,-1.29209 v 35.18783"
       fill="#eb4747"
       id="path366"
       style="stroke-width:1.01838" />
    <path
       d="m 185.50031,139.08048 -18.02773,10.40596 c -1.71528,0.99071 -4.43283,1.12307 -6.77351,0.45921 -0.713,-0.2016 -1.39036,-0.4755 -1.99437,-0.8227 l -1.9139,-1.10373 c -0.28927,-0.16698 -0.54392,-0.34618 -0.77411,-0.53048 -0.84033,-0.67201 -1.29869,-1.43871 -1.35165,-2.18708 l -0.008,0.003 -0.004,0.99275 0.0122,-0.003 c 0.053,0.74736 0.51132,1.51406 1.35165,2.18607 0.23019,0.18429 0.48484,0.36349 0.77411,0.53048 l 1.9139,1.10372 c 0.60401,0.34721 1.28137,0.6211 1.99437,0.8227 2.34068,0.66183 5.05823,0.53048 6.77351,-0.4592 l 18.02773,-10.40495 c 1.07664,-0.62211 1.56453,-1.47129 1.49731,-2.35203 h 0.006 v -0.99376 l -0.006,0.004 c 0.0672,0.87871 -0.42067,1.7289 -1.49731,2.35"
       fill="#333232"
       id="path368"
       style="stroke-width:1.01838" />
    <path
       d="m 185.50031,113.47286 -18.02773,10.40494 c -1.71528,0.99172 -4.43283,1.12205 -6.77351,0.46022 -0.713,-0.2016 -1.39036,-0.47549 -1.99437,-0.8227 l -1.9139,-1.10372 c -0.28927,-0.16699 -0.54392,-0.34619 -0.77411,-0.53048 -0.84033,-0.67201 -1.29869,-1.43871 -1.35165,-2.18709 l -0.008,0.002 -0.004,0.99376 0.0122,-0.003 c 0.053,0.74736 0.51132,1.51406 1.35165,2.18607 0.23019,0.18429 0.48484,0.36146 0.77411,0.53048 l 1.9139,1.10372 c 0.60401,0.34721 1.28137,0.61907 1.99437,0.82271 2.34068,0.66182 5.05823,0.53048 6.77351,-0.45921 l 18.02773,-10.40494 c 1.07664,-0.62008 1.56453,-1.4713 1.49731,-2.35204 l 0.006,-0.002 v -0.98969 l -0.006,0.002 c 0.0672,0.8787 -0.42067,1.72889 -1.49731,2.34999"
       fill="#333232"
       id="path370"
       style="stroke-width:1.01838" />
    <path
       d="m 185.50031,112.01684 -18.02875,10.40494 c -2.23678,1.29209 -6.18274,1.12816 -8.76686,-0.3635 l -1.9139,-1.10372 c -2.58208,-1.49166 -2.86626,-3.76733 -0.62846,-5.06145 l 18.02773,-10.40291 c 2.23679,-1.29107 6.18376,-1.12816 8.76788,0.3635 l 1.9139,1.10372 c 2.58209,1.49166 2.86525,3.76936 0.62846,5.05942"
       fill="#eb4747"
       id="path372"
       style="stroke-width:1.01838" />
    <path
       d="m 170.3745,117.28091 c 0,2.03639 -2.93349,3.6879 -6.55147,3.6879 -3.61797,0 -6.55248,-1.65151 -6.55248,-3.6879 0,-2.03538 2.93349,-3.68485 6.55248,-3.68485 3.61798,0 6.55147,1.64947 6.55147,3.68485 z"
       fill="#ef6c6c"
       id="path374"
       style="stroke-width:1.01838" />
    <path
       d="m 184.71601,109.29825 c 0,2.03538 -2.93349,3.68689 -6.5535,3.68689 -3.61797,0 -6.55248,-1.65151 -6.55248,-3.68689 0,-2.03537 2.93349,-3.68485 6.55248,-3.68485 3.62001,0 6.5535,1.64948 6.5535,3.68485 z"
       fill="#ef6c6c"
       id="path376"
       style="stroke-width:1.01838" />
    <path
       d="m 159.34335,110.46918 v 4.05242 c 0,1.49878 2.15937,2.71451 4.82294,2.71451 2.66459,0 4.82397,-1.21573 4.82397,-2.71451 v -4.05242 z"
       fill="#333232"
       id="path378"
       style="stroke-width:1.01838" />
    <path
       d="m 168.99942,110.46918 c 0,1.49878 -2.15937,2.71349 -4.82498,2.71349 -2.66255,0 -4.82193,-1.21471 -4.82193,-2.71349 0,-1.49879 2.15836,-2.71248 4.82193,-2.71248 2.66561,0 4.82498,1.21369 4.82498,2.71248 z"
       fill="#3c3c3d"
       id="path380"
       style="stroke-width:1.01838" />
    <path
       d="m 167.20673,109.89899 c 0,0.94387 -1.35877,1.70751 -3.03738,1.70751 -1.67657,0 -3.03535,-0.76364 -3.03535,-1.70751 0,-0.94489 1.35878,-1.70752 3.03535,-1.70752 1.67861,0 3.03738,0.76263 3.03738,1.70752 z"
       fill="#4c4d4e"
       id="path382"
       style="stroke-width:1.01838" />
    <path
       d="m 173.33855,102.59852 v 4.05242 c 0,1.49879 2.15937,2.71248 4.82192,2.71248 2.66561,0 4.82295,-1.21369 4.82295,-2.71248 v -4.05242 h -9.64487"
       fill="#333232"
       id="path384"
       style="stroke-width:1.01838" />
    <path
       d="m 182.98444,102.59852 c 0,1.49879 -2.15836,2.71248 -4.82295,2.71248 -2.66357,0 -4.82294,-1.21369 -4.82294,-2.71248 0,-1.49878 2.15937,-2.715525 4.82294,-2.715525 2.66459,0 4.82295,1.216745 4.82295,2.715525 z"
       fill="#3c3c3d"
       id="path386"
       style="stroke-width:1.01838" />
    <path
       d="m 171.36251,150.22973 -3.57315,-2.06287 v -21.12145 l 3.57315,2.05981 v 21.12451"
       fill="#333232"
       id="path388"
       style="stroke-width:1.01838" />
    <path
       d="m 168.87719,126.49558 -1.08376,0.54168 3.57316,2.06083 1.08478,-0.54066 -3.57418,-2.06185"
       fill="#4c4d4e"
       id="path390"
       style="stroke-width:1.01838" />
    <path
       d="m 168.83645,124.66283 v 26.10349 c 0,1.12612 1.62259,2.03944 3.6251,2.03944 2.0015,0 3.62511,-0.91332 3.62511,-2.03944 v -26.10349 h -7.25021"
       fill="#bbbab8"
       id="path392"
       style="stroke-width:1.01838" />
    <path
       d="m 176.06832,124.66283 c 0,1.12612 -1.6236,2.03944 -3.6251,2.03944 -2.00353,0 -3.6251,-0.91332 -3.6251,-2.03944 0,-1.12714 1.62157,-2.03945 3.6251,-2.03945 2.0015,0 3.6251,0.91231 3.6251,2.03945 z"
       fill="#dad9d8"
       id="path394"
       style="stroke-width:1.01838" />
    <path
       d="m 174.94789,124.07227 c 0,0.75652 -1.08885,1.36846 -2.43235,1.36846 -1.34248,0 -2.43134,-0.61194 -2.43134,-1.36846 0,-0.75448 1.08886,-1.36743 2.43134,-1.36743 1.3435,0 2.43235,0.61295 2.43235,1.36743 z"
       fill="#ffffff"
       id="path396"
       style="stroke-width:1.01838" />
    <path
       d="m 181.20193,102.14034 c 0,0.94488 -1.36081,1.70853 -3.03738,1.70853 -1.67657,0 -3.03535,-0.76365 -3.03535,-1.70853 0,-0.94387 1.35878,-1.70854 3.03535,-1.70854 1.67657,0 3.03738,0.76467 3.03738,1.70854 z"
       fill="#4c4d4e"
       id="path398"
       style="stroke-width:1.01838" />
    <path
       d="m 179.24627,122.17843 3.90114,-2.25327 c 0.39622,-0.22705 0.71809,-0.84408 0.71809,-1.37049 0,-0.52742 -0.32187,-0.77077 -0.71809,-0.5427 l -3.90114,2.25123 c -0.3952,0.22808 -0.71809,0.84612 -0.71809,1.37253 0,0.52539 0.32289,0.76874 0.71809,0.5427"
       fill="#ffffff"
       id="path400"
       style="stroke-width:1.01838" />
    <path
       d="m 179.24627,140.97433 3.90114,-2.25225 c 0.39622,-0.22808 0.71809,-0.84511 0.71809,-1.37049 0,-0.52641 -0.32187,-0.76976 -0.71809,-0.54372 l -3.90114,2.25123 c -0.3952,0.22808 -0.71809,0.84612 -0.71809,1.37049 0,0.52845 0.32289,0.77078 0.71809,0.54474 z"
       fill="#ffffff"
       id="path402"
       style="stroke-width:1.01838" />
    <g
       id="g4489"
       transform="matrix(1.0185735,0,0,1.0181959,-15.545346,-0.00254212)">
      <path
         d="m 66.84669,240.32751 c -13.17,0 -23.843,-6.007 -23.843,-13.42 0,-7.409 10.673,-13.42 23.843,-13.42 13.17,0 23.846,6.011 23.846,13.42 0,7.413 -10.676,13.42 -23.846,13.42 z"
         fill="#f9c8c8"
         id="path404" />
      <path
         d="m 66.12669,220.95751 c 0.553,-2.566 0.688,-6.929 0.724,-12.749 0.013,-2.125 0.013,-6.494 0.01,-10.15 h -4.188 c 0,0 -0.48,17.747 -0.53,19.876 -0.036,1.533 -0.592,3.527 -1.128,5.102 0.5,0.178 1.023,0.353 1.49,0.487 1.51,0.428 3.073,0 3.622,-2.566 z"
         fill="#97463a"
         id="path406" />
      <path
         d="m 57.90669,228.45751 c 0,0 0.935,0.468 2.629,-0.819 0.497,-0.378 1.448,-0.921 1.974,-0.674 0.435,0.204 0.796,0.997 1.198,1.493 1.082,1.343 1.905,2.277 1.905,2.277 0,0 0.668,-1.109 0.934,-2.744 0.175,-1.059 0.698,-1.796 1.343,-1.342 0.345,0.243 1.154,0.766 2.006,0.852 1.464,0.145 2.725,0.431 2.725,0.431 0,0 -3.014,-3.083 -3.165,-6.047 -0.152,-2.968 -0.435,-23.81 -0.435,-23.81 h -2.161 c 0.003,3.655 0.003,8.024 -0.01,10.149 -0.036,5.821 -0.171,10.183 -0.724,12.749 -0.55,2.567 -2.112,2.994 -3.622,2.567 -0.468,-0.135 -0.991,-0.31 -1.491,-0.487 -0.207,0.612 -0.414,1.168 -0.579,1.599 -0.608,1.543 -2.527,3.806 -2.527,3.806"
         fill="#723425"
         id="path408" />
      <path
         d="m 56.22669,193.90751 0.273,0.184 c 0.04,1 0.524,2 1.307,2.721 1.592,1.47 4.053,1.71 6.027,0.924 1.704,-0.681 2.918,-2.395 3.307,-4.244 4.188,0.98 10.876,-6.501 12.387,-8.962 2.082,-3.402 4.283,-7.988 2.628,-11.953 -0.549,-1.323 -1.372,-2.382 -2.382,-2.797 1.191,-1.112 2.363,-2.184 3.218,-3.674 1.105,-1.925 2.833,-6.755 0.003,-7.92 1.093,-1.441 1.721,-3.148 1.162,-4.922 -0.691,-2.161 -2.586,-2.947 -4.504,-2.697 0.332,-0.408 0.69,-0.787 1.072,-1.142 l -0.043,0.003 c 1.402,-2.151 2.975,-5.017 2.688,-7.419 -0.115,-0.954 -0.536,-1.724 -1.164,-2.168 1.316,-2.04 2.382,-4.29 3.257,-6.36 1.589,-3.764 3.073,-8.129 2.582,-12.272 -0.565,-4.767 -5.385,-9.311 -9.718,-6.906 0.635,-2.178 0.582,-4.359 -0.26,-6.622 1.033,-1.382 2.056,-2.764 3.06,-4.129 3.036,-4.139 5.668,-8.686 6.297,-13.868 0.414,-3.445 0.089,-8.544 -3.159,-10.686 -2.596,-1.711 -5.399,-0.451 -7.692,1.224 0.52,-1.635 2.586,-3.619 1.908,-5.238 -0.71,-1.694 -2.415,-0.375 -2.938,-0.23 2.178,-4.258 3.356,-9.17 3.402,-13.736 0.017,-1.919 -0.112,-4.176 -2.434,-4.505 -1.129,-0.157 -2.08,0.287 -2.846,0.991 0.24,-1.55 0.302,-3.139 0.312,-4.514 0.02,-2.247 0.059,-5.031 -1.665,-6.695 h -0.687 c -0.444,0.477 -0.859,0.924 -1.25,1.388 -0.681,-3.254 -2.392,-8.656 -5.33,-8.666 -1.708,-0.007 -2.567,2.119 -3.281,3.362 l -0.157,0.293 c 2.039,-0.306 3.849,1.053 4.981,3.8 1.059,2.573 1.109,5.843 0.546,8.992 1.326,-0.102 2.671,1.372 2.905,2.764 0.309,1.855 -0.201,4.425 -1.204,6.54 1.54,-0.042 3.007,1.438 3.26,3.106 0.408,2.737 -0.931,6.159 -2.586,9.051 l 0.491,0.23 c 1.062,0.78 0.618,2.287 0.18,3.511 2.317,0.105 2.669,3.494 2.267,5.567 -0.329,1.694 -1.013,3.536 -1.928,5.303 0.796,-0.345 1.662,-0.444 2.488,-0.049 1.661,0.796 1.628,2.734 1.615,4.402 1.036,-0.576 1.655,-0.869 3.126,0.23 1.128,0.839 1.855,2.004 1.648,3.425 -0.332,2.28 -2.695,4.642 -4.07,6.373 -0.612,0.767 -1.24,1.52 -1.885,2.264 0.306,0.464 0.477,1.099 0.451,1.638 -0.086,1.76 -0.622,3.606 -1.455,5.251 1.356,0.605 2.136,2.635 2.05,4.162 -0.072,1.316 -0.493,2.836 -1.145,4.277 1.454,-0.109 3.274,0.75 4.103,1.721 2.895,3.392 0.921,8.202 -0.477,11.939 1.306,-0.023 2.277,1.517 2.365,2.856 0.158,2.471 -1.411,5.712 -3.04,7.863 0.293,0.204 0.524,0.56 0.685,1.014 0.618,1.753 -0.224,3.76 -1.244,5.303 5.498,2.05 3.356,9.581 0.451,13.259 -1.31,1.658 -4.3,3.84 -6.932,4.277 -0.379,1.978 -2.356,3.754 -4.096,4.406 -1.089,0.408 -2.396,0.444 -3.31,-0.326 -2.254,1.971 -7.745,1.402 -9.62,-0.033 -3.863,-2.948 -1.616,-6.646 1.316,-8.965 -2.859,-1.619 -5.021,-7.215 -5.468,-9.439 -0.392,-1.932 0.039,-5.791 1.816,-7.123 -1.616,-1.119 -3.113,-2.764 -4.314,-4.623 -2.872,1.586 -3.418,5.623 -3.106,8.538 0.517,4.826 3.208,9.07 6.6,12.864 -1.177,0.493 -2.329,1.451 -3.026,2.313 -0.306,0.378 -0.583,0.776 -0.846,1.181 -2.431,9.294 1.26,20.286 11.028,23.373"
         fill="#00ad87"
         id="path410" />
      <path
         d="m 42.53669,182.02751 c 0.421,5.041 2.652,9.696 5.574,13.759 1.944,2.708 5.346,8.39 9.333,7.025 1.372,1.349 3.738,2.454 4.751,2.586 2.017,0.26 4.452,-0.8 5.679,-2.52 2.122,0.815 7.916,-2.649 8.811,-3.314 5.652,-4.198 9.696,-10.37 12.377,-16.805 2.201,-5.291 3.698,-11.996 -0.405,-16.812 l -0.52,-0.533 c 0.872,-1.557 1.563,-3.188 2.037,-4.824 0.816,-2.819 1.349,-6.238 -0.892,-8.557 -2.164,-2.234 -5.527,-2.83 -8.557,-2.593 -0.382,0.356 -0.74,0.734 -1.073,1.142 1.919,-0.25 3.814,0.536 4.505,2.698 0.559,1.773 -0.07,3.481 -1.162,4.922 2.83,1.164 1.102,5.994 -0.003,7.919 -0.855,1.49 -2.027,2.563 -3.218,3.675 1.01,0.414 1.833,1.474 2.382,2.796 1.655,3.965 -0.546,8.551 -2.629,11.953 -1.51,2.461 -8.198,9.943 -12.387,8.962 -0.388,1.849 -1.602,3.564 -3.306,4.245 -1.974,0.786 -4.435,0.546 -6.028,-0.925 -0.783,-0.72 -1.266,-1.721 -1.306,-2.721 l -0.273,-0.184 c -9.768,-3.086 -13.459,-14.078 -11.028,-23.373 -2.195,3.346 -2.987,7.525 -2.662,11.479"
         fill="#009c74"
         id="path412" />
      <path
         d="m 49.90669,150.27751 c -1.777,1.333 -2.208,5.192 -1.816,7.123 0.447,2.224 2.609,7.821 5.468,9.44 -2.932,2.319 -5.179,6.017 -1.316,8.965 1.875,1.434 7.366,2.004 9.62,0.033 0.914,0.77 2.221,0.733 3.31,0.326 1.74,-0.652 3.717,-2.429 4.096,-4.406 2.632,-0.437 5.622,-2.619 6.932,-4.277 2.905,-3.678 5.047,-11.209 -0.451,-13.259 1.02,-1.543 1.862,-3.55 1.244,-5.303 -0.161,-0.454 -0.392,-0.81 -0.685,-1.014 1.629,-2.152 3.198,-5.392 3.04,-7.863 -0.088,-1.339 -1.059,-2.879 -2.365,-2.856 1.398,-3.737 3.372,-8.547 0.477,-11.94 -0.829,-0.97 -2.649,-1.829 -4.103,-1.72 0.652,-1.441 1.073,-2.961 1.145,-4.277 0.086,-1.527 -0.694,-3.557 -2.05,-4.162 0.833,-1.645 1.369,-3.491 1.455,-5.251 0.026,-0.54 -0.145,-1.175 -0.451,-1.639 0.645,-0.743 1.273,-1.497 1.885,-2.263 1.375,-1.731 3.738,-4.093 4.07,-6.373 0.207,-1.421 -0.52,-2.586 -1.648,-3.425 -1.471,-1.099 -2.09,-0.806 -3.126,-0.23 0.013,-1.668 0.046,-3.606 -1.615,-4.402 -0.826,-0.395 -1.691,-0.297 -2.488,0.049 0.915,-1.767 1.599,-3.609 1.928,-5.304 0.402,-2.072 0.05,-5.461 -2.266,-5.566 0.437,-1.224 0.881,-2.731 -0.181,-3.511 l -0.491,-0.23 c 1.655,-2.892 2.994,-6.314 2.586,-9.051 -0.253,-1.668 -1.72,-3.149 -3.26,-3.106 1.003,-2.115 1.513,-4.685 1.204,-6.541 -0.234,-1.391 -1.579,-2.865 -2.905,-2.763 0.562,-3.149 0.513,-6.419 -0.546,-8.992 -1.132,-2.747 -2.942,-4.106 -4.981,-3.8 -1.422,2.51 -2.613,5.149 -3.577,7.867 -1.977,5.599 -2.974,11.557 -2.971,17.496 0.004,4.619 0.152,9.002 0.448,12.4 -1.191,-1.293 -2.227,-2.615 -3.432,-3.053 -2.339,-0.845 -3.487,1.004 -3.829,3.073 -0.695,4.169 0.533,8.521 2.609,12.446 -0.287,-0.128 -0.586,-0.227 -0.928,-0.25 -1.668,-0.111 -3.017,1.323 -3.445,2.797 -0.921,3.185 1.04,7.416 3.432,10.35 -0.533,0.007 -1.079,0.204 -1.557,0.652 -1.52,1.424 -0.888,3.267 0.168,4.787 -1.345,-0.01 -2.714,0.707 -3.589,1.898 -1.083,1.461 -3.188,6.89 0.46,11.565 -3.003,3.083 0.619,6.876 2.8,9.479 -0.891,0.171 -1.674,0.822 -2.142,2.168 -0.513,1.48 -0.065,3.003 0.593,4.369 0.756,1.559 1.674,3.119 2.645,4.629 -1.076,-0.428 -2.382,-0.392 -3.507,0.155 l -0.208,0.138 c 1.201,1.859 2.698,3.504 4.314,4.622"
         fill="#1abc9c"
         id="path414" />
      <g
         fill="#00ad87"
         id="g446"
         transform="translate(-188.83331,-514.00249)">
        <path
           d="m 262.92,670.27 -0.418,0.178 c 0.149,0.668 0.234,1.359 0.04,2.027 -0.158,0.523 -0.566,0.931 -0.737,1.428 -0.151,-0.504 -0.484,-0.938 -1.069,-1.182 -0.303,-0.125 -0.428,0.326 -0.208,0.491 0.721,0.536 0.55,1.556 0.109,2.201 -0.411,0.599 -1.03,0.937 -1.28,1.638 l 0.346,0.349 c 1.309,-0.178 2.26,-1.698 2.188,-3.001 l 0.21,0.04 c 0.776,-0.128 1.148,-1.162 1.27,-1.839 0.151,-0.823 0.059,-1.652 -0.451,-2.33"
           id="path416" />
        <path
           d="m 244.7,677.08 c -0.388,-0.52 -0.931,-0.908 -1.129,-1.55 -0.207,-0.681 0.014,-1.362 0.204,-2.016 l -0.362,-0.28 c -1.618,1.016 -1.062,4.3 0.977,4.385 l 0.31,-0.539"
           id="path418" />
        <path
           d="m 250.55,676.26 c -0.487,-0.171 -1.004,-0.075 -1.507,-0.171 -0.556,-0.112 -1.155,-0.358 -1.605,-0.707 l -0.392,0.306 c 0.694,1.007 2.517,2.152 3.646,1.109 l -0.142,-0.537"
           id="path420" />
        <path
           d="m 247.43,682.45 c -0.573,-0.195 -1.113,-0.329 -1.481,-0.856 -0.352,-0.5 -0.342,-1.102 -0.52,-1.661 l -0.411,-0.109 c -1.237,1.418 0.658,3.754 2.273,3.642 0.586,-0.036 0.704,-0.826 0.139,-1.016 z"
           id="path422" />
        <path
           d="m 245.16,665.5 c -0.56,-0.494 -1.359,-0.708 -1.807,-1.333 -0.487,-0.674 -0.306,-1.437 0.056,-2.112 l -0.217,-0.283 c -0.592,0.125 -0.911,0.599 -1.033,1.145 -0.329,-0.256 -0.698,-0.428 -0.895,-0.875 -0.266,-0.605 -0.069,-1.24 0.128,-1.833 l -0.329,-0.256 c -0.842,0.47 -1.092,1.553 -0.802,2.438 0.25,0.756 1.023,1.628 1.885,1.507 l 0.102,0.371 c 0.418,1.07 1.648,1.965 2.793,1.678 l 0.119,-0.447"
           id="path424" />
        <path
           d="m 259.24,651.29 -0.299,0.23 c 0.253,0.727 0.562,1.438 0.516,2.228 -0.023,0.513 -0.25,0.931 -0.424,1.368 -0.184,-0.306 -0.395,-0.595 -0.645,-0.849 -0.29,-0.286 -0.688,0.135 -0.441,0.441 0.513,0.629 0.684,1.402 0.615,2.205 -0.062,0.681 -0.444,1.243 -0.556,1.908 l 0.474,0.362 c 0.892,-0.385 1.112,-1.504 1.079,-2.392 l -0.099,-0.655 c 1.639,-0.809 1.224,-4.08 -0.22,-4.846"
           id="path426" />
        <path
           d="m 238.48,643.59 c -0.218,-0.582 -0.652,-1.059 -0.826,-1.648 -0.191,-0.619 0.043,-1.122 0.411,-1.616 l -0.174,-0.306 c -0.823,0.086 -1.227,0.909 -1.241,1.665 -0.019,0.987 0.589,1.895 1.494,2.241 z"
           id="path428" />
        <path
           d="m 240.55,653.16 c -0.329,-0.349 -0.793,-0.454 -0.997,-0.944 -0.254,-0.609 -0.04,-1.244 0.444,-1.665 l -0.287,-0.368 c -0.815,0.371 -1.388,1.276 -1.148,2.188 0.194,0.75 0.964,1.671 1.816,1.444 l 0.172,-0.655"
           id="path430" />
        <path
           d="m 259.14,638.1 -0.129,0.223 c 0.431,0.471 0.642,1.168 0.606,1.797 -0.04,0.648 -0.421,1.266 -0.349,1.911 0.033,0.306 0.421,0.556 0.668,0.277 1.016,-1.152 0.786,-3.705 -0.796,-4.208"
           id="path432" />
        <path
           d="m 258.71,624.9 -0.204,0.204 c 0.359,0.81 0.5,1.589 0.191,2.445 -0.187,0.52 -0.641,1.003 -0.816,1.533 l -0.079,-0.365 c -0.138,-0.546 -0.411,-1.227 -1.076,-1.204 l -0.204,0.362 c 0.612,1.121 0.106,2.414 0.573,3.55 0.118,0.282 0.599,0.47 0.76,0.098 0.22,-0.5 0.224,-1.095 0.155,-1.681 l 0.154,0.03 c 0.938,-0.27 1.428,-1.823 1.52,-2.698 0.092,-0.872 -0.135,-1.856 -0.974,-2.274"
           id="path434" />
        <path
           d="m 239.86,631.84 c -0.477,-0.524 -1.122,-0.839 -1.51,-1.455 -0.461,-0.73 -0.635,-1.589 -0.26,-2.391 l -0.217,-0.218 c -1.899,0.951 0.039,4.603 1.829,4.439 z"
           id="path436" />
        <path
           d="m 243.81,619.51 c -1.319,-0.645 -2.365,-2.086 -1.447,-3.541 l -0.375,-0.289 c -0.359,0.319 -0.609,0.707 -0.767,1.125 -0.309,-0.286 -0.615,-0.579 -0.829,-0.964 -0.388,-0.701 -0.345,-1.533 -0.187,-2.293 l -0.287,-0.168 c -1.194,1.306 -0.631,3.833 1.145,4.264 0,0.296 0.046,0.592 0.171,0.895 0.431,1.036 1.412,1.648 2.524,1.379 z"
           id="path438" />
        <path
           d="m 259.93,611.78 -0.227,0.128 c 0.161,0.8 0.372,1.547 0.224,2.369 -0.125,0.695 -0.445,1.27 -0.826,1.839 -0.244,-0.654 -0.701,-1.237 -1.283,-1.51 l -0.293,0.379 c 0.536,0.473 0.947,1.069 0.904,1.819 -0.032,0.619 -0.375,1.122 -0.579,1.688 l 0.336,0.336 c 0.819,-0.326 1.115,-1.05 1.089,-1.813 l 0.53,-0.102 c 1.237,-1.254 1.556,-3.896 0.125,-5.133"
           id="path440" />
        <path
           d="m 242.13,626.48 c -0.951,-0.718 -1.609,-1.649 -0.855,-2.82 l -0.448,-0.342 c -0.671,0.609 -0.941,1.51 -0.644,2.382 0.263,0.767 0.96,1.385 1.803,1.319 0.299,-0.026 0.375,-0.365 0.144,-0.539"
           id="path442" />
        <path
           d="m 241.5,601.67 c -0.786,-0.865 -1.036,-2.931 -0.352,-3.879 0.26,-0.358 -0.306,-0.773 -0.609,-0.467 -0.776,0.8 -0.802,1.823 -0.645,2.876 0.132,0.882 0.372,1.862 1.395,1.984 z"
           id="path444" />
      </g>
      <g
         fill="#009c74"
         id="g468"
         transform="translate(-188.83331,-514.00249)">
        <path
           d="m 241.77,697.81 c -0.503,-0.395 -1.191,-0.516 -1.566,-1.086 -0.378,-0.575 -0.378,-1.454 -0.122,-2.082 l -0.342,-0.198 -0.536,0.678 -0.724,-0.688 c -0.395,-0.526 -0.428,-1.082 -0.22,-1.691 l -0.458,-0.263 c -1.22,0.981 -0.098,3.083 1.159,3.583 -0.014,0.375 0.039,0.76 0.23,1.138 0.421,0.82 1.582,1.711 2.51,1.149 l 0.069,-0.54"
           id="path448" />
        <path
           d="m 260.22,694.78 -0.5,0.135 c -0.095,0.75 -0.085,1.444 -0.487,2.116 -0.312,0.529 -1.049,0.875 -1.187,1.467 l 0.276,0.487 c 0.882,0.237 1.609,-0.925 1.902,-1.612 0.339,-0.786 0.497,-1.843 -0.004,-2.593"
           id="path450" />
        <path
           d="m 263.88,690.18 -0.52,0.303 c 0.191,0.816 0.375,1.609 0.221,2.448 -0.135,0.737 -0.649,1.322 -0.767,2.03 -0.066,0.395 0.286,0.674 0.652,0.503 0.848,-0.398 1.148,-1.668 1.21,-2.523 0.076,-0.994 -0.141,-1.997 -0.796,-2.761"
           id="path452" />
        <path
           d="m 252.23,701 -0.401,0.171 c 0.102,0.674 -0.168,1.293 -0.572,1.816 -0.287,0.372 -0.662,0.493 -0.974,0.799 l -0.096,0.369 0.02,0.062 0.477,0.362 c 0.793,0.102 1.326,-0.806 1.596,-1.418 0.312,-0.707 0.319,-1.48 -0.05,-2.161"
           id="path454" />
        <path
           d="m 268.48,631.32 -0.174,0.431 c 0.605,0.516 1.194,0.944 1.523,1.704 0.296,0.688 0.204,1.425 0.339,2.139 l 0.385,0.102 c 1.316,-1.376 -0.332,-4.258 -2.073,-4.376"
           id="path456" />
        <path
           d="m 272.6,635.76 -0.431,0.178 c -0.06,0.661 0.032,1.26 -0.208,1.905 -0.21,0.572 -0.809,0.997 -0.911,1.579 -0.043,0.247 0.115,0.599 0.424,0.556 1.57,-0.204 1.978,-3.152 1.126,-4.218"
           id="path458" />
        <path
           d="m 268.94,597 c -0.286,-0.664 -1.063,-1.47 -1.832,-1.033 l -0.05,0.379 0.711,0.615 c 0.283,0.372 0.362,0.832 0.414,1.29 0.076,0.737 0.056,1.428 0.454,2.076 l 0.537,-0.069 c 0.342,-0.915 0.154,-2.363 -0.234,-3.258"
           id="path460" />
        <path
           d="m 271.97,599.47 -0.481,0.283 c 0.326,0.839 0.326,1.632 -0.049,2.454 -0.316,0.695 -0.918,1.261 -1.102,2.004 -0.092,0.378 0.326,0.734 0.674,0.52 1.553,-0.961 2.353,-3.886 0.958,-5.261"
           id="path462" />
        <path
           d="m 269.21,605.16 c -0.112,-0.803 -0.497,-1.487 -1.263,-1.797 l -0.175,0.231 c 0.823,1.23 0.303,2.339 -0.095,3.609 -0.168,0.536 0.099,1.372 0.793,0.875 0.687,-0.49 0.849,-2.155 0.74,-2.918"
           id="path464" />
        <path
           d="m 265.16,577.76 c -0.076,-0.8 -0.468,-1.468 -1.076,-1.974 -0.29,-0.244 -0.803,0.069 -0.563,0.434 0.316,0.484 0.448,1.059 0.425,1.635 -0.027,0.53 -0.303,1.01 -0.31,1.53 -0.006,0.385 0.408,0.576 0.724,0.415 0.694,-0.352 0.862,-1.333 0.8,-2.04"
           id="path466" />
      </g>
    </g>
    <path
       d="m 229.76033,192.75977 c -12.77088,0 -23.12977,-5.82408 -23.12977,-13.01153 0,-7.18744 10.35889,-13.01254 23.12977,-13.01254 12.77495,0 23.12976,5.8251 23.12976,13.01254 0,7.18745 -10.35481,13.01153 -23.12976,13.01153 z"
       fill="#f9c8c8"
       id="path470"
       style="stroke-width:1.01838" />
    <path
       d="m 230.59556,176.39736 c 0.53577,-2.49152 0.66614,-6.72111 0.70179,-12.3609 0.0122,-2.06082 0.0132,-6.29754 0.009,-9.84086 h -4.06207 c 0,0 -0.46549,17.20649 -0.51336,19.27038 -0.0326,1.48656 -0.57142,3.42012 -1.09191,4.94741 0.48178,0.17208 0.98903,0.3411 1.44535,0.47244 1.46471,0.41441 2.97831,0 3.51103,-2.48847 z"
       fill="#97463a"
       id="path472"
       style="stroke-width:1.01838" />
    <path
       d="m 222.62013,183.66728 c 0,0 0.90653,0.4531 2.54949,-0.79419 0.48178,-0.36655 1.40766,-0.89601 1.92103,-0.65368 0.41455,0.19753 0.76596,0.96321 1.15506,1.44787 1.05015,1.30227 1.84769,2.20745 1.84769,2.20745 0,0 0.64781,-1.07522 0.90653,-2.66055 0.16908,-1.02634 0.67633,-1.74111 1.30174,-1.30125 0.33511,0.23622 1.12043,0.74023 1.94649,0.82677 1.42091,0.14357 2.64218,0.41746 2.64218,0.41746 0,0 -2.92229,-2.98942 -3.06896,-5.86379 -0.14668,-2.8764 -0.42169,-23.08555 -0.42169,-23.08555 h -2.09622 c 0.003,3.54434 0.003,7.78003 -0.0102,9.84086 -0.0346,5.63979 -0.16603,9.87039 -0.7018,12.36192 -0.53271,2.48745 -2.04529,2.90288 -3.51,2.48745 -0.45632,-0.13033 -0.96459,-0.29935 -1.44638,-0.47142 -0.20371,0.59259 -0.39826,1.13223 -0.56429,1.54969 -0.59077,1.49369 -2.45068,3.69096 -2.45068,3.69096"
       fill="#723425"
       id="path474"
       style="stroke-width:1.01838" />
    <path
       d="m 220.99041,150.17882 0.26483,0.17818 c 0.0387,0.97034 0.50419,1.93967 1.26405,2.63815 1.54415,1.42649 3.93169,1.65966 5.84661,0.89703 1.6562,-0.65776 2.83061,-2.32251 3.20647,-4.11555 4.06309,0.94794 10.55344,-6.3067 12.01815,-8.69234 2.01677,-3.2959 4.1517,-7.74236 2.54643,-11.5891 -0.53271,-1.28293 -1.33026,-2.30724 -2.31012,-2.7084 1.15506,-1.08133 2.29484,-2.12193 3.12091,-3.56369 1.07561,-1.86635 2.75116,-6.54904 0.003,-7.67822 1.06237,-1.39696 1.6725,-3.05255 1.12654,-4.77533 -0.67022,-2.09545 -2.50467,-2.85808 -4.3656,-2.6127 0.31983,-0.39506 0.67022,-0.76568 1.03691,-1.10677 l -0.0408,0.003 c 1.35878,-2.08628 2.8846,-4.86188 2.60959,-7.196608 -0.11408,-0.921467 -0.51947,-1.668823 -1.13266,-2.098502 1.27628,-1.981409 2.3142,-4.163403 3.15962,-6.170267 1.54416,-3.64616 2.98035,-7.881855 2.50467,-11.895583 -0.54494,-4.621591 -5.22324,-9.030379 -9.4269,-6.695656 0.6193,-2.108684 0.56531,-4.226531 -0.25158,-6.420743 1.00533,-1.339946 1.99436,-2.679892 2.96812,-4.006601 2.9447,-4.013728 5.50437,-8.418444 6.10737,-13.443241 0.40233,-3.339682 0.0866,-8.284042 -3.06387,-10.364216 -2.5169,-1.658641 -5.23649,-0.433751 -7.46004,1.190271 0.5042,-1.585331 2.50773,-3.509721 1.85075,-5.078761 -0.68957,-1.643368 -2.33966,-0.363496 -2.84691,-0.222985 2.10947,-4.127766 3.2523,-8.890886 3.2961,-13.322075 0.0194,-1.856171 -0.10491,-4.047329 -2.35799,-4.363988 -1.09803,-0.155784 -2.01984,0.277968 -2.76339,0.960159 0.2363,-1.501839 0.29334,-3.046442 0.30659,-4.376206 0.0153,-2.178939 0.057,-4.8771582 -1.61852,-6.4920169 h -0.66614 c -0.43086,0.4592064 -0.8332,0.893976 -1.21313,1.346055 C 234.0526,5.2447406 232.38926,0.01019551 229.54031,1.3551709e-5 227.88717,-0.00609562 227.05092,2.0547329 226.35829,3.2602768 l -0.15279,0.2840767 c 1.97807,-0.296295 3.73308,1.0202323 4.8311,3.6807782 1.02774,2.4945799 1.07561,5.6662603 0.52966,8.7218663 1.28646,-0.09877 2.5943,1.329764 2.82145,2.676837 0.29946,1.802207 -0.19863,4.289659 -1.16831,6.344378 1.49017,-0.04175 2.9172,1.396965 3.15962,3.011824 0.3952,2.650364 -0.90042,5.967646 -2.50569,8.771758 l 0.47261,0.227057 c 1.0308,0.755502 0.603,2.216613 0.1752,3.403829 2.24697,0.10182 2.58819,3.387538 2.1991,5.394402 -0.31576,1.645405 -0.97987,3.432338 -1.8701,5.144944 0.77208,-0.334987 1.61138,-0.430697 2.41198,-0.04785 1.6124,0.768738 1.57981,2.647309 1.56758,4.268277 1.00534,-0.561026 1.60528,-0.842048 3.03434,0.21993 1.09191,0.816593 1.79981,1.945773 1.59916,3.32441 -0.32595,2.210503 -2.61672,4.500426 -3.95105,6.178413 -0.5867,0.743283 -1.20294,1.474347 -1.82834,2.192175 0.2964,0.453098 0.46243,1.065033 0.44002,1.591441 -0.0856,1.706496 -0.60605,3.49343 -1.41378,5.090979 1.31498,0.587499 2.07484,2.555672 1.98826,4.032056 -0.0703,1.279872 -0.47873,2.753201 -1.10719,4.150166 1.40767,-0.104874 3.17184,0.72801 3.97651,1.668823 2.81126,3.288773 0.89329,7.953129 -0.46345,11.576888 1.2671,-0.0224 2.21234,1.470275 2.29485,2.768474 0.15686,2.395821 -1.36897,5.537971 -2.94572,7.621201 0.28113,0.19753 0.50419,0.54575 0.66106,0.98561 0.60299,1.70039 -0.21696,3.64616 -1.206,5.13884 5.33224,1.98752 3.2574,9.29205 0.43697,12.8588 -1.27016,1.60773 -4.17106,3.72252 -6.72055,4.14711 -0.37076,1.9142 -2.28466,3.64005 -3.97651,4.27133 -1.05626,0.39608 -2.32336,0.4307 -3.20748,-0.31871 -2.18892,1.91421 -7.51504,1.35829 -9.33421,-0.0316 -3.74632,-2.8591 -1.56657,-6.44416 1.27729,-8.6903 -2.77358,-1.5721 -4.8698,-6.99908 -5.30371,-9.1546 -0.37993,-1.86941 0.0377,-5.61128 1.76111,-6.90337 -1.56351,-1.08438 -3.01905,-2.67989 -4.18328,-4.4821 -2.7858,1.53748 -3.31648,5.44837 -3.00989,8.27793 0.50114,4.67963 3.10869,8.79213 6.39868,12.4729 -1.14284,0.47856 -2.25919,1.40715 -2.93553,2.24308 -0.29742,0.3635 -0.5653,0.7494 -0.82097,1.14446 -2.35494,9.01204 1.22229,19.67255 10.70012,22.66198"
       fill="#00ad87"
       id="path476"
       style="stroke-width:1.01838" />
    <path
       d="m 207.7184,138.66302 c 0.40844,4.88734 2.57189,9.401 5.40658,13.3404 1.88844,2.62491 5.18556,8.13132 9.0592,6.81072 1.3272,1.30736 3.61899,2.37952 4.60191,2.50374 1.95566,0.25557 4.32079,-0.77485 5.5115,-2.44367 2.05447,0.79521 7.67394,-2.56382 8.54278,-3.20833 5.48196,-4.07075 9.40754,-10.05571 12.00491,-16.29521 2.13493,-5.12967 3.58639,-11.62984 -0.39215,-16.3003 l -0.50522,-0.51724 c 0.84644,-1.50897 1.51666,-3.09125 1.97604,-4.67963 0.79143,-2.7308 1.30784,-6.04809 -0.86477,-8.29015 -2.1003,-2.16978 -5.36177,-2.75015 -8.30036,-2.51698 -0.36669,0.34109 -0.71809,0.7107 -1.03691,1.10678 1.85992,-0.24641 3.69539,0.51622 4.36561,2.61269 0.54494,1.72177 -0.0642,3.37735 -1.12654,4.77534 2.74709,1.12917 1.07154,5.81186 -0.004,7.67821 -0.82606,1.44177 -1.96483,2.48134 -3.12091,3.56267 0.97987,0.40219 1.77741,1.42649 2.31115,2.7084 1.60527,3.84776 -0.52966,8.29422 -2.54644,11.5891 -1.46471,2.38666 -7.95607,9.64028 -12.01815,8.69336 -0.37687,1.79304 -1.55128,3.45779 -3.20748,4.11453 -1.91492,0.76263 -4.30144,0.52946 -5.84662,-0.89601 -0.75883,-0.69848 -1.22534,-1.66882 -1.26303,-2.63815 l -0.26483,-0.17818 c -9.47782,-2.98942 -13.05505,-13.64994 -10.70011,-22.66199 -2.12882,3.24397 -2.89784,7.29538 -2.58208,11.1299"
       fill="#009c74"
       id="path478"
       style="stroke-width:1.01838" />
    <path
       d="m 214.82804,107.87278 c -1.72241,1.29209 -2.14104,5.03396 -1.76111,6.90337 0.43391,2.15654 2.53013,7.5825 5.30371,9.15561 -2.84386,2.24614 -5.02361,5.83121 -1.27628,8.68929 1.81816,1.39085 7.14428,1.94577 9.33421,0.0316 0.88311,0.75041 2.15021,0.71478 3.20647,0.31972 1.69185,-0.6323 3.60677,-2.35815 3.97651,-4.27134 2.54949,-0.42458 5.45039,-2.53938 6.72055,-4.14711 2.82145,-3.56674 4.89526,-10.87128 -0.43697,-12.85879 0.98904,-1.4937 1.80899,-3.43947 1.20599,-5.13884 -0.15584,-0.44088 -0.37992,-0.78808 -0.66003,-0.98663 1.57573,-2.08221 3.10155,-5.22436 2.94469,-7.620179 -0.0825,-1.2982 -1.02672,-2.791893 -2.29382,-2.769493 1.35572,-3.623759 3.27369,-8.287096 0.46243,-11.575869 -0.80366,-0.941831 -2.56884,-1.773697 -3.97651,-1.668823 0.62948,-1.396965 1.03792,-2.871313 1.10719,-4.150167 0.0866,-1.477402 -0.67328,-3.445575 -1.98724,-4.032055 0.80671,-1.598568 1.3272,-3.384484 1.41378,-5.09098 0.0224,-0.526407 -0.14464,-1.139361 -0.44104,-1.592458 0.6254,-0.717828 1.24164,-1.447875 1.82834,-2.191158 1.33433,-1.677987 3.6251,-3.967909 3.95104,-6.179431 0.20066,-1.377619 -0.50725,-2.506798 -1.59916,-3.323391 -1.42905,-1.061979 -2.02899,-0.781975 -3.03433,-0.219931 0.0122,-1.620967 0.0448,-3.499539 -1.56656,-4.268277 -0.80162,-0.382841 -1.64092,-0.287131 -2.413,0.04785 0.89023,-1.713623 1.55434,-3.499539 1.8701,-5.145962 0.38909,-2.005846 0.0479,-5.291564 -2.1991,-5.394402 0.4278,-1.186198 0.8556,-2.647309 -0.1752,-3.403828 l -0.47262,-0.22604 c 1.60528,-2.804111 2.9009,-6.121394 2.5057,-8.772776 -0.24243,-1.61384 -1.66945,-3.052551 -3.15962,-3.010805 0.9707,-2.054719 1.46776,-4.54319 1.1683,-6.345397 -0.22714,-1.346055 -1.53499,-2.775602 -2.82144,-2.675819 0.54595,-3.056624 0.49808,-6.2272858 -0.52966,-8.7218658 -1.09802,-2.6605459 -2.85303,-3.9780914 -4.8311,-3.6807782 -1.37507,2.4304336 -2.53421,4.9922145 -3.46926,7.627306 -1.91797,5.42902 -2.8846,11.206264 -2.88154,16.964161 0.003,4.478026 0.14667,8.727976 0.43391,12.022858 -1.15201,-1.250345 -2.15734,-2.536326 -3.32462,-2.959896 -2.27244,-0.820666 -3.38574,0.972377 -3.7178,2.982296 -0.67327,4.041219 0.51642,8.255532 2.53014,12.064603 -0.27705,-0.12422 -0.56735,-0.222985 -0.8994,-0.242331 -1.61546,-0.108946 -2.92636,1.281909 -3.33787,2.708402 -0.89736,3.091242 1.00432,7.193554 3.32768,10.038393 -0.51947,0.0031 -1.04913,0.19753 -1.51258,0.631281 -1.47387,1.381692 -0.86171,3.168626 0.16297,4.641956 -1.30173,-0.01324 -2.62893,0.682191 -3.48148,1.837843 -1.05015,1.419365 -3.09239,6.679365 0.45021,11.215428 -2.9172,2.986369 0.59688,6.664092 2.71246,9.187182 -0.86171,0.16902 -1.62462,0.80132 -2.07483,2.105629 -0.50114,1.435656 -0.0672,2.91204 0.57142,4.236713 0.73439,1.512011 1.62462,3.024041 2.56884,4.488201 -1.04608,-0.41542 -2.31318,-0.37979 -3.40204,0.14968 l -0.20371,0.1344 c 1.16525,1.8022 2.61977,3.3967 4.18328,4.48108"
       fill="#1abc9c"
       id="path480"
       style="stroke-width:1.01838" />
    <g
       fill="#00ad87"
       id="g512"
       transform="matrix(1.0185735,0,0,1.0181959,-195.51448,-523.35777)">
      <path
         d="m 425.92,625.66 -0.401,0.169 c 0.144,0.636 0.226,1.294 0.038,1.93 -0.147,0.498 -0.539,0.886 -0.702,1.356 -0.144,-0.479 -0.46,-0.89 -1.018,-1.121 -0.288,-0.119 -0.404,0.31 -0.194,0.466 0.683,0.508 0.523,1.482 0.1,2.093 -0.392,0.57 -0.981,0.893 -1.219,1.564 l 0.332,0.332 c 1.244,-0.173 2.15,-1.617 2.081,-2.854 l 0.2,0.034 c 0.743,-0.125 1.094,-1.109 1.209,-1.754 0.145,-0.781 0.057,-1.57 -0.426,-2.215"
         id="path482" />
      <path
         d="m 408.56,632.14 c -0.367,-0.492 -0.887,-0.862 -1.075,-1.473 -0.197,-0.648 0.013,-1.297 0.195,-1.923 l -0.342,-0.264 c -1.544,0.969 -1.015,4.098 0.928,4.174 l 0.294,-0.514"
         id="path484" />
      <path
         d="m 414.11,631.36 c -0.467,-0.162 -0.959,-0.072 -1.435,-0.166 -0.529,-0.1 -1.103,-0.338 -1.529,-0.67 l -0.376,0.288 c 0.661,0.962 2.397,2.049 3.475,1.059 z"
         id="path486" />
      <path
         d="m 411.13,637.25 c -0.542,-0.181 -1.056,-0.313 -1.407,-0.811 -0.338,-0.479 -0.326,-1.046 -0.498,-1.582 l -0.392,-0.104 c -1.178,1.354 0.627,3.575 2.165,3.469 0.558,-0.038 0.671,-0.79 0.132,-0.972 z"
         id="path488" />
      <path
         d="m 409,621.11 c -0.532,-0.467 -1.294,-0.674 -1.72,-1.269 -0.46,-0.646 -0.291,-1.372 0.057,-2.015 l -0.21,-0.269 c -0.561,0.119 -0.868,0.573 -0.981,1.093 -0.316,-0.244 -0.664,-0.407 -0.855,-0.836 -0.254,-0.577 -0.066,-1.181 0.122,-1.745 l -0.31,-0.241 c -0.805,0.448 -1.04,1.475 -0.765,2.318 0.235,0.724 0.972,1.554 1.793,1.438 l 0.097,0.354 c 0.398,1.018 1.569,1.87 2.663,1.598 L 409,621.11"
         id="path490" />
      <path
         d="m 422.38,607.58 -0.286,0.219 c 0.245,0.693 0.536,1.37 0.495,2.121 -0.025,0.486 -0.238,0.887 -0.407,1.304 -0.175,-0.292 -0.373,-0.567 -0.614,-0.808 -0.272,-0.276 -0.652,0.128 -0.417,0.419 0.486,0.599 0.652,1.335 0.583,2.099 -0.056,0.649 -0.42,1.185 -0.529,1.818 l 0.451,0.344 c 0.849,-0.366 1.062,-1.435 1.028,-2.278 l -0.091,-0.626 c 1.56,-0.768 1.165,-3.882 -0.213,-4.612"
         id="path492" />
      <path
         d="m 402.61,600.25 c -0.207,-0.551 -0.623,-1.006 -0.789,-1.57 -0.179,-0.586 0.04,-1.068 0.391,-1.535 l -0.166,-0.291 c -0.783,0.081 -1.168,0.864 -1.181,1.585 -0.019,0.94 0.561,1.802 1.423,2.131 l 0.322,-0.32"
         id="path494" />
      <path
         d="m 404.62,609.36 c -0.313,-0.335 -0.755,-0.432 -0.946,-0.899 -0.241,-0.583 -0.038,-1.184 0.42,-1.585 l -0.27,-0.354 c -0.78,0.357 -1.319,1.215 -1.096,2.086 0.185,0.714 0.918,1.589 1.732,1.372 z"
         id="path496" />
      <path
         d="m 422.32,595.02 -0.122,0.213 c 0.413,0.448 0.61,1.109 0.576,1.707 -0.035,0.621 -0.401,1.207 -0.329,1.824 0.031,0.288 0.398,0.529 0.633,0.263 0.971,-1.097 0.749,-3.531 -0.758,-4.007"
         id="path498" />
      <path
         d="m 421.88,582.45 -0.194,0.195 c 0.338,0.77 0.473,1.513 0.179,2.327 -0.176,0.495 -0.611,0.956 -0.777,1.457 l -0.076,-0.344 c -0.131,-0.524 -0.391,-1.169 -1.021,-1.147 l -0.197,0.345 c 0.586,1.068 0.1,2.299 0.545,3.38 0.113,0.273 0.57,0.445 0.724,0.094 0.213,-0.476 0.216,-1.046 0.147,-1.601 l 0.147,0.028 c 0.893,-0.257 1.363,-1.735 1.447,-2.569 0.088,-0.83 -0.128,-1.767 -0.924,-2.165"
         id="path500" />
      <path
         d="m 403.96,589.06 c -0.455,-0.498 -1.066,-0.799 -1.435,-1.385 -0.439,-0.695 -0.608,-1.513 -0.251,-2.277 l -0.207,-0.21 c -1.807,0.908 0.041,4.386 1.749,4.229 l 0.144,-0.357"
         id="path502" />
      <path
         d="m 407.72,577.31 c -1.259,-0.611 -2.256,-1.983 -1.381,-3.368 l -0.358,-0.278 c -0.338,0.307 -0.579,0.676 -0.73,1.074 -0.294,-0.272 -0.585,-0.551 -0.786,-0.918 -0.373,-0.667 -0.332,-1.463 -0.182,-2.187 l -0.272,-0.156 c -1.138,1.244 -0.599,3.647 1.093,4.06 0.003,0.279 0.041,0.564 0.16,0.852 0.41,0.987 1.344,1.57 2.403,1.313 l 0.053,-0.392"
         id="path504" />
      <path
         d="m 423.07,569.95 -0.213,0.125 c 0.157,0.761 0.351,1.473 0.21,2.259 -0.119,0.658 -0.423,1.203 -0.787,1.748 -0.231,-0.626 -0.667,-1.181 -1.221,-1.438 l -0.276,0.357 c 0.511,0.455 0.902,1.022 0.862,1.736 -0.035,0.586 -0.361,1.068 -0.555,1.607 l 0.32,0.32 c 0.78,-0.313 1.065,-1 1.037,-1.73 l 0.504,-0.094 c 1.181,-1.193 1.485,-3.709 0.119,-4.89"
         id="path506" />
      <path
         d="m 406.12,583.96 c -0.906,-0.683 -1.532,-1.569 -0.818,-2.685 l -0.426,-0.325 c -0.639,0.579 -0.896,1.435 -0.611,2.265 0.248,0.73 0.912,1.322 1.714,1.256 0.285,-0.022 0.357,-0.348 0.141,-0.511"
         id="path508" />
      <path
         d="m 405.53,560.36 c -0.749,-0.824 -0.987,-2.795 -0.335,-3.694 0.247,-0.341 -0.292,-0.736 -0.577,-0.445 -0.742,0.758 -0.767,1.733 -0.617,2.739 0.125,0.839 0.354,1.773 1.328,1.889 z"
         id="path510" />
    </g>
    <g
       fill="#009c74"
       id="g534"
       transform="matrix(1.0185735,0,0,1.0181959,-195.51448,-523.35777)">
      <path
         d="m 405.78,651.88 c -0.483,-0.376 -1.138,-0.492 -1.492,-1.034 -0.36,-0.548 -0.36,-1.385 -0.119,-1.983 l -0.326,-0.188 -0.51,0.645 -0.686,-0.658 c -0.379,-0.498 -0.408,-1.03 -0.213,-1.607 l -0.436,-0.254 c -1.162,0.94 -0.094,2.939 1.103,3.415 -0.013,0.358 0.038,0.724 0.222,1.084 0.398,0.78 1.504,1.629 2.388,1.091 l 0.069,-0.511"
         id="path514" />
      <path
         d="m 423.35,649 -0.473,0.129 c -0.094,0.711 -0.085,1.372 -0.464,2.014 -0.301,0.505 -1.002,0.831 -1.134,1.398 l 0.263,0.463 c 0.84,0.223 1.532,-0.883 1.814,-1.535 0.32,-0.749 0.47,-1.754 -0.006,-2.469"
         id="path516" />
      <path
         d="m 426.8,644.61 -0.495,0.288 c 0.182,0.774 0.357,1.529 0.213,2.331 -0.128,0.699 -0.62,1.26 -0.733,1.936 -0.059,0.373 0.273,0.64 0.62,0.477 0.809,-0.379 1.094,-1.589 1.156,-2.403 0.069,-0.946 -0.134,-1.902 -0.761,-2.629"
         id="path518" />
      <path
         d="m 415.74,654.92 -0.382,0.16 c 0.097,0.645 -0.157,1.231 -0.546,1.732 -0.272,0.354 -0.629,0.47 -0.927,0.762 l -0.091,0.35 0.022,0.06 0.451,0.341 c 0.755,0.101 1.263,-0.764 1.52,-1.347 0.301,-0.673 0.307,-1.41 -0.047,-2.058 z"
         id="path520" />
      <path
         d="m 431.22,588.56 -0.169,0.407 c 0.582,0.492 1.137,0.9 1.45,1.626 0.285,0.655 0.194,1.354 0.323,2.037 l 0.37,0.094 c 1.25,-1.31 -0.32,-4.051 -1.974,-4.164"
         id="path522" />
      <path
         d="m 435.1,592.82 -0.41,0.166 c -0.056,0.633 0.034,1.203 -0.197,1.817 -0.201,0.545 -0.771,0.949 -0.868,1.504 -0.041,0.235 0.109,0.567 0.404,0.529 1.497,-0.194 1.886,-3.001 1.071,-4.016"
         id="path524" />
      <path
         d="m 431.62,555.88 c -0.276,-0.633 -1.015,-1.403 -1.748,-0.984 l -0.047,0.361 0.676,0.582 c 0.27,0.358 0.345,0.796 0.395,1.232 0.075,0.698 0.057,1.359 0.436,1.974 l 0.51,-0.066 c 0.323,-0.868 0.151,-2.25 -0.222,-3.099"
         id="path526" />
      <path
         d="m 434.54,558.26 -0.457,0.266 c 0.313,0.799 0.31,1.557 -0.047,2.341 -0.301,0.661 -0.875,1.2 -1.05,1.905 -0.088,0.36 0.31,0.705 0.642,0.495 1.479,-0.915 2.24,-3.697 0.912,-5.007"
         id="path528" />
      <path
         d="m 431.87,563.65 c -0.109,-0.765 -0.473,-1.416 -1.206,-1.711 l -0.166,0.216 c 0.783,1.175 0.288,2.231 -0.091,3.44 -0.16,0.508 0.094,1.304 0.755,0.831 0.655,-0.467 0.808,-2.052 0.708,-2.776"
         id="path530" />
      <path
         d="m 428.05,537.56 c -0.069,-0.758 -0.445,-1.394 -1.024,-1.877 -0.276,-0.231 -0.762,0.066 -0.536,0.414 0.304,0.461 0.429,1.006 0.404,1.557 -0.025,0.501 -0.288,0.959 -0.294,1.457 -0.007,0.363 0.388,0.548 0.689,0.395 0.661,-0.336 0.824,-1.269 0.761,-1.946"
         id="path532" />
    </g>
  </g>
</svg>
