<?xml version="1.0" encoding="UTF-8" standalone="no"?>
<svg
   xmlns:dc="http://purl.org/dc/elements/1.1/"
   xmlns:cc="http://creativecommons.org/ns#"
   xmlns:rdf="http://www.w3.org/1999/02/22-rdf-syntax-ns#"
   xmlns:svg="http://www.w3.org/2000/svg"
   xmlns="http://www.w3.org/2000/svg"
   xmlns:sodipodi="http://sodipodi.sourceforge.net/DTD/sodipodi-0.dtd"
   xmlns:inkscape="http://www.inkscape.org/namespaces/inkscape"
   width="80"
   height="80"
   viewBox="0 0 80 80"
   fill="none"
   version="1.1"
   id="svg8"
   sodipodi:docname="clock-icon.svg"
   inkscape:version="1.0.1 (3bc2e813f5, 2020-09-07)">
  <metadata
     id="metadata14">
    <rdf:RDF>
      <cc:Work
         rdf:about="">
        <dc:format>image/svg+xml</dc:format>
        <dc:type
           rdf:resource="http://purl.org/dc/dcmitype/StillImage" />
        <dc:title></dc:title>
      </cc:Work>
    </rdf:RDF>
  </metadata>
  <defs
     id="defs12" />
  <sodipodi:namedview
     pagecolor="#ffffff"
     bordercolor="#666666"
     borderopacity="1"
     objecttolerance="10"
     gridtolerance="10"
     guidetolerance="10"
     inkscape:pageopacity="0"
     inkscape:pageshadow="2"
     inkscape:window-width="1920"
     inkscape:window-height="987"
     id="namedview10"
     showgrid="false"
     fit-margin-top="0"
     fit-margin-left="0"
     fit-margin-right="0"
     fit-margin-bottom="0"
     inkscape:zoom="7.7781746"
     inkscape:cx="30.974941"
     inkscape:cy="34.062715"
     inkscape:window-x="0"
     inkscape:window-y="0"
     inkscape:window-maximized="1"
     inkscape:current-layer="svg8" />
  <rect
     width="80"
     height="80"
     rx="9.8461542"
     fill="#bbf5d5"
     id="rect2"
     x="0"
     y="0"
     style="stroke-width:1.23077" />
  <path
     d="m 39.970708,10.833342 c -16.099939,0 -29.137477,13.06672 -29.137477,29.166658 0,16.100062 13.037538,29.166646 29.137477,29.166646 16.12923,0 29.195815,-13.066584 29.195815,-29.166646 0,-16.099938 -13.066585,-29.166658 -29.195815,-29.166658 z m 0.02917,52.49995 c -12.891692,0 -23.333292,-10.4416 -23.333292,-23.333292 0,-12.891692 10.4416,-23.333292 23.333292,-23.333292 12.891692,0 23.333415,10.4416 23.333415,23.333292 0,12.891692 -10.441723,23.333292 -23.333415,23.333292 z"
     fill="#38dc91"
     id="path4"
     style="stroke-width:1.23077" />
  <path
     d="M 41.458215,25.416615 H 37.0832 v 17.500062 l 15.312492,9.187446 2.18757,-3.587446 -13.125047,-7.787569 z"
     fill="#38dc91"
     id="path6"
     style="stroke-width:1.23077" />
</svg>
