<svg width="80" height="80" viewBox="0 0 80 80" fill="none" xmlns="http://www.w3.org/2000/svg">
<rect width="80" height="80" rx="8" fill="#BBF5D5"/>
<path d="M52.4271 63.6463C51.4278 63.6463 50.6176 64.4565 50.6176 65.4558V69.0728C50.6176 70.0722 51.4278 70.8823 52.4271 70.8823C53.4265 70.8823 54.2366 70.0722 54.2366 69.0728V65.4558C54.2366 64.4564 53.4265 63.6463 52.4271 63.6463Z" fill="#38DC91"/>
<path d="M20.455 63.6463C19.4557 63.6463 18.6455 64.4565 18.6455 65.4558V69.0728C18.6455 70.0722 19.4557 70.8823 20.455 70.8823C21.4544 70.8823 22.2645 70.0722 22.2645 69.0728V65.4558C22.2645 64.4564 21.4545 63.6463 20.455 63.6463Z" fill="#38DC91"/>
<path d="M67.2628 40.6732V14.3084L70.0764 12.4329C70.9079 11.8786 71.1326 10.7551 70.5783 9.92358C70.0241 9.09217 68.9008 8.86743 68.0689 9.42162L64.4496 11.8343C63.9462 12.1699 63.6437 12.7348 63.6437 13.3399V40.6731C61.5378 41.4202 60.025 43.4315 60.025 45.7904V55.1757C59.559 54.6492 59.0548 54.1529 58.5142 53.6925C58.5015 53.6818 58.4886 53.6714 58.4759 53.6607V52.5673C58.4759 50.4855 57.7281 48.4634 56.37 46.8736C55.3481 45.6773 54.0302 44.782 52.5678 44.2713C53.0439 42.6835 53.3009 40.9988 53.3009 39.2537V33.3953C53.3009 23.9333 45.7667 16.2354 36.5058 16.2354C27.245 16.2354 19.7109 23.9334 19.7109 33.3953V39.2537C19.7109 40.9845 19.9639 42.6556 20.4325 44.2319C16.913 45.4085 14.4065 48.764 14.4065 52.5671V53.6496C11.1741 56.3784 9.11768 60.4543 9.11768 65.0012V69.0661C9.11768 70.0654 9.92785 70.8756 10.9272 70.8756C11.9265 70.8756 12.7367 70.0654 12.7367 69.0661V65.0012C12.7367 61.3636 14.4773 58.1245 17.1706 56.0677C19.1251 54.5751 21.5481 53.756 24.0073 53.756H27.5377C30.1341 55.4381 33.2103 56.4135 36.5058 56.4135C39.8013 56.4135 42.8775 55.4381 45.4739 53.756H48.8749C54.2914 53.756 59.0674 57.7759 59.9844 63.1065C59.9949 63.1673 60.0251 69.0729 60.0251 69.0729C60.0251 70.0722 60.8353 70.8824 61.8346 70.8824H69.0726C70.0719 70.8824 70.8821 70.0722 70.8821 69.0729V45.7905C70.882 43.4315 69.369 41.4202 67.2628 40.6732ZM54.7014 51.3326C53.0511 50.6278 51.2792 50.2229 49.4711 50.1496C50.1062 49.362 50.6733 48.5152 51.1649 47.6196C52.9094 48.1466 54.2597 49.5872 54.7014 51.3326ZM23.3299 33.3952C23.3299 33.3598 23.3309 33.3247 23.3312 33.2895H49.6805C49.6808 33.3247 49.6819 33.3598 49.6819 33.3952C49.6819 33.3952 49.6654 40.0171 49.6348 40.3928H42.0096L37.5792 37.1284C36.9409 36.6581 36.0708 36.6581 35.4325 37.1284L31.0021 40.3928H23.377C23.3463 40.0171 23.3299 33.3952 23.3299 33.3952ZM36.5057 19.8543C42.5145 19.8543 47.5965 24.0094 49.1747 29.6705H23.8369C25.415 24.0094 30.4969 19.8543 36.5057 19.8543ZM21.8289 47.5871C22.3237 48.4931 22.8956 49.3492 23.537 50.1451C21.6423 50.204 19.8356 50.6177 18.1818 51.3223C18.633 49.5377 20.0281 48.084 21.8289 47.5871ZM24.1703 44.0118H31.5967C31.983 44.0118 32.3591 43.8881 32.67 43.6591L36.5057 40.8328L40.3412 43.6591C40.6522 43.8881 41.0283 44.0118 41.4146 44.0118H48.8412C46.9629 49.1379 42.1424 52.7947 36.5057 52.7947C30.8691 52.7945 26.0486 49.1378 24.1703 44.0118ZM67.263 59.0602H63.644V45.7904C63.644 44.7927 64.4557 43.9809 65.4533 43.9809C66.4511 43.9809 67.263 44.7927 67.263 45.7904V59.0602ZM63.644 67.2633V62.6793H67.263V67.2633H63.644Z" fill="#38DC91"/>
</svg>
