<svg width="80" height="80" viewBox="0 0 80 80" fill="none" xmlns="http://www.w3.org/2000/svg">
<rect width="80" height="80" rx="8" fill="#F9C8C8"/>
<path d="M63.3333 22.5H56.975C57.2958 21.5958 57.5 20.6041 57.5 19.5833C57.5 14.7416 53.5917 10.8333 48.75 10.8333C45.6875 10.8333 43.0333 12.4083 41.4583 14.7708L40 16.725L38.5417 14.7416C36.9667 12.4083 34.3125 10.8333 31.25 10.8333C26.4083 10.8333 22.5 14.7416 22.5 19.5833C22.5 20.6041 22.7042 21.5958 23.025 22.5H16.6667C13.4292 22.5 10.8625 25.0958 10.8625 28.3333L10.8333 60.4166C10.8333 63.6541 13.4292 66.25 16.6667 66.25H63.3333C66.5708 66.25 69.1667 63.6541 69.1667 60.4166V28.3333C69.1667 25.0958 66.5708 22.5 63.3333 22.5ZM48.75 16.6666C50.3542 16.6666 51.6667 17.9791 51.6667 19.5833C51.6667 21.1875 50.3542 22.5 48.75 22.5C47.1458 22.5 45.8333 21.1875 45.8333 19.5833C45.8333 17.9791 47.1458 16.6666 48.75 16.6666ZM31.25 16.6666C32.8542 16.6666 34.1667 17.9791 34.1667 19.5833C34.1667 21.1875 32.8542 22.5 31.25 22.5C29.6458 22.5 28.3333 21.1875 28.3333 19.5833C28.3333 17.9791 29.6458 16.6666 31.25 16.6666ZM63.3333 60.4166H16.6667V54.5833H63.3333V60.4166ZM63.3333 45.8333H16.6667V28.3333H31.4833L25.4167 36.5875L30.1417 40L37.0833 30.55L40 26.5833L42.9167 30.55L49.8583 40L54.5833 36.5875L48.5167 28.3333H63.3333V45.8333Z" fill="#EF6C6C"/>
</svg>
 
