<svg width="80" height="80" fill="none" version="1.1" viewBox="0 0 80 80" xmlns="http://www.w3.org/2000/svg">
 <g transform="scale(.88889)">
  <rect width="90" height="90" rx="8" fill="#bbf5d5"/>
  <path d="m66.862 16.762h-13.324c-1.3388-3.6975-4.845-6.375-8.9888-6.375-4.1437 0-7.65 2.6775-8.9887 6.375h-13.324c-3.5062 0-6.375 2.8687-6.375 6.375v44.625c0 3.5062 2.8688 6.375 6.375 6.375h44.625c3.5063 0 6.375-2.8688 6.375-6.375v-44.625c0-3.5063-2.8687-6.375-6.375-6.375zm-22.312 0c1.7531 0 3.1875 1.4343 3.1875 3.1875 0 1.7531-1.4344 3.1875-3.1875 3.1875s-3.1875-1.4344-3.1875-3.1875c0-1.7532 1.4344-3.1875 3.1875-3.1875zm6.375 44.625h-22.312v-6.375h22.312zm9.5625-12.75h-31.875v-6.375h31.875zm0-12.75h-31.875v-6.375h31.875z" fill="#38dc91"/>
 </g>
</svg>
