<svg width="80" height="80" version="1.1" viewBox="0 0 80 80" xmlns="http://www.w3.org/2000/svg">
 <rect width="80" height="80" rx="7.1111" fill="#bbf5d5" stroke-width=".88889"/>
 <path d="m53.125 40c4.0251 0 7.2625-3.2667 7.2625-7.2916 0-4.025-3.2374-7.2916-7.2625-7.2916-4.025 0-7.2916 3.2667-7.2916 7.2916 0 4.025 3.2667 7.2916 7.2916 7.2916zm-21.875-2.9166c4.8417 0 8.7209-3.9084 8.7209-8.75s-3.8792-8.75-8.7209-8.75c-4.8416 0-8.75 3.9084-8.75 8.75s3.9084 8.75 8.75 8.75zm21.875 8.75c-5.3375 0-16.042 2.6833-16.042 8.0208v6.5626h32.083v-6.5626c0-5.3375-10.704-8.0208-16.042-8.0208zm-21.875-2.9167c-6.7958 0-20.417 3.4125-20.417 10.208v7.2917h20.417v-6.5626c0-2.4791 0.96258-6.825 6.9125-10.121-2.5375-0.52498-4.9875-0.81671-6.9125-0.81671z" fill="#38dc91" stroke-width=".88889"/>
</svg>
