<?xml version="1.0" standalone="no"?>
<!DOCTYPE svg PUBLIC "-//W3C//DTD SVG 20010904//EN"
 "http://www.w3.org/TR/2001/REC-SVG-20010904/DTD/svg10.dtd">
<svg version="1.0" xmlns="http://www.w3.org/2000/svg"
 width="700.000000pt" height="700.000000pt" viewBox="0 0 700.000000 700.000000"
 preserveAspectRatio="xMidYMid meet">
<metadata>
Created by potrace 1.11, written by Peter Selinger 2001-2013
</metadata>
<g transform="translate(0.000000,700.000000) scale(0.100000,-0.100000)"
fill="#000000" stroke="none">
<path d="M850 6985 c-410 -77 -720 -368 -822 -771 l-23 -89 0 -2615 c0 -2101
3 -2627 13 -2677 84 -403 366 -698 768 -804 l89 -24 2610 0 c1436 0 2629 3
2653 7 422 72 755 393 841 813 21 99 21 115 20 2675 -1 2191 -3 2587 -15 2655
-54 302 -246 569 -516 719 -55 30 -181 82 -218 90 -14 2 -56 11 -95 20 -62 13
-368 15 -2655 14 -2002 0 -2600 -3 -2650 -13z"/>
</g>
</svg>
