<svg width="80" height="80" viewBox="0 0 80 80" fill="none" xmlns="http://www.w3.org/2000/svg">
<rect width="80" height="80" rx="8" fill="#BBF5D5"/>
<path d="M11.5833 63.25H21.9166V32.25H11.5833V63.25ZM68.4166 34.8333C68.4166 31.9916 66.0916 29.6666 63.2499 29.6666H46.9491L49.4032 17.8608L49.4807 17.0341C49.4807 15.975 49.0416 14.9933 48.3441 14.2958L45.6057 11.5833L28.6074 28.6075C27.6516 29.5375 27.0833 30.8291 27.0833 32.25V58.0833C27.0833 60.925 29.4082 63.25 32.2499 63.25H55.4999C57.6441 63.25 59.4782 61.9583 60.2532 60.0983L68.0549 41.8858C68.2874 41.2916 68.4166 40.6716 68.4166 40V34.8333Z" fill="#38DC91"/>
</svg>
 
