<?xml version="1.0" encoding="UTF-8" standalone="no"?>
<svg
   xmlns:dc="http://purl.org/dc/elements/1.1/"
   xmlns:cc="http://creativecommons.org/ns#"
   xmlns:rdf="http://www.w3.org/1999/02/22-rdf-syntax-ns#"
   xmlns:svg="http://www.w3.org/2000/svg"
   xmlns="http://www.w3.org/2000/svg"
   xmlns:sodipodi="http://sodipodi.sourceforge.net/DTD/sodipodi-0.dtd"
   xmlns:inkscape="http://www.inkscape.org/namespaces/inkscape"
   width="272.55399"
   height="250"
   fill="none"
   version="1.1"
   viewBox="0 0 272.55398 250"
   id="svg820"
   sodipodi:docname="service-2.svg"
   inkscape:version="1.0.1 (3bc2e813f5, 2020-09-07)">
  <metadata
     id="metadata824">
    <rdf:RDF>
      <cc:Work
         rdf:about="">
        <dc:format>image/svg+xml</dc:format>
        <dc:type
           rdf:resource="http://purl.org/dc/dcmitype/StillImage" />
        <dc:title></dc:title>
      </cc:Work>
    </rdf:RDF>
  </metadata>
  <sodipodi:namedview
     pagecolor="#ffffff"
     bordercolor="#666666"
     borderopacity="1"
     objecttolerance="10"
     gridtolerance="10"
     guidetolerance="10"
     inkscape:pageopacity="0"
     inkscape:pageshadow="2"
     inkscape:window-width="1920"
     inkscape:window-height="987"
     id="namedview822"
     showgrid="false"
     inkscape:zoom="2.9121863"
     inkscape:cx="158.96437"
     inkscape:cy="122.76"
     inkscape:window-x="0"
     inkscape:window-y="0"
     inkscape:window-maximized="1"
     inkscape:current-layer="svg820" />
  <defs
     id="defs698">
    <clipPath
       id="clip3-3">
      <rect
         transform="translate(392,11)"
         width="264.60999"
         height="245.52"
         fill="#ffffff"
         id="rect695"
         x="0"
         y="0" />
    </clipPath>
  </defs>
  <g
     transform="matrix(1.018247,0,0,1.018247,-397.56004,-11.200721)"
     clip-path="url(#clip3-3)"
     id="g818">
    <path
       d="m 395.93,183.56 c -10.68,-33.162 0.469,-98.616 33.648,-127.4 26.701,-23.164 70.557,-5.964 105.33,-12.331 18.422,-3.3731 35.887,-15.752 54.499,-13.663 17.036,1.9118 36.744,8.7423 45.872,23.253 11.696,18.591 10.424,45.847 1.411,65.877 -12.671,28.161 -47.689,39.278 -70.632,59.947 -22.329,20.116 -35.369,58.433 -65.174,62.302 -39.637,5.145 -81.25,15.622 -104.95,-57.988"
       fill="#fbdada"
       id="path700" />
    <path
       d="m 571.38,75.37 c -4.919,-1.706 -14.435,-3.3292 -17.691,0 -3.255,3.3292 1.024,5.8468 8.843,7.2219 7.824,1.3751 8.848,-7.2219 8.848,-7.2219"
       fill="#333232"
       id="path702" />
    <path
       d="m 587.25,58.33 c 0,0 -12.592,-2.6159 -16.941,0.9794 -4.349,3.593 8.224,7.1056 13.728,5.3504 5.505,-1.7574 3.213,-6.3298 3.213,-6.3298 z"
       fill="#333232"
       id="path704" />
    <path
       d="m 604.69,93.279 c 24.377,-2.4259 35.588,-15.354 37.216,-27.857 -0.901,-0.9793 -1.876,-1.9117 -2.929,-2.777 -8.219,-6.7457 -22.044,-12.483 -32.753,-11.978 -10.735,0.5075 -22.612,7.0609 -29.946,14.759 -3.64,3.8234 -6.631,9.2074 -8.132,14.766 3.904,6.6182 13.467,15.378 36.544,13.087"
       fill="#97463a"
       id="path706" />
    <path
       d="m 571.37,99.524 c 14.113,14.124 39.618,10.153 46.634,8.313 10.529,-2.761 24.315,-9.308 28.57,-20.083 3.213,-8.1297 0.754,-16.262 -4.818,-22.332 -1.628,12.503 -12.838,25.431 -37.216,27.857 -23.077,2.2918 -32.64,-6.4684 -36.543,-13.087 -1.928,7.1369 -1.396,14.562 3.373,19.331"
       fill="#97463a"
       id="path708" />
    <path
       d="m 601.34,109.78 c -9.97,0 -21.856,-2.135 -29.972,-10.26 -3.113,-3.1101 -4.418,-7.3516 -4.418,-11.906 0.002,-2.4282 0.373,-4.9435 1.044,-7.4253 3.47,5.8826 11.409,13.46 29.341,13.458 2.241,0 4.64,-0.1185 7.202,-0.3711 24.378,-2.426 35.589,-15.354 37.216,-27.857 3.875,4.2191 6.243,9.4377 6.247,14.958 0.003,2.4192 -0.449,4.8966 -1.428,7.3739 -4.255,10.775 -18.042,17.322 -28.571,20.083 -2.98,0.783 -9.299,1.947 -16.661,1.947 z"
       fill="#843d2f"
       id="path710" />
    <g
       fill="#723425"
       id="g718">
      <path
         d="m 644.26,68.362 c -10.723,-1.9519 -24.483,3.2063 -33.493,7.7049 -11.309,5.6456 -22.551,14.902 -28.154,26.462 -0.15,0.306 0.252,0.689 0.505,0.389 8.235,-9.7461 16.541,-18.204 28.125,-24.018 5.659,-2.8396 11.714,-4.9391 17.925,-6.1711 5.516,-1.0956 10.667,-2.0346 16.566,-1.9184 -0.228,-0.7445 -0.924,-1.6098 -1.474,-2.4483"
         id="path712" />
      <path
         d="m 607.6,50.636 c -5.138,1.3795 -12.083,4.7803 -15.752,7.3337 -10.372,7.2286 -19.479,19.441 -23.347,31.691 -0.103,0.3242 0.528,1.0173 0.733,0.6864 6.733,-10.837 12.877,-22.211 23.497,-29.643 5.188,-3.6288 10.873,-6.5846 16.841,-8.7042 1.042,-0.369 2.099,-0.682 3.168,-0.957 -1.314,-0.1722 -3.839,-0.4069 -5.14,-0.4069 z"
         id="path714" />
      <path
         d="m 633.08,58.601 c -22.07,-4.6149 -48.615,12.818 -59.07,37.804 -0.192,0.4606 0.492,0.7267 0.783,0.3309 7.264,-9.8736 12.38,-19.352 23.016,-26.22 5.163,-3.3337 10.839,-5.8177 16.78,-7.3717 6.976,-1.8267 13.563,-2.2716 20.602,-3.1034 -0.687,-0.5165 -1.239,-1.2566 -2.111,-1.4399"
         id="path716" />
    </g>
    <path
       d="m 589.26,90.435 c -2.225,-7.157 -10.254,-8.3398 -13.693,-10.482 -3.698,-2.303 -6.989,-2.9447 -9.865,-2.4326 5.738,1.6076 11.714,5.8982 15.513,10.084 5.587,6.1576 -3.759,16.968 -12.83,15.105 -6.611,-1.357 -11.512,-6.0657 -14.689,-10.482 -1.373,9.4306 9.844,18.645 22.388,17.559 13.341,-1.156 15.675,-11.316 13.176,-19.352"
       fill="#823a2d"
       id="path720" />
    <path
       d="m 568.47,102.71 c 9.071,1.863 18.417,-8.9478 12.83,-15.106 -3.799,-4.1855 -9.776,-8.4762 -15.513,-10.084 -5.531,0.986 -9.489,6.3253 -11.597,12.914 -0.193,0.597 -0.322,1.1939 -0.41,1.7932 3.178,4.4158 8.079,9.1246 14.69,10.482"
       fill="#914135"
       id="path722" />
    <g
       fill="#333232"
       id="g734">
      <path
         d="m 607.6,103.24 c -1.286,-1.348 -4.4,-3.3784 -6.312,-0.76 -2.285,3.132 -0.313,5.701 0.664,10.135 0.396,1.798 0.492,6.475 2.455,7.475 1.623,0.827 3.336,-1.083 4.15,-2.216 2.918,-4.056 2.473,-11.034 -0.957,-14.634"
         id="path724" />
      <path
         d="m 628.61,96.705 c -1.614,-1.7328 -4.619,-3.0184 -6.625,-1.981 -2.048,1.0621 -2.135,4.3801 -1.089,5.9114 1.561,2.283 4.208,5.089 5.489,6.797 1.892,2.525 4.642,7.187 6.639,1.735 1.614,-4.415 -1.357,-9.1846 -4.414,-12.462 z"
         id="path726" />
      <path
         d="m 652.54,89.074 c -4.539,-6.0234 -9.42,-6.6875 -11.928,-4.0156 -2.171,2.3119 2.756,6.0168 4.952,8.2191 2.502,2.5109 5.815,6.1934 9.243,6.4572 4.235,0.3268 -0.458,-8.2638 -2.267,-10.661 z"
         id="path728" />
      <path
         d="m 542.08,103.8 c -0.571,2.592 -0.414,6.916 2.609,4.966 1.795,-1.156 11.012,-7.857 14.468,-10.072 2.755,-1.7663 -2.327,-7.991 -6.75,-7.0408 -5.668,1.2186 -9.346,7.7026 -10.327,12.147"
         id="path730" />
      <path
         d="m 552.82,106.17 c -1.275,0.861 -5.53,2.596 -5.628,4.441 -0.215,4.1 9.684,3.524 12.119,3.143 5.659,-0.885 12.12,-4.668 12.592,-8.802 0.223,-1.957 -3.846,-8.5726 -8.517,-5.429 -5.692,3.835 -8.858,5.494 -10.566,6.647 z"
         id="path732" />
    </g>
    <path
       d="m 590.38,93.096 c -1.796,-7.8636 -10.001,-12.194 -16.977,-14.833 -0.284,-0.1095 -0.539,0.3265 -0.3,0.5188 4.125,3.3739 9.773,5.1604 13.133,9.3638 5.206,6.5176 2.965,14.779 -3.309,19.55 -0.438,0.331 -0.062,1.044 0.443,0.758 5.545,-3.126 8.458,-9.0216 7.01,-15.358"
       fill="#5d261d"
       id="path736" />
    <path
       d="m 634.65,59.571 c -9.76,-6.739 -20.651,-10.766 -32.572,-8.6887 l 0.044,0.3376 c 17.042,-1.6053 46.165,11.094 45.541,31.072 -0.011,0.3711 0.492,0.3935 0.61,0.0827 3.743,-9.8848 -6.482,-17.871 -13.623,-22.804"
       fill="#5d261d"
       id="path738" />
    <path
       d="m 563.1,81.174 c -3.242,1.3237 -5.221,4.8027 -2.92,7.8927 2.216,2.9782 6.692,4.3577 10.189,3.0945 1.891,-0.6842 5.753,-4.0738 1.033,-8.6529 -2.384,-2.3119 -6.551,-3.0497 -8.302,-2.3343"
       fill="#fff"
       id="path740" />
    <path
       d="m 594.18,58.062 c -1.654,-1.7216 -5.196,-0.5522 -6.969,0.2683 -6.415,2.9626 -11.323,9.6389 -10.741,13.451 0.266,1.735 1.484,3.4678 3.273,3.8323 2.77,0.5612 4.778,-2.2113 6.433,-3.9575 1.9,-2.0034 11.119,-10.352 8.004,-13.594"
       fill="#fff"
       id="path742" />
    <path
       d="m 574.92,132.11 c 0.168,-0.669 0.264,-1.403 0.264,-2.173 0,-3.195 -1.592,-5.786 -3.555,-5.786 l -109.36,-4.26 -0.449,11.575 2.497,0.096 0.146,-3.756 110.45,4.304"
       fill="#bbbab8"
       id="path744" />
    <path
       d="m 571.51,135.71 0.098,0.016 c 1.491,0 2.762,-1.495 3.291,-3.616 l -110.45,-4.304 -0.146,3.756 107.21,4.164 0.002,-0.016"
       fill="#9c9c9b"
       id="path746" />
    <path
       d="m 515.27,120 -20.142,-0.785 v 16.002 l 20.005,0.778 v -0.023 l 0.137,0.023 c 2.713,0 4.912,-3.58 4.912,-7.995 0,-4.417 -2.199,-8 -4.912,-8"
       fill="#454547"
       id="path748" />
    <path
       d="m 507.21,113.34 -9.713,-6.52 c -0.659,-0.444 -1.315,-0.648 -1.943,-0.674 l -0.004,-0.01 -0.088,-0.003 -0.07,-0.002 -58.998,-2.041 9.389,39.396 58.814,2.02 0.387,0.013 0.108,0.005 -0.005,-0.024 c 1.893,-0.167 3.475,-2.112 3.926,-5.3 l 2.171,-15.344 c 0.629,-4.446 -1.159,-9.63 -3.974,-11.516"
       fill="#292827"
       id="path750" />
    <path
       d="m 443.77,142.79 -9.715,-6.52 c -2.814,-1.888 -4.602,-7.073 -3.973,-11.516 l 2.171,-15.346 c 0.627,-4.446 3.445,-6.536 6.258,-4.65 l 9.715,6.522 c 2.814,1.886 4.601,7.068 3.973,11.516 l -2.17,15.345 c -0.628,4.446 -3.445,6.535 -6.259,4.649"
       fill="#333232"
       id="path752" />
    <path
       d="m 443.44,140.01 -8.507,-5.709 c -2.465,-1.656 -4.03,-6.194 -3.48,-10.087 l 1.901,-13.438 c 0.551,-3.893 3.016,-5.727 5.481,-4.074 l 8.507,5.709 c 2.466,1.656 4.031,6.194 3.481,10.087 l -1.901,13.441 c -0.551,3.893 -3.018,5.724 -5.482,4.071"
       fill="#454547"
       id="path754" />
    <g
       fill="#fff"
       id="g764">
      <path
         d="m 505.33,125.17 c -0.051,0.927 -1.184,1.622 -2.531,1.55 -1.346,-0.072 -2.398,-0.883 -2.348,-1.813 0.05,-0.928 1.182,-1.623 2.529,-1.548 1.348,0.073 2.4,0.884 2.35,1.811 z"
         id="path756" />
      <path
         d="m 503.86,136.33 c -0.05,0.928 -1.183,1.623 -2.531,1.55 -1.347,-0.075 -2.398,-0.884 -2.348,-1.811 0.05,-0.929 1.182,-1.622 2.53,-1.55 1.347,0.07 2.4,0.884 2.349,1.811 z"
         id="path758" />
      <path
         d="m 504.66,130.75 c -0.05,0.928 -1.183,1.623 -2.53,1.55 -1.349,-0.074 -2.399,-0.886 -2.35,-1.813 0.051,-0.927 1.183,-1.623 2.53,-1.55 1.347,0.073 2.4,0.886 2.35,1.813"
         id="path760" />
      <path
         d="m 570.79,125.34 c -13.239,-0.775 -29.784,-1.385 -44.351,-0.914 v 0.232 c 14.525,1.24 30.182,1.346 44.351,1.447 0.499,0.002 0.488,-0.737 0,-0.765 z"
         id="path762" />
    </g>
    <path
       d="m 508.35,95.597 c 2.207,0.5373 5.347,1.7152 6.937,5.8694 1.59,4.153 -1.67,7.186 -1.67,7.186 l -12.203,-3.95 c 0,0 2.243,-10.25 6.936,-9.1054"
       fill="#fabdae"
       id="path766" />
    <path
       d="m 499.44,236.03 c -3.522,-2.141 -7.416,0.109 -11.525,1.514 -3.237,-0.909 -6.137,-2.232 -6.124,-2.397 -3.867,4.556 -5.17,6.341 -11.169,5.202 0.031,1.47 -0.611,6.709 -1.212,8.956 -0.932,3.48 0.645,4.862 3.786,6.513 3.055,1.598 7.186,0.214 10.126,-1.55 2.01,-0.303 7.823,-1.48 12.395,-3.689 3.253,-1.573 5.578,-3.973 6.807,-5.557 0.882,-3.353 0.614,-6.745 -3.084,-8.992"
       fill="#292827"
       id="path768" />
    <path
       d="m 443.02,216.4 c -1.872,0.054 -5.984,-2.211 -5.984,-2.211 -4.378,3.466 -5.814,0.376 -11.856,0 -0.213,0.343 -2.749,7.542 -2.957,8 -0.952,2.1 -1.684,5.073 -0.842,5.853 3.535,3.276 9.504,5.205 12.044,3.012 2.983,0.731 7.592,2.749 14.946,-1.624 1.378,-0.82 4.693,-4.916 4.689,-6.361 -0.014,-5.815 -4.837,-6.809 -10.04,-6.669"
       fill="#292827"
       id="path770" />
    <path
       d="m 468,51.295 c -0.775,-2.0872 -1.816,-4.0169 -3.845,-4.8228 l -0.131,-0.0129 c -6.626,-5.0373 -19.33,-4.7842 -27.003,12.797 -13.247,6.8274 -13.604,19.1 -16.024,26.406 -2.969,8.9663 2.865,8.0699 8.314,10.294 6.731,2.7537 11.167,5.2803 20.783,4.8513 4.173,-0.186 21.735,-19.434 22.056,-30.195 0.157,-5.2723 -3.747,-18.516 -4.15,-19.317"
       fill="#00c863"
       id="path772" />
    <path
       d="m 468.9,33.246 c -1.864,4.5128 -10.498,21.193 -10.498,21.193 l 19.663,9.8472 c 0,0 0.62,-13.892 4.531,-23.259 3.911,-9.367 -13.696,-7.7806 -13.696,-7.7806"
       fill="#f9a999"
       id="path774" />
    <path
       d="m 479.29,110.54 c -1.276,-3.345 -1.887,-4.461 -5.443,-4.657 -3.683,-0.205 -7.386,0.534 -11.127,0.198 -5.484,-0.493 -10.56,-2.04 -15.675,-3.962 -2.057,-0.778 -5.336,9.731 -5.935,14.897 -0.83,7.14 0.084,9.741 1.147,16.53 -2.765,6.783 -5.074,19.333 -1.315,28.594 -13.005,14.593 -15.146,25.443 -15.764,33.3 -0.287,3.632 -2.101,11.129 -2.876,15.404 -0.862,4.745 1.806,6.303 3.797,7.605 4.003,2.619 10.302,3.836 15.03,-0.37 1.386,-1.235 1.085,-7.93 3.34,-14.29 2.655,-7.481 6.693,-16.269 9.88,-20.805 3.337,-4.748 8.782,-12.18 9.864,-14.153 4.133,-7.538 5.816,-12.873 9.681,-20.553 2.981,-5.92 7.028,-12.081 8.082,-18.73 0.972,-6.13 -0.507,-13.288 -2.686,-19.007"
       fill="#00b858"
       id="path776" />
    <path
       d="m 485.77,119.38 c -2.016,-3.681 -30.859,-6.636 -30.489,-6.453 -1.438,5.707 -9.508,21.298 2.663,27.765 0.391,2.516 8.444,31.525 13.781,41.264 -1.208,6.274 -3.231,8.152 -0.85,16.354 -1.739,3.717 -2.877,21.985 -2.461,33.847 0.186,5.26 -2.227,6.954 1.558,10.17 4.486,3.813 13.981,3.454 17.912,-5.208 1.714,-3.782 2.858,-9.524 4.775,-18.294 2.076,-9.496 2.923,-19.312 4.815,-34.574 0.706,-5.685 0.995,-11.479 0.484,-16.932 -3.36,-20.498 -6.013,-36.677 -12.188,-47.939"
       fill="#00c863"
       id="path778" />
    <path
       d="m 448.73,118.36 c 0,0 4.083,6.662 17.629,8.305 13.545,1.643 20.968,-4.154 20.968,-4.154 l -1.57,-3.136 c 0,0 -14.78,3.364 -23.955,-0.346 -9.175,-3.712 -12.143,-4.479 -12.143,-4.479 l -0.929,3.81"
       fill="#00b858"
       id="path780" />
    <path
       d="m 489.05,61.578 c -2.828,-1.7798 -30.218,-16.31 -32.742,-14.967 -6.574,3.5054 -10.992,15.595 -11.704,23.205 -0.46,4.9081 0.155,27.878 -0.31,31.941 -2.747,1.142 -3.584,1.992 -1.166,4.34 -2.238,2.289 -1.42,4.42 0.795,6.768 2.301,2.441 18.112,11.932 24.727,11.932 9.214,0 15.505,-2.371 17.901,-4.159 1.668,-1.245 2.593,-2.942 1.084,-4.21 0.853,-4.823 4.953,-13.415 5.771,-17.92 1.68,-9.2427 4.315,-15.825 4.788,-25.261 0.374,-7.4473 -3.798,-8.3075 -9.145,-11.668"
       fill="#38dc91"
       id="path782" />
    <path
       d="m 489.73,27.847 c -1.142,-5.5797 -3.682,-10.335 -9.171,-11.658 -5.21,-1.2554 -11.11,0.992 -14.579,5.3033 -4.261,5.2956 -2.959,11.121 0.801,16.266 2.226,3.0508 5.62,5.7631 7.967,6.9979 3.07,1.6119 9.074,4.0324 12.513,-0.806 3.165,-4.4534 3.509,-11.033 2.469,-16.104 z"
       fill="#fabdae"
       id="path784" />
    <path
       d="m 488.92,18.992 c 1.873,-1.3148 0.264,-4.6291 -2.704,-4.6291 -0.366,-1.4905 -4.567,-3.3685 -11.618,-3.3659 -9.526,0.0026 -13.234,6.1377 -11.378,9.8963 -9.911,10.434 0.802,19.154 0.081,23.923 6.372,1.4647 11.084,-1.7591 12.714,-7.8245 3.553,0.6071 10.153,-6.2307 8.406,-9.3589 6.482,1.4905 6.763,-8.2456 4.499,-8.6409 z"
       fill="#292827"
       id="path786" />
    <path
       d="m 485.44,31.882 c 0,0 -2.763,-3.7663 -5.196,0.9326 -2.009,3.8799 2.944,5.2878 2.944,5.2878 z"
       fill="#fabdae"
       id="path788" />
    <g
       fill="#00c863"
       id="g798">
      <path
         d="m 484.87,59.256 c 0,0 -5.803,-10.862 -19.038,-13.691 -3.321,-0.7078 -5.58,-0.217 -6.49,4.128 0,0 -1.862,2.0743 5.064,4.7944 6.928,2.7201 20.464,4.7686 20.464,4.7686 z"
         id="path790" />
      <path
         d="m 516.41,113.88 c 4.1,-4.347 2.77,-8.119 -1.237,-11.665 -1.605,-1.419 -7.175,-1.354 -11.135,1.883 1.391,-5.877 1.028,-14.128 -2.845,-16.15 3.924,-7.3673 -1.178,-18.679 -6.778,-23.657 -4.009,-3.5597 -9.548,-3.6811 -12.891,0.5243 -4.345,5.4661 -6.916,13.482 -3.941,25.623 1.251,5.1147 5.277,13.724 9.756,21.26 4.999,8.416 8.863,8.457 13.731,8.457 5.771,0 10.89,-1.558 15.34,-6.275"
         id="path792" />
      <path
         d="m 463.95,118.06 c 0,0 6.763,2.942 12.824,1.842 6.061,-1.101 8.652,-3.328 8.652,-3.328 0,0 -6.612,1.532 -9.983,1.788 -3.37,0.253 -11.493,-0.302 -11.493,-0.302 z"
         id="path794" />
      <path
         d="m 461.83,102.21 c 0,0 5.487,7.468 11.391,9.893 5.904,2.431 9.31,1.654 9.31,1.654 0,0 -5.249,-2.088 -10.248,-4.911 -5,-2.818 -10.453,-6.636 -10.453,-6.636 z"
         id="path796" />
    </g>
    <path
       d="m 474.69,183.85 c 0,0 3.233,2.111 6.369,1.584 3.133,-0.527 4.369,-2.291 4.369,-2.291 0,0 -3.31,-0.352 -5.369,0 -2.061,0.353 -5.369,0.707 -5.369,0.707 z"
       fill="#00b858"
       id="path800" />
    <path
       d="m 475.88,180.97 c 0,0 4.47,-3.172 6.514,-3.639 2.043,-0.466 3.642,-0.739 3.642,-0.739 0,0 -2.621,2.051 -4.546,3.009 -1.926,0.959 -5.61,1.369 -5.61,1.369"
       fill="#00b858"
       id="path802" />
    <path
       d="m 445.6,64.286 c 0,0 1.672,5.4635 11.671,9.1187 6.233,2.281 14.318,4.7144 14.318,4.7144 v 7.5429 c 0,0 -8.126,-1.8831 -15.634,-4.8332 -4.505,-1.7746 -8.376,-4.4043 -11.195,-8.7338 -0.209,-1.475 0.094,-6.3107 0.84,-7.809 z"
       fill="#fff"
       id="path804" />
    <path
       d="m 483.16,44.408 c -0.252,0 -0.499,-0.1292 -0.638,-0.3642 -0.076,-0.124 -1.852,-3.1206 -3.01,-6.4555 -1.859,-5.3601 -3.44,-12.051 -3.454,-12.118 -0.095,-0.3978 0.153,-0.7982 0.553,-0.8912 0.402,-0.0982 0.799,0.155 0.89,0.5528 0.016,0.0671 1.58,6.6853 3.415,11.971 1.107,3.1902 2.863,6.1532 2.882,6.1842 0.211,0.3513 0.095,0.8059 -0.259,1.0178 l -0.379,0.1033"
       fill="#dad9d8"
       id="path806" />
    <path
       d="m 490.24,38.844 c -0.272,0 -0.534,-0.1524 -0.664,-0.4107 -0.021,-0.0439 -2.325,-4.5335 -8.89,-9.7723 -6.561,-5.2362 -17.466,-7.016 -17.575,-7.0341 -0.404,-0.0671 -0.682,-0.4443 -0.618,-0.8498 0.063,-0.4056 0.447,-0.682 0.849,-0.6174 0.463,0.0749 11.4,1.8573 18.269,7.3414 6.848,5.4635 9.197,10.077 9.294,10.268 0.181,0.3668 0.034,0.8111 -0.333,0.9945 l -0.332,0.0801"
       fill="#dad9d8"
       id="path808" />
    <path
       d="m 490.24,30.456 c 0,0 -5.349,7.0135 -7.653,10.57 -2.303,3.5545 -2.379,7.6902 -2.379,7.6902 0,0 6.013,1.6404 10.002,-5.0501 3.99,-6.6931 0.03,-13.211 0.03,-13.211 z"
       fill="#292827"
       id="path810" />
    <path
       d="m 491.92,44.707 2.324,-3.6242 -3.01,-1.9529 c -1.641,-0.9481 -4.145,0.3125 -5.592,2.8182 -1.447,2.5057 -1.287,5.3059 0.354,6.254 l 2.619,1.6584 2.109,-3.2884 c 0.312,-0.3591 0.608,-0.7466 0.864,-1.1909 l 0.332,-0.6742"
       fill="#333232"
       id="path812" />
    <path
       d="m 494.61,47.334 c -1.447,2.5057 -3.95,3.7689 -5.591,2.8209 -1.643,-0.9481 -1.801,-3.7483 -0.354,-6.254 1.446,-2.5057 3.948,-3.7663 5.591,-2.8183 1.641,0.9481 1.8,3.7457 0.354,6.2514 z"
       fill="#454547"
       id="path814" />
    <path
       d="m 494.04,46.932 c -1.106,1.9141 -3.02,2.8802 -4.276,2.1569 -1.255,-0.7284 -1.376,-2.8673 -0.27,-4.7815 1.106,-1.9167 3.019,-2.8803 4.275,-2.157 1.256,0.7233 1.377,2.8648 0.271,4.7816 z"
       fill="#333232"
       id="path816" />
  </g>
</svg>
