<svg width="272.55" height="250" fill="none" version="1.1" viewBox="0 0 272.55 250" xmlns="http://www.w3.org/2000/svg">
 <g transform="matrix(1.0183 0 0 1.0183 -10.094 -.022273)" clip-path="url(#clip4)">
  <path d="m270.57 34.369c-15.252-40.824-79.008-36.972-107.06-29.828-28.581 7.2786-56.073 19.926-80.844 35.843-23.886 15.349-39.513 28.02-53.028 53.173-12.641 23.526-22.835 63.212-13.857 89.291 9.0303 26.231 24.995 34.696 50.065 44.041 15.336 5.7164 31.38 9.9176 47.365 13.368 15.338 3.3106 31.021 5.5492 46.744 5.255 26.074-0.48783 56.635-5.5806 71.894-27.333 19.438-27.711 29.65-66.009 33.117-81.688 3.9788-17.992 16.954-71.728 5.598-102.12" fill="#dcfae9"/>
  <path d="m127.81 75.885c-3.043-6.0812-2.968-19.352-9.453-22.713-0.049-6.673-3.769-13.041-11.586-11.613-0.272 0.0508-1.857 2.3186-1.906 4.1822-0.066 2.4776 1.736 5.2576 2.027 7.7815 0.338 2.939 0.38 5.9111 0.753 8.8524 0.992 7.8101 4.434 17.316 13.318 19.427 5.999 1.4264 8.424-2.7624 6.847-5.9178" fill="#f8ae9e"/>
  <path d="m107.16 39.628c0.974-0.1435 7.371-0.1214 10.4 6.1982 3.028 6.3175 7.663 13.582 7.663 13.582s-3.673 6.1762-9.032 7.0329c-5.359 0.8546-9.031-15.75-9.031-15.75v-11.063" fill="#292827"/>
  <path d="m105.51 186.96s-0.132 1.409-0.768 3.537c-0.639 2.129 0.395 5.839 0.395 5.839s0.459 1.305 2.431 1.693c1.837 0.36 3.321-0.079 3.321-0.079s1.806 2.181 4.167 3.851c2.36 1.671 7.549 2.74 8.982 2.751 3.094 0.024 4.551-2.206 4.377-3.352-0.177-1.15-3.074-4.613-4.845-6.518-4.82-5.194-7.585-7.952-8.83-8.44-0.936-0.366-3.248 1.835-4.986 2.423-2.065 0.695-2.517-0.859-4.244-1.705" fill="#eb4747"/>
  <path d="m116.99 187.92s-2.535 1.49-3.602 2.576c-1.069 1.087-0.194 2.688 1.78 1.407 1.974-1.283 3.456-2.427 3.456-2.427z" fill="#292827"/>
  <path d="m120.19 191.14s-2.314 1.718-3.135 2.442c-1.457 1.281 0.013 3.224 2.14 1.636 1.464-1.091 2.802-2.197 2.802-2.197l-1.807-1.881" fill="#292827"/>
  <path d="m86.627 197.4s-0.1303 1.413-0.7685 3.54c-0.6359 2.126 0.3952 5.836 0.3952 5.836s0.4615 1.307 2.4312 1.696c1.8372 0.36 3.3232-0.08 3.3232-0.08s1.8063 2.182 4.1668 3.854c2.3582 1.669 7.5471 2.738 8.9801 2.749 3.094 0.024 4.551-2.204 4.377-3.354-0.175-1.149-3.074-4.613-4.845-6.519-4.8201-5.191-7.5825-7.949-8.8301-8.437-0.934-0.367-3.246 1.835-4.986 2.422-2.0624 0.696-2.515-0.859-4.2439-1.707" fill="#eb4747"/>
  <g fill="#292827">
   <path d="m98.109 198.37s-2.535 1.49-3.6038 2.577c-1.0687 1.086-0.192 2.685 1.782 1.404 1.9719-1.283 3.4535-2.424 3.4535-2.424z"/>
   <path d="m101.31 201.58s-2.3116 1.714-3.1331 2.438c-1.4573 1.281 0.0134 3.224 2.1401 1.636 1.461-1.09 2.8-2.197 2.8-2.197l-1.807-1.877"/>
   <path d="m125.2 143.96c-0.761-14.198-6.505-43.738-15.185-55.419 0.967-0.4107-9.645 0.976-12.871 5.8803-3.4403 5.2332-0.5233 12.973 0.5676 18.542 1.6273 8.309 8.2565 23.311 11.344 31.216-4.417 11.5-4.872 29.794-3.397 43.796 1.787 2.82 7.879 3.281 11.317-0.053 2.25-15.713 8.393-40.859 8.225-43.962"/>
  </g>
  <path d="m106.7 125.35c0.08-6.143-0.084-12.293-0.501-18.425-0.199-2.904 0.26-7.5938-1.957-9.9631-1.243-1.3293-2.855-1.3403-4.5462-1.6053-5.1582-0.806-19.789 2.6034-19.666 2.6078-4.668 10.957-1.8879 18.096 2.2258 24.831 0.2827 7.938 2.0227 21.825 5.8958 30.51-8.6073 17.32-3.6501 39.311-2.5041 45.061 2.7513 3.224 9.2366 1.629 11.242-1.027-0.0994-7.686 0.7574-16.378 3.5927-29.293 1.588-7.229 4.24-13.112 4.745-17.228 0.85-6.96 1.391-19.367 1.473-25.468" fill="#333232"/>
  <path d="m122 76.813s5.485-4.1447 14.41-5.0302c8.923-0.8854 12.032-0.786 13.545-2.5084 1.512-1.7245 1.793-3.6324 4.86-5.326 3.067-1.6958 5.856-1.9829 3.904 0.1126s-3.626 3.8245-2.232 4.4936c1.395 0.669 4.043 1.4043 8.227 0 4.182-1.4044 6.693 0.7949 1.674 4.4339-5.022 3.639-14.042 2.769-16.433 3.8245-2.392 1.0554-10.478 6.6685-16.892 7.6268-6.413 0.9584-11.2 1.4442-13.825-0.6116-2.628-2.0558-6.32-7.8654-6.32-7.8654l9.082 0.8502" fill="#f8ae9e"/>
  <path d="m111.16 45.568c-5.737-4.3875-13.13-2.1926-19.111 0.4218-7.1566 3.1267-16.298 7.7262-17.468 16.446-0.5388 4.0122 1.0532 7.4768 2.8175 10.97 2.0249 4.0078 4.1646 9.0313 4.8005 14.492-0.5785 5.2134-4.5664 10.831-4.3014 17.276 2.6233 3.52 17.241 4.134 21.701 3.054 7.2138-1.745 14.726-4.118 15.448-10.791-1.461-10.215 1.546-21.883 2.107-32.172 0.373-6.8806 0.013-15.099-5.993-19.697" fill="#eb4747"/>
  <path d="m86.03 48.902s0.1237 2.7734 3.3851 5.231c3.2614 2.4555 10.032 5.357 15.443 0.753 4.628-3.9393 1.206-8.223-0.974-9.7157-2.179-1.4927-8.5473-1.4464-11.72 0-3.173 1.4485-6.1341 3.7317-6.1341 3.7317" fill="#292827"/>
  <path d="m102.3 38.325s-0.962 6.3771 1.374 8.5852c2.334 2.2082 2.351 6.7459-2.325 8.2717-5.673 1.8504-9.6764-2.2391-13.209-5.0566 1.5258-3.2349 2.2721-3.2151 2.2721-12.297 0-7.3884 11.888 0.4968 11.888 0.4968" fill="#f8ae9e"/>
  <path d="m92.037 22.603c3.5153-3.8885 12.778-5.485 16.099 0.212 2.5 4.2882 2.603 11.919 1.926 15.426-1.425 7.3642-7.468 11.75-14.433 6.0901-6.642-5.3967-9.6539-15.02-3.5926-21.728" fill="#fabeaf"/>
  <path d="m84.242 29.647c-0.6028-3.7296 1.4043-6.4743 4.7805-6.5538-0.351-2.8308 1.3448-5.624 3.9924-6.9887 4.3809-2.2633 9.5634-0.6293 14.046 0.6271 1.293-0.6028 4.473-2.5216 4.972-0.8788 0.358 1.1791-0.342 2.345-0.998 3.31 1.294-0.2451 3.844-1.3404 4.966-0.4836 2.665 2.0315-1.93 5.6484-4.288 6.7238-1.687 0.7684-3.721 1.2741-5.717 1.3028 0.183 0.2539 0.349 0.5211 0.49 0.7971 0.23 0.446 0.104 0.9451-0.32 1.2233-1.769 1.157-4.99 1.6274-7.0636 0.4703-0.0397 1.8615-0.6403 3.7428-2.1109 4.8579-0.6669 0.5034-2.0426 0.9826-3.2438 0.9892-0.3202 1.6848-1.8526 4.6813-3.3343 5.2753-1.7952-1.7842-5.7345-7.9648-6.1717-10.672" fill="#292827"/>
  <path d="m95.68 35.742s-2.0338-3.0781-3.8378-0.7353c-1.8063 2.3407 1.8968 4.615 1.8968 4.615l1.941-3.8797" fill="#fabeaf"/>
  <path d="m92.765 85.358c-0.5056-4.3059 1.3138-13.569-2.4002-19.944-3.0451-5.22-10.254-10.197-13.45-8.8303-3.9305 1.6804-7.3355 7.9051 0.3797 17.537 0.2628 3.4513 1.1152 13.313 6.8431 18.798 1.7775 1.7047 2.2235 2.504 4.0055 3.979l0.4306 0.2407c-0.4372-4.1159 1.4198-8.6934 4.191-11.78z" fill="#fabeaf"/>
  <path d="m73.82 58.993c-1.9211 2.8132-2.047 5.1825-0.3577 10.628 1.6892 5.4475 4.4582 13.448 4.4582 13.448s5.3812 1.0975 9.1725 0.848c3.7936-0.2496 7.8014-3.2946 7.8014-3.2946s-1.0114-8.5035-2.7161-13.47c-2.1529-6.2688-6.9534-11.628-11.626-12.717-2.9898-0.6977-5.0124 2.0448-6.7325 4.5576" fill="#292827"/>
  <path d="m91.352 102.67c0.9075-0.207 4.4913-1.66 9.1329-2.283 4.644-0.6228 6.675-1.0379 6.675-1.0379s-2.186 2.6979-6.675 3.3209c-4.4893 0.623-9.1329 0-9.1329 0z" fill="#e93535"/>
  <path d="m86.207 86.772s6.3219-2.7049 15.196-1.4242c8.875 1.2829 11.871 2.1242 13.752 0.8148 1.882-1.3072 2.61-3.0936 5.995-4.0033 3.386-0.9098 6.161-0.519 3.763 1.0466s-4.436 2.8441-3.244 3.8267c1.193 0.9848 3.589 2.334 7.987 1.9763 4.397-0.36 6.307 2.3781 0.559 4.7055-5.746 2.3274-14.295-0.6823-16.87-0.2319-2.575 0.4505-13.346 4.4008-19.831 4.4936-4.9903 0.0707-7.8742-0.3864-9.9321-3.0141-2.0558-2.6255-4.4538-10.661-4.4538-10.661l7.0792 2.4709" fill="#fabeaf"/>
  <path d="m48.713 202.91c-0.1611-3.24 0.9098-10.058 0.9893-13.541-3.5485 0.142-6.3705 3.988-10.032 2.78 1.263 6.892 2.1463 11.937 1.5347 16.714-0.5675 4.445 3.1731 9.393 4.1822 10.963 1.104 1.72 9.7599-0.782 8.7927-2.857-0.7795-1.672-2.1639-2.816-4.0474-6.839-0.8855-1.892-1.2631-4.076-1.4199-7.22" fill="#fabeaf"/>
  <path d="m41.206 208.87s-0.3643 2.934-0.2914 6.315c0.0728 3.383 0.8501 5.037 5.3613 6.361 5.8184 7.011 9.2785 8.394 13.796 5.647 3.5242-2.14-5.2509-11.394-7.9183-14.459-2.0226-3.851-5.0941-1.374-6.1562 1.426-2.9611 0.579-4.7917-5.29-4.7917-5.29z" fill="#38dc91"/>
  <path d="m65.142 196.68c-0.1612-3.24 0.9098-10.06 0.987-13.54-3.5462 0.141-6.3682 3.987-10.032 2.78 1.2652 6.891 2.1463 11.937 1.5368 16.713-0.5697 4.445 3.1731 9.393 4.18 10.963 1.1063 1.718 9.7622-0.781 8.795-2.857-0.7794-1.674-2.1662-2.815-4.0497-6.839-0.8855-1.892-1.2609-4.076-1.4176-7.22" fill="#fabeaf"/>
  <path d="m54.498 38.126c0.7838-2.0999 0.532-4.4736-1.6297-5.8935-0.6095-0.3996-1.2366-0.6094-1.846-0.6801 0.3776-1.9188-0.6138-3.9039-2.9589-4.5244-3.4623-0.9164-6.6796 1.8879-7.8919 5.1339-2.2699-1.1593-5.3944-1.6848-7.6776 0.5984-2.5107 2.5084-1.7709 6.9512 0.5918 8.8281-2.9766 0.9362-4.2905 5.6903-1.5899 8.3909-5.2664 2.9346 0.2517 12.951 5.708 11.5 1.0997 4.1778 8.3645 5.1096 8.9871-1.2079 5.4607 1.5126 9.6319-3.8509 6.1497-7.5562 2.6211-0.5299 5.05-2.7756 5.9752-5.5379 1.0975-3.2659-0.4085-8.636-3.8178-9.0512" fill="#232221"/>
  <path d="m57.634 202.63s-0.3643 2.932-0.2914 6.315 0.8501 5.037 5.3613 6.362c5.8162 7.008 9.2763 8.393 13.796 5.646 3.5219-2.142-5.2531-11.394-7.9183-14.461-2.0249-3.849-5.0964-1.371-6.1563 1.428-2.9633 0.579-4.7917-5.29-4.7917-5.29z" fill="#38dc91"/>
  <path d="m63.817 64.801c0.3114 0.1038 3.3211 1.9189 4.5665 5.0059 1.2431 3.0891 1.868 5.8913 3.2172 8.0707 1.3469 2.1794 3.5132 7.1124 5.315 10.595 0.9274 1.7864-2.8639 8.7927-3.8642 8.1877-0.9981-0.605-1.6805-3.3034-3.7451-6.7436-2.0646-3.4381-8.0663-21.69-8.0243-22.002 0.0442-0.3113 2.5349-3.1135 2.5349-3.1135" fill="#f9aa9a"/>
  <path d="m41.007 107.73c6.7723 3.274 19.994 3.996 27.069 0.985-0.9098-5.048 1.2189-12.291 0.5587-15.541 1.316-0.7243 4.9197-2.4952 3.9791-7.1146-0.7574-3.7053-4.9662-8.3644-5.8627-11.016-1.369-4.0541-3.1841-9.4176-8.2495-10.548-2.6498-0.5896-2.0647-0.6514-4.5069 0.3069-0.9715 0.382-7.7615 3.2128-10.533 5.0014-7.4789 4.8226-6.6023 10.369-6.1982 14.161 0.8501 7.9824 5.6881 15.386 3.7428 23.766" fill="#38dc91"/>
  <path d="m76.248 155.07c-0.5653-3.917-1.166-7.83-1.7467-11.734-1.6362-11.003-3.1157-31.04-9.4442-40.972-6.9975 3.33-17.349 7.225-23.695 3.286l0.0331 0.444c-1.0996 5.975-5.9023 10.619-7.6621 16.468-1.8527 6.145-1.3669 12.681-0.7685 18.974 1.5568 16.396-3.6434 28.432-8.3864 45.148-1.5634 5.507 3.6389 4.897 6.218 7.722 1.1063 1.207 0.923 5.613 3.2989 6.882 4.1491 2.215 7.3619-2.952 11.275-0.839 0.8656 0.468 2.0404 2.279 2.9567 2.953 4.4825 3.294 6.9313 0.344 9.2984-2.564 3.1334-3.849 8.7376-2.111 11.851-1.457 1.9012 0.399 3.8422 0.306 5.3018-1.074 1.5236-1.439 1.3801-6.498 2.1331-8.94 0.7199-2.332 3.1907-0.519 3.4601-3.169 1.0224-10.098-2.7954-25.892-4.1225-31.128z" fill="#38dc91"/>
  <path d="m60.151 68.753c-1.6517-4.1005-9.0114-13.337-9.007-13.101 0.0795 5.3945-2.7181 9.941-3.2966 12.248 3.5639 3.7251 7.8565 12.549 12.394 10.809 3.1951-1.2233 2.3339-3.0892-0.0906-9.9564" fill="#f9aa9a"/>
  <path d="m55.691 103.66c0.2848-3.7784-2.2568-5.7613 0-8.4287-0.7331-2.4577-3.9527-3.0561-6.9756-9.9697 1.369-7.0704-4.7474-16.475-7.1299-14.375-2.8794 2.5349-7.4967 7.607-3.6921 16.799 0.1811 3.1554 1.3691 5.708 7.1058 10.281 3.9791 3.1728 4.4847 5.6928 10.692 5.6928" fill="#fabeaf"/>
  <path d="m58.496 38.237s-5.5402-4.3588-10.592 0c-5.0521 4.3589 1.1903 11.027 1.1903 11.027z" fill="#38dc91"/>
  <path d="m66.466 48.416c-4.7761-1.0731-7.2735-1.2696-11.518 0.4483-2.387 0.6448-4.6261 1.7091-6.7812 3.1179-0.1634 0.106-0.2981 0.3422-0.2628 0.5409 1.0908 6.291 3.2018 12.964 10.263 15.757 5.8074 2.2964 9.0666-4.0784 10.076-8.349 1.1769-4.9771 1.5323-10.773-1.7777-11.515" fill="#fabeaf"/>
  <path d="m63.287 37.42c-3.3099-1.2167-6.5757-0.817-8.8942 1.8835-4.4605-0.6845-6.6421 1.2785-8.3623 5.5491-0.9428 2.3428-1.2454 4.8954-0.8722 7.3972 0.541 3.6279 5.3569 10.144 5.7742 9.453 0.9937-1.6561 2.0514-3.2658 2.7492-5.0368 3.8598 1.6341 8.6515-1.0687 10.451-4.8336 2.0756 1.8394 4.9329 3.0627 7.6224 2.9457 2.1485-0.0927 5.2222-1.2211 5.7941-3.48-6.6222-1.2145-7.8499-11.522-14.262-13.878z" fill="#292827"/>
  <path d="m55.691 57.382s-1.1417-3.8643-3.6611-1.8814c-2.5173 1.9851 1.0466 5.898 1.0466 5.898z" fill="#fabeaf"/>
  <g fill="#00c863">
   <path d="m41.912 126.21c-0.0022-0.157-1.6209 23.335-1.8638 35.219-0.2451 11.842-3.1068 32.12-3.2393 35.617 9.5038-19.84 5.1561-70.922 5.1031-70.836z"/>
   <path d="m49.486 131.11c0.6559 7.103 1.0865 19.506 1.0379 32.585-0.0442 12.836-0.5962 26.33 2.8021 35.721 1.3492-2.776 2.0005-48.793-3.84-68.306"/>
   <path d="m71.236 153.94c-1.146-9.773-6.9203-31.634-6.8938-31.393 1.3867 12.425 3.6302 24.36 5.1891 36.767 1.0754 8.586 1.1417 30.21 3.5816 33.072-0.1037-12.035-0.6271-27.792-1.8769-38.446z"/>
  </g>
  <path d="m67.173 56.344c1.581-1.0202 2.5062 3.5639 1.9277 7.1742-0.5786 3.6103-0.2981 8.0729-0.3688 9.6053-0.0706 1.5347 2.8573 5.7986 5.7456 9.5259 2.5239 3.2592 3.7516 8.6051 2.5945 10.692-1.857 3.3541-0.7817 5.0654-2.5945 5.2995-1.9675 0.2539-4.9132-2.6122-6.0835-3.4094-2.2523-1.5346-3.0648-14.158-4.202-18.422s-1.4353-9.5965-0.3643-12.01c1.0687-2.4113 1.4352-7.2206 3.3453-8.4549z" fill="#f8ae9e"/>
  <path d="m64.347 58.176c-3.0538 0-3.862 1.6759-5.8382 4.414-1.9785 2.7381-1.4728 5.9068-0.636 10.358 0.2275 1.2056-2.6872 8.2341-3.608 11.023s-3.8686 6.4544-4.0077 9.3824c-0.1392 2.9279 2.9942 5.92 5.4562 10.319 3.787-1.224 7.4502-7.0841 7.4502-13.848 0-2.7072-0.1082-14.404 0.1502-15.581 0.2583-1.1747 3.1289-6.2357 3.6809-10.714 0.5521-4.4781-0.128-5.3547-2.6475-5.3547" fill="#fabeaf"/>
  <path d="m40.676 108.72s4.021 4.295 13.584 5.037c9.5634 0.744 14.468-3.142 14.468-3.142l-0.8678-4.851s-4.7012 2.956-11.288 2.956c-8.3666 0-15.143-3.906-15.143-3.906l-0.7529 3.906" fill="#00c863"/>
  <path d="m64.744 57.094c-2.4312 0.2186-3.4492 0.7242-5.2046 3.1377-1.7577 2.4157-2.1153 4.5709-2.1153 4.5709s0.4085-3.7495 1.8813-5.7721c3.2084-4.4008 5.4386-1.9365 5.4386-1.9365" fill="#f8ae9e"/>
  <path d="m193.28 171.8c-1.014-1.049-1.919-2.195-2.615-3.484-5.953-11.065-0.09-20.383 7.332-32.178 1.717-2.731 3.493-5.554 5.259-8.601 3.441-5.92 6.388-18.682 4.695-23.624-1-2.917-2.749-4.7368-4.929-5.1254-2.124-0.3798-4.35 0.6535-6.127 2.8354l0.638 0.519c1.583-1.939 3.529-2.8641 5.344-2.5418 1.87 0.3335 3.396 1.9588 4.295 4.5798 1.601 4.672-1.343 17.287-4.624 22.944-1.762 3.032-3.535 5.852-5.247 8.574-7.567 12.024-13.542 21.518-7.357 33.007 0.603 1.119 1.343 2.149 2.184 3.094h1.153" fill="#e93535"/>
  <path d="m215.7 40.067c-3.42-1.6781-10.895-0.0971-13.849 11.027-2.913 2.0602-6.046 6.7523-4.635 14.609-1.484 4.4671-2.716 6.7966-3.955 9.1661 0.338 0.8037 7.391 7.2427 11.542 6.8718 7.379-5.6484 11.694-16.996 15.673-25.602 2.731-5.9089 1.572-12.959-4.776-16.071" fill="#00c863"/>
  <path d="m230.05 39.969s3.948 0.574 4.196 2.972c0.247 2.4002-1.815 4.5862-3.03 4.2749-1.217-0.3113-1.166-7.2471-1.166-7.2471" fill="#00b858"/>
  <path d="m201.12 183.92 0.071 0.457c0.525 3.453-1.051 4.916-3.085 6.311-2.034 1.4-7.397 4.259-7.759 8.274-0.362 4.017 1.501 5.756 6.867 7.165 2.926 0.766 6.24-1.1 8.832-3.278 2.802-2.361 5.827-6.343 5.836-7.798 4.182-1.522 4.268-3.906 2.612-10.264-3.954 2.44-9.278 1.921-13.374-0.867" fill="#292827"/>
  <path d="m246.53 200.18c-3.936 2.255-8.823 2.933-12.548 0.812 0.028 0.661 0.026 1.301-0.058 1.889-0.444 3.122-3.213 8.437-5.253 11.939-1.813 3.11-1.038 7.616 2.228 9.793 2.405 1.599 9.186 2.421 11.425-1.667 2.241-4.089 2.941-7.925 2.977-11.365 1.733-2.067 1.733-2.067 2.307-3.16 1.59-3.025-0.583-5.865-1.06-7.985l-0.018-0.256" fill="#292827"/>
  <path d="m197.33 151.72c-0.183-3.902-0.152-8.982-8e-3 -12.9 0.135-3.667-1.83-33.285 11.977-41.9 0.232-0.2893 13.218 1.5213 17.563 1.8945 0.629 0.053 1.124 0.6006 1.226 1.1994 2.479 14.412 2.294 30.441-5.364 43.382-1.7 2.872-3.493 4.877-6.019 6.96 2.387 4.164 2.1 13.31 1.598 20.087-0.423 5.783-1.68 11.957-2.813 14.554-2.662 6.105-10.117 6.068-13.935 2.883-1.751-1.459-4.35-5.354-1.374-12.493-2.976-6.892-2.727-21.055-2.85-23.667" fill="#00b858"/>
  <path d="m219.39 120.08c-4.633-3.195-6.125-9.139-5.406-20.176 3.847-5.7279 20.251-1.4706 26.28-1.4286 5.505 4.3234 4.227 11.692 2.791 18.994 1.517 6.549 4.9 16.349 6.063 26.617 0.29 2.575 0.566 8.38-1.954 10.725 3.427 7.728 6.028 38.455 2.158 44.46-1.577 2.447-7.175 4.86-10.694 3.886-1.177-0.324-6.042-0.592-7.689-6.081-0.914-3.043-0.773-11.093-1.429-20.458-0.459-6.505-2.02-14.068-1.6-19.257-1.933-3.065-3.754-4.884-4.507-8.42-1.948-9.148-2.639-19.643-4.012-28.862" fill="#38dc91"/>
  <path d="m243.04 101.86 0.812 2.161s-3.555 4.518-11.681 5.607c-8.128 1.09-15.576-0.248-18.996-1.617-3.418-1.367-4.787-4.882-4.787-4.882s18.819 3.202 23.783 1.804c4.962-1.397 10.869-3.074 10.869-3.074" fill="#00b858"/>
  <path d="m206.87 96.284c-1.983-3.3608-0.705-15.96 0.424-21.436-2.432-9.0711-3.361-15.742-1.5-23.088 1.157-4.5796 5.333-9.8438 10.961-10.133 2.747-0.1391 12.035 3.7187 13.786 4.6836 7.205 2.0425 11.5 5.485 16.353 10.833 0.601 0.6624-1.835 21.958-3.04 25.947-1.409 4.6525-0.619 11.776-1.696 16.121 2.521 1.4063 1.208 3.4893-0.04 4.8403-4.515 3.213-12.725 4.405-16.523 3.913-7.822-1.014-15.433-1.751-20.383-7.808-0.875-1.0688 0-3.6591 1.658-3.8733" fill="#38dc91"/>
  <path d="m218.17 39.504c1.617 0.3268 4.341 0.8413 5.951 0.5278 2.14-0.4174 4.555-1.4728 6.322-3.0628 0.152 2.2258 0.868 7.8895 1.881 10.131 1.97 4.35-9.126 5.7942-12.445 5.9268-0.852-1.2432-3.23-2.7425-3.202-5.7986 1.016-3.6391 1.133-6.026 1.493-7.724" fill="#f9a999"/>
  <path d="m213.03 28.5c0.481-3.0759 1.592-6.8872 4.222-8.8258 2.598-1.9145 6.659-1.6715 9.689-1.1107 4.694 0.8678 7.428 6.4808 5.904 12.436-1.409 5.5027-6.118 13.69-12.485 14.15-3.241 0.2341-5.429-2.4245-6.536-5.6396-1.311-3.809-1.19-8.468-0.795-11.01" fill="#fabdae"/>
  <path d="m213.79 21.727c-0.057 0-2.849 1.3448-5.107 1.1792-3.032-0.2209-3.355-3.065-3.355-3.065s3.743-1.0666 5.995-0.7552c2.255 0.3091 2.467 2.641 2.467 2.641" fill="#00b858"/>
  <path d="m234.4 32.266s0.349 0.2208-0.647 2.4908c-0.996 2.2699-2.998 5.3547-2.998 5.3547s-1.411-0.9849-1.257-4.2109c0.152-3.2261 1.257-4.935 1.257-4.935s-3.28 0.616-6.857-2.1c-3.575-2.7182-4.04-4.7385-4.04-4.7385s-2.769 3.9813-6.512 3.7781c-3.745-0.2032-7.554-5.6594-3.8-6.8916 3.753-1.2299 12.296-0.0486 12.296-0.0486s12.803 7.0084 12.558 11.301" fill="#292827"/>
  <path d="m234.48 33.293c-2.853-6.4211-13.416-13.772-21.275-13.3l0.115-0.2031c4.171-6.5273 8.613-7.9824 17.446-4.1932s6.525 11.48 6.059 12.405c-0.115 0.2297-1.06 3.6699-2.345 5.2906" fill="#38dc91"/>
  <g fill="#00c863">
   <path d="m229.66 27.082s-2.531-4.4118-8.698-7.2494c-7.755-3.5681-15.625 0.0067-15.625 0.0067s5.669 0.9319 7.985 3.489c2.314 2.5548 3.657 4.5952 8.205 4.6724 5.428 0.0928 8.133-0.9186 8.133-0.9186"/>
   <path d="m221.37 53.638s-1.501 3.1335-2.201 10.228c-0.7 7.097-1.488 16.311-0.74 21.655 0.499 3.5528-0.925 10.025-1.764 12.966-0.839 2.9389 0 6.9269 0 8.0989-1.771 3e-3 -4.35-1.322-4.35-1.322s-0.34-6.1189 0.846-9.3318c1.188-3.2085 1.762-10.906 1.413-13.24-0.764-5.0963 0.934-13.829 1.484-18.826 0.607-5.5425 0.837-12.001 1.888-12.092 1.327 0.4284 3.425 1.8637 3.425 1.8637"/>
   <path d="m219.88 53.027s-0.448-2.0866 2.487-3.7317c1.029-0.5763 2.868-0.8015 4.745-1.2741 5.054-1.2696 7.145-5.0984 7.145-5.0984l0.444 4.2902s-0.187 3.213-4.624 5.6218c-4.438 2.4113-10.197 0.1921-10.197 0.1921"/>
   <path d="m217.29 44.273c0.349 1.0864 0.819 2.4509 1.347 3.7073 0.717 1.7069 1.243 5.0522 1.243 5.0522s-2.796-1.3999-3.964-3.5772c-0.797-1.4861-0.15-4.2793 0.34-5.9157 0.347 0.3025 0.705 0.5521 1.034 0.7331"/>
   <path d="m240.27 98.485s-3.675 2.266-6.982 3.043c-3.308 0.777-6.013 0-6.013 0s2.016-0.212 6.013-1.349c3.994-1.1376 6.982-1.694 6.982-1.694"/>
   <path d="m239.22 96.088s-3.016 1.6561-7.066 0.594c-4.052-1.0621-6.278-3.2393-6.278-3.2393s5.112 1.6517 7.4 2.0713c2.288 0.4151 5.944 0.574 5.944 0.574"/>
   <path d="m246.97 147.54c-0.525 0.465-0.682 2.797-2.391 5.129-1.711 2.33-3.189 3.261-3.189 3.261s-0.161-3.044 2.447-5.127c2.607-2.084 3.133-3.263 3.133-3.263"/>
   <path d="m241.1 157.64s3.096 1.022 3.926 2.57c0.833 1.548 1.572 3.12 1.572 3.12s-1.815 0.431-3.199-1.749c-1.385-2.177-2.299-3.941-2.299-3.941"/>
  </g>
  <path d="m239.3 148.42v43.993c0 3.167 4.566 5.735 10.197 5.735 5.626 0 10.192-2.568 10.192-5.735v-43.993z" fill="#292827"/>
  <path d="m249.47 161.7c-5.629 0-10.195-2.568-10.195-5.737v28.534c0 3.167 4.566 5.735 10.195 5.735 5.628 0 10.195-2.568 10.195-5.735v-28.534c0 3.169-4.567 5.737-10.195 5.737z" fill="#eb4747"/>
  <path d="m256.98 183.53c-1.864 1.144-4.533 1.864-7.503 1.864-5.631 0-10.197-2.568-10.197-5.737v1.433c0 3.167 4.566 5.735 10.197 5.735 2.97 0 5.639-0.72 7.503-1.862v-1.433" fill="#fff"/>
  <path d="m256.98 163.46c-1.864 1.143-4.533 1.865-7.503 1.865-5.631 0-10.197-2.568-10.197-5.736v1.431c0 3.168 4.566 5.736 10.197 5.736 2.97 0 5.639-0.722 7.503-1.863z" fill="#fff"/>
  <path d="m259.66 148.42c0 3.166-4.564 5.734-10.193 5.734-5.628 0-10.195-2.568-10.195-5.734 0-3.169 4.567-5.739 10.195-5.739 5.629 0 10.193 2.57 10.193 5.739z" fill="#333232"/>
  <path d="m242.48 142.7v4.593c0 2.186 3.148 3.955 7.028 3.955 3.882 0 7.031-1.769 7.031-3.955v-4.593h-14.059" fill="#292827"/>
  <path d="m256.54 142.7c0 2.186-3.149 3.957-7.031 3.957-3.88 0-7.028-1.771-7.028-3.957 0-2.184 3.148-3.955 7.028-3.955 3.882 0 7.031 1.771 7.031 3.955z" fill="#333232"/>
  <path d="m247.88 135.7v6.784c0 0.485 0.702 0.883 1.57 0.883 0.87 0 1.572-0.398 1.572-0.883v-4.849l-3.142-1.935" fill="#eb4747"/>
  <path d="m252.26 136.9c0.36 0.205 1.031 0.507 1.528 0.218 0.525-0.302 0.852-1.203 0.852-2.354 0-2.687-1.665-5.917-3.636-7.057l-4.282-2.473c-0.355-0.208-1.031-0.508-1.53-0.219-0.523 0.303-0.848 1.206-0.848 2.354 0 2.688 1.663 5.918 3.634 7.057zm1.057 2.855c-0.744 0-1.528-0.225-2.314-0.678l-4.281-2.476c-2.742-1.581-4.891-5.637-4.891-9.232 0-2.104 0.768-3.756 2.106-4.531 1.177-0.684 2.617-0.605 4.041 0.221l4.282 2.473c2.744 1.583 4.891 5.637 4.891 9.232 0 2.107-0.766 3.758-2.107 4.529-0.532 0.309-1.117 0.462-1.727 0.462" fill="#eb4747"/>
  <path d="m249.3 176.88c-0.34-0.234-0.638-0.658-0.797-0.916l-0.152-0.402-0.424 0.02-0.018-0.126c-0.077-0.429-0.179-0.835-0.287-1.197l0.219-0.113c0.194 0.294 0.517 0.745 0.857 1.078 0.545 0.528 1.23 0.556 1.245 0.28 0.015-0.229-0.638-0.344-1.144-0.691-0.338-0.234-0.636-0.66-0.795-0.916l-0.154-0.404-0.473 0.026c-0.159-0.437-0.287-0.715-0.296-0.735l7e-3 -5e-3s-0.029-0.203-0.111-0.477c-0.059-0.199-0.145-0.433-0.271-0.656l0.404-0.287c0.351-0.181 0.806-0.457 0.991-0.921 0.17-0.433 0.29-0.998 0.296-1.265 9e-3 -0.393-0.232-0.406-0.232-0.04 0 0.418-0.225 1.175-0.503 1.442-0.417 0.404-1.053 0.59-1.29 0.627-0.174-0.174-0.39-0.304-0.658-0.353l-0.432 7e-3 -0.206 0.081c-0.28-0.163-0.821-0.541-1.192-1.029-0.278-0.364-0.501-1.201-0.501-1.618 0-0.367-0.243-0.44-0.234-0.042 6e-3 0.269 0.128 0.876 0.298 1.369 0.185 0.532 0.638 0.967 0.989 1.27l0.329 0.335c-0.311 0.437-0.329 1.089-0.329 1.089s-0.135 0.245-0.305 0.651l-0.525-0.218c-0.139-0.027-0.204 0.141-0.153 0.351-0.159 0.198-0.457 0.521-0.795 0.633-0.507 0.17-1.159 0.055-1.146 0.292 0.018 0.28 0.703 0.49 1.25 0.154 0.34-0.209 0.66-0.547 0.852-0.775l0.27 0.223c-0.104 0.318-0.201 0.68-0.278 1.076l-0.02 0.134-0.479-0.196c-0.142-0.029-0.206 0.139-0.155 0.349-0.159 0.201-0.457 0.521-0.795 0.633-0.505 0.17-1.157 0.058-1.144 0.292 0.015 0.28 0.7 0.492 1.246 0.154 0.34-0.207 0.662-0.547 0.857-0.772l0.269 0.22 0.091 0.045c-0.04 0.326-0.067 0.642-0.078 0.945l-2e-3 -3e-3v0.022l-0.504-0.012-0.011 0.404c-0.071 0.26-0.215 0.695-0.473 0.936-0.38 0.362-0.989 0.499-0.894 0.727 0.112 0.271 0.784 0.223 1.141-0.321 0.221-0.342 0.385-0.801 0.475-1.099l0.258 0.106c9e-3 0.41 0.034 0.795 0.076 1.148h-3e-3s-2e-3 0.205 0.071 0.521c0.059 0.367 0.128 0.7 0.192 0.998 0.066 0.3 0.245 0.755 0.514 1.195 0.356 0.58 0.864 1.133 1.475 1.274l0.015 5e-3 0.029 5e-3 0.026 5e-3 0.015 3e-3v-3e-3c1.078 0.133 1.838-1.121 1.99-1.764 0.071-0.303 0.144-0.643 0.207-1.027 0.062-0.269 0.062-0.459 0.062-0.459v2e-3c0.038-0.326 0.06-0.684 0.066-1.068l0.204-0.02c0.088 0.329 0.249 0.843 0.474 1.263 0.356 0.669 1.027 0.956 1.138 0.724 0.094-0.194-0.513-0.543-0.895-1.042-0.254-0.331-0.399-0.817-0.47-1.102l-0.012-0.408-0.441-0.151 2e-3 -0.026-7e-3 0.013c-0.014-0.316-0.039-0.651-0.081-1.005l0.035-2e-3 0.269-0.126c0.195 0.294 0.515 0.744 0.857 1.073 0.546 0.53 1.228 0.559 1.245 0.285 0.015-0.232-0.638-0.344-1.143-0.693" fill="#292827"/>
  <path d="m250.15 181.58c-3.001 1.919-6.593-0.216-8.289-2.718l-5e-3 -0.015c2.718-2.029 5.622-4.224 7.978-6.664 0.3 0.316 0.594 0.642 0.876 1.038 1.703 2.378 2.359 6.5-0.56 8.36zm-9.228-10.46c0.965-1.413 3.381-1.618 4.525-1.333 1.656 0.413 2.877 1.004 3.944 1.965-2.752 1.95-5.348 4.284-7.908 6.459-1.079-2.023-1.775-5.309-0.56-7.091zm11.059 2.566c-0.29-0.527-0.663-1.033-1.1-1.503-0.208-0.23-0.963-0.908-1.022-0.957-1.921-1.572-4.538-2.532-6.976-2.055-3.316 0.651-3.977 3.923-2.928 7.651 1.078 3.829 5.149 7.49 9.606 5.922 3.859-1.358 4.089-6.002 2.42-9.058" fill="#fff"/>
  <g fill="#e93535">
   <path d="m258.86 182.6h-0.181c-0.058 0.343-0.045 0.691-0.078 1.035-0.042 0.433-0.137 0.853-0.223 1.28-0.048 0.236 0.296 0.335 0.362 0.099 0.204-0.726 0.327-1.679 0.12-2.414"/>
   <path d="m257.71 184.56-0.181 0.024c6e-3 0.449 6e-3 0.895-0.091 1.334-0.075 0.334-0.28 0.636-0.223 0.978l0.208 0.084c0.326-0.206 0.371-0.647 0.419-1.007 0.064-0.484 0.035-0.956-0.132-1.413"/>
   <path d="m256.17 186.78c-0.261 0.145-0.479 0.342-0.753 0.47-0.271 0.124-0.623 0.219-0.921 0.247l-0.046 0.17c0.384 0.166 0.724 0.197 1.13 0.048 0.354-0.132 0.705-0.388 0.82-0.761l-0.23-0.174"/>
   <path d="m257.76 160.35c-0.334 0.124-0.59 0.376-0.895 0.552-0.355 0.203-0.748 0.342-1.128 0.493l0.027 0.216c0.73 0.06 1.879-0.353 2.139-1.113l-0.143-0.148"/>
   <path d="m258.74 160.45-0.144 0.02c-0.082 0.386-0.119 0.768-0.274 1.139-0.137 0.342-0.428 0.618-0.53 0.965l0.23 0.227c0.759-0.318 1.013-1.656 0.718-2.351"/>
   <path d="m258.15 169.08c-0.062-0.354-0.166-0.802-0.435-1.051l-0.093 0.037c-0.046 0.354 0.08 0.74 0.124 1.095 0.044 0.369-0.013 0.762 0.079 1.12h0.334c0.139-0.362 0.057-0.824-8e-3 -1.201"/>
   <path d="m258.52 176.44-0.049 7e-3c-0.212 0.165-0.166 0.602-0.247 0.854-0.113 0.36-0.347 0.652-0.477 1l0.247 0.19c0.356-0.223 0.548-0.684 0.634-1.077 0.055-0.261 0.174-0.817-0.108-0.974"/>
   <path d="m242.77 186.76c-0.391-0.249-0.868-0.327-1.268-0.567-0.39-0.234-0.607-0.57-0.828-0.954l-0.117 0.015c-0.205 1.051 1.268 1.817 2.129 1.813l0.084-0.307"/>
   <path d="m241.74 160.94c-0.424-0.104-0.775-0.214-1.058-0.572-0.236-0.3-0.395-0.647-0.649-0.936l-0.095 0.039c0.029 0.813 0.839 2.178 1.835 1.734l-0.033-0.265"/>
   <path d="m244.41 162.43c-0.327-0.187-0.691-0.254-0.987-0.505-0.254-0.214-0.413-0.537-0.671-0.736l-0.119 0.049c-0.078 0.393 0.271 0.819 0.552 1.053 0.32 0.267 0.759 0.526 1.188 0.433l0.037-0.294"/>
   <path d="m257.07 133.62-0.095 0.011c0.148 1.462-0.099 2.939-0.942 4.169-0.753 1.102-2.054 2.067-3.467 1.698-0.81-0.212-1.674-0.781-2.414-1.166-1.506-0.779-2.989-1.638-4.274-2.755-1.23-1.067-2.034-2.312-2.864-3.69l-0.261 0.108c1.204 3.763 6.048 6.556 9.508 7.808 3.392 1.225 5.571-3.5 4.81-6.183"/>
   <path d="m248.32 126.14c-0.808-0.7-2.705-2.016-3.621-0.821-0.974 1.265-0.552 3.462 0.11 4.747l0.073-0.028c-0.21-1.42-0.72-2.668-0.106-4.094 0.722-1.683 2.398-0.186 3.531 0.221l0.013-0.025"/>
  </g>
  <path d="m246.63 119.93s-0.692 3.401-1.597 5.216c-1.005 2.02-2.243 4.098-1.232 5.818 1.917 3.264 2.919 2.553 4.734 3.449 4.112 2.029 6.103-0.278 6.103-0.278s2.279-4.204 2.29-5.799c8e-3 -2.152-1.316-4.877-3.213-6.867-3.294-3.465-7.086-1.539-7.086-1.539" fill="#dad9d8"/>
  <path d="m248.1 98.485c-1.667 4.675-2.462 19.135-2.462 24.119 0 2.268 7.024 4.944 10.575 2.608 4.756-12.081 3.37-17.128 2.53-26.451 1.506-5.4474 0.888-11.878-1.106-15.7 0.141-7.766-1.188-17.175-4.942-23.848-1.457-2.5901-7.637-8.6314-11.603-7.3819-12.341 3.8907-6.664 29.803 3.55 33.454-0.459 4.9882-0.459 10.032 3.458 13.198" fill="#00c863"/>
  <path d="m197.92 101.15c-0.528-0.753-1.417-1.044-1.983-0.647l-35.06 31.816 1.916 2.731 35.066-31.815c0.563-0.398 0.592-1.332 0.062-2.085" fill="#292827"/>
  <path d="m193.64 103.62s-3.054-2.142-5.114-2.711c-2.058-0.566-4.119 0-4.119 0s-4.215 5.802-4.475 8.022c-0.263 2.221 2.718 3.853 2.718 3.853l4.286-3.853s0.472 3.113-0.643 4.59c-0.556 0.74-0.154 1.738 0.557 1.888 0.713 0.146 2.289-1.294 3.457-2.625 2.337-2.661 3.332-9.164 3.332-9.164" fill="#dad9d8"/>
  <path d="m197.21 70.78s-2.307 1.1614-3.954 4.0807c-1.648 2.9214-6.179 11.548-7.415 16.786-1.235 5.2397-1.712 6.5382-1.661 9.5615 1.868-0.561 5.779 0.254 9.21 3.703 3.741-2.476 7.616-8.3889 9.508-14.154 1.888-5.7675 3.531-10.407 3.531-10.407l-9.219-9.5699" fill="#00c863"/>
  <path d="m240.32 146.56c-3.544-0.444-10.594 5.266-12.992 14.876-2.206 8.839-8.716 14.765-17.411 15.856-8.078 1.018-15.808-2.601-19.251-8.982-4.683-8.707-2.042-16.334 2.906-24.935h-0.95c-4.932 8.654-7.489 16.389-2.678 25.326 3.193 5.938 9.919 9.583 17.279 9.583 0.923 0 1.857-0.057 2.795-0.174 9.047-1.133 15.819-7.292 18.109-16.473 2.212-8.861 8.764-14.662 12.094-14.26 1.475 0.181 1.786 1.617 1.786 2.785 0 0 0.098 0.28 0.404 0.28 0.42 0 0.42-0.28 0.42-0.28 0-2.094-0.914-3.407-2.511-3.602" fill="#e93535"/>
  <path d="m162.9 132.95c0.527 0.755 0.501 1.685-0.064 2.082-0.566 0.398-1.456 0.106-1.983-0.647-0.53-0.755-0.499-1.687 0.066-2.084 0.561-0.398 1.451-0.106 1.981 0.649" fill="#454547"/>
  <path d="m162.26 133.44c0.265 0.377 0.25 0.846-0.033 1.044-0.283 0.199-0.726 0.051-0.991-0.324-0.263-0.378-0.25-0.844 0.033-1.043 0.282-0.198 0.726-0.055 0.991 0.323z" fill="#bbbab8"/>
  <path d="m161.24 133.16c-0.664 0.583-16.245 14.273-18.7 16.625-2.588 2.48-4.456 12.33-4.662 13.443-0.046 0.219 0.274 0.47 0.716 0.563 0.441 0.093 0.834-8e-3 0.881-0.227 0.53-2.88 2.336-10.798 4.206-12.589 2.429-2.327 18.436-16.39 18.597-16.532l-1.038-1.283" fill="#bbbab8"/>
 </g>
 <defs>
  <clipPath id="clip4">
   <rect width="275.1" height="245.52" fill="#fff"/>
  </clipPath>
 </defs>
</svg>
