<?xml version="1.0" encoding="UTF-8" standalone="no"?>
<svg
   xmlns:dc="http://purl.org/dc/elements/1.1/"
   xmlns:cc="http://creativecommons.org/ns#"
   xmlns:rdf="http://www.w3.org/1999/02/22-rdf-syntax-ns#"
   xmlns:svg="http://www.w3.org/2000/svg"
   xmlns="http://www.w3.org/2000/svg"
   xmlns:sodipodi="http://sodipodi.sourceforge.net/DTD/sodipodi-0.dtd"
   xmlns:inkscape="http://www.inkscape.org/namespaces/inkscape"
   width="272.55377"
   height="250"
   fill="none"
   version="1.1"
   viewBox="0 0 272.55377 250"
   id="svg689"
   sodipodi:docname="service-3.svg"
   inkscape:version="1.0.1 (3bc2e813f5, 2020-09-07)">
  <metadata
     id="metadata693">
    <rdf:RDF>
      <cc:Work
         rdf:about="">
        <dc:format>image/svg+xml</dc:format>
        <dc:type
           rdf:resource="http://purl.org/dc/dcmitype/StillImage" />
        <dc:title></dc:title>
      </cc:Work>
    </rdf:RDF>
  </metadata>
  <sodipodi:namedview
     pagecolor="#ffffff"
     bordercolor="#666666"
     borderopacity="1"
     objecttolerance="10"
     gridtolerance="10"
     guidetolerance="10"
     inkscape:pageopacity="0"
     inkscape:pageshadow="2"
     inkscape:window-width="1920"
     inkscape:window-height="987"
     id="namedview691"
     showgrid="false"
     fit-margin-top="0"
     fit-margin-left="0"
     fit-margin-right="0"
     fit-margin-bottom="0"
     inkscape:zoom="1.0296972"
     inkscape:cx="418.8112"
     inkscape:cy="131.40068"
     inkscape:window-x="0"
     inkscape:window-y="0"
     inkscape:window-maximized="1"
     inkscape:current-layer="svg689" />
  <defs
     id="defs547">
    <clipPath
       id="clip2-7-0">
      <rect
         transform="translate(753,11)"
         width="314.89001"
         height="245.52"
         fill="#ffffff"
         id="rect544"
         x="0"
         y="0" />
    </clipPath>
  </defs>
  <g
     id="g4598"
     transform="matrix(1.0182677,0,0,1.0182677,-17.678303,4.4807587e-8)">
    <g
       id="g4322"
       transform="matrix(0.97406298,0,0,0.97406298,-15.584069,2.5351007)">
      <path
         d="m 41.815491,61.576224 c -8.647,26.849996 -13.906528,76.511896 3.778524,96.679186 17.685052,20.16729 29.862092,26.30566 48.954593,37.02694 19.092502,10.72128 23.921052,46.43138 55.262992,52.57072 31.34194,6.13934 87.50899,-6.04909 114.64723,-25.85486 27.13824,-19.80577 46.48016,-39.25042 42.37679,-67.97948 C 302.73225,125.28967 253.8754,105.95014 226.51576,81.742853 199.15612,57.535565 193.79048,14.443144 147.2534,11.223373 100.71632,8.003602 68.697139,9.608745 41.815491,61.576224"
         fill="#dcfae9"
         id="path549"
         sodipodi:nodetypes="csssssssc" />
      <g
         id="g4249"
         transform="translate(-0.69718819,-4.0832814)">
        <path
           d="m 289.96109,145.70108 c 4.85,-2.298 11.07,-4.2 15.14,-5.273 -11.76,-1.703 -18.41109,3.20292 -27.81109,9.48892 -5.95,3.987 -11.67,8.338 -17.84,11.995 -5.41,3.205 -11.01,5.503 -17.024,6.974 v 6.396 c 7.044,-2.031 17.194,-5.417 22.524,-9.341 8.68,-6.389 14.27686,-12.88732 25.01109,-20.23992"
           fill="#fab5b7"
           id="path551"
           sodipodi:nodetypes="cccccccc" />
        <path
           d="m 274.8,161.44 c 11.19,-9.94 24.29109,-19.56192 34.51109,-20.03992 -1.39,-0.457 -2.8,-0.772 -4.22,-0.978 -4.07,1.073 -10.29,2.975 -15.14,5.273 -11.72,5.547 -16.33109,13.85192 -25.01109,20.24092 -5.33,3.924 -15.48,7.31 -22.526,9.34 v 6.616 C 254.72,177.85 265.2,169.974 274.8,161.44"
           fill="#f29a9e"
           id="path553"
           sodipodi:nodetypes="cccccccc" />
        <path
           d="m 147.33,188.71 c -0.599,-2.317 -2.21,-4.621 -2.116,-7.034 0.052,-1.392 0.193,-3.247 -0.317,-3.905 -1.014,-1.306 -3.548,0.582 -4.362,1.431 -0.879,0.918 -0.928,1.957 -1.088,3.156 -0.248,1.867 -1.325,3.329 -1.528,5.12 -0.323,2.868 1.57,5.543 3.775,7.136 0.179,0.13 0.445,0.059 0.594,-0.078 1.628,-1.482 6.433,-5.299 5.042,-5.826"
           fill="#fab5b7"
           id="path555" />
        <path
           d="m 143.29,191.79 c -2.495,-4.022 -1.962,-9.966 -0.814,-13.31 l -0.112,-0.065 c -0.619,0.636 -1.075,1.399 -1.396,2.227 -0.582,0.999 -1.152,1.95 -1.361,3.142 -0.273,1.55 0.452,3.05 0.141,4.495 -0.466,2.161 1.012,3.135 2.943,4.111 0.404,0.203 0.829,-0.227 0.599,-0.6 z"
           fill="#f29a9e"
           id="path557" />
        <path
           d="m 183.9,215.98 h -6.598 c 0.519,0.936 2.328,4.783 -1.636,7.038 -4.538,2.583 -4.573,2.122 -7.395,3.761 -4.202,2.436 -4.826,5.376 -4.826,5.376 0,0 4.012,-2.017 5.345,-2.519 -1.444,2.015 -2.161,3.08 -2.2,4.537 1.766,-0.758 6.555,-3.026 6.555,-3.026 l -1.848,4.287 c 0,0 5.881,-2.354 8.653,-5.883 2.774,-3.53 4.567,-4.716 4.174,-9.249 -0.187,-2.164 -0.183,-3.502 -0.224,-4.322"
           fill="#fab5b7"
           id="path559" />
        <path
           d="m 223.63,201.28 h -5.887 c 0.235,1.517 -0.083,3.408 -2.432,4.747 -4.537,2.582 -4.572,2.122 -7.394,3.758 -4.202,2.439 -4.826,5.378 -4.826,5.378 0,0 4.012,-2.016 5.343,-2.521 -1.442,2.016 -2.159,3.082 -2.198,4.538 1.765,-0.756 6.553,-3.026 6.553,-3.026 l -1.846,4.286 c 0,0 5.88,-2.352 8.654,-5.882 2.773,-3.529 4.566,-4.716 4.174,-9.248 -0.068,-0.78 -0.111,-1.448 -0.141,-2.03"
           fill="#fab5b7"
           id="path561" />
        <path
           d="m 177.4,210.85 c 0,0 -0.812,7.724 -0.712,9.585 0.104,1.861 1.776,3.904 6.036,2.841 4.261,-1.066 8.345,-8.165 7.816,-13.135 -0.529,-4.97 -13.14,0.709 -13.14,0.709 z"
           fill="#292827"
           id="path563" />
        <path
           d="m 173.7,212.31 h -5.895 c 0.248,1.525 -0.056,3.436 -2.424,4.782 -4.537,2.583 -4.571,2.123 -7.394,3.759 -4.2,2.439 -4.826,5.378 -4.826,5.378 0,0 4.012,-2.016 5.342,-2.521 -1.441,2.016 -2.157,3.082 -2.197,4.537 1.765,-0.756 6.556,-3.025 6.556,-3.025 l -1.85,4.286 c 0,0 5.883,-2.353 8.655,-5.883 2.773,-3.528 4.568,-4.715 4.174,-9.247 -0.069,-0.796 -0.113,-1.477 -0.141,-2.066"
           fill="#fab5b7"
           id="path565" />
        <path
           d="m 167.02,204.92 c 0,0 -0.813,7.723 -0.711,9.585 0.101,1.862 1.776,3.905 6.034,2.841 4.26,-1.067 8.347,-8.166 7.818,-13.136 -0.529,-4.969 -13.141,0.71 -13.141,0.71"
           fill="#292827"
           id="path567" />
        <path
           d="m 233.48,152.69 c -1.389,-1.146 -2.868,-2.159 -4.411,-3.04 1.716,2.031 2.554,4.508 1.587,7.326 -2.215,6.445 -10.966,6.32 -16.466,7.068 -11.065,1.503 -20.629,7.656 -28.851,14.917 -4.946,4.369 -10.63,11.083 -18.008,8.541 -3.973,-1.37 -7.272,-4.567 -11.287,-5.663 -3.012,1.594 -6.201,2.844 -8.95,4.982 -0.412,0.322 -0.793,0.679 -1.192,1.018 2.672,0.578 5.36,2.36 7.254,4.282 2.821,2.863 5.736,7.089 6.172,11.17 0.761,7.151 -4.219,12.044 -10.269,13.939 -4.047,1.268 -8.456,4.533 -12.758,5.026 -1.874,0.217 -3.664,-0.208 -5.218,-1.093 0.141,2.555 2.379,3.335 5.33,4.01 4.274,0.979 8.947,0.867 12.831,-0.996 4.499,-2.157 8.708,-5.334 12.475,-8.662 4.819,2.718 10.476,3.957 15.974,4.128 5.706,0.177 10.353,-1.252 14.901,-4.693 2.171,-1.642 4.257,-3.412 6.674,-4.692 2.862,-1.515 5.998,-2.384 9.056,-3.397 2.157,-0.714 4.354,-1.531 6.353,-2.635 0.369,0.895 0.857,1.737 1.519,2.471 3.058,3.394 8.26,3.302 12.226,1.794 10.276,-3.903 16.403,-15.613 17.431,-26.035 1.106,-11.22 -3.695,-22.595 -12.373,-29.766"
           fill="#292827"
           id="path569" />
        <path
           d="m 185.31,178.97 c 8.223,-7.261 17.787,-13.414 28.852,-14.917 5.499,-0.747 14.251,-0.622 16.466,-7.068 0.967,-2.818 0.128,-5.295 -1.587,-7.325 -3.246,-1.855 -6.804,-3.075 -10.607,-3.367 -6.687,-0.513 -13.407,1.484 -19.565,3.891 -6.382,2.492 -12.73,6.072 -18.022,10.435 -4.193,3.455 -6.853,6.259 -9.297,8.462 -4.66,4.2 -8.073,7.867 -12.607,11.012 -0.941,0.654 -1.925,1.222 -2.927,1.755 4.015,1.097 7.313,4.293 11.287,5.663 7.378,2.542 13.062,-4.172 18.007,-8.541"
           fill="#333232"
           id="path571" />
        <path
           d="m 136.26,222.26 c 4.302,-0.494 8.711,-3.759 12.758,-5.027 6.049,-1.894 11.03,-6.787 10.269,-13.939 -0.436,-4.081 -3.351,-8.307 -6.173,-11.169 -1.893,-1.923 -4.581,-3.705 -7.252,-4.283 -2.818,2.405 -5.258,5.226 -7.347,8.284 -2.5,3.662 -3.491,6.851 -4.806,11.08 -1.333,4.279 -1.182,5.912 -2.528,12.38 -0.127,0.596 -0.162,1.116 -0.138,1.582 1.555,0.883 3.342,1.308 5.217,1.092"
           fill="#333232"
           id="path573" />
        <path
           d="m 167.2,190.22 c -0.619,-1.947 -2.69,-5.538 -5.241,-4.531 -0.781,0.31 -1.547,1.535 -2.089,2.135 -0.896,0.995 -1.796,1.991 -2.695,2.988 -1.536,1.705 -4.724,5.636 -4.778,5.663 -0.057,0.03 2.545,-0.429 3.648,-1.079 -0.21,1.425 -0.656,2.721 -1.4,3.996 -0.162,0.276 2.182,-0.712 3.042,-1.298 0.116,1.359 -0.169,2.604 -0.89,3.81 0.775,-0.097 2.774,-0.701 3.493,-1.35 -0.26,1.332 -1.287,3.062 -2.537,4.157 1.783,0.027 6.045,-2.589 7.418,-4.157 2.291,-2.615 3.094,-6.999 2.029,-10.334"
           fill="#fab5b7"
           id="path575" />
        <path
           d="m 163.68,188.2 c -0.233,-0.22 -0.539,-0.044 -0.576,0.239 -0.289,2.158 -5.413,6.843 -5.503,6.92 1.276,-0.095 2.544,-0.13 3.46,-0.571 -0.329,0.987 -1.384,2.051 -1.867,3.017 1.046,0.237 2.313,0.344 3.008,-0.248 -0.019,1.002 -0.292,1.893 -0.888,2.825 3.307,0.777 6.709,-8.149 2.366,-12.182 z"
           fill="#f29a9e"
           id="path577" />
        <path
           d="m 150.67,207.3 c -0.239,-1.105 -1.023,-2.147 -2.136,-2.69 -2.101,-1.026 -5.856,3.481 -6.315,6.195 -0.179,1.063 2.795,0.916 3.678,0.85 2.204,-0.157 5.367,-1.638 4.773,-4.355 z"
           fill="#292827"
           id="path579" />
        <path
           d="m 131.51,217.91 c 0,0 3.208,0.401 4.988,2.166 1.779,1.765 -0.653,4.981 -0.653,4.981 0,0 -5.093,-0.477 -5.205,-3.209 -0.113,-2.73 0.87,-3.938 0.87,-3.938"
           fill="#fab5b7"
           id="path581" />
        <g
           fill="#39393a"
           id="g589"
           transform="translate(-753,-11)">
          <path
             d="m 972.59,161.84 c -0.545,-2.598 -5.077,-2.155 -9.248,-1.911 -1.724,0.1 -10.868,2.136 -19.688,8.133 -1.537,1.044 -5.086,4.55 -3.483,6.763 1.725,2.386 6.763,-1.209 8.375,-2.141 5.055,-2.917 10.092,-4.733 15.696,-6.287 1.711,-0.471 8.998,-1.463 8.348,-4.557 z"
             id="path583" />
          <path
             d="m 932.68,179.27 c -2.572,-1.135 -4.777,1.277 -8.27,4.716 -0.939,0.756 -1.879,1.51 -2.806,2.294 -1.025,0.863 -4.659,2.772 -3.941,4.597 1.279,3.246 8.769,-1.471 10.181,-2.519 2.004,-1.484 8.433,-7.498 4.836,-9.088 z"
             id="path585" />
          <path
             d="m 900.51,204.69 c -1.99,-2.716 -6.385,-0.276 -9.026,5.388 -1.942,4.165 -0.304,5.621 1.071,4.563 1.904,-1.468 3.106,-3.209 5.619,-4.93 1.498,-1.025 3.862,-2.939 2.336,-5.021 z"
             id="path587" />
        </g>
      </g>
      <g
         id="g4227"
         transform="translate(14.569285,-2.5895999)">
        <path
           d="m 147.92,169.55 c 0,0.989 -0.311,1.788 -0.695,1.788 -0.384,0 -0.695,-0.799 -0.695,-1.788 0,-0.985 0.311,-1.787 0.695,-1.787 0.384,0 0.695,0.802 0.695,1.787 z"
           fill="#9c9c9b"
           id="path591" />
        <path
           d="m 97.58,24.176 c 0,0 17.689,-1.5755 18.283,20.997 3.278,6.0526 8.342,9.5464 8.521,17.762 6.675,1.7117 14.523,7.3912 20.084,12.738 4.775,4.5904 2.055,15.478 -7.031,14.412 -3.655,-0.428 -17.762,-5.7952 -24.464,-9.8664 -6.703,-4.0713 -9.123,-10.656 -12.188,-19.98 -2.005,-6.1005 -3.204,-36.06 -3.204,-36.06"
           fill="#00c863"
           id="path593" />
        <path
           d="m 59.14,132.4 c 0,0 -2.712,-3.151 -7.331,-5.228 -3.932,-1.768 -5.941,-0.731 -9.203,3.688 -4.76,2.052 -6.658,2.291 -10.618,2.874 -3.963,0.579 -7.437,2.326 -5.229,6.307 2.211,3.983 11.382,5.725 15.847,5.667 4.462,-0.061 12.559,0 12.559,0 L 59.14,132.4"
           fill="#292827"
           id="path595" />
        <path
           d="m 88.29,115.89 c 0,0 -2.71,-3.151 -7.328,-5.228 -3.933,-1.77 -5.942,-0.734 -9.206,3.688 -4.757,2.049 -6.655,2.291 -10.618,2.874 -3.96,0.579 -7.437,2.324 -5.226,6.307 2.209,3.983 11.382,5.725 15.844,5.664 4.464,-0.058 12.561,0 12.561,0 L 88.29,115.89"
           fill="#292827"
           id="path597" />
        <path
           d="m 109.85,91.01 c 0,0 11.613,14.412 18.823,23.367 7.209,8.954 7.59,13.401 3.448,22.437 -4.141,9.035 -10.03,8.483 -19.748,6.902 C 102.655,142.138 79.33,128.165 79.33,128.165 V 102.384 L 109.85,91.01"
           fill="#00b858"
           id="path599" />
        <path
           d="m 98.65,101.24 c 0,0 9.544,23.468 12.045,33.267 2.075,8.119 -0.338,16.262 -6.269,21.77 -3.409,3.164 -20.68,3.421 -32.59,-1.028 -11.913,-4.449 -20.361,-5.876 -23.498,-9.532 -3.133,-3.655 -3.632,-8.563 -1.409,-13.012 3.527,-7.061 5.864,-6.824 16.056,-4.024 6.579,1.808 16.496,4.024 16.496,4.024 0,0 -6.876,-5.36 -10.325,-12.111 C 65.707,113.841 66.69,99.341 66.69,99.341 l 31.96,1.9"
           fill="#38dc91"
           id="path601" />
        <path
           d="m 111.43,105.26 c 0,0 -2.246,7.653 -19.832,8.977 -19.761,1.485 -24.876,-5.1 -24.876,-5.1 l -0.162,-5.291 c 0,0 16.81,3.158 25.037,1.837 8.231,-1.321 18.246,-4.441 18.246,-4.441 l 1.586,4.018"
           fill="#00b858"
           id="path603" />
        <path
           d="m 103.88,31.315 c 5.972,1.7243 8.652,5.4703 8.652,17.543 0,3.8545 -2.68,16.55 -2.68,22.95 0,10.994 4.994,18.586 5.03,22.38 0.07,7.149 -8.231,13.098 -13.636,14.941 -13.202,4.5 -27.27,1.838 -33.383,-3.877 C 61.75,99.539 66.222,93.237 65.983,86.67 65.511,73.793 60.038,58.232 65.188,48.085 c 6.658,-13.109 14.995,-13.53 18.69,-15.082 5.934,-2.4956 14.031,-3.4131 20.003,-1.6889"
           fill="#38dc91"
           id="path605" />
        <path
           d="m 107.53,14.309 c 0,0 0.585,6.7735 -0.179,15.753 -0.94,11.049 -11.286,12.887 -11.286,12.887 0,0 -4.466,-9.7532 -4.466,-10.381 0,-0.6252 6.113,-18.259 6.113,-18.259 h 9.819"
           fill="#00b858"
           id="path607" />
        <path
           d="m 96.06,32.464 c 0,0 1.177,8.1122 0,10.502 -3.345,0.3957 -4.863,-0.4866 -12.695,-4.1747 -7.83,-3.6905 -1.409,-8.2433 -1.409,-8.2433 l 14.104,1.9159"
           fill="#f9a999"
           id="path609" />
        <path
           d="M 104.12,19.766 C 103.571,16.2519 102.303,11.8983 99.301,9.688 96.336,7.5023 91.695,7.7822 88.239,8.42 c -5.357,0.9933 -8.48,7.3987 -6.741,14.198 1.608,6.282 6.988,15.63 14.253,16.156 3.701,0.2647 6.199,-2.7706 7.462,-6.4408 1.497,-4.3484 1.359,-9.6701 0.907,-12.567"
           fill="#fabdae"
           id="path611" />
        <path
           d="m 79.71,24.053 c 0,0 -0.399,0.2521 0.738,2.8436 1.137,2.5914 3.424,6.1131 3.424,6.1131 0,0 1.61,-1.1243 1.436,-4.8073 -0.176,-3.6829 -1.436,-5.6341 -1.436,-5.6341 0,0 3.746,0.7033 7.824,-2.3974 4.084,-3.1033 4.616,-5.4098 4.616,-5.4098 0,0 3.159,4.5452 7.434,4.3132 4.275,-0.232 8.621,-6.4611 4.338,-7.8677 C 103.801,9.8 99.781,6.122 96.304,6.0892 87.005,5.9959 77.259,7.9546 79.709,24.0532"
           fill="#292827"
           id="path613" />
        <path
           d="M 94.59,8.053 C 84.138,9.9209 83.412,22.52 84.302,29.471 c 1.492,11.636 7.469,12.156 7.469,12.156 0,0 -9.844,1.0159 -15.876,-5.5536 -8.178,-8.9062 -5.995,-15.985 -3.63,-23.875 2.818,-9.4053 9.266,-13.736 19.34,-11.73 8.452,1.6864 11.626,6.3829 14.344,9.8439 C 101.116,8.7216 96.571,7.7007 94.59,8.0536"
           fill="#38dc91"
           id="path615" />
        <path
           d="m 95.86,34.351 c 0.26,0 0.515,-0.1437 0.643,-0.3932 0.184,-0.3555 0.043,-0.7941 -0.312,-0.9756 -0.079,-0.0403 -7.369,-3.8116 -12.179,-7.6913 -0.045,0.7084 0.073,1.3361 0.061,1.8881 4.83,3.6653 11.147,6.935 11.455,7.0913 l 0.332,0.0807"
           fill="#ffffff"
           id="path617" />
        <path
           d="m 88.53,37.92 0.419,-0.169 c 0.308,-0.2571 0.345,-0.7159 0.086,-1.0209 -0.036,-0.0454 -2.38,-2.8411 -4.618,-6.4207 0.229,1.4016 0.544,2.7025 0.907,3.9655 1.397,1.9486 2.496,3.2595 2.607,3.3906 l 0.6,0.2546"
           fill="#ffffff"
           id="path619" />
        <path
           d="m 102.71,28.607 6.312,1.6613 -2.138,8.4473 -5.934,-1.1167 1.76,-8.992"
           fill="#292827"
           id="path621" />
        <path
           d="m 103.74,26.392 c 0,0 -4.17,-0.6252 -9.829,3.6956 -6.31,4.82 -8.017,6.9401 -8.017,6.9401 0,0 6.507,8.1474 13.722,2.9797 5.374,-3.8519 4.124,-13.615 4.124,-13.615"
           fill="#333232"
           id="path623" />
        <path
           d="m 90.2,40.135 -3.035,-2.9065 2.41,-2.541 c 1.341,-1.2755 4.006,-0.6504 5.949,1.3966 1.946,2.0444 2.435,4.7367 1.097,6.0098 l -2.105,2.1754 -2.753,-2.6368 C 91.385,41.3602 91.014,41.0628 90.669,40.6998 L 90.2,40.1351"
           fill="#292827"
           id="path625" />
        <path
           d="m 88.27,43.233 c 1.943,2.0444 4.608,2.6696 5.949,1.3966 1.341,-1.2756 0.849,-3.9679 -1.097,-6.0149 -1.943,-2.0445 -4.608,-2.6697 -5.949,-1.3941 -1.341,1.2756 -0.849,3.9654 1.097,6.0122"
           fill="#454547"
           id="path627" />
        <path
           d="m 88.7,42.72 c 1.487,1.5654 3.524,2.0444 4.55,1.0688 1.023,-0.9756 0.65,-3.0351 -0.837,-4.598 -1.487,-1.563 -3.524,-2.042 -4.55,-1.0664 C 86.837,39.1 87.212,41.1571 88.7,42.72"
           fill="#333232"
           id="path629" />
        <path
           d="m 106.63,34.166 c -0.578,2.3369 -0.467,4.3736 0.247,4.5502 0.716,0.1765 1.762,-1.5755 2.339,-3.9098 0.575,-2.3368 0.464,-4.3763 -0.249,-4.5527 -0.714,-0.1739 -1.76,1.5755 -2.337,3.9125"
           fill="#454547"
           id="path631" />
        <path
           d="m 107,34.248 c -0.484,1.9612 -0.466,3.6552 0.043,3.7814 0.507,0.1235 1.311,-1.3663 1.795,-3.3277 0.487,-1.9637 0.466,-3.6577 -0.04,-3.7814 -0.51,-0.126 -1.311,1.3638 -1.798,3.3275"
           fill="#333232"
           id="path633" />
        <path
           d="m 80.86,136.34 c 0,0 1.566,0.645 4.152,2.586 2.587,1.939 2.587,3.212 2.635,4.48 -1.057,0.128 -2.904,-0.802 -4.044,-2.445 -1.472,-2.115 -2.743,-4.621 -2.743,-4.621"
           fill="#b5b5b4"
           id="path635" />
        <path
           d="m 82.2,134.23 c 0,0 4.772,0.237 6.736,1.099 1.963,0.862 3.294,2.742 3.294,2.742 0,0 -2.349,0.235 -5.014,-0.627 C 84.552,136.581 82.2,134.23 82.2,134.23"
           fill="#b5b5b4"
           id="path637" />
        <path
           d="m 98.46,41.694 c 0,0 1.658,7.3835 2.475,12.965 0.817,5.5837 0.817,13.734 1.132,18.594 0.313,4.8578 2.551,18.219 3.862,22.587 1.309,4.372 2.166,9.532 1.987,9.663 l -2.945,1.921 c 0,0 -1.495,-8.78 -2.748,-14.266 -1.255,-5.4878 -2.563,-12.196 -2.563,-20.846 0,-12.854 -3.608,-29.348 -3.608,-29.348 l 2.408,-1.2706"
           fill="#00b858"
           id="path639" />
        <path
           d="m 114.87,153.86 c 11.349,0 28.503,0 31.207,-15.698 1.118,-6.483 -2.448,-16.942 -10.898,-31.974 l -0.507,-0.897 c -7.539,-13.404 -12.99,-23.09 -5.881,-30.932 0.578,-0.6377 1.306,-0.968 2.231,-1.0083 l 0.197,-0.0051 c 3.905,0 9.309,4.956 9.365,5.0064 l 0.638,-0.6907 c -0.237,-0.2193 -5.733,-5.2561 -10.006,-5.2561 l -0.234,0.0076 c -1.172,0.0504 -2.143,0.4941 -2.889,1.3159 -7.563,8.3442 -1.974,18.276 5.763,32.023 l 0.504,0.897 c 8.339,14.838 11.87,25.092 10.792,31.353 -2.569,14.918 -19.244,14.918 -30.282,14.918 v 0.94"
           fill="#333232"
           id="path641" />
        <path
           d="m 95.94,99.07 h 6.546 c 8.753,0 15.912,7.162 15.912,15.914 v 40.579 c 0,8.753 -7.159,15.915 -15.912,15.915 H 95.94 c -8.753,0 -15.912,-7.162 -15.912,-15.915 v -40.579 c 0,-8.752 7.159,-15.914 15.912,-15.914 z"
           fill="#333232"
           id="path643" />
        <path
           d="m 61.01,46.228 c 5.8,-6.0149 10.517,-5.6141 15.508,-1.0689 7.326,6.6703 6.456,11.458 3.3,19.605 -3.156,8.1475 -9.723,11.599 -9.723,11.599 0,0 -0.313,5.6694 -4.127,10.326 5.793,0.5168 15.322,-3.1409 22.327,-0.7361 6.705,2.3016 5.112,15.105 0,16.492 -6.595,1.789 -20.538,5.974 -29.166,3.733 C 48.219,103.347 48.94,103.609 47.53,93.735 46.119,83.8581 54.226,53.264 61.009,46.228"
           fill="#00c863"
           id="path645" />
        <path
           d="m 148.14,77.059 c 0,0 7.725,2.9317 10.221,7.6988 2.496,4.7669 2.255,5.3089 1.462,9.4529 -0.792,4.142 -4.397,2.551 -5.379,0.641 -3.126,-0.716 -6.033,-1.914 -7.538,-3.403 -2.305,-2.279 -5.844,-6.4841 -6.888,-9.6856 -1.041,-3.2039 2.654,-7.2953 8.122,-4.7038"
           fill="#00c863"
           id="path647" />
        <path
           d="m 107,99.09 v 5.752 c 0,2.287 -3.483,4.139 -7.784,4.139 -4.298,0 -7.782,-1.852 -7.782,-4.139 V 99.09 H 107"
           fill="#eb4747"
           id="path649" />
        <path
           d="m 91.43,99.09 c 0,2.287 3.484,4.14 7.782,4.14 4.3,0 7.784,-1.853 7.784,-4.14 0,-2.286 -3.484,-4.139 -7.784,-4.139 -4.298,0 -7.782,1.853 -7.782,4.139 z"
           fill="#e79c9b"
           id="path651" />
        <path
           d="m 80.02,124.75 c 0.578,5.329 8.839,9.531 18.814,9.531 10.802,0 19.557,-4.928 19.557,-11.006 v 29.034 c 0,6.081 -8.755,11.009 -19.557,11.009 -10.805,0 -18.763,-4.694 -18.763,-10.88 L 80.02,124.749"
           fill="#eb4747"
           id="path653" />
        <g
           fill="#333232"
           id="g667"
           transform="translate(-753,-11)">
          <path
             d="m 833.06,148.22 -0.032,-17.679 0.002,0.017 0.033,17.662 z"
             id="path655" />
          <path
             d="m 842.07,165.84 c 2.803,0.956 6.113,1.51 9.773,1.51 10.802,0 19.557,-4.928 19.557,-11.006 v 1.752 c 0,6.081 -8.755,11.009 -19.557,11.009 -3.658,0 -6.97,-0.547 -9.773,-1.503 v -1.762"
             id="path657" />
          <path
             d="m 842.07,160.9 c 2.803,0.955 6.113,1.512 9.773,1.512 10.802,0 19.557,-4.928 19.557,-11.008 v 1.754 c 0,6.081 -8.755,11.006 -19.557,11.006 -3.658,0 -6.97,-0.547 -9.773,-1.5 V 160.9"
             id="path659" />
          <path
             d="m 842.07,155.92 c 2.803,0.955 6.113,1.51 9.773,1.51 10.802,0 19.557,-4.928 19.557,-11.006 v 1.752 c 0,6.08 -8.755,11.008 -19.557,11.008 -3.658,0 -6.97,-0.547 -9.773,-1.499 v -1.765"
             id="path661" />
          <path
             d="m 842.07,150.97 c 2.803,0.956 6.113,1.513 9.773,1.513 10.802,0 19.557,-4.931 19.557,-11.009 v 1.755 c 0,6.08 -8.755,11.008 -19.557,11.008 -3.658,0 -6.97,-0.549 -9.773,-1.502 z"
             id="path663" />
          <path
             d="m 858.05,105.95 v 3.194 c 0,1.719 -2.619,3.111 -5.851,3.111 -3.229,0 -5.845,-1.392 -5.845,-3.111 v -3.194 z"
             id="path665" />
        </g>
        <path
           d="m 93.36,94.95 c 0,1.716 2.617,3.111 5.846,3.111 3.231,0 5.851,-1.394 5.851,-3.111 0,-1.719 -2.619,-3.111 -5.851,-3.111 -3.229,0 -5.846,1.391 -5.846,3.111 z"
           fill="#593843"
           id="path669" />
        <path
           d="m 88.58,88.875 c 0,0 4.14,-2.304 13.608,0 8.536,2.0801 7.817,5.6241 8.573,9.4511 0.759,3.824 -6.831,4.32 -11.243,2.916 -4.411,-1.404 -7.862,-1.512 -10.071,-3.297 C 85.888,95.0711 88.58,88.875 88.58,88.875"
           fill="#00c863"
           id="path671" />
        <path
           d="m 64.62,84.218 c 0,0 -0.444,2.405 -1.634,3.6325 -1.187,1.2251 -2.599,2.3141 -2.599,2.3141 0,0 -0.557,-1.137 0.631,-2.9747 1.315,-2.0318 3.602,-2.9721 3.602,-2.9721"
           fill="#00b858"
           id="path673" />
        <path
           d="m 119.08,58.987 c 0,0 1.411,1.0184 1.724,2.5838 0.315,1.568 0,2.5864 0,2.5864 0,0 -0.86,-1.1748 -1.331,-2.5864 -0.472,-1.4091 -0.393,-2.5838 -0.393,-2.5838"
           fill="#00b858"
           id="path675" />
        <path
           d="m 136.99,75.254 c 0.577,-0.8798 1.58,-1.2403 2.238,-0.8092 l 36.064,30.657 -2.091,3.181 -36.066,-30.653 c -0.658,-0.4311 -0.724,-1.4949 -0.146,-2.3746"
           fill="#292827"
           id="path677" />
        <path
           d="m 173.05,105.9 c -0.578,0.882 -0.512,1.943 0.147,2.374 0.659,0.437 1.66,0.074 2.238,-0.806 0.577,-0.88 0.512,-1.944 -0.147,-2.375 -0.659,-0.433 -1.66,-0.07 -2.238,0.807"
           fill="#454547"
           id="path679" />
        <path
           d="m 173.79,106.46 c -0.289,0.441 -0.256,0.973 0.074,1.19 0.328,0.216 0.829,0.035 1.119,-0.404 0.289,-0.441 0.256,-0.973 -0.073,-1.19 -0.33,-0.216 -0.831,-0.035 -1.12,0.404"
           fill="#bbbab8"
           id="path681" />
        <path
           d="m 178.59,109.06 c 6.193,5.042 10.85479,8.61124 14.91279,12.16024 5.582,4.881 7.639,9.363 7.546,16.978 0.02,0.283 -0.404,0.545 -0.947,0.585 -0.544,0.04 -1.002,-0.159 -1.022,-0.439 l 0.019,-0.063 -0.013,0.003 c 0.087,-7.074 -1.651,-11.125 -6.821,-15.65 -4.032,-3.526 -8.67779,-7.08324 -14.86279,-12.11724 -2.005,-1.634 -3.376,-2.745 -3.61,-2.947 l 1.221,-1.432 c 0.232,0.199 1.59,1.303 3.576,2.922"
           fill="#bbbab8"
           id="path683"
           sodipodi:nodetypes="cccccccccccc" />
        <path
           d="m 152.17,80.157 c 0,0 1.571,2.8208 2.283,5.5585 0.627,2.4099 -1.027,5.2737 -2.283,3.5087 -0.886,-1.2451 -1.737,-2.5711 -4.188,-5.5433 -2.349,-2.846 -1.98,-5.1728 -1.777,-4.9988 0.205,0.1739 4.509,0.7688 5.965,1.4747"
           fill="#00c863"
           id="path685" />
      </g>
    </g>
  </g>
</svg>
