<svg width="272.55" height="250" fill="none" version="1.1" viewBox="0 0 272.55 250" xmlns="http://www.w3.org/2000/svg">
 <g transform="matrix(1.0331 0 0 1.0331 23.922 -8.2686)">
  <g stroke-width=".99383">
   <path d="m214.61 76.356c-7.5312-21.185-60.265-48.67-95.427-45.779-37.242 3.062-68.246 35.334-91.796 64.346-9.2248 11.364-14.484 32.712-24.943 45.739-17.456 21.741-18.066 48.252-3.6333 67.852 35.539 48.263 64.67 52.495 150.36 22.65 18.979-6.6106 46.895-40.645 60.926-72.066 11.263-25.222 23.182-30.247 4.519-82.746" fill="#dcfae9"/>
   <path d="m117.83 51.103v86.272c0 6.2114 8.9474 11.25 19.988 11.25 11.04 0 19.99-5.0387 19.99-11.25v-86.272h-39.978" fill="#34242e"/>
   <path d="m137.82 77.141c-11.04 0-19.988-5.0377-19.988-11.249v55.951c0 6.2134 8.9475 11.249 19.988 11.249 11.038 0 19.99-5.0357 19.99-11.249v-55.951c0 6.2114-8.9514 11.249-19.99 11.249z" fill="#38dc91"/>
   <path d="m152.55 119.98c-3.6543 2.2431-8.8868 3.6553-14.717 3.6553-11.039 0-19.987-5.0348-19.987-11.249v2.8076c0 6.2114 8.9474 11.248 19.987 11.248 5.8298 0 11.062-1.4132 14.717-3.6543z" fill="#fff"/>
   <path d="m152.55 80.58c-3.6543 2.2431-8.8868 3.6553-14.717 3.6553-11.039 0-19.987-5.0367-19.987-11.249v2.8066c0 6.2124 8.9474 11.249 19.987 11.249 5.8298 0 11.062-1.4142 14.717-3.6543z" fill="#fff"/>
   <path d="m157.82 51.103c0 6.2124-8.9514 11.249-19.989 11.249-11.04 0-19.988-5.0367-19.988-11.249 0-6.2134 8.9474-11.25 19.988-11.25 11.037 0 19.989 5.0367 19.989 11.25z" fill="#3d2b37"/>
   <path d="m124.08 45.853v5.0031c0 4.2854 6.1717 7.7588 13.783 7.7588 7.6137 0 13.784-3.4734 13.784-7.7588v-5.0031h-27.568" fill="#34242e"/>
   <path d="m151.65 43.853c0 4.2854-6.1707 7.7568-13.784 7.7568-7.6127 0-13.783-3.4714-13.783-7.7568 0-4.2854 6.1707-7.7578 13.783-7.7578 7.6137 0 13.784 3.4724 13.784 7.7578z" fill="#3d2b37"/>
   <path d="m134.62 37.419v7.2974c0 0.95706 1.3804 1.7352 3.0819 1.7352 1.7014 0 3.0799-0.77817 3.0799-1.7352v-3.501z" fill="#38dc91"/>
   <path d="m143.27 36.483c0.70165 0.4035 2.0204 0.99582 2.9944 0.42635 1.0286-0.59232 1.6657-2.3603 1.6657-4.6134 0-5.2713-3.2628-11.608-7.1248-13.84l-8.3989-4.8499c-0.69667-0.4035-2.0214-0.99681-2.9984-0.42834-1.0286 0.59431-1.6657 2.3623-1.6657 4.6153 0 5.2693 3.2618 11.608 7.1278 13.838zm2.0711 5.5973c-1.4589 0-3.0004-0.44424-4.5358-1.3317l-8.3989-4.8499c-5.3816-3.1047-9.5944-11.057-9.5944-18.106 0-4.1304 1.5086-7.3673 4.1324-8.8829 2.3106-1.3417 5.1301-1.1896 7.9258 0.42834l8.3998 4.8499c5.3776 3.1067 9.5895 11.057 9.5895 18.108 0 4.1274-1.5047 7.3653-4.1333 8.8809-1.0425 0.60325-2.1874 0.90339-3.385 0.90339z" fill="#38dc91"/>
  </g>
  <g fill="#00c863" stroke-width=".99383">
   <path d="m156.23 118.14c-0.0477-0.16398-0.32499-0.18784-0.35679 0-0.10932 0.66785-0.0845 1.3516-0.14808 2.0264-0.0845 0.85171-0.26933 1.6736-0.43927 2.5084-0.0934 0.45915 0.58139 0.65593 0.71059 0.1948 0.39653-1.4262 0.64499-3.2906 0.23355-4.7296"/>
   <path d="m153.98 121.95c-0.0666-0.18088-0.35579-0.16796-0.3538 0.0477 0.0139 0.87656 0.0139 1.7541-0.17889 2.6158-0.1461 0.65195-0.5476 1.2463-0.4353 1.9161 0.0288 0.17492 0.26734 0.25343 0.40747 0.16399 0.64102-0.4035 0.7245-1.2671 0.81892-1.9728 0.12721-0.94811 0.0716-1.8724-0.2584-2.7708"/>
   <path d="m150.93 126.35c-0.50884 0.28722-0.93718 0.67283-1.4728 0.9193-0.53568 0.24845-1.2224 0.43331-1.8088 0.48697-0.15504 0.0149-0.27132 0.25542-0.0914 0.33393 0.75233 0.33095 1.4222 0.38958 2.2162 0.0954 0.6927-0.25542 1.3844-0.76128 1.605-1.4917 0.0785-0.2584-0.22063-0.47108-0.44822-0.34387"/>
   <path d="m154.03 74.478c-0.64698 0.24051-1.1538 0.73543-1.7501 1.0783-0.69469 0.40151-1.4719 0.67084-2.2162 0.966-0.22461 0.08944-0.19281 0.40151 0.0576 0.42337 1.4321 0.12125 3.6831-0.68972 4.196-2.1805 0.0556-0.161-0.12324-0.34784-0.28722-0.28722z"/>
   <path d="m156 74.657-0.28026 0.03777c-0.15902 0.75929-0.23455 1.5086-0.5327 2.2341-0.27429 0.67084-0.84277 1.2135-1.0405 1.8923-0.0716 0.2425 0.18386 0.55754 0.44623 0.44623 1.4908-0.61916 1.9877-3.2478 1.4073-4.6104"/>
   <path d="m154.81 91.601c-0.12125-0.69369-0.32499-1.5703-0.8537-2.0632l-0.18386 0.07553c-0.0894 0.69668 0.15901 1.453 0.24249 2.1477 0.0894 0.72649-0.0268 1.4967 0.15603 2.1984 0.0904 0.34983 0.54363 0.29815 0.65693 0 0.27131-0.71059 0.10832-1.618-0.0179-2.3584z"/>
   <path d="m155.57 106.04-0.0974 0.0119c-0.41641 0.32896-0.32697 1.1836-0.482 1.6766-0.22163 0.70861-0.68078 1.2791-0.93917 1.9608-0.10535 0.27529 0.25342 0.52176 0.48697 0.37467 0.69767-0.43529 1.0753-1.3387 1.2443-2.1178 0.11131-0.50486 0.33989-1.5991-0.21268-1.9062"/>
   <path d="m124.68 126.26c-0.76922-0.48996-1.7014-0.64003-2.4856-1.1131-0.76525-0.46014-1.1946-1.1171-1.6229-1.8724l-0.23057 0.0298c-0.40449 2.0622 2.4846 3.5659 4.1771 3.5589 0.32697-2e-3 0.42834-0.43231 0.16199-0.60325"/>
   <path d="m122.64 75.621c-0.82687-0.20572-1.5196-0.42039-2.0711-1.122-0.46412-0.58934-0.77618-1.2661-1.2731-1.8356l-0.18386 0.07752c0.0537 1.5941 1.6408 4.2705 3.5957 3.3979 0.2256-0.10236 0.15404-0.46114-0.0676-0.51778"/>
   <path d="m127.87 78.552c-0.64301-0.3697-1.3536-0.49592-1.934-0.99085-0.49989-0.42337-0.80997-1.0535-1.3208-1.4391l-0.23057 0.09441c-0.15305 0.76922 0.5327 1.603 1.0843 2.0642 0.62512 0.52275 1.4848 1.0306 2.3266 0.84476 0.26734-0.05963 0.30014-0.44325 0.0745-0.57344"/>
   <path d="m152.73 30.093-0.18584 0.02683c0.29119 2.8622-0.1928 5.7602-1.8465 8.1723-1.4818 2.1646-4.03 4.0528-6.7998 3.3303-1.5891-0.41443-3.2846-1.5305-4.7326-2.2818-2.9556-1.5345-5.8646-3.214-8.3869-5.4074-2.411-2.094-3.9872-4.5329-5.6161-7.2361-0.15901-0.26336-0.60723-0.09143-0.50685 0.21566 2.3574 7.3762 11.858 12.852 18.646 15.308 6.6517 2.4051 10.921-6.8644 9.4285-12.128"/>
   <path d="m135.55 15.394c-1.5832-1.3765-5.3051-3.9564-7.1029-1.614-1.9082 2.4836-1.0833 6.7928 0.22361 9.3102l0.13914-0.05764c-0.41642-2.7817-1.4092-5.2315-0.20871-8.0262 1.4152-3.3015 4.7028-0.36374 6.924 0.43232l0.0248-0.04472"/>
  </g>
  <g stroke-width=".99383">
   <path d="m143.63 50.613c-3.4605 0.9173-6.8862 1.3854-10.429 0.60127-3.216-0.71258-7.6902-2.1268-8.9882-5.3975l-0.12324 0.03578c0.68574 3.2906 4.2029 4.8777 7.0741 5.7871 3.9942 1.2661 8.7348 0.94314 12.531-0.87457z" fill="#fff"/>
   <path d="m132.62 61.796c-3.3641-0.5476-7.3056-1.9479-9.2893-3.1226-2.0026-1.1876-3.1902-2.8503-4.7883-4.4514l-0.12124 0.06957c1.5206 3.9246 7.2718 7.1516 14.067 7.8403 0.65891 0.06658 0.58139-0.26237 0.13218-0.33592z" fill="#fff"/>
   <path d="m18.898 98.439-0.2892 72.234 0.02882-0.01c0.13417 1.8664 1.2771 3.7855 3.378 5.4641v-78.547l-3.1176 0.85867" fill="#e93535"/>
   <path d="m33.706 94.374v87.907c5.8437 1.6547 12.63 1.3248 16.915-1.1489l45.018-25.991c2.6893-1.5534 3.9048-3.6762 3.7408-5.8765l0.01396-4e-3v-72.99l-65.687 18.102" fill="#e93535"/>
   <path d="m22.028 97.584v78.547c0.57642 0.45915 1.2125 0.90539 1.935 1.3238l4.7763 2.7579c1.5076 0.8696 3.2021 1.5504 4.9801 2.0552v-87.907l-11.691 3.223" fill="#5f48a7"/>
   <path d="m22.028 97.584v78.547c0.57642 0.45915 1.2125 0.90539 1.935 1.3238l4.7763 2.7579c1.5076 0.8696 3.2021 1.5504 4.9801 2.0552v-87.907l-11.691 3.223" fill="#eb4747"/>
   <path d="m95.641 149.13-45.019 25.993c-4.2844 2.4726-11.07 2.8036-16.914 1.1479-1.779-0.50487-3.4734-1.1856-4.9801-2.0552l-4.7763-2.7589c-0.72351-0.41741-1.3586-0.86363-1.936-1.3228-2.101-1.6786-3.2439-3.5977-3.378-5.4641l-0.01789 6e-3 -0.01093 2.4796 0.02882-9e-3c0.13417 1.8654 1.2771 3.7855 3.378 5.4621 0.57742 0.46014 1.2125 0.90637 1.936 1.3248l4.7763 2.7569c1.5066 0.8716 3.2011 1.5514 4.9801 2.0552 5.8437 1.6567 12.63 1.3268 16.914-1.1469l45.019-25.991c2.6883-1.5534 3.9048-3.6762 3.7408-5.8765l0.01396-4e-3v-2.4766l-0.01396 4e-3c0.16399 2.2004-1.0525 4.3232-3.7408 5.8745" fill="#3d2b37"/>
   <path d="m95.641 85.211-45.019 25.993c-4.2844 2.4726-11.07 2.8026-16.914 1.1459-1.779-0.50387-3.4734-1.1856-4.9801-2.0533l-4.7763-2.7589c-0.72351-0.41741-1.3586-0.86463-1.936-1.3248-2.101-1.6786-3.2439-3.5967-3.378-5.4621l-0.01789 5e-3 -0.01093 2.4786 0.02882-7e-3c0.13417 1.8654 1.2771 3.7855 3.378 5.4621 0.57742 0.46015 1.2125 0.90737 1.936 1.3248l4.7763 2.7569c1.5066 0.8696 3.2011 1.5514 4.9801 2.0552 5.8437 1.6557 12.63 1.3268 16.914-1.1459l45.019-25.993c2.6883-1.5524 3.9048-3.6752 3.7408-5.8745l0.01396-4e-3v-2.4766l-0.01396 4e-3c0.16399 2.1993-1.0525 4.3222-3.7408 5.8745z" fill="#3d2b37"/>
   <path d="m95.641 81.544-45.018 25.991c-5.5893 3.229-15.442 2.8195-21.895-0.90438l-4.7763-2.7589c-6.4529-3.7269-7.1605-9.4136-1.5712-12.641l45.018-25.993c5.5893-3.226 15.442-2.8175 21.893 0.90935l4.7783 2.7569c6.4529 3.7259 7.1596 9.4136 1.5712 12.64" fill="#eb4747"/>
   <path d="m57.876 94.672c0 5.0854-7.3235 9.2078-16.358 9.2078-9.0369 0-16.361-4.1224-16.361-9.2078 0-5.0854 7.3245-9.2088 16.361-9.2088 9.0349 0 16.358 4.1234 16.358 9.2088z" fill="#ef6c6c"/>
   <path d="m93.713 74.746c0 5.0854-7.3255 9.2098-16.36 9.2098-9.0369 0-16.361-4.1244-16.361-9.2098 0-5.0854 7.3245-9.2078 16.361-9.2078 9.0349 0 16.36 4.1224 16.36 9.2078z" fill="#ef6c6c"/>
   <path d="m30.377 77.678v10.124c0 3.7438 5.3925 6.7799 12.043 6.7799 6.6537 0 12.044-3.0362 12.044-6.7799v-10.124z" fill="#3d2b37"/>
   <path d="m54.467 77.678c0 3.7438-5.3905 6.7799-12.044 6.7799-6.6507 0-12.043-3.0362-12.043-6.7799 0-3.7428 5.3925-6.7779 12.043-6.7779 6.6537 0 12.044 3.0352 12.044 6.7779z" fill="#4a3745"/>
   <path d="m50.005 76.267c0 2.3574-3.3939 4.2675-7.5829 4.2675-4.187 0-7.5819-1.9101-7.5819-4.2675 0-2.3564 3.3949-4.2675 7.5819-4.2675 4.189 0 7.5829 1.9111 7.5829 4.2675z" fill="#564253"/>
   <path d="m65.31 58v10.124c0 3.7438 5.3915 6.7789 12.044 6.7789 6.6507 0 12.043-3.0352 12.043-6.7789v-10.124h-24.087" fill="#3d2b37"/>
   <path d="m89.39 58c0 3.7448-5.3925 6.7799-12.043 6.7799-6.6527 0-12.044-3.0352-12.044-6.7799 0-3.7418 5.3915-6.7779 12.044-6.7779 6.6507 0 12.043 3.0362 12.043 6.7779z" fill="#4a3745"/>
   <path d="m60.38 176.99-8.9246-5.152v-52.768l8.9246 5.151z" fill="#4a3745"/>
   <path d="m54.149 117.73-2.7052 1.3536 8.9246 5.151 2.7072-1.3536-8.9266-5.151" fill="#564253"/>
   <path d="m54.02 113.14v65.207c0 2.8145 4.0528 5.0944 9.0528 5.0944 4.996 0 9.0488-2.2798 9.0488-5.0944v-65.207h-18.102" fill="#bbbab8"/>
   <path d="m72.127 113.14c0 2.8125-4.0538 5.0944-9.0498 5.0944-4.999 0-9.0528-2.2818-9.0528-5.0944 0-2.8135 4.0538-5.0944 9.0528-5.0944 4.996 0 9.0498 2.2808 9.0498 5.0944z" fill="#dad9d8"/>
   <path d="m69.325 111.67c0 1.8873-2.7191 3.4158-6.0723 3.4158-3.3532 0-6.0693-1.5285-6.0693-3.4158s2.7161-3.4178 6.0693-3.4178c3.3532 0 6.0723 1.5305 6.0723 3.4178z" fill="#fff"/>
   <path d="m84.928 56.857c0 2.3584-3.3949 4.2675-7.5819 4.2675-4.189 0-7.5829-1.9091-7.5829-4.2675 0-2.3574 3.3939-4.2675 7.5829-4.2675 4.187 0 7.5819 1.9101 7.5819 4.2675z" fill="#564253"/>
   <path d="m60.251 230.11c-12.717 2e-3 -22.671-3.4347-26.214-4.8419-5.4541-2.1695-8.4485-5.1232-8.8988-8.7775-0.51977-4.2417 2.6873-9.2993 8.5827-13.535l1.0882 1.5126c-5.3359 3.8312-8.2587 8.2398-7.8214 11.794 0.35877 2.9278 2.9626 5.3756 7.737 7.2738 7.9695 3.1664 49.271 16.865 80.044-24.581 12.435-16.747 5.1421-29.684-2.579-43.381-6.0385-10.717-12.285-21.799-8.4863-34.86 8.8809-30.537 9.3728-39.742 2.6178-49.244-1.7462-2.4607-4.2019-3.4784-6.5623-2.7231-2.4925 0.79407-4.1304 3.1137-4.1304 6.0067l-1.8972 0.15702c0-3.707 2.1944-6.8962 5.4601-7.9387 3.1723-1.0147 6.4082 0.26436 8.6493 3.4178 7.6098 10.71 6.1737 21.546-2.3484 50.843-3.5798 12.311 2.4697 23.045 8.3213 33.426 7.6724 13.612 15.605 27.687 2.4508 45.405-17.918 24.135-39.341 30.045-56.013 30.045" fill="#564253"/>
   <path d="m91.944 171.91c0.47108-0.27828 47.294-27.782 52.113-30.758 4.2427-2.6197 14.65-1.8823 19.616-1.5464v-2.3604l-1.0067-0.0407c-5.5893-0.37766-14.944-1.0077-19.813 1.9996-4.7982 2.9636-51.598 30.455-52.071 30.731l1.1608 1.9747" fill="#bbbab8"/>
   <path d="m93.236 166.33c0.33591-0.27032 0.80401-0.28921 1.3248 0.0109 1.0177 0.58735 1.8426 2.1616 1.8426 3.5192 0 0.75332-0.26038 1.2691-0.6599 1.4868l0.03578 0.0825-60.013 34.554-2.6247-4.9224 60.095-34.731" fill="#34242e"/>
   <path d="m36.22 204.65c0 1.3566-0.82488 1.9797-1.8426 1.3924-1.0177-0.58736-1.8406-2.1616-1.8406-3.5192 0-1.3566 0.82289-1.9797 1.8406-1.3924 1.0177 0.58735 1.8426 2.1626 1.8426 3.5192z" fill="#3d2b37"/>
   <path d="m34.938 204.11c0 0.4999-0.30511 0.73046-0.67978 0.51281-0.37467-0.21665-0.67879-0.79904-0.67879-1.2989 0-0.50188 0.30411-0.73145 0.67879-0.5138 0.37467 0.21565 0.67978 0.79805 0.67978 1.2999" fill="#564253"/>
   <path d="m163.21 138.44c0 0.65195 0.20472 1.1807 0.45617 1.1807 0.25442 0 0.45914-0.52872 0.45914-1.1807s-0.20472-1.1807-0.45914-1.1807c-0.25145 0-0.45617 0.52872-0.45617 1.1807z" fill="#9c9c9b"/>
   <path d="m33.805 202.77-1.5812 1.3148 0.91731 1.6527 1.5693-1.0992-0.90538-1.8684" fill="#564253"/>
   <path d="m80.058 106.91 9.7415-5.6251c0.98787-0.56946 1.7929-2.1099 1.7929-3.4237 0-1.3168-0.805-1.9251-1.7929-1.3556l-9.7415 5.6241c-0.98588 0.56946-1.7929 2.1109-1.7929 3.4247 0 1.3158 0.80699 1.9251 1.7929 1.3556z" fill="#fff"/>
   <path d="m80.058 153.88 9.7415-5.6241c0.98787-0.57045 1.7929-2.1109 1.7929-3.4247 0-1.3168-0.805-1.925-1.7929-1.3556l-9.7415 5.6241c-0.98588 0.56946-1.7929 2.1109-1.7929 3.4247 0 1.3168 0.80699 1.925 1.7929 1.3556z" fill="#fff"/>
   <path d="m95.622 74.746c0 0.29616-0.42834 0.53766-0.95706 0.53766-0.52872 0-0.95706-0.2415-0.95706-0.53766 0-0.29815 0.42834-0.53866 0.95706-0.53866 0.52872 0 0.95706 0.24051 0.95706 0.53866z" fill="#564253"/>
   <path d="m99.478 111.08h-0.08745c-0.71257 5.3458-0.38958 11.014-0.4343 16.404-0.04275 5.4442-0.3538 10.974 0.08247 16.404 0.01591 0.18187 0.26536 0.17989 0.28126 0 0.5148-5.4213 0.28821-10.96 0.32896-16.404 0.03777-5.3965 0.45517-11.043-0.17094-16.404z" fill="#c63b34"/>
   <path d="m19.077 136.88-0.47505-0.0249c-0.09442 4.2387-0.02782 9.4941-0.13715 13.744-0.10733 4.2506-0.39157 8.544 0.02286 12.785 0.03379 0.34783 0.55058 0.36175 0.55356 0 0.03975-4.4693 0.11429-8.9266 0.23554-13.394 0.10932-4.0031 0.05764-8.7884-0.19976-13.11" fill="#c63b34"/>
  </g>
  <g transform="matrix(.99383 0 0 .99383 -598.57 -510.83)" fill="#fff">
   <path d="m692.3 599.23c-3.368 1.508-6.5 3.737-9.689 5.602-3.221 1.883-6.463 3.732-9.718 5.556-6.509 3.647-13.15 7.06-19.632 10.749-0.261 0.149-0.033 0.519 0.232 0.397 6.942-3.212 13.654-6.991 20.284-10.8 6.157-3.537 13.112-6.885 18.601-11.405l-0.078-0.099"/>
   <path d="m656.7 593.2c-3.11 6.069-10.51 5.197-16.198 5.151l-0.02 0.072c4.136 1.811 16.195 1.112 16.407-5.171l-0.189-0.052"/>
   <path d="m692.04 573.36c-3.107 6.069-10.509 5.196-16.197 5.151l-0.02 0.071c4.138 1.81 16.197 1.113 16.409-5.17l-0.192-0.052"/>
  </g>
  <g transform="matrix(.99383 0 0 .99383 -598.57 -510.83)" fill="#c63b34">
   <path d="m700.16 655.27c-0.485 0.48-0.76 1.147-1.094 1.729-0.313 0.54-0.859 1.11-0.884 1.746-9e-3 0.279 0.307 0.433 0.535 0.307 0.582-0.316 0.843-1.164 1.114-1.741 0.284-0.602 0.611-1.243 0.62-1.919l-0.291-0.122"/>
   <path d="m697.44 654.03c-0.118-0.209-0.425-0.11-0.436 0.118-0.033 0.814 0.163 1.802 0.479 2.55 0.15 0.352 0.748 0.17 0.719-0.196-0.065-0.807-0.356-1.77-0.762-2.472"/>
   <path d="m698.04 607.34c-0.383-0.427-0.759-0.871-1.193-1.245-0.252-0.212-0.687 0.061-0.484 0.374 0.286 0.442 0.638 0.843 0.981 1.241 0.299 0.353 0.557 0.848 1.041 0.917 0.152 0.023 0.307-0.06 0.307-0.234 0-0.472-0.352-0.717-0.652-1.053z"/>
   <path d="m700.03 608.16c-0.476 0.286-0.687 0.873-0.951 1.346-0.345 0.612-0.688 1.23-0.966 1.879-0.225 0.526 0.514 1.001 0.794 0.463 0.32-0.619 0.577-1.273 0.83-1.924 0.207-0.535 0.548-1.112 0.464-1.694l-0.171-0.07"/>
   <path d="m678.42 620.44c-1.18 0.422-1.895 2.044-1.946 3.211-0.023 0.603 0.913 0.601 0.94 0 0.023-0.559 0.07-1.096 0.282-1.621 0.212-0.528 0.586-0.929 0.859-1.418l-0.135-0.172"/>
   <path d="m682.46 624.57c-0.511-0.194-1.098-0.19-1.632-0.347-0.467-0.14-0.914-0.359-1.398-0.424l-0.123 0.214c0.474 0.94 2.157 1.599 3.153 1.348 0.424-0.106 0.355-0.654 0-0.791"/>
   <path d="m678.47 671.91c-0.218-0.366-0.645-0.478-0.938-0.785-0.325-0.345-0.472-0.773-0.704-1.173-0.115-0.2-0.457-0.171-0.511 0.066-0.206 0.945 0.83 2.701 1.937 2.422 0.225-0.057 0.333-0.334 0.216-0.53"/>
   <path d="m679.21 667.38c-0.151-0.744-0.415-1.447-0.616-2.174-0.072-0.264-0.451-0.151-0.404 0.111 0.135 0.757 0.158 1.536 0.239 2.302 0.052 0.485 0.014 0.945 0.451 1.23l0.243-0.032c0.382-0.406 0.19-0.932 0.087-1.437"/>
   <path d="m651 687c-0.463 0.478-0.877 0.92-1.523 1.152-0.547 0.196-1.123 0.189-1.679 0.334l-0.07 0.27c1.179 0.957 3.335-0.018 3.955-1.229 0.217-0.426-0.325-0.895-0.683-0.527"/>
   <path d="m648.9 683.75c-0.512 0-0.833 0.952-1.06 1.319-0.208 0.334-0.433 0.659-0.663 0.979-0.224 0.311-0.456 0.527-0.42 0.924 0.021 0.213 0.179 0.332 0.39 0.296 0.754-0.129 1.25-1.453 1.543-2.075 0.086-0.183 0.71-1.443 0.21-1.443"/>
   <path d="m643.83 633.42c-0.709-0.261-1.502-0.05-2.245-0.171-0.683-0.108-1.312-0.44-1.995-0.508l-0.097 0.169c0.606 1.282 3.426 2.019 4.451 0.934 0.136-0.147 0.066-0.359-0.114-0.424z"/>
   <path d="m646.72 632.56-0.214-0.028c-0.316 0.53-0.402 1.173-0.596 1.755-0.244 0.727-0.624 1.374-0.924 2.075-0.242 0.57 0.48 1.022 0.843 0.492 0.704-1.026 1.373-3.081 0.891-4.294"/>
  </g>
  <g transform="matrix(.99383 0 0 .99383 -598.57 -510.83)" fill="#3d2b37">
   <path d="m812.16 646.94-16.464-9.506c-0.284-0.166-0.566-0.306-0.843-0.433l-77.662 44.837 8.609 17.643 88.407-51.039c-0.66-0.584-1.344-1.096-2.047-1.502"/>
   <path d="m733 714.22 10.954 22.443 73.916-42.676c2.111-1.025 3.477-3.692 3.477-7.553v-21.955c0-0.408-0.018-0.823-0.047-1.24l-88.3 50.981"/>
   <path d="m814.21 648.44-88.406 51.039 7.19 14.733 88.301-50.98c-0.392-5.476-3.303-11.448-7.085-14.792z"/>
  </g>
  <g stroke-width=".99383">
   <path d="m210.62 133.61-87.861 50.724 7.1456 14.642 87.756-50.665c-0.38958-5.4422-3.2826-11.378-7.0413-14.701z" fill="#4a3745"/>
   <path d="m186.01 122.38-6e-3 -0.0109-72.92 42.168 1.1081 2.2729 77.184-44.56c-2.0622-0.93421-3.9266-0.82886-5.3657 0.13019" fill="#3d2b37"/>
   <path d="m186.01 122.38-6e-3 -0.0109-72.92 42.168 1.1081 2.2729 77.184-44.56c-2.0622-0.93421-3.9266-0.82886-5.3657 0.13019" fill="#4a3745"/>
   <path d="m135.05 220.75-16.362-9.4474c-5.0178-2.896-9.1214-10.738-9.1214-17.429v-21.817c0-6.6885 4.1035-9.7922 9.1214-6.8962l16.362 9.4483c5.0178 2.896 9.1204 10.738 9.1204 17.427v21.818c0 6.6885-4.1025 9.7922-9.1204 6.8962z" fill="#4a3745"/>
   <path d="m135.27 219.16-16.088-9.2446c-4.7108-2.7191-8.5618-10.079-8.5618-16.357v-21.382c0-6.278 3.3731-8.542 8.0818-5.8229l15.836 9.1234c4.7108 2.7171 8.5618 10.079 8.5618 16.357v21.114c0 6.278-3.1206 8.9296-7.8294 6.2124z" fill="#3d2b37"/>
   <path d="m139.64 193.4c0-6.6616-4.0479-14.401-9.0458-17.286-2.3653-1.3665-4.512-1.3844-6.126-0.33293l-5e-3 -0.01-4.7485 2.6794 1.8555 3.9485c-7e-3 0.18584-0.0199 0.36274-0.0199 0.55356 0 6.2462 3.5609 13.44 8.1226 16.689l1.8326 3.8978 4.671-2.6615c0.19778-0.0934 0.38859-0.20373 0.57245-0.32697l0.0259-0.0149c1.7601-1.1856 2.8652-3.6652 2.8652-7.1367" fill="#bbbab8"/>
   <path d="m134.59 196.25c0 6.6597-4.0498 9.7216-9.0458 6.8386-4.996-2.8861-9.0458-10.624-9.0458-17.287 0-6.6597 4.0499-9.7216 9.0458-6.8366 4.996 2.8841 9.0458 10.622 9.0458 17.285z" fill="#dad9d8"/>
   <path d="m132.57 195.61c0-5.1709-3.1435-11.178-7.0224-13.417-1.9529-1.129-3.7189-1.0823-4.992-0.10037v-2e-3s-76.321 47.13-76.577 47.357c-0.25542 0.2266 7.1904 14.205 7.1904 14.205l78.54-42.167c1.7323-0.70463 2.8602-2.7847 2.8602-5.8755" fill="#bbbab8"/>
   <path d="m52.966 239.44c0 3.8422-2.3355 5.6102-5.2176 3.9455-2.8841-1.6657-5.2196-6.129-5.2196-9.9721 0-3.8422 2.3355-5.6082 5.2196-3.9465 2.8821 1.6667 5.2176 6.13 5.2176 9.9731z" fill="#dad9d8"/>
   <path d="m52.271 239.04c0 3.3283-2.0234 4.8578-4.5189 3.4168-2.4985-1.442-4.5209-5.31-4.5209-8.6384 0-3.3303 2.0224-4.8598 4.5209-3.4178 2.4955 1.441 4.5189 5.309 4.5189 8.6394z" fill="#9c9c9b"/>
   <path d="m194.01 142.99-4.8588-27.618c-0.4015-2.7152-1.4589-6.9618-4.832-8.9077-1.1518-0.66586-2.0572-0.71059-2.7618-0.39455l-2e-3 -4e-3 -0.0308 0.0169-0.3389 0.19777-2.898 1.6746 0.99284 2.8771c-0.82886 3.8988-4.5299 21.039-4.5299 21.039l14.728 8.5012 1.4888 4.3202 3.0431-1.7034" fill="#9c9c9b"/>
   <path d="m186.12 117.06c-0.39952-2.7161-1.4599-6.9618-4.831-8.9097-3.2538-1.8773-4.5806 1.128-4.8728 3.5748-0.0238 0.19579-4.6948 21.833-4.6948 21.833l19.255 11.117-4.8568-27.616" fill="#bbbab8"/>
   <path d="m184.64 116.55c0-2.2769-1.3854-4.9224-3.0928-5.9063-0.80898-0.46809-1.5424-0.47306-2.094-0.11429l-2e-3 -4e-3 -49.865 28.851 4.03 8.5748 49.841-28.846 0.19479-0.11032 9e-3 -4e-3v-2e-3c0.60226-0.40548 0.98091-1.2532 0.98091-2.4389" fill="#ef6c6c"/>
   <path d="m138.47 144.32c0 2.6267-1.5971 3.8352-3.5678 2.6963-1.9718-1.1379-3.5698-4.189-3.5698-6.8177s1.5981-3.8352 3.5698-2.6982c1.9708 1.1379 3.5678 4.191 3.5678 6.8196z" fill="#dad9d8"/>
   <path d="m145.23 170.95-4.8568-27.616c-0.40151-2.7161-1.4609-6.9618-4.834-8.9097-1.1499-0.66487-2.0552-0.7096-2.7619-0.39355v-4e-3l-0.0308 0.0169-0.33889 0.19777-2.898 1.6746 0.99085 2.8752c-0.82885 3.9018-4.5279 21.039-4.5279 21.039l14.726 8.5012 1.4908 4.3232 3.0411-1.7054" fill="#9c9c9b"/>
   <path d="m137.33 145.04c-0.40052-2.7161-1.459-6.9628-4.834-8.9107-3.2498-1.8764-4.5766 1.129-4.8708 3.5748-0.0238 0.19679-4.6948 21.832-4.6948 21.832l19.257 11.119-4.8578-27.616" fill="#bbbab8"/>
   <path d="m226.33 167-8.6185-4.9582-2e-3 3.4575 7.085 4.1632c0.75928 0.43629 1.0316 0.88551 1.0316 1.0803 0 0.1123-0.15503 0.31802-0.50088 0.51778l-26.019 15.023v5e-3l-33.442 19.307c-1.4142 0.81991-4.1443 0.6768-5.8427-0.30312l-6.2273-3.5967c-0.18585-0.15703-0.44523-0.17492-0.73742-6e-3 -0.56052 0.32498-1.0157 1.1946-1.0157 1.9419 0 0.32399 0.0955 0.55257 0.23654 0.70363l-6e-3 0.0149 0.0278 0.0159 0.15703 0.0915 6.0286 3.4953c1.4252 0.82389 3.216 1.2413 4.9354 1.2413 1.4728 0 2.894-0.30908 3.9803-0.93519l42.404-24.482v-6e-3l17.057-9.8469c1.296-0.74835 2.0393-1.9072 2.0393-3.1803 0-1.4361-0.93718-2.7996-2.569-3.7428" fill="#dad9d8"/>
   <path d="m226.22 161.35-8.5241-4.8926v3.552l6.9866 4.0031c0.75731 0.4353 1.0326 0.88551 1.0326 1.0803 0 0.1123-0.15504 0.31702-0.50189 0.51877l-26.019 15.023v5e-3l-33.441 19.307c-1.4142 0.81992-4.1443 0.67581-5.8427-0.30511l-6.2283-3.5957c-0.18584-0.15604-0.44424-0.17492-0.73543-7e-3 -0.56251 0.32498-1.0177 1.1946-1.0177 1.9429 0 0.32499 0.0964 0.55357 0.23752 0.70363l-7e-3 0.0139 0.0298 0.0179 0.15703 0.0915 6.0286 3.4943c1.4232 0.8229 3.214 1.2403 4.9334 1.2403 1.4729 0 2.894-0.30808 3.9823-0.93519l42.403-24.482v-5e-3l17.058-9.8478c1.295-0.74836 2.0374-1.9072 2.0374-3.1803 0-1.4351-0.9352-2.7996-2.5681-3.7428" fill="#bbbab8"/>
   <path d="m226.22 155.45-8.4933-4.9036v3.548l6.9558 4.0181c0.75731 0.4353 1.0326 0.8855 1.0326 1.0803 0 0.11429-0.15504 0.31903-0.50189 0.51779l-26.019 15.022v6e-3l-33.441 19.307c-1.4142 0.81892-4.1443 0.6768-5.8427-0.30511l-6.2283-3.5947c-0.18584-0.15702-0.44424-0.17491-0.73543-7e-3 -0.56251 0.32498-1.0177 1.1946-1.0177 1.9429 0 0.323 0.0964 0.55356 0.23752 0.70363l-7e-3 0.014 0.0298 0.0179 0.15703 0.0914 6.0286 3.4943c1.4232 0.82289 3.214 1.2413 4.9334 1.2413 1.4729 0 2.894-0.30908 3.9823-0.93618l42.403-24.482v-5e-3l17.058-9.8479c1.295-0.74836 2.0374-1.9072 2.0374-3.1803 0-1.4351-0.9352-2.7996-2.5681-3.7418" fill="#dad9d8"/>
  </g>
  <g transform="matrix(.99383 0 0 .99383 -598.57 -510.83)" fill="#34242e">
   <path d="m821.5 665.85c-0.174-3.084-0.201-6.279-1.157-9.245-1.385-4.31-4.713-8.681-9.109-10.183-0.169-0.058-0.235 0.174-0.112 0.264 5.249 3.859 8.657 7.758 9.304 14.518 0.519 5.398 0.019 10.906 0.813 16.273l0.225-0.031c0.359-3.839 0.253-7.752 0.036-11.596"/>
   <path d="m747.91 709.19c-0.175-3.085-0.202-6.279-1.157-9.246-1.386-4.312-5.099-9.394-9.499-10.896-0.167-0.058-0.236 0.174-0.112 0.264 5.248 3.859 9.046 8.471 9.693 15.232 0.52 5.397 0.063 11.488 0.401 16.33l0.225-0.033c0.357-3.837 0.666-7.81 0.449-11.651"/>
   <path d="m712.43 690.47 0.104 4e-3c0.169-4.765-0.223-10.579 6.035-11.369l5e-3 -0.047c-1.236-0.2-2.666 0.039-3.6 0.774-2.904 2.284-2.751 7.467-2.544 10.638"/>
   <path d="m750.46 728.16-0.158-0.042c-0.426 0.902-0.762 1.86-1.116 2.792-0.14 0.369 0.469 0.627 0.638 0.27 0.447-0.938 0.722-1.977 0.636-3.02"/>
   <path d="m754.56 727.55c-0.53 0.018-0.803 0.302-1.236 0.564-0.525 0.32-1.116 0.573-1.704 0.74-0.381 0.108-0.323 0.744 0.096 0.712 1.063-0.079 2.932-0.485 3.092-1.768l-0.248-0.248"/>
   <path d="m761.71 705.2c-0.232-0.729-0.781-1.909-1.633-2.039l-0.187 0.187c0.097 0.332 0.322 0.546 0.51 0.834 0.252 0.38 0.41 0.796 0.529 1.234 0.138 0.501 0.939 0.282 0.781-0.216z"/>
   <path d="m766.36 704.48c-1.097 0.384-2.736 1.371-2.752 2.707-4e-3 0.214 0.273 0.414 0.463 0.266 0.467-0.356 0.708-0.927 1.08-1.383 0.399-0.493 0.839-0.978 1.333-1.378l-0.124-0.212"/>
   <path d="m784.69 656.64-0.03 0.03c0.014 0.421 0.305 0.742 0.494 1.105 0.293 0.563 0.451 1.116 0.577 1.734 0.08 0.401 0.774 0.318 0.722-0.097-0.106-0.866-0.674-2.726-1.763-2.772"/>
   <path d="m788.53 658.29c-0.061-0.191-0.32-0.189-0.382 0-0.297 0.885-0.351 1.787-0.735 2.66-0.196 0.444 0.46 0.832 0.657 0.385 0.392-0.891 0.773-2.079 0.46-3.045"/>
   <path d="m806.97 648.07c-0.873-0.563-2.046-0.98-3.09-0.985-0.203 0-0.21 0.264-0.043 0.332 0.955 0.394 1.874 0.752 2.799 1.226 0.381 0.196 0.695-0.342 0.334-0.573"/>
   <path d="m808.4 646.85-0.332 0.045c-0.149 0.451-0.137 0.925-0.191 1.396-0.068 0.6-0.235 1.146-0.379 1.726-0.117 0.48 0.599 0.829 0.829 0.349 0.469-0.976 0.752-2.575 0.073-3.516"/>
  </g>
  <g stroke-width=".99383">
   <path d="m188.01 110.81c-0.91731-2.2053-2.7191-5-5.3905-4.8002l-0.0109 0.0805c7.246 2.3236 6.3367 13.37 8.0331 19.219l0.21268-0.0288c-0.3389-4.6283-1.0535-10.169-2.8443-14.47z" fill="#797a7b"/>
   <path d="m136.19 140.37c-0.91928-2.2053-2.7211-4.999-5.3925-4.8012l-0.0109 0.0845c7.246 2.3206 6.3366 13.368 8.0331 19.216l0.21268-0.0278c-0.33889-4.6283-1.0515-10.169-2.8424-14.471" fill="#fff"/>
   <path d="m127.29 141.2c-1.605 6.0991-3.2081 12.554-4.0598 18.805l0.12622 0.0358c1.4023-6.1528 2.9179-12.597 4.0826-18.8z" fill="#797a7b"/>
   <path d="m107.91 213.08c-8.9385 3.698-17.465 8.7248-25.97 13.315-8.9763 4.8419-18.043 9.6491-26.694 15.056l0.06758 0.11627c8.8709-4.5368 17.52-9.5328 26.298-14.253 8.7407-4.7008 17.901-8.9166 26.335-14.147l-0.0358-0.0875" fill="#797a7b"/>
  </g>
  <g transform="matrix(.99383 0 0 .99383 -598.57 -510.83)" fill="#9c9c9b">
   <path d="m733.32 708.24c-0.097-0.135-0.309-0.09-0.316 0.086-0.027 0.659 0.154 1.317 0.181 1.978 0.027 0.677-0.067 1.342-0.081 2.016-0.011 0.451 0.692 0.559 0.794 0.108 0.28-1.227 0.174-3.135-0.578-4.188z"/>
   <path d="m731.18 711.85-0.196 0.081c-0.042 0.568 0.149 1.137 0.192 1.705 0.05 0.657-0.032 1.268-0.122 1.922-0.068 0.505 0.649 0.744 0.794 0.218 0.307-1.132 0.293-3.083-0.668-3.926"/>
   <path d="m729.42 714.88h-0.063c-0.618 0.859-0.816 1.81-1.635 2.561-0.384 0.35 0.207 0.948 0.571 0.571 0.726-0.751 1.59-2.043 1.127-3.132z"/>
   <path d="m657.67 750.62-0.153 0.065c-0.052 0.616 0.135 1.234 0.198 1.845 0.066 0.643 0 1.279 0.045 1.919 0.032 0.429 0.662 0.56 0.785 0.104 0.303-1.15 0.07-3.109-0.875-3.933"/>
   <path d="m661.78 749.99c-0.286 0.485-0.448 1.022-0.719 1.514-0.307 0.556-0.702 1.021-1.092 1.519-0.264 0.33 0.165 0.799 0.476 0.476 0.808-0.836 1.624-2.241 1.604-3.435l-0.269-0.074"/>
   <path d="m710.16 724.6c-0.442 0.529-0.78 1.132-1.241 1.648-0.398 0.444-0.946 0.772-1.168 1.331-0.096 0.236 0.172 0.421 0.377 0.379 0.649-0.134 1.092-0.839 1.45-1.358 0.397-0.578 0.729-1.2 0.819-1.903l-0.237-0.097"/>
   <path d="m706.5 726.33-0.221-0.059c-0.405 0.521-0.62 1.177-0.937 1.753-0.285 0.521-0.885 1.093-0.817 1.709 0.022 0.21 0.183 0.357 0.404 0.309 0.667-0.153 0.931-0.976 1.172-1.556 0.275-0.665 0.539-1.432 0.399-2.156"/>
  </g>
  <g transform="matrix(.99383 0 0 .99383 -598.57 -510.83)" fill="#fff">
   <path d="m676.46 729.1c-4.402 2.332-20.78 12.223-24.091 15.189-0.157 0.14 0.034 0.418 0.224 0.343 4.127-1.673 20.207-12.048 24.232-14.977 0.348-0.255 0.01-0.755-0.365-0.555z"/>
   <path d="m701.85 712.53c-3.569 1.965-17.345 10.916-20.736 13.214-0.208 0.14-0.028 0.44 0.196 0.332 7.099-3.374 14.368-8.216 20.811-13.196 0.205-0.16-0.054-0.471-0.271-0.35"/>
   <path d="m721.9 694.22 0.043 0.057c6.555-3.981 12.667 5.286 14.429 10.178 0.067 0.191 0.345 0.117 0.302-0.082-0.993-4.684-9.123-16.231-14.774-10.153"/>
   <path d="m755.8 616.09c-3.677 2.257-8.942 3.678-14.808 3.678-11.108 0-20.112-5.068-20.112-11.319v2.824c0 6.251 9.004 11.319 20.112 11.319 5.866 0 11.131-1.423 14.808-3.678z"/>
  </g>
 </g>
</svg>
